<svg width="68" height="74" viewBox="-1 -69 68 74" fill="#808080" xmlns="http://www.w3.org/2000/svg"><path d="M35.2969-12.5859L35.2969-53.8594L41.8359-51.4688Q39.1641-54.5625 36.7734-59.0273Q34.3828-63.4922 32.9063-67.5000L32.9063-67.5000Q31.4297-63.4922 29.0742-59.0273Q26.7188-54.5625 24.0469-51.4688L24.0469-51.4688L30.5859-53.8594L30.5859-12.5859L26.8594-6.3984L26.8594 4.5000L32.9063-1.5469L38.9531 4.5000L38.9531-6.3984L35.2969-12.5859ZM52.3828-15.1875L60.0469-47.2500L65.8828-43.4531Q63.9844-47.0391 62.7188-51.9258Q61.4531-56.8125 60.9609-61.1016L60.9609-61.1016Q58.5703-57.5156 55.1953-53.7188Q51.8203-49.9219 48.5156-47.6016L48.5156-47.6016L55.4766-48.3750L47.8828-16.4531L42.7500-11.2500L40.2188-0.6328L47.5313-5.1328L51.9609 2.1797L54.4922-8.4375L52.3828-15.1875ZM25.6641-0.6328L23.0625-11.2500L18.1406-16.3125L10.4063-48.3750L17.3672-47.6016Q13.9922-49.9219 10.6523-53.7188Q7.3125-57.5156 4.9219-61.1016L4.9219-61.1016Q4.4297-56.8125 3.1641-51.9258Q1.8984-47.0391 0-43.4531L0-43.4531L5.8359-47.2500L13.5703-15.3984L11.3203-8.4375L13.8516 2.1797L18.3516-5.1328L25.6641-0.6328ZM37.1953-62.9297L37.0547-62.9297Q37.4766-62.0859 37.9336-61.1719Q38.3906-60.2578 38.8828-59.3438L38.8828-59.3438Q42.6094-58.5703 45.8086-56.9180Q49.0078-55.2656 51.6797-52.8750L51.6797-52.8750Q52.2422-53.5078 52.7695-54.0703Q53.2969-54.6328 53.8594-55.2656L53.8594-55.2656Q50.4844-58.2891 46.2305-60.2930Q41.9766-62.2969 37.1953-62.9297L37.1953-62.9297ZM14.1328-53.0156L14.1328-53.0156Q16.7344-55.3359 19.9688-56.9883Q23.2031-58.6406 26.7891-59.4141L26.7891-59.4141Q27.4219-60.3281 27.9141-61.2070Q28.4063-62.0859 28.8281-63L28.8281-63Q23.9063-62.3672 19.6172-60.3633Q15.3281-58.3594 11.8828-55.3359L11.8828-55.3359Q12.4453-54.7734 13.0078-54.1758Q13.5703-53.5781 14.1328-53.0156L14.1328-53.0156ZM9.6328-9.7031L10.7578-13.2891Q7.7344-17.0156 5.9766-21.6563Q4.2188-26.2969 4.2188-31.5000L4.2188-31.5000Q4.2188-33.7500 4.5703-35.9297Q4.9219-38.1094 5.5547-40.1484L5.5547-40.1484L4.5703-44.0156L3.3047-43.1719Q2.2500-40.5703 1.6523-37.5820Q1.0547-34.5938 1.0547-31.4297L1.0547-31.4297Q1.0547-28.3359 1.6172-25.3125L1.6172-25.3125Q2.2500-22.3594 3.3398-19.5820Q4.4297-16.8047 6.0469-14.3438L6.0469-14.3438Q7.6641-11.8828 9.6328-9.7031L9.6328-9.7031ZM62.2266-43.5938L61.3125-44.0156L60.2578-39.5156Q60.8203-37.6875 61.1016-35.6484Q61.3828-33.6094 61.3828-31.4297L61.3828-31.4297Q61.3828-26.3672 59.6953-21.7617Q58.0078-17.1563 54.9844-13.4297L54.9844-13.4297L56.1797-9.9141Q58.1484-12.0234 59.6953-14.4844L59.6953-14.4844Q61.2422-16.9453 62.3320-19.6875Q63.4219-22.4297 64.0547-25.3828L64.0547-25.3828Q64.6172-28.3359 64.6172-31.4297L64.6172-31.4297Q64.6172-34.6641 63.9844-37.7227Q63.3516-40.7813 62.2266-43.5938L62.2266-43.5938Z"/></svg>