<svg width="74" height="74" viewBox="-1 -69 74 74" fill="#808080" xmlns="http://www.w3.org/2000/svg"><path d="M36-67.5000L36-67.5000Q28.5469-67.5000 22.0078-64.6875L22.0078-64.6875Q15.3984-61.8750 10.5117-56.9883Q5.6250-52.1016 2.8125-45.4922L2.8125-45.4922Q0-38.9531 0-31.5000L0-31.5000Q0-24.0469 2.8125-17.5078L2.8125-17.5078Q5.6250-10.8984 10.5117-6.0117Q15.3984-1.1250 22.0078 1.6875L22.0078 1.6875Q28.5469 4.5000 36 4.5000L36 4.5000Q43.4531 4.5000 49.9922 1.6875L49.9922 1.6875Q56.6016-1.1250 61.4883-6.0117Q66.3750-10.8984 69.1875-17.5078L69.1875-17.5078Q72-24.0469 72-31.5000L72-31.5000L72-31.5000Q72-38.9531 69.1875-45.4922L69.1875-45.4922Q66.3047-52.0313 61.4180-56.9180Q56.5313-61.8047 49.9922-64.6875L49.9922-64.6875Q43.4531-67.5000 36-67.5000L36-67.5000L36-67.5000ZM36 0.8438L36 0.8438Q29.3203 0.8438 23.4141-1.6875L23.4141-1.6875Q17.5078-4.2188 13.1133-8.6133Q8.7188-13.0078 6.1875-18.9141L6.1875-18.9141Q3.6563-24.8203 3.6563-31.5000L3.6563-31.5000Q3.6563-38.1797 6.1875-44.0859L6.1875-44.0859Q8.7188-49.9922 13.1133-54.3867Q17.5078-58.7813 23.4141-61.3125L23.4141-61.3125Q29.3203-63.8438 36-63.8438L36-63.8438Q42.6797-63.8438 48.5859-61.3125L48.5859-61.3125Q54.4922-58.7813 58.8867-54.3867Q63.2813-49.9922 65.8125-44.0859L65.8125-44.0859Q68.3438-38.1797 68.3438-31.5000L68.3438-31.5000L68.3438-31.5000Q68.3438-24.8203 65.8125-18.9141L65.8125-18.9141Q63.2813-13.0078 58.8867-8.6133Q54.4922-4.2188 48.5859-1.6875L48.5859-1.6875Q42.6797 0.8438 36 0.8438L36 0.8438L36 0.8438ZM39.9375-35.4375L39.9375-35.4375Q41.5547-33.8203 41.5547-31.5000Q41.5547-29.1797 39.9375-27.5625L39.9375-27.5625Q38.3203-25.9453 36-25.9453Q33.6797-25.9453 32.0625-27.5625L32.0625-27.5625Q30.4453-29.1797 30.4453-31.5000Q30.4453-33.8203 32.0625-35.4375L32.0625-35.4375Q33.6797-37.0547 36-37.0547Q38.3203-37.0547 39.9375-35.4375L39.9375-35.4375ZM60.4688-33.6797L55.1250-33.6797Q54.7031-37.0547 53.2969-39.9375L53.2969-39.9375Q51.8203-42.8203 49.6055-45.0703Q47.3906-47.3203 44.5078-48.7969L44.5078-48.7969Q41.5547-50.2031 38.3203-50.5547L38.3203-50.5547L38.1797-50.6250L38.1797-55.9688L33.8203-55.9688L33.8203-50.6250Q30.4453-50.2031 27.5625-48.7969L27.5625-48.7969Q24.6797-47.3203 22.4297-45.1055Q20.1797-42.8906 18.7031-40.0078L18.7031-40.0078Q17.2969-37.0547 16.9453-33.8203L16.9453-33.8203L16.8750-33.6797L11.5313-33.6797L11.5313-29.3203L16.8750-29.3203Q17.2969-25.9453 18.7031-23.0625L18.7031-23.0625Q20.1797-20.1797 22.3945-17.9297Q24.6094-15.6797 27.4922-14.2031L27.4922-14.2031Q30.4453-12.7969 33.6797-12.4453L33.6797-12.4453L33.8203-12.3750L33.8203-7.0313L38.1797-7.0313L38.1797-12.3750Q41.5547-12.7969 44.4375-14.2031L44.4375-14.2031Q47.3203-15.6797 49.5703-17.8945Q51.8203-20.1094 53.2969-22.9922L53.2969-22.9922Q54.7031-25.9453 55.0547-29.1797L55.0547-29.1797L55.1250-29.3203L60.4688-29.3203L60.4688-33.6797ZM45.5625-21.9375L45.5625-21.9375Q43.7344-20.1094 41.2734-19.0547Q38.8125-18 36-18L36-18Q30.3750-18 26.4375-21.9375Q22.5000-25.8750 22.5000-31.5000L22.5000-31.5000Q22.5000-37.1250 26.4375-41.0977Q30.3750-45.0703 36-45.0703L36-45.0703Q38.8125-45.0703 41.2734-43.9805Q43.7344-42.8906 45.5625-41.0625L45.5625-41.0625L45.5625-41.0625Q47.3906-39.2344 48.4453-36.7734Q49.5000-34.3125 49.5000-31.5000L49.5000-31.5000Q49.5000-28.6875 48.4453-26.2266Q47.3906-23.7656 45.5625-21.9375L45.5625-21.9375L45.5625-21.9375Z"/></svg>