<svg width="74" height="74" viewBox="-1 -69 74 74" fill="#808080" xmlns="http://www.w3.org/2000/svg"><path d="M6.0469-56.8125L6.0469-56.8125Q7.0313-56.3906 7.9453-55.9688Q8.8594-55.5469 9.8438-55.2656L9.8438-55.2656Q10.3359-55.0547 10.8984-54.9844Q11.4609-54.9141 12.0938-54.9141L12.0938-54.9141Q12.0938-54.9141 12.1289-54.9141Q12.1641-54.9141 12.2344-54.9141L12.2344-54.9141Q18-54.9141 23.8359-54.9141L23.8359-54.9141Q29.6719-54.9141 35.4727-54.9141Q41.2734-54.9141 47.1094-54.9141L47.1094-54.9141Q52.9453-54.9141 58.7813-54.8438L58.7813-54.8438Q58.8516-54.8438 58.9219-54.8438Q58.9922-54.8438 59.0625-54.8438L59.0625-54.8438Q60.9609-54.8438 62.7188-55.4414Q64.4766-56.0391 65.9531-57.0234L65.9531-57.0234Q65.8828-56.3906 65.8477-55.8281Q65.8125-55.2656 65.7422-54.7031L65.7422-54.7031Q65.5313-53.3672 65.1094-52.1016Q64.6875-50.8359 63.9141-49.7109L63.9141-49.7109Q63.1406-48.6563 61.9453-47.9883Q60.7500-47.3203 59.4141-47.3203L59.4141-47.3203Q59.3438-47.3203 59.3086-47.3203Q59.2734-47.3203 59.2031-47.3203L59.2031-47.3203Q36-47.3203 12.8672-47.3203L12.8672-47.3203Q11.1094-47.3203 9.8438-48.0586Q8.5781-48.7969 7.7344-50.2734L7.7344-50.2734Q6.9609-51.5391 6.6094-52.9102Q6.2578-54.2813 6.1172-55.7578L6.1172-55.7578Q6.1172-56.0391 6.0820-56.2852Q6.0469-56.5313 6.0469-56.8125L6.0469-56.8125Q6.0469-56.8125 6.0820-56.8477Q6.1172-56.8828 6.0469-56.8125L6.0469-56.8125ZM9.8438-3.7969L9.8438-3.7969Q10.8984-6.5391 11.8828-9.8789Q12.8672-13.2188 13.6406-16.7344L13.6406-16.7344Q14.4141-20.1797 14.9766-23.7656Q15.5391-27.3516 15.8203-31.0781L15.8203-31.0781L18.2813-31.5000L18.2813-39.0234L16.3828-39.0234L16.3828-44.2969L22.9922-44.2969Q22.9922-43.5938 22.9922-42.9258Q22.9922-42.2578 22.9922-41.5547L22.9922-41.5547Q22.9219-37.5469 22.8516-33.5391Q22.7813-29.5313 22.5703-25.5234L22.5703-25.5234Q22.3594-20.9531 21.7266-16.6289Q21.0938-12.3047 20.0391-8.1563L20.0391-8.1563Q19.8281-7.4531 19.4766-6.3633Q19.1250-5.2734 18.7734-4.1484L18.7734-4.1484Q18.7031-4.0078 18.5977-3.8672Q18.4922-3.7266 18.3516-3.7266L18.3516-3.7266Q16.2422-3.7266 14.2031-3.7266Q12.1641-3.7266 10.1250-3.7266L10.1250-3.7266Q10.0547-3.7266 9.9844-3.7266Q9.9141-3.7266 9.8438-3.7969L9.8438-3.7969ZM48.8672-31.5000L48.8672-31.5000L51.6797-31.5000L51.6797-39.0234L48.7266-39.0234L48.7266-44.2969L55.3359-44.2969Q55.3359-43.9453 55.3359-43.6289Q55.3359-43.3125 55.3359-42.9609L55.3359-42.9609Q55.3359-37.8281 55.7227-32.8359Q56.1094-27.8438 56.8125-22.9922L56.8125-22.9922Q57.6563-17.8594 58.9922-12.8672Q60.3281-7.8750 62.0859-3.0234L62.0859-3.0234Q61.7344-3.5859 61.5586-3.6563Q61.3828-3.7266 61.2422-3.7266L61.2422-3.7266Q59.3438-3.7266 57.4453-3.7266Q55.5469-3.7266 53.6484-3.7266L53.6484-3.7266Q53.2969-3.7266 53.1211-3.8320Q52.9453-3.9375 52.8047-4.2891L52.8047-4.2891Q51.9609-6.8203 51.2578-9.8086Q50.5547-12.7969 50.1328-15.8906L50.1328-15.8906Q49.6406-19.3359 49.3242-23.0977Q49.0078-26.8594 48.8672-30.7266L48.8672-30.7266Q48.8672-31.0078 48.8672-31.1836Q48.8672-31.3594 48.8672-31.5000L48.8672-31.5000ZM50.9063-32.3438L23.7656-32.3438L23.7656-38.2500L50.9063-38.2500L50.9063-32.3438ZM59.6250-45.1406L11.6719-45.1406L11.6719-46.6875L59.6250-46.6875L59.6250-45.1406ZM11.1094-32.3438L11.1094-38.2500L17.5078-38.2500L17.5078-32.3438L11.1094-32.3438ZM32.6953-38.8125L32.6953-44.5078L39.1641-44.5078L39.1641-38.8125L32.6953-38.8125ZM56.1797-38.2500L56.1797-38.2500L60.8906-38.2500L60.8906-32.3438Q60.8203-32.3438 60.6797-32.3086Q60.5391-32.2734 60.4688-32.2734L60.4688-32.2734Q59.5547-32.2734 58.7109-32.2734Q57.8672-32.2734 57.0234-32.2734L57.0234-32.2734Q56.7422-32.2734 56.6016-32.3789Q56.4609-32.4844 56.4609-32.7656L56.4609-32.7656Q56.3906-33.9609 56.3203-35.1914Q56.2500-36.4219 56.1797-37.6172L56.1797-37.6172Q56.1797-37.7578 56.1797-37.9336Q56.1797-38.1094 56.1797-38.2500L56.1797-38.2500ZM14.9766-55.9688L14.9766-55.9688Q15.2578-56.0391 15.5039-56.1094Q15.7500-56.1797 15.9609-56.3203L15.9609-56.3203Q18.7734-58.5703 21.9023-60.1523Q25.0313-61.7344 28.5469-62.5078L28.5469-62.5078Q32.3438-63.3516 36-63.3516L36-63.3516Q39.5859-63.4219 43.0313-62.6484Q46.4766-61.8750 49.7109-60.2578L49.7109-60.2578Q53.0156-58.6406 56.0391-56.2500L56.0391-56.2500Q56.1797-56.1797 56.3906-56.1094Q56.6016-56.0391 56.7422-55.9688L56.7422-55.9688Q57.5156-55.9688 58.3242-55.9688Q59.1328-55.9688 59.9063-55.9688L59.9063-55.9688Q60.4688-56.0391 61.0313-56.1094Q61.5938-56.1797 62.0859-56.3906L62.0859-56.3906Q59.6250-58.9219 56.6719-61.0313L56.6719-61.0313Q53.7188-63.0703 50.4141-64.5117Q47.1094-65.9531 43.4531-66.7266L43.4531-66.7266Q39.8672-67.5000 36-67.5000L36-67.5000Q32.1328-67.5000 28.5469-66.7266L28.5469-66.7266Q24.8906-65.9531 21.5859-64.5117Q18.2813-63.0703 15.3281-60.9609L15.3281-60.9609Q12.3750-58.9219 9.9141-56.3203L9.9141-56.3203Q10.0547-56.2500 10.2305-56.2148Q10.4063-56.1797 10.6172-56.1797L10.6172-56.1797Q11.7422-56.1094 12.8320-56.0742Q13.9219-56.0391 14.9766-55.9688L14.9766-55.9688ZM65.9531-51.5391L66.0234-51.3984Q65.8125-50.9063 65.6367-50.5547Q65.4609-50.2031 65.2500-49.8516L65.2500-49.8516Q64.8984-49.2891 64.4766-48.7266Q64.0547-48.1641 63.5625-47.6016L63.5625-47.6016Q63.5625-47.5313 63.6328-47.4258Q63.7031-47.3203 63.7734-47.1797L63.7734-47.1797Q66.6563-42.1172 67.5000-36.7734Q68.3438-31.4297 67.4297-25.7344L67.4297-25.7344Q66.7969-21.7969 65.1094-18.2461Q63.4219-14.6953 60.9609-11.5313L60.9609-11.5313Q60.8203-11.3906 60.7500-11.2148Q60.6797-11.0391 60.6797-10.8984L60.6797-10.8984Q60.6797-10.8281 60.7148-10.7578Q60.7500-10.6875 60.7500-10.6172L60.7500-10.6172Q61.1016-9.6328 61.3828-8.6484Q61.6641-7.6641 62.0156-6.6797L62.0156-6.6797L62.0156-6.6094Q64.3359-9.0703 66.1641-11.8828L66.1641-11.8828Q67.9922-14.6953 69.2930-17.8594Q70.5938-21.0234 71.2969-24.4688L71.2969-24.4688Q72-27.9141 72-31.5000L72-31.5000Q72-37.0547 70.3828-42.1523Q68.7656-47.2500 65.9531-51.5391L65.9531-51.5391ZM11.0391-11.0391L11.0391-11.0391Q11.0391-11.0391 11.0391-11.0742Q11.0391-11.1094 11.0391-11.1094L11.0391-11.1094Q11.0391-11.2500 10.9688-11.3906Q10.8984-11.5313 10.8281-11.6719L10.8281-11.6719Q-0.6328-27.2813 7.1016-45L7.1016-45Q7.3828-45.7031 7.7344-46.3359Q8.0859-46.9688 8.4375-47.6719L8.4375-47.6719Q7.5938-48.3750 6.9609-49.2891Q6.3281-50.2031 5.9766-51.2578L5.9766-51.2578Q3.1641-47.1094 1.5820-42.0820Q0-37.0547 0-31.5000L0-31.5000Q0-27.9141 0.7031-24.5391L0.7031-24.5391Q1.3359-21.1641 2.6016-18.0352Q3.8672-14.9063 5.6953-12.0938L5.6953-12.0938Q7.4531-9.2813 9.7734-6.8906L9.7734-6.8906Q9.9844-7.5938 10.1953-8.3320Q10.4063-9.0703 10.6875-9.7734L10.6875-9.7734Q10.7578-10.0547 10.8633-10.3711Q10.9688-10.6875 11.0391-11.0391L11.0391-11.0391ZM53.5781-2.6016L53.5781-2.6016Q52.9453-2.6016 52.4883-2.7773Q52.0313-2.9531 51.8906-3.5859L51.8906-3.5859Q47.8828-1.4766 43.8750-0.4219L43.8750-0.4219Q39.8672 0.6328 35.8594 0.5977Q31.8516 0.5625 27.8438-0.4922L27.8438-0.4922Q23.8359-1.6172 19.8281-3.7266L19.8281-3.7266Q19.6172-2.9531 19.0898-2.7773Q18.5625-2.6016 17.8594-2.6016L17.8594-2.6016Q17.0156-2.6016 16.1719-2.6016Q15.3281-2.6016 14.4844-2.6016L14.4844-2.6016Q16.7344-0.9141 19.2656 0.3516L19.2656 0.3516Q21.7266 1.6875 24.4336 2.6016Q27.1406 3.5156 30.0938 4.0078L30.0938 4.0078Q32.9766 4.5000 36 4.5000L36 4.5000Q39.0234 4.5000 41.9063 4.0078L41.9063 4.0078Q44.8594 3.5156 47.5664 2.6016Q50.2734 1.6875 52.8047 0.3516L52.8047 0.3516Q55.3359-0.9844 57.5859-2.6719L57.5859-2.6719Q56.5313-2.6016 55.5469-2.6016Q54.5625-2.6016 53.5781-2.6016L53.5781-2.6016Z"/></svg>