<svg width="74" height="74" viewBox="-1 -69 74 74" fill="#603813" xmlns="http://www.w3.org/2000/svg"><path d="M69.0469-45.7734L69.1875-45.4922Q67.0781-50.4141 63.7031-54.4922L63.7031-54.4922Q60.3281-58.5703 56.0039-61.4883Q51.6797-64.4063 46.5469-66.0234L46.5469-66.0234Q41.4844-67.6406 35.8594-67.6406L35.8594-67.6406Q28.4063-67.6406 21.7969-64.7578L21.7969-64.7578Q15.2578-61.9453 10.3359-57.0234Q5.4141-52.1016 2.6016-45.5625L2.6016-45.5625Q-0.2109-38.9531-0.2109-31.5000L-0.2109-31.5000Q-0.2109-24.0469 2.6016-17.4375L2.6016-17.4375Q5.4141-10.8281 10.3359-5.9414Q15.2578-1.0547 21.7969 1.7578L21.7969 1.7578Q28.4063 4.6406 35.8594 4.6406L35.8594 4.6406Q43.3828 4.6406 49.9219 1.7578L49.9219 1.7578Q56.5313-1.0547 61.4180-5.9414Q66.3047-10.8281 69.1875-17.4375L69.1875-17.4375Q72-24.0469 72-31.5000L72-31.5000Q72-31.5000 72-31.5000Q72-31.5000 72-31.5000L72-31.5000Q72-31.5000 72-31.5000Q72-31.5000 72-31.5703L72-31.5703Q72-35.2969 71.2617-38.8828Q70.5234-42.4688 69.0469-45.7734L69.0469-45.7734ZM36 1.1953L36 1.1953Q29.2500 1.1953 23.2734-1.4063L23.2734-1.4063Q17.2969-3.9375 12.8672-8.3672Q8.4375-12.7969 5.9063-18.7734L5.9063-18.7734Q3.3047-24.7500 3.3047-31.5000L3.3047-31.5000Q3.3047-38.2500 5.9063-44.2266L5.9063-44.2266Q8.4375-50.2031 12.8672-54.6328Q17.2969-59.0625 23.2734-61.5938L23.2734-61.5938Q29.2500-64.1953 36-64.1953L36-64.1953Q42.7500-64.1953 48.7266-61.5938L48.7266-61.5938Q54.7031-59.0625 59.1328-54.6328Q63.5625-50.2031 66.0938-44.2266L66.0938-44.2266Q68.6953-38.2500 68.6953-31.5000L68.6953-31.5000Q68.6953-24.7500 66.0938-18.7734L66.0938-18.7734Q63.5625-12.7969 59.1328-8.3672Q54.7031-3.9375 48.7266-1.4063L48.7266-1.4063Q42.7500 1.1953 36 1.1953L36 1.1953ZM34.0313-4.5000L37.9688-4.5000L37.9688-8.0156Q37.5469-7.7344 37.0898-7.6289Q36.6328-7.5234 36.1406-7.5234L36.1406-7.5234Q36.1406-7.5234 36.1055-7.5234Q36.0703-7.5234 36.0703-7.5234L36.0703-7.5234Q35.5078-7.5234 34.8750-7.7695Q34.2422-8.0156 34.0313-8.0859L34.0313-8.0859L34.0313-4.5000ZM39.3047-4.5000L43.2422-4.5000L43.2422-8.7188Q43.0313-9.1406 42.7500-9.5273Q42.4688-9.9141 42.1875-10.1953L42.1875-10.1953Q42.0469-10.2656 41.9766-10.2656Q41.9063-10.2656 41.7656-10.2656L41.7656-10.2656Q41.2734-9.7734 40.6758-9.3164Q40.0781-8.8594 39.3750-8.5078L39.3750-8.5078L39.3047-4.5000ZM28.7578-9.1406L28.7578-4.5000L32.6953-4.5000L32.6953-8.5781Q31.9922-8.9297 31.4297-9.3867Q30.8672-9.8438 30.3750-10.3359L30.3750-10.3359Q30.2344-10.3359 30.0234-10.3008Q29.8125-10.2656 29.6016-10.1953L29.6016-10.1953Q29.3906-9.9844 29.1797-9.7031Q28.9688-9.4219 28.7578-9.1406L28.7578-9.1406ZM43.3125-27.0703L43.3125-27.0703L43.2422-27.0703Q43.2422-27 43.2422-27Q43.2422-27 43.2422-26.9297L43.2422-26.9297Q43.2422-27 43.2773-27.0352Q43.3125-27.0703 43.3125-27.0703L43.3125-27.0703ZM28.7578-13.5703L28.6875-13.6406Q28.5469-13.9922 28.3711-14.4141Q28.1953-14.8359 28.0547-15.2578L28.0547-15.2578Q26.9297-14.2734 25.5586-11.3555Q24.1875-8.4375 27.0703-4.5000L27.0703-4.5000L27.1406-4.5000Q25.8750-8.2266 27.3516-10.2305Q28.8281-12.2344 28.8281-12.2344L28.8281-12.2344Q28.8281-12.2344 28.8633-12.2344Q28.8984-12.2344 28.8984-12.2344L28.8984-12.2344Q29.0391-12.2344 29.1797-12.2344Q29.3203-12.2344 29.4609-12.3047L29.4609-12.3047Q29.2500-12.5859 29.0742-12.9023Q28.8984-13.2188 28.7578-13.5703L28.7578-13.5703ZM24.8203-46.0547L24.8203-46.0547Q24.6797-45.4922 24.5742-44.9297Q24.4688-44.3672 24.3281-43.8047L24.3281-43.8047Q25.8750-40.9219 28.6523-39.0234Q31.4297-37.1250 34.8750-36.7734L34.8750-36.7734Q35.1563-36.7734 35.4375-36.7734Q35.7188-36.7734 36-36.7734L36-36.7734Q36.2813-36.7734 36.5625-36.7734Q36.8438-36.7734 37.0547-36.7734L37.0547-36.7734Q39.0234-36.9141 40.7461-37.6172Q42.4688-38.3203 43.9453-39.3750L43.9453-39.3750Q45.0703-40.2891 46.0195-41.4141Q46.9688-42.5391 47.6719-43.8750L47.6719-43.8750Q47.6016-44.3672 47.4961-44.9297Q47.3906-45.4922 47.2500-46.0547L47.2500-46.0547Q46.8281-47.8828 47.6719-47.2148Q48.5156-46.5469 48.5156-48.0234L48.5156-48.0234Q48.5156-48.0234 48.6211-47.8125Q48.7266-47.6016 48.8672-47.1797L48.8672-47.1797Q49.0078-47.8125 49.0781-48.4805Q49.1484-49.1484 49.1484-49.8516L49.1484-49.8516Q49.1484-49.8516 49.1484-49.8867Q49.1484-49.9219 49.1484-49.9219L49.1484-49.9219Q49.1484-50.5547 49.0781-51.1875L49.0781-51.1875Q48.8672-52.4531 48.5508-53.5430Q48.2344-54.6328 47.8125-55.6875L47.8125-55.6875Q47.5313-56.1797 47.2500-56.6719Q46.9688-57.1641 46.6172-57.6563L46.6172-57.6563L46.6172-57.6563Q44.7891-60.1172 42.0117-61.5586Q39.2344-63 36-63L36-63Q32.7656-63 29.9883-61.5586Q27.2109-60.1172 25.4531-57.6563L25.4531-57.6563L25.3828-57.5859Q24.3984-56.2500 23.7656-54.6328Q23.1328-53.0156 22.9219-51.2578L22.9219-51.2578Q22.8516-50.5547 22.8516-49.8516L22.8516-49.8516Q22.8516-49.1484 22.9219-48.4102Q22.9922-47.6719 23.2031-46.9688L23.2031-46.9688Q23.3438-47.5313 23.4492-47.7773Q23.5547-48.0234 23.5547-48.0234L23.5547-48.0234Q23.5547-46.5469 24.3984-47.1797Q25.2422-47.8125 24.8203-46.0547L24.8203-46.0547ZM36-38.5313L36-38.5313Q31.2891-38.5313 27.9844-41.8711Q24.6797-45.2109 24.6797-49.8516L24.6797-49.8516Q24.6797-54.5625 27.9844-57.8672Q31.2891-61.1719 36-61.1719L36-61.1719Q40.7109-61.1719 44.0156-57.8672Q47.3203-54.5625 47.3203-49.8516L47.3203-49.8516Q47.3203-45.2109 44.0156-41.8711Q40.7109-38.5313 36-38.5313L36-38.5313ZM40.1484-53.5781L40.1484-53.5781Q39.2344-53.8594 38.3906-54.0703Q37.5469-54.2813 36.6328-54.2813L36.6328-54.2813Q34.8750-54.2813 31.7813-53.3672Q28.6875-52.4531 28.5469-52.3828L28.5469-52.3828L27.2109-51.9609L28.4766-51.3984Q28.6172-51.3281 31.2539-50.3438Q33.8906-49.3594 36.2109-49.3594L36.2109-49.3594L36.2109-49.3594Q36.2813-49.3594 36.4219-49.3594Q36.5625-49.3594 36.7031-49.3594L36.7031-49.3594Q37.1250-49.3594 37.6172-49.3945Q38.1094-49.4297 38.5313-49.5000L38.5313-49.5000Q38.1797-49.0781 37.8281-48.6914Q37.4766-48.3047 37.1250-47.9531L37.1250-47.9531Q35.8594-46.7578 34.2422-45.9141Q32.6250-45.0703 30.7969-44.8594L30.7969-44.8594Q30.7266-44.8594 29.9531-44.8594Q29.1797-44.8594 28.6875-45.4219L28.6875-45.4219Q28.3359-45.7031 28.2305-46.0898Q28.1250-46.4766 28.1250-47.0391L28.1250-47.0391Q28.1953-47.2500 28.3008-47.4609Q28.4063-47.6719 28.5469-47.8125L28.5469-47.8125Q28.6172-47.5313 28.7930-47.3906Q28.9688-47.2500 29.2500-47.2500L29.2500-47.2500Q29.5313-47.2500 29.7422-47.4609Q29.9531-47.6719 29.9531-47.9531L29.9531-47.9531Q29.9531-48.1641 29.8828-48.3047Q29.8125-48.4453 29.6719-48.5156L29.6719-48.5156L29.7422-48.6563Q29.1797-48.9375 28.7578-48.9023Q28.3359-48.8672 28.0547-48.7266L28.0547-48.7266Q27.4922-48.3750 27.3164-47.8125Q27.1406-47.2500 27.1406-47.1797L27.1406-47.1797L27.1406-47.1797Q27.0703-46.3359 27.2813-45.7031Q27.4922-45.0703 27.9141-44.6484L27.9141-44.6484Q28.5469-44.0859 29.2852-43.9453Q30.0234-43.8047 30.4453-43.8047L30.4453-43.8047Q30.4453-43.8047 30.4805-43.8047Q30.5156-43.8047 30.5156-43.8047L30.5156-43.8047Q30.5859-43.8047 30.6914-43.8047Q30.7969-43.8047 30.8672-43.8047L30.8672-43.8047L30.8672-43.8047Q32.9063-44.0859 34.6992-44.9648Q36.4922-45.8438 37.8281-47.2500L37.8281-47.2500Q38.3906-47.7422 38.8828-48.3750Q39.3750-49.0078 39.7969-49.7109L39.7969-49.7109L40.0781-49.7813L40.0781-45.2813Q40.0781-45.2813 40.1133-44.7539Q40.1484-44.2266 40.5703-44.0156L40.5703-44.0156Q40.9922-44.2266 41.0273-44.7539Q41.0625-45.2813 41.0625-45.2813L41.0625-45.2813L41.0625-47.3203Q41.0625-48.6563 41.3438-49.1133Q41.6250-49.5703 41.6250-49.5703L41.6250-49.5703Q41.3438-49.5703 41.2383-49.7461Q41.1328-49.9219 41.0625-50.0625L41.0625-50.0625Q41.5547-50.2734 41.9063-50.4492Q42.2578-50.6250 42.6094-50.7656L42.6094-50.7656L42.6094-50.7656Q43.1016-51.0469 43.8398-51.3984Q44.5781-51.7500 44.8594-51.7500L44.8594-51.7500L44.8594-52.8047Q44.8594-52.8047 44.4727-52.8047Q44.0859-52.8047 43.9453-52.8047L43.9453-52.8047Q42.8906-52.8047 41.9414-53.0508Q40.9922-53.2969 40.1484-53.5781L40.1484-53.5781ZM42.1172-51.6797L42.1172-51.6797Q40.5000-50.7656 38.6016-50.5898Q36.7031-50.4141 36.6328-50.4141L36.6328-50.4141L36.6328-50.4141Q36.4922-50.4141 36.4219-50.3789Q36.3516-50.3438 36.2109-50.3438L36.2109-50.3438Q34.8047-50.3438 33.0820-50.8711Q31.3594-51.3984 30.2344-51.8203L30.2344-51.8203Q31.1484-52.1016 32.4844-52.4531Q33.8203-52.8047 34.9453-53.0156L34.9453-53.0156Q34.9453-52.9453 34.9453-52.8047Q34.9453-52.6641 34.9453-52.5234L34.9453-52.5234Q34.9453-52.5234 34.9453-52.5234Q34.9453-52.5234 34.9453-52.4531L34.9453-52.4531Q34.9453-51.8906 35.4023-51.5039Q35.8594-51.1172 36.4922-51.1172L36.4922-51.1172Q37.1250-51.1172 37.5820-51.5039Q38.0391-51.8906 38.0391-52.4531L38.0391-52.4531Q38.0391-52.5234 38.0391-52.5234Q38.0391-52.5234 38.0391-52.5234L38.0391-52.5234Q38.0391-52.6641 38.0391-52.8047Q38.0391-52.9453 37.9688-53.0859L37.9688-53.0859Q38.4609-53.0156 38.9180-52.8750Q39.3750-52.7344 39.7969-52.5938L39.7969-52.5938Q40.3594-52.3828 40.9922-52.2070Q41.6250-52.0313 42.3281-51.8906L42.3281-51.8906Q42.2578-51.8203 42.1875-51.7500Q42.1172-51.6797 42.1172-51.6797L42.1172-51.6797ZM36.4922-55.9688L36.4922-55.9688Q35.0156-55.8984 33.6094-55.6172Q32.2031-55.3359 30.8672-54.8438L30.8672-54.8438Q30.4453-54.6328 29.8125-54.4922Q29.1797-54.3516 28.5469-54.2813L28.5469-54.2813L28.4766-54.2813L28.5469-53.2266Q29.3203-53.3672 30.0586-53.5430Q30.7969-53.7188 31.4297-53.9297L31.4297-53.9297Q32.5547-54.3516 33.8203-54.5977Q35.0859-54.8438 36.4922-54.9141L36.4922-54.9141Q37.1250-54.9844 37.9336-54.7383Q38.7422-54.4922 39.6563-54.2109L39.6563-54.2109Q40.7109-53.9297 41.7656-53.6484Q42.8203-53.3672 43.7344-53.3672L43.7344-53.3672Q43.7344-53.3672 43.7695-53.3672Q43.8047-53.3672 43.8047-53.3672L43.8047-53.3672Q44.0859-53.3672 44.3672-53.4023Q44.6484-53.4375 44.9297-53.5781L44.9297-53.5781L44.8594-54.4922Q44.1563-54.2109 42.6797-54.5273Q41.2031-54.8438 40.0078-55.1953L40.0078-55.1953Q39.0234-55.5469 38.1094-55.7578Q37.1953-55.9688 36.4922-55.9688L36.4922-55.9688ZM33.6094-35.2266L33.6094-35.2266Q33.3281-35.2266 33.1523-35.0508Q32.9766-34.8750 32.9766-34.5938L32.9766-34.5938Q32.9766-34.5234 32.9766-34.4531Q32.9766-34.3828 33.0469-34.3125L33.0469-34.3125Q32.9766-34.2422 32.9063-34.1367Q32.8359-34.0313 32.7656-33.9609L32.7656-33.9609Q32.3438-33.4688 32.0625-32.8359Q31.7813-32.2031 31.5703-31.5703L31.5703-31.5703Q32.5547-31.8516 33.7148-32.0273Q34.8750-32.2031 36.1406-32.2734L36.1406-32.2734Q37.4063-32.2031 38.5664-31.9922Q39.7266-31.7813 40.8516-31.4297L40.8516-31.4297Q40.5703-32.2031 40.2188-32.8359Q39.8672-33.4688 39.5156-34.0313L39.5156-34.0313Q39.4453-34.1016 39.3750-34.1719Q39.3047-34.2422 39.2344-34.3125L39.2344-34.3125Q39.3047-34.3828 39.3047-34.4531Q39.3047-34.5234 39.3047-34.5938L39.3047-34.5938Q39.3047-34.8750 39.1289-35.0508Q38.9531-35.2266 38.6719-35.2266L38.6719-35.2266Q38.5313-35.2266 38.4258-35.1563Q38.3203-35.0859 38.1797-35.0156L38.1797-35.0156Q37.8281-35.1563 37.3711-35.2266Q36.9141-35.2969 36.4219-35.2969L36.4219-35.2969Q36.3516-35.2969 36.2813-35.2969Q36.2109-35.2969 36.1406-35.2969L36.1406-35.2969Q36.0703-35.2969 36-35.2969Q35.9297-35.2969 35.8594-35.2969L35.8594-35.2969Q35.3672-35.2969 34.9102-35.2266Q34.4531-35.1563 34.0313-35.0156L34.0313-35.0156Q33.9609-35.0859 33.8555-35.1563Q33.7500-35.2266 33.6094-35.2266L33.6094-35.2266Q33.6094-35.2266 33.6094-35.2266Q33.6094-35.2266 33.6094-35.2266L33.6094-35.2266ZM35.2969-9L35.2969-9Q35.3672-9.3516 35.4023-10.3711Q35.4375-11.3906 35.4375-11.6719L35.4375-11.6719L35.4375-11.6719L35.5781-20.9531L35.5781-20.9531Q35.5781-20.9531 35.6133-21.5156Q35.6484-22.0781 35.3672-22.5000L35.3672-22.5000Q35.2266-22.6406 35.0508-22.7461Q34.8750-22.8516 34.6641-22.8516L34.6641-22.8516Q34.3828-22.8516 33.9258-22.9570Q33.4688-23.0625 32.9766-23.1328L32.9766-23.1328Q32.2031-23.3438 31.2539-23.5195Q30.3047-23.6953 29.6016-23.6953L29.6016-23.6953Q29.1797-23.6953 28.8984-23.6250Q28.6172-23.5547 28.5469-23.3438L28.5469-23.3438Q28.3359-22.9922 28.0195-19.9336Q27.7031-16.8750 29.1797-13.7813L29.1797-13.7813Q30.0234-11.8828 31.5703-10.6523Q33.1172-9.4219 35.2969-9L35.2969-9ZM39.3047-23.1328L39.3047-23.1328Q38.8125-23.0625 38.3555-22.9570Q37.8984-22.8516 37.6172-22.8516L37.6172-22.8516Q37.4063-22.8516 37.2305-22.7461Q37.0547-22.6406 36.9141-22.5000L36.9141-22.5000Q36.6328-22.0781 36.6328-21.5156Q36.6328-20.9531 36.6328-20.9531L36.6328-20.9531L36.6328-20.8828L36.8438-11.6719L36.8438-11.6719Q36.7734-11.3203 36.7734-10.9336Q36.7734-10.5469 36.7734-10.1250L36.7734-10.1250Q36.7734-9.8438 36.7734-9.5273Q36.7734-9.2109 36.7734-8.9297L36.7734-8.9297Q39.2344-9.6328 40.8867-11.0742Q42.5391-12.5156 43.3828-14.4844L43.3828-14.4844Q44.6484-17.4375 44.2969-20.1797Q43.9453-22.9219 43.7344-23.3438L43.7344-23.3438Q43.5938-23.5547 43.3477-23.6250Q43.1016-23.6953 42.6797-23.6953L42.6797-23.6953Q41.9766-23.6953 41.0273-23.5195Q40.0781-23.3438 39.3047-23.1328L39.3047-23.1328ZM47.2500-46.0547L47.2500-46.0547Q47.3906-45.4922 47.4961-44.9648Q47.6016-44.4375 47.6719-43.8750L47.6719-43.8750Q47.9531-42.8203 48.0938-41.5898Q48.2344-40.3594 48.2344-39.0938L48.2344-39.0938Q48.2344-36.8438 47.3555-35.5781Q46.4766-34.3125 44.7188-33.3984L44.7188-33.3984Q44.5781-33.3281 44.5078-33.2930Q44.4375-33.2578 44.3672-33.1875L44.3672-33.1875Q44.2969-33.1172 44.2266-33.0820Q44.1563-33.0469 44.0859-32.9766L44.0859-32.9766Q43.5234-32.6250 43.1367-32.0273Q42.7500-31.4297 42.6094-30.7266L42.6094-30.7266Q42.6094-30.6563 42.5742-30.5156Q42.5391-30.3750 42.5391-30.1641L42.5391-30.1641Q42.5391-30.0234 42.5742-29.8828Q42.6094-29.7422 42.6094-29.6016L42.6094-29.6016L42.6797-28.9688Q42.8906-28.5469 43.0313-28.0898Q43.1719-27.6328 43.2422-27.1406L43.2422-27.1406L43.3125-27.1406Q46.2656-28.1953 47.8125-30.0586Q49.3594-31.9219 49.9922-34.1016L49.9922-34.1016Q51.1172-37.8281 50.2734-41.6953Q49.4297-45.5625 48.8672-47.1797L48.8672-47.1797Q48.7266-47.6016 48.6211-47.8125Q48.5156-48.0234 48.5156-48.0234L48.5156-48.0234Q48.5156-46.5469 47.6719-47.1797Q46.8281-47.8125 47.2500-46.0547L47.2500-46.0547ZM27.7734-27.4922L27.7734-27.4922Q28.1953-27.2813 28.6172-27.1406L28.6172-27.1406L29.0391-27L29.4609-29.6719Q29.4609-29.7422 29.4609-29.8828Q29.4609-30.0234 29.4609-30.1641L29.4609-30.1641Q29.4609-30.3750 29.4609-30.5508Q29.4609-30.7266 29.3906-30.8672L29.3906-30.8672Q29.2500-31.5000 28.8984-32.0273Q28.5469-32.5547 27.9844-32.9766L27.9844-32.9766Q27.9141-33.0469 27.8086-33.1172Q27.7031-33.1875 27.5625-33.2578L27.5625-33.2578L27.3516-33.3984Q25.5938-34.3125 24.7148-35.6133Q23.8359-36.9141 23.8359-39.1641L23.8359-39.1641Q23.8359-40.4297 23.9766-41.6250Q24.1172-42.8203 24.3984-44.0156L24.3984-44.0156Q24.4688-44.3672 24.5742-44.9297Q24.6797-45.4922 24.8203-46.0547L24.8203-46.0547Q25.2422-47.8125 24.3984-47.1797Q23.5547-46.5469 23.5547-48.0234L23.5547-48.0234Q23.5547-48.0234 23.4492-47.7773Q23.3438-47.5313 23.1328-47.1094L23.1328-47.1094Q22.5703-45.4219 21.7617-41.6953Q20.9531-37.9688 22.0078-34.2422L22.0078-34.2422Q22.5703-32.2031 23.9063-30.4453Q25.2422-28.6875 27.7734-27.4922L27.7734-27.4922ZM36.1406-23.2734L36.1406-23.2734Q36.4922-23.5547 36.8789-23.7305Q37.2656-23.9063 37.6875-24.0469L37.6875-24.0469Q38.0391-24.1172 38.4258-24.1523Q38.8125-24.1875 39.1641-24.2578L39.1641-24.2578Q40.1484-24.3281 41.3789-24.5391Q42.6094-24.7500 42.7500-25.3125L42.7500-25.3125Q42.8203-25.7344 42.6797-27.2813Q42.5391-28.8281 41.4844-30.0234L41.4844-30.0234Q40.8516-30.7266 39.9023-31.0430Q38.9531-31.3594 37.6875-31.2188L37.6875-31.2188L37.6875-31.2188L37.6172-31.2188Q37.2656-31.3594 36.8789-31.4297Q36.4922-31.5000 36.1406-31.5000L36.1406-31.5000Q35.7188-31.5000 35.3320-31.4297Q34.9453-31.3594 34.6641-31.2188L34.6641-31.2188L34.5938-31.2188L34.5234-31.2188Q34.3828-31.2188 34.1719-31.2539Q33.9609-31.2891 33.7500-31.2891L33.7500-31.2891Q32.8359-31.2891 32.0625-30.9727Q31.2891-30.6563 30.7969-30.0234L30.7969-30.0234Q29.6719-28.8281 29.5313-27.2813Q29.3906-25.7344 29.5313-25.3125L29.5313-25.3125Q29.6719-24.7500 30.9023-24.5391Q32.1328-24.3281 33.0469-24.2578L33.0469-24.2578Q33.4688-24.1875 33.8555-24.1523Q34.2422-24.1172 34.5938-24.0469L34.5938-24.0469Q35.0156-23.9063 35.4023-23.7305Q35.7891-23.5547 36.1406-23.2734L36.1406-23.2734ZM26.5078-3.5156L26.5078-3.5156Q26.5781-3.3750 26.6836-3.2695Q26.7891-3.1641 26.8594-3.0938L26.8594-3.0938Q28.2656-1.6875 30.6914-0.8789Q33.1172-0.0703 36.0703-0.0703L36.0703-0.0703Q38.9531-0.0703 41.3789-0.9141Q43.8047-1.7578 45.1406-3.1641L45.1406-3.1641Q45.3516-3.3047 45.4922-3.5156L45.4922-3.5156L26.5078-3.5156ZM46.1250-27.4219L46.1250-27.4219Q46.8984-27.9844 47.8477-28.7227Q48.7969-29.4609 49.5703-30.3750L49.5703-30.3750Q50.4141-31.3594 50.8359-32.3086Q51.2578-33.2578 51.2578-34.3125L51.2578-34.3125Q51.3281-34.0313 51.3984-33.7500Q51.4688-33.4688 51.4688-33.1875L51.4688-33.1875Q51.4688-33.1875 51.4688-33.1875Q51.4688-33.1875 51.4688-33.1172L51.4688-33.1172Q51.4688-32.4141 51.0117-31.1484Q50.5547-29.8828 49.1484-28.0547L49.1484-28.0547L49.1484-28.0547L49.0781-27.9844L49.0781-27.9141Q47.4609-25.3125 46.5820-24.5391Q45.7031-23.7656 45.3516-23.6953L45.3516-23.6953Q45.3516-23.6953 45.3164-23.6953Q45.2813-23.6953 45.2109-23.6953L45.2109-23.6953Q45.2109-23.6953 45.1758-23.6953Q45.1406-23.6953 45.1406-23.6953L45.1406-23.6953Q45-23.7656 44.4023-24.2930Q43.8047-24.8203 44.2266-25.8047L44.2266-25.8047Q44.3672-26.0859 44.8594-26.5078Q45.3516-26.9297 46.1250-27.4219L46.1250-27.4219ZM57.2344-36.9141L57.2344-36.9141Q58.7109-44.6484 57.5859-48.7969L57.5859-48.7969Q56.4609-52.9453 54.5273-54.7734Q52.5938-56.6016 50.6953-56.8828L50.6953-56.8828Q48.8672-57.0938 48.8672-57.0938L48.8672-57.0938Q50.6953-54.5625 51.8203-51.6094L51.8203-51.6094Q53.0156-48.5859 53.6484-46.0547Q54.2813-43.5234 54.4922-41.7656L54.4922-41.7656Q54.7734-40.0781 54.7734-40.0781L54.7734-40.0781Q54.7734-40.0781 55.8633-39.3398Q56.9531-38.6016 57.2344-36.9141L57.2344-36.9141ZM58.7109-32.6250L58.7109-32.6250Q62.0156-37.6172 62.3672-41.4141L62.3672-41.4141Q62.6484-45.1406 61.6641-47.6367Q60.6797-50.1328 59.2734-51.3984L59.2734-51.3984Q57.9375-52.6641 57.9375-52.6641L57.9375-52.6641Q59.6250-46.5469 58.6758-41.6250Q57.7266-36.7031 57.7266-36.7031L57.7266-36.7031Q57.7266-36.7031 58.3594-35.6836Q58.9922-34.6641 58.7109-32.6250L58.7109-32.6250ZM59.5547-32.4844L59.5547-32.4844Q59.5547-32.4844 61.8047-36.4219Q64.0547-40.3594 63.2109-46.3359L63.2109-46.3359Q63.2109-46.3359 64.1250-44.4375L64.1250-44.4375Q65.0391-42.6094 65.3203-39.8672Q65.6016-37.1250 64.4063-33.9609L64.4063-33.9609Q63.1406-30.8672 58.8516-28.4063L58.8516-28.4063Q59.2734-29.0391 59.4844-29.7773Q59.6953-30.5156 59.6953-31.2891L59.6953-31.2891Q59.6953-31.6406 59.6602-31.9219Q59.6250-32.2031 59.5547-32.4844L59.5547-32.4844ZM59.7656-28.3359L59.7656-28.3359Q59.7656-28.3359 62.9648-30.7969Q66.1641-33.2578 66.1641-37.6875L66.1641-37.6875Q66.1641-37.6875 66.7266-32.4844Q67.2891-27.2813 59.1328-25.8047L59.1328-25.8047Q59.1328-25.8047 59.5547-26.4375Q59.9766-27.0703 59.7656-28.3359L59.7656-28.3359ZM59.7656-25.1719L59.8359-25.2422Q59.8359-25.2422 62.6133-26.1211Q65.3906-27 66.5156-28.9688L66.5156-28.9688Q66.5156-28.9688 65.8828-25.9453Q65.2500-22.9219 58.0781-23.1328L58.0781-23.1328Q58.6406-23.4844 59.0977-24.0117Q59.5547-24.5391 59.7656-25.1719L59.7656-25.1719ZM59.1328-22.5703L59.1328-22.5703Q59.1328-22.5703 61.4883-22.6055Q63.8438-22.6406 65.8125-23.6953L65.8125-23.6953Q65.8125-23.6953 63.8086-21.5156Q61.8047-19.3359 57.0234-20.7422L57.0234-20.7422Q57.0234-20.7422 57.9375-21.1992Q58.8516-21.6563 59.1328-22.5703L59.1328-22.5703ZM57.7969-19.9688L57.7969-19.9688Q57.7969-19.9688 60.0117-19.4414Q62.2266-18.9141 64.3359-19.4766L64.3359-19.4766Q64.3359-19.4766 61.9453-17.6133Q59.5547-15.7500 55.1953-18.6328L55.1953-18.6328Q55.9688-18.7031 56.6367-19.0547Q57.3047-19.4063 57.7969-19.9688L57.7969-19.9688ZM56.4609-17.2969L56.4609-17.2969Q57.6563-16.5234 59.0977-15.9609Q60.5391-15.3984 62.1563-15.1875L62.1563-15.1875Q63.7031-14.9766 60.7500-14.0625Q57.7969-13.1484 53.4375-16.7344L53.4375-16.7344Q53.4375-16.7344 54.4922-16.6289Q55.5469-16.5234 56.4609-17.2969L56.4609-17.2969ZM54.8438-14.9766L54.7734-14.9766Q54.7734-14.9766 56.7422-13.9570Q58.7109-12.9375 60.8906-13.1484L60.8906-13.1484Q60.8906-13.1484 58.0781-12.0938Q55.2656-11.0391 51.6797-14.7656L51.6797-14.7656Q51.9609-14.6953 52.3125-14.6602Q52.6641-14.6250 53.0156-14.6250L53.0156-14.6250Q53.5078-14.6250 53.9648-14.6953Q54.4219-14.7656 54.8438-14.9766L54.8438-14.9766ZM50.6953-13.0781L50.6953-13.0781Q50.6953-13.0781 51.1875-12.9727Q51.6797-12.8672 52.4531-13.3594L52.4531-13.3594Q53.5078-12.4453 54.8438-11.9180Q56.1797-11.3906 57.7266-11.3203L57.7266-11.3203Q59.2031-11.3203 56.0742-10.8984Q52.9453-10.4766 50.6953-13.0781L50.6953-13.0781ZM50.4141-12.8672L50.4141-12.8672Q50.4141-12.8672 51.5391-11.7070Q52.6641-10.5469 55.1953-10.3359L55.1953-10.3359Q55.1953-10.3359 53.1563-9.9492Q51.1172-9.5625 49.2891-12.4453L49.2891-12.4453Q49.2188-12.4453 49.6758-12.5156Q50.1328-12.5859 50.4141-12.8672L50.4141-12.8672ZM47.0391-12.2344L47.0391-12.2344Q47.6016-11.8828 48.1641-12.0586Q48.7266-12.2344 48.7266-12.2344L48.7266-12.2344Q48.7266-12.2344 49.6758-11.0391Q50.6250-9.8438 52.3125-9.5625L52.3125-9.5625Q52.3125-9.5625 50.6602-9.8086Q49.0078-10.0547 47.0391-12.2344L47.0391-12.2344ZM56.8125-36.0703L56.8125-36.0703Q56.8125-37.3359 55.7930-38.2852Q54.7734-39.2344 54.7734-39.2344L54.7734-39.2344Q54.9844-35.7891 54.3164-33.8555Q53.6484-31.9219 53.2969-31.2891L53.2969-31.2891Q53.4375-31.0078 53.5781-30.7266Q53.7188-30.4453 53.9297-30.0938L53.9297-30.0938Q54.4219-30.5859 55.5820-32.2031Q56.7422-33.8203 56.8125-36.0703L56.8125-36.0703ZM57.4453-35.9297L57.4453-35.9297Q57.2344-34.0313 56.3555-32.4141Q55.4766-30.7969 54.1406-29.5313L54.1406-29.5313Q54.2109-29.3203 54.3164-29.0391Q54.4219-28.7578 54.4922-28.4063L54.4922-28.4063Q58.5703-30.5859 58.0078-33.2578Q57.4453-35.9297 57.4453-35.9297L57.4453-35.9297ZM58.8516-31.7813L58.8516-31.7813Q58.2188-30.3750 56.8477-29.3203Q55.4766-28.2656 54.6328-27.7734L54.6328-27.7734Q54.7031-27.5625 54.7734-27.2461Q54.8438-26.9297 54.8438-26.6484L54.8438-26.6484Q58.7109-27.4219 58.7813-29.6016Q58.8516-31.7813 58.8516-31.7813ZM54.8438-24.9609L54.8438-24.9609Q58.6406-24.8906 58.9219-26.4023Q59.2031-27.9141 59.2031-27.9141L59.2031-27.9141Q58.3594-27.2813 57.0234-26.8242Q55.6875-26.3672 54.8438-26.1563L54.8438-26.1563Q54.9141-26.0859 54.9141-25.9805Q54.9141-25.8750 54.9141-25.7344L54.9141-25.7344Q54.9141-25.5234 54.8789-25.3477Q54.8438-25.1719 54.8438-24.9609L54.8438-24.9609ZM59.0625-25.2422L59.0625-25.2422Q58.0078-24.7500 56.7773-24.6445Q55.5469-24.5391 54.8438-24.5391L54.8438-24.5391Q54.7734-24.2578 54.7031-23.9414Q54.6328-23.6250 54.5625-23.3438L54.5625-23.3438Q57.3047-22.8516 58.1836-24.0469Q59.0625-25.2422 59.0625-25.2422ZM54.2813-22.8516L54.4219-22.8516Q54.2813-22.5000 54.1406-22.1836Q54-21.8672 53.8594-21.5859L53.8594-21.5859Q56.1094-20.5313 57.2695-21.5859Q58.4297-22.6406 58.4297-22.6406L58.4297-22.6406Q58.1484-22.6406 57.8672-22.6406Q57.5859-22.6406 57.3047-22.6406L57.3047-22.6406Q56.5313-22.6406 55.7930-22.6758Q55.0547-22.7109 54.2813-22.8516L54.2813-22.8516ZM57.0938-20.1094L57.0938-20.1094Q56.1797-20.1797 55.2656-20.4258Q54.3516-20.6719 53.5781-21.1641L53.5781-21.1641Q53.4375-20.8125 53.2266-20.5313Q53.0156-20.2500 52.8750-20.0391L52.8750-20.0391Q54.7734-18.7031 55.9336-19.4063Q57.0938-20.1094 57.0938-20.1094L57.0938-20.1094ZM51.4688-18.5625L51.3984-18.5625Q53.3672-16.7344 54.5273-17.1563Q55.6875-17.5781 55.6875-17.5781L55.6875-17.5781Q54.7734-18 53.9648-18.4922Q53.1563-18.9844 52.3828-19.6172L52.3828-19.6172Q52.1719-19.2656 51.9258-19.0195Q51.6797-18.7734 51.4688-18.5625L51.4688-18.5625ZM54.2813-15.3984L54.2813-15.4688Q53.2969-15.9609 52.3828-16.7695Q51.4688-17.5781 50.9063-18.1406L50.9063-18.1406Q50.6250-17.8594 50.2734-17.6133Q49.9219-17.3672 49.5703-17.1563L49.5703-17.1563Q50.6953-14.9766 52.4883-15.1875Q54.2813-15.3984 54.2813-15.3984L54.2813-15.3984ZM52.1016-13.7813L52.1016-13.7813Q51.1172-14.4141 50.3438-15.3633Q49.5703-16.3125 49.2188-16.8750L49.2188-16.8750Q48.7266-16.5938 48.1641-16.3125L48.1641-16.3125Q49.8516-13.6406 50.9766-13.7109Q52.1016-13.7813 52.1016-13.7813ZM50.1328-13.2891L50.1328-13.2891Q49.2891-13.9219 48.6914-14.7656Q48.0938-15.6094 47.8125-16.1016L47.8125-16.1016Q47.3203-15.8906 46.7578-15.6094L46.7578-15.6094Q48.2344-12.6563 49.1836-12.9727Q50.1328-13.2891 50.1328-13.2891ZM48.5156-12.5859L48.5156-12.5859Q47.8125-13.0078 47.2500-13.8867Q46.6875-14.7656 46.3359-15.3984L46.3359-15.3984Q45.8438-15.1875 45.2813-14.9766L45.2813-14.9766Q46.4766-12.4453 47.4961-12.5156Q48.5156-12.5859 48.5156-12.5859L48.5156-12.5859ZM44.7891-15.8203L44.7891-15.8203Q49.9219-17.7891 51.7500-20.4609L51.7500-20.4609Q53.5781-23.1328 53.6836-25.5938Q53.7891-28.0547 53.0156-29.7422L53.0156-29.7422Q52.2422-31.4297 52.2422-31.4297L52.2422-31.4297Q50.6953-26.7891 47.9180-24.0469Q45.1406-21.3047 45.1406-21.3047L45.1406-21.3047Q45.1406-21.3047 45.2461-19.2305Q45.3516-17.1563 44.7891-15.8203L44.7891-15.8203ZM26.1563-27.4219L26.1563-27.4219Q25.3828-27.9844 24.4336-28.7227Q23.4844-29.4609 22.7109-30.3750L22.7109-30.3750Q21.8672-31.3594 21.4453-32.3086Q21.0234-33.2578 21.0234-34.3125L21.0234-34.3125Q20.9531-34.0313 20.8828-33.7500Q20.8125-33.4688 20.8125-33.1875L20.8125-33.1875Q20.8125-33.1875 20.8125-33.1875Q20.8125-33.1875 20.8125-33.1172L20.8125-33.1172Q20.8125-32.4141 21.2695-31.1484Q21.7266-29.8828 23.1328-28.0547L23.1328-28.0547L23.1328-28.0547L23.2031-27.9844L23.2031-27.9141Q24.8203-25.3125 25.6992-24.5391Q26.5781-23.7656 26.9297-23.6953L26.9297-23.6953Q26.9297-23.6953 26.9648-23.6953Q27-23.6953 27.0703-23.6953L27.0703-23.6953Q27.0703-23.6953 27.1055-23.6953Q27.1406-23.6953 27.1406-23.6953L27.1406-23.6953Q27.2813-23.7656 27.8789-24.2930Q28.4766-24.8203 28.0547-25.8047L28.0547-25.8047Q27.9141-26.0859 27.4219-26.5078Q26.9297-26.9297 26.1563-27.4219L26.1563-27.4219ZM15.0469-36.9141L15.0469-36.9141Q13.5703-44.6484 14.6953-48.7969L14.6953-48.7969Q15.8203-52.9453 17.7539-54.7734Q19.6875-56.6016 21.5859-56.8828L21.5859-56.8828Q23.4141-57.0938 23.4141-57.0938L23.4141-57.0938Q21.5859-54.5625 20.4609-51.6094L20.4609-51.6094Q19.2656-48.5859 18.6328-46.0547Q18-43.5234 17.7891-41.7656L17.7891-41.7656Q17.5078-40.0781 17.5078-40.0781L17.5078-40.0781Q17.5078-40.0781 16.4180-39.3398Q15.3281-38.6016 15.0469-36.9141L15.0469-36.9141ZM13.5703-32.6250L13.5703-32.6250Q10.2656-37.6172 9.9141-41.4141L9.9141-41.4141Q9.6328-45.1406 10.6172-47.6367Q11.6016-50.1328 13.0078-51.3984L13.0078-51.3984Q14.3438-52.6641 14.3438-52.6641L14.3438-52.6641Q12.6563-46.5469 13.6055-41.6250Q14.5547-36.7031 14.5547-36.7031L14.5547-36.7031Q14.5547-36.7031 13.9219-35.6836Q13.2891-34.6641 13.5703-32.6250L13.5703-32.6250ZM12.7266-32.4844L12.7266-32.4844Q12.7266-32.4844 10.4766-36.4219Q8.2266-40.3594 9.0703-46.3359L9.0703-46.3359Q9.0703-46.3359 8.1563-44.4375L8.1563-44.4375Q7.2422-42.6094 6.9609-39.8672Q6.6797-37.1250 7.8750-33.9609L7.8750-33.9609Q9.1406-30.8672 13.4297-28.4063L13.4297-28.4063Q13.0078-29.0391 12.7969-29.7773Q12.5859-30.5156 12.5859-31.2891L12.5859-31.2891Q12.5859-31.6406 12.6211-31.9219Q12.6563-32.2031 12.7266-32.4844L12.7266-32.4844ZM12.5156-28.3359L12.5156-28.3359Q12.5156-28.3359 9.3164-30.7969Q6.1172-33.2578 6.1172-37.6875L6.1172-37.6875Q6.1172-37.6875 5.5547-32.4844Q4.9922-27.2813 13.1484-25.8047L13.1484-25.8047Q13.1484-25.8047 12.7266-26.4375Q12.3047-27.0703 12.5156-28.3359ZM12.5156-25.1719L12.5156-25.2422Q12.5156-25.2422 9.7031-26.1211Q6.8906-27 5.7656-28.9688L5.7656-28.9688Q5.7656-28.9688 6.3984-25.9453Q7.0313-22.9219 14.2031-23.1328L14.2031-23.1328Q13.6406-23.4844 13.1836-24.0117Q12.7266-24.5391 12.5156-25.1719L12.5156-25.1719ZM13.1484-22.5703L13.1484-22.5703Q13.1484-22.5703 10.7930-22.6055Q8.4375-22.6406 6.4688-23.6953L6.4688-23.6953Q6.4688-23.6953 8.4727-21.5156Q10.4766-19.3359 15.2578-20.7422L15.2578-20.7422Q15.2578-20.7422 14.3438-21.1992Q13.4297-21.6563 13.1484-22.5703L13.1484-22.5703ZM14.4844-19.9688L14.4844-19.9688Q14.4844-19.9688 12.2695-19.4414Q10.0547-18.9141 7.9453-19.4766L7.9453-19.4766Q7.9453-19.4766 10.3359-17.6133Q12.7266-15.7500 17.0859-18.6328L17.0859-18.6328Q16.3125-18.7031 15.6445-19.0547Q14.9766-19.4063 14.4844-19.9688L14.4844-19.9688ZM15.8203-17.2969L15.8203-17.2969Q14.6250-16.5234 13.1836-15.9609Q11.7422-15.3984 10.1250-15.1875L10.1250-15.1875Q8.5781-14.9766 11.5313-14.0625Q14.4844-13.1484 18.8438-16.7344L18.8438-16.7344Q18.8438-16.7344 17.8242-16.6289Q16.8047-16.5234 15.8203-17.2969L15.8203-17.2969ZM17.4375-14.9766L17.5078-14.9766Q17.5078-14.9766 15.5391-13.9570Q13.5703-12.9375 11.3906-13.1484L11.3906-13.1484Q11.3906-13.1484 14.2031-12.0938Q17.0156-11.0391 20.6016-14.7656L20.6016-14.7656Q20.3203-14.6953 19.9688-14.6602Q19.6172-14.6250 19.2656-14.6250L19.2656-14.6250Q18.8438-14.6250 18.3516-14.6953Q17.8594-14.7656 17.4375-14.9766L17.4375-14.9766ZM21.5859-13.0781L21.5859-13.0781Q21.5859-13.0781 21.0938-12.9727Q20.6016-12.8672 19.8281-13.3594L19.8281-13.3594Q18.7734-12.4453 17.4375-11.9180Q16.1016-11.3906 14.5547-11.3203L14.5547-11.3203Q13.0781-11.3203 16.2070-10.8984Q19.3359-10.4766 21.5859-13.0781L21.5859-13.0781ZM21.8672-12.8672L21.8672-12.8672Q21.8672-12.8672 20.7422-11.7070Q19.6172-10.5469 17.0859-10.3359L17.0859-10.3359Q17.0859-10.3359 19.1250-9.9492Q21.1641-9.5625 23.0625-12.4453L23.0625-12.4453Q23.0625-12.4453 22.6055-12.5156Q22.1484-12.5859 21.8672-12.8672L21.8672-12.8672ZM25.2422-12.2344L25.2422-12.2344Q24.6797-11.8828 24.1172-12.0586Q23.5547-12.2344 23.5547-12.2344L23.5547-12.2344Q23.5547-12.2344 22.6055-11.0391Q21.6563-9.8438 20.0391-9.5625L20.0391-9.5625Q20.0391-9.5625 21.6563-9.8086Q23.2734-10.0547 25.2422-12.2344L25.2422-12.2344ZM15.4688-36.0703L15.4688-36.0703Q15.4688-37.3359 16.4883-38.2852Q17.5078-39.2344 17.5078-39.2344L17.5078-39.2344Q17.2969-35.7891 17.9648-33.8555Q18.6328-31.9219 18.9844-31.2891L18.9844-31.2891Q18.8438-31.0078 18.7031-30.7266Q18.5625-30.4453 18.4219-30.0938L18.4219-30.0938Q17.8594-30.5859 16.6992-32.2031Q15.5391-33.8203 15.4688-36.0703L15.4688-36.0703ZM14.8359-35.9297L14.8359-35.9297Q15.0469-34.0313 15.9258-32.4141Q16.8047-30.7969 18.1406-29.5313L18.1406-29.5313Q18.0703-29.3203 17.9648-29.0391Q17.8594-28.7578 17.7891-28.4063L17.7891-28.4063Q13.7109-30.5859 14.2734-33.2578Q14.8359-35.9297 14.8359-35.9297L14.8359-35.9297ZM13.4297-31.7813L13.4297-31.7813Q14.0625-30.3750 15.4336-29.3203Q16.8047-28.2656 17.6484-27.7734L17.6484-27.7734Q17.5781-27.5625 17.5430-27.2461Q17.5078-26.9297 17.4375-26.6484L17.4375-26.6484Q13.5703-27.4219 13.5000-29.6016Q13.4297-31.7813 13.4297-31.7813ZM17.4375-24.9609L17.4375-24.9609Q13.6406-24.8906 13.3594-26.4023Q13.0781-27.9141 13.0781-27.9141L13.0781-27.9141Q13.9922-27.2813 15.2930-26.8242Q16.5938-26.3672 17.4375-26.1563L17.4375-26.1563Q17.4375-26.0859 17.4023-25.9805Q17.3672-25.8750 17.3672-25.7344L17.3672-25.7344Q17.3672-25.5234 17.4023-25.3477Q17.4375-25.1719 17.4375-24.9609L17.4375-24.9609ZM13.2188-25.2422L13.2188-25.2422Q14.2734-24.7500 15.5039-24.6445Q16.7344-24.5391 17.5078-24.5391L17.5078-24.5391Q17.5078-24.2578 17.5781-23.9414Q17.6484-23.6250 17.7188-23.3438L17.7188-23.3438Q14.9766-22.8516 14.0977-24.0469Q13.2188-25.2422 13.2188-25.2422ZM18-22.8516L17.8594-22.8516Q18-22.5000 18.1406-22.1836Q18.2813-21.8672 18.4219-21.5859L18.4219-21.5859Q16.1719-20.5313 15.0117-21.5859Q13.8516-22.6406 13.8516-22.6406L13.8516-22.6406Q14.1328-22.6406 14.4141-22.6406Q14.6953-22.6406 15.0469-22.6406L15.0469-22.6406Q15.7500-22.6406 16.4883-22.6758Q17.2266-22.7109 18-22.8516L18-22.8516ZM15.1875-20.1094L15.1875-20.1094Q16.1016-20.1797 17.0156-20.4258Q17.9297-20.6719 18.7031-21.1641L18.7031-21.1641Q18.9141-20.8125 19.0898-20.5313Q19.2656-20.2500 19.4766-20.0391L19.4766-20.0391Q17.5078-18.7031 16.3477-19.4063Q15.1875-20.1094 15.1875-20.1094L15.1875-20.1094ZM20.8828-18.5625L20.8828-18.5625Q18.9141-16.7344 17.7539-17.1563Q16.5938-17.5781 16.5938-17.5781L16.5938-17.5781Q17.5078-18 18.3164-18.4922Q19.1250-18.9844 19.8984-19.6172L19.8984-19.6172Q20.1094-19.2656 20.3555-19.0195Q20.6016-18.7734 20.8828-18.5625L20.8828-18.5625ZM18-15.3984L18-15.4688Q18.9844-15.9609 19.8984-16.7695Q20.8125-17.5781 21.3750-18.1406L21.3750-18.1406Q21.6563-17.8594 22.0078-17.6133Q22.3594-17.3672 22.7109-17.1563L22.7109-17.1563Q21.5859-14.9766 19.7930-15.1875Q18-15.3984 18-15.3984L18-15.3984ZM20.1797-13.7813L20.1797-13.7813Q21.1641-14.4141 21.9375-15.3633Q22.7109-16.3125 23.0625-16.8750L23.0625-16.8750Q23.5547-16.5938 24.1172-16.3125L24.1172-16.3125Q22.4297-13.6406 21.3047-13.7109Q20.1797-13.7813 20.1797-13.7813ZM22.1484-13.2891L22.1484-13.2891Q22.9922-13.9219 23.5898-14.7656Q24.1875-15.6094 24.4688-16.1016L24.4688-16.1016Q24.9609-15.8906 25.5234-15.6094L25.5234-15.6094Q24.0469-12.6563 23.0977-12.9727Q22.1484-13.2891 22.1484-13.2891ZM23.7656-12.5859L23.7656-12.5859Q24.4688-13.0078 25.0313-13.8867Q25.5938-14.7656 25.9453-15.3984L25.9453-15.3984Q26.4375-15.1875 27-14.9766L27-14.9766Q25.8047-12.4453 24.7852-12.5156Q23.7656-12.5859 23.7656-12.5859L23.7656-12.5859ZM27.4922-15.8203L27.4922-15.8203Q22.3594-17.7891 20.5313-20.4609L20.5313-20.4609Q18.7734-23.1328 18.6680-25.5938Q18.5625-28.0547 19.3359-29.7422L19.3359-29.7422Q20.1094-31.4297 20.1094-31.4297L20.1094-31.4297Q21.6563-26.7891 24.3984-24.0469Q27.1406-21.3047 27.1406-21.3047L27.1406-21.3047Q27.1406-21.3047 27.0352-19.2305Q26.9297-17.1563 27.4922-15.8203L27.4922-15.8203ZM43.3828-13.5703L43.3828-13.6406Q43.5938-13.9922 43.7344-14.4141Q43.8750-14.8359 44.0156-15.2578L44.0156-15.2578Q45.1406-14.2734 46.5469-11.3555Q47.9531-8.4375 45.0703-4.5000L45.0703-4.5000L45-4.5000Q46.2656-8.2266 44.7891-10.2305Q43.3125-12.2344 43.3125-12.2344L43.3125-12.2344Q43.2422-12.2344 43.2422-12.2344Q43.2422-12.2344 43.2422-12.2344L43.2422-12.2344Q43.1016-12.2344 42.9609-12.2344Q42.8203-12.2344 42.6797-12.3047L42.6797-12.3047Q42.8906-12.5859 43.0664-12.9023Q43.2422-13.2188 43.3828-13.5703L43.3828-13.5703Z"/></svg>