<svg width="68" height="74" viewBox="-1 -69 68 74" fill="#000" xmlns="http://www.w3.org/2000/svg"><path d="M51.6797-55.7578L51.6797-55.7578Q51.4688-55.1250 51.2227-54.5273Q50.9766-53.9297 50.8359-53.2969L50.8359-53.2969Q50.7656-53.0859 50.6602-52.7695Q50.5547-52.4531 50.6250-52.2422L50.6250-52.2422Q50.7656-52.0313 50.9766-51.8906Q51.1875-51.7500 51.3984-51.6094L51.3984-51.6094Q51.8906-51.1875 52.3477-50.8008Q52.8047-50.4141 53.2266-49.9922L53.2266-49.9922Q54.5625-48.7266 55.7578-47.3203Q56.9531-45.9141 57.9375-44.3672L57.9375-44.3672Q60.6094-40.2188 61.7344-35.3320Q62.8594-30.4453 62.3672-25.5938L62.3672-25.5938Q61.9453-20.6016 59.8359-15.9961Q57.7266-11.3906 54.2813-7.8047L54.2813-7.8047Q53.0859-6.5391 51.6797-5.4141Q50.2734-4.2891 48.7969-3.3047L48.7969-3.3047Q48.2344-3.0234 47.7070-2.7070Q47.1797-2.3906 46.6172-2.1094L46.6172-2.1094Q46.4063-2.0391 46.0898-1.8984Q45.7734-1.7578 45.6328-1.5469L45.6328-1.5469Q45.4922-1.3359 45.4570-0.9141Q45.4219-0.4922 45.4219-0.2109L45.4219-0.2109Q45.3516 0.4922 45.2109 1.2305Q45.0703 1.9688 45.0703 2.6719L45.0703 2.6719Q47.3906 1.8984 49.4648 0.6680Q51.5391-0.5625 53.4375-2.0391L53.4375-2.0391Q58.4297-5.9766 61.5938-11.5313L61.5938-11.5313Q64.6875-17.0859 65.6719-23.2031Q66.6563-29.3203 65.4609-35.5078L65.4609-35.5078Q64.1953-41.6953 60.4688-46.9688L60.4688-46.9688Q59.1328-48.7969 57.6211-50.4844Q56.1094-52.1719 54.4219-53.6484L54.4219-53.6484Q53.8594-54.1406 53.1563-54.7734Q52.4531-55.4063 51.6797-55.7578L51.6797-55.7578ZM21.0938 2.6719L21.0938 2.6719Q21.0234 1.9688 20.9180 1.2305Q20.8125 0.4922 20.7422-0.2109L20.7422-0.2109Q20.6719-0.4922 20.6719-0.9141Q20.6719-1.3359 20.4609-1.5469L20.4609-1.5469Q20.3203-1.7578 20.0039-1.8984Q19.6875-2.0391 19.4766-2.1094L19.4766-2.1094Q18.9141-2.3906 18.3867-2.7070Q17.8594-3.0234 17.2969-3.3750L17.2969-3.3750Q15.8203-4.2891 14.4141-5.4492Q13.0078-6.6094 11.7422-7.8750L11.7422-7.8750Q8.2266-11.6719 6.1172-16.4531Q4.0078-21.2344 3.6563-26.4375L3.6563-26.4375Q3.3750-31.0781 4.5000-35.6133Q5.6250-40.1484 8.0156-44.0859L8.0156-44.0859Q8.7891-45.3516 9.7031-46.5469Q10.6172-47.7422 11.6016-48.7969L11.6016-48.7969Q11.9531-49.1484 12.3047-49.5000Q12.6563-49.8516 13.0078-50.2031L13.0078-50.2031Q13.2188-50.4141 13.4297-50.5547Q13.6406-50.6953 13.7109-50.9766L13.7109-50.9766Q13.7813-51.1875 13.6758-51.5039Q13.5703-51.8203 13.5000-52.0313L13.5000-52.0313Q13.2891-52.6641 13.0430-53.2969Q12.7969-53.9297 12.4453-54.5625L12.4453-54.5625Q11.6016-54.2109 10.8281-53.3672Q10.0547-52.5234 9.4219-51.8906L9.4219-51.8906Q7.3125-49.7813 5.6602-47.2852Q4.0078-44.7891 2.8125-42.1172L2.8125-42.1172Q0.7734-37.4766 0.2109-32.4141L0.2109-32.4141Q-0.3516-27.3516 0.5273-22.4297Q1.4063-17.5078 3.6563-12.9375L3.6563-12.9375Q5.9063-8.4375 9.5625-4.7813L9.5625-4.7813Q12.0234-2.3906 14.9414-0.4922Q17.8594 1.4063 21.0938 2.6719L21.0938 2.6719ZM16.6641-46.4766L16.6641-46.4766Q16.6641-48.9375 16.1016-51.4688Q15.5391-54 14.5547-56.2500L14.5547-56.2500Q14.4141-56.6016 14.2383-56.9180Q14.0625-57.2344 13.8516-57.5859L13.8516-57.5859Q13.2891-58.6406 12.9375-59.6602Q12.5859-60.6797 13.3594-61.8750L13.3594-61.8750Q14.5547-63.7031 16.8047-64.6523Q19.0547-65.6016 21.0938-66.0938L21.0938-66.0938Q26.2969-67.4297 31.8867-67.5000Q37.4766-67.5703 42.7500-66.2344L42.7500-66.2344Q44.8594-65.7422 47.3906-64.7578Q49.9219-63.7734 51.1172-61.7344L51.1172-61.7344Q51.7500-60.5391 51.3984-59.6250Q51.0469-58.7109 50.4141-57.7266L50.4141-57.7266L50.4141-57.7266Q50.2031-57.4453 50.0273-57.1992Q49.8516-56.9531 49.7109-56.6016L49.7109-56.6016Q48.7266-54.9844 48.1992-53.1211Q47.6719-51.2578 47.3906-49.3594L47.3906-49.3594Q47.3203-49.0781 47.3203-48.7617Q47.3203-48.4453 47.2500-48.1641L47.2500-48.1641L47.2500-48.1641Q47.2500-47.6719 47.2148-47.1797Q47.1797-46.6875 47.0391-46.2656L47.0391-46.2656Q47.8828-46.6875 48.5859-46.2305Q49.2891-45.7734 49.2188-44.7891L49.2188-44.7891Q49.2188-44.3672 49.0781-43.9453Q48.9375-43.5234 48.7969-43.1016L48.7969-43.1016Q48.6563-42.8906 48.5508-42.6094Q48.4453-42.3281 48.3750-42.1172L48.3750-42.1172Q48.3047-41.7656 48.3047-41.4141Q48.3047-41.0625 48.3047-40.7109L48.3047-40.7109L48.3047-40.7109Q48.3047-40.5000 48.3047-40.3242Q48.3047-40.1484 48.2344-39.9375L48.2344-39.9375Q48.2344-39.8672 48.2344-39.7617Q48.2344-39.6563 48.2344-39.5859L48.2344-39.5859L48.2344-39.5859Q48.1641-39.2344 48.1289-38.8125Q48.0938-38.3906 48.3047-38.1797L48.3047-38.1797Q48.5156-37.8984 48.8320-37.7227Q49.1484-37.5469 49.5000-37.3359L49.5000-37.3359L49.5000-37.3359Q49.7109-37.1953 49.9219-37.0898Q50.1328-36.9844 50.2734-36.9141L50.2734-36.9141Q51.2578-36.2109 52.1367-35.3672Q53.0156-34.5234 53.7188-33.5391L53.7188-33.5391Q55.8281-30.5859 55.2305-27.3164Q54.6328-24.0469 52.1719-21.5859L52.1719-21.5859Q51.6094-20.9531 50.9063-20.3906Q50.2031-19.8281 49.5000-19.4766L49.5000-19.4766Q49.8516-18.4219 50.0273-17.3320Q50.2031-16.2422 50.4141-15.1172L50.4141-15.1172Q50.5547-14.4141 50.6953-13.6406Q50.8359-12.8672 50.9766-12.1641L50.9766-12.1641Q51.0469-12.0234 51.0469-11.9531Q51.0469-11.8828 51.0469-11.8125L51.0469-11.8125Q51.2578-10.9688 51.3281-10.1953Q51.3984-9.4219 50.8359-8.7188L50.8359-8.7188Q50.2734-7.9453 49.5000-7.4883Q48.7266-7.0313 47.8828-6.6094L47.8828-6.6094Q47.0391-6.1875 46.2305-5.7305Q45.4219-5.2734 44.9297-4.5000L44.9297-4.5000Q44.2266-3.5859 43.9805-2.2852Q43.7344-0.9844 43.5234 0.1406L43.5234 0.1406L43.5234 0.2109Q43.5234 0.2813 43.5234 0.3516Q43.5234 0.4219 43.5234 0.4922L43.5234 0.4922Q43.5234 0.6328 43.4883 0.7734Q43.4531 0.9141 43.4531 1.1250L43.4531 1.1250L43.4531 1.1250Q43.4531 1.6172 43.3828 2.1094Q43.3125 2.6016 43.1016 2.8125L43.1016 2.8125Q42.8906 3.0234 42.6094 3.1641Q42.3281 3.3047 42.0469 3.3750L42.0469 3.3750Q41.9766 3.3750 41.9414 3.4102Q41.9063 3.4453 41.9063 3.4453L41.9063 3.4453Q40.9922 3.7266 40.1133 3.9023Q39.2344 4.0781 38.3203 4.2188L38.3203 4.2188Q35.8594 4.5000 33.3633 4.5000Q30.8672 4.5000 28.4766 4.2891L28.4766 4.2891Q27.1406 4.1484 25.7344 3.9023Q24.3281 3.6563 23.2031 3.0234L23.2031 3.0234Q22.8516 2.8125 22.7813 2.2852Q22.7109 1.7578 22.6406 1.1953L22.6406 1.1953L22.6406 1.1953Q22.6406 1.0547 22.6406 0.9141Q22.6406 0.7734 22.6406 0.6328L22.6406 0.6328Q22.5703 0.4922 22.5703 0.3867Q22.5703 0.2813 22.5703 0.1406L22.5703 0.1406Q22.3594-1.1250 22.0781-2.5313Q21.7969-3.9375 20.9531-4.7813L20.9531-4.7813Q20.3906-5.3438 19.6875-5.7656Q18.9844-6.1875 18.2813-6.5391L18.2813-6.5391Q17.3672-6.9609 16.5234-7.4883Q15.6797-8.0156 15.1172-8.9297L15.1172-8.9297Q14.6250-9.5625 14.6953-10.2656Q14.7656-10.9688 14.9766-11.6719L14.9766-11.6719L14.9766-11.6719Q15.0469-11.7422 15.0469-11.8828Q15.0469-12.0234 15.1172-12.1641L15.1172-12.1641Q15.2578-12.9375 15.4336-13.7109Q15.6094-14.4844 15.7500-15.2578L15.7500-15.2578Q15.8906-16.1719 16.1016-17.1211Q16.3125-18.0703 16.5234-18.9844L16.5234-18.9844Q15.6797-19.2656 14.8711-19.8984Q14.0625-20.5313 13.3594-21.0938L13.3594-21.0938Q10.6875-23.5547 9.9492-26.8945Q9.2109-30.2344 11.3203-33.3984L11.3203-33.3984Q11.9531-34.3125 12.7266-35.1211Q13.5000-35.9297 14.4141-36.5625L14.4141-36.5625Q14.4844-36.6328 14.6602-36.7383Q14.8359-36.8438 14.9766-36.9141L14.9766-36.9141L14.9766-36.9141Q15.3984-37.1250 15.7500-37.4063Q16.1016-37.6875 16.2422-37.9688L16.2422-37.9688Q16.4531-38.3906 16.4531-38.8828Q16.4531-39.3750 16.3828-39.8672L16.3828-39.8672Q16.3828-40.0078 16.3828-40.1484Q16.3828-40.2891 16.3828-40.4297L16.3828-40.4297Q16.3828-40.5703 16.3828-40.6758Q16.3828-40.7813 16.3828-40.9219L16.3828-40.9219Q16.3828-41.2031 16.3828-41.5195Q16.3828-41.8359 16.3125-42.1172L16.3125-42.1172Q16.2422-42.3281 16.1367-42.5742Q16.0313-42.8203 15.8906-43.0313L15.8906-43.0313Q15.7500-43.4531 15.6094-43.8750Q15.4688-44.2969 15.3984-44.7188L15.3984-44.7188Q15.3281-45.2109 15.7148-45.8438Q16.1016-46.4766 16.6641-46.4766L16.6641-46.4766ZM17.6484-44.8594L17.6484-44.8594L17.5781-44.8594L16.6641-45.6328Q16.2422-45 16.4180-44.3672Q16.5938-43.7344 16.8047-43.1016L16.8047-43.1016Q16.9453-42.8906 17.0156-42.6445Q17.0859-42.3984 17.1563-42.1875L17.1563-42.1875Q17.2266-41.9766 17.2266-41.7305Q17.2266-41.4844 17.2266-41.2734L17.2266-41.2734L17.2266-41.2734Q17.2266-41.1328 17.2266-40.9570Q17.2266-40.7813 17.2266-40.6406L17.2266-40.6406L17.2266-40.6406Q17.2969-39.7266 17.3672-38.8125Q17.4375-37.8984 17.3672-37.0547L17.3672-37.0547Q17.3672-36.8438 17.2617-36.5977Q17.1563-36.3516 17.0156-36.1406L17.0156-36.1406L17.0156-36.1406Q16.8750-35.6484 16.7344-35.2266Q16.5938-34.8047 16.8750-34.3828L16.8750-34.3828Q17.0156-34.1719 17.2266-34.2070Q17.4375-34.2422 17.6484-34.3828L17.6484-34.3828Q17.7891-34.3828 17.8945-34.4531Q18-34.5234 18.0703-34.5234L18.0703-34.5234Q18.2813-34.5234 18.5273-34.4180Q18.7734-34.3125 18.9844-34.2422L18.9844-34.2422L18.9844-34.2422Q19.0547-34.1719 19.1250-34.1367Q19.1953-34.1016 19.2656-34.0313L19.2656-34.0313Q19.3359-34.1016 19.3359-34.1367Q19.3359-34.1719 19.4063-34.1719L19.4063-34.1719L19.4063-34.1719Q19.4766-34.3828 19.6172-34.6289Q19.7578-34.8750 19.7578-35.1563L19.7578-35.1563Q19.7578-35.3672 19.5820-35.6484Q19.4063-35.9297 19.2656-36.1406L19.2656-36.1406Q19.0547-36.3516 18.9141-36.5977Q18.7734-36.8438 18.7734-37.0547L18.7734-37.0547Q18.6328-37.6875 18.6328-38.2852Q18.6328-38.8828 18.6328-39.5156L18.6328-39.5156Q18.6328-39.7266 18.6328-39.9375Q18.6328-40.1484 18.6328-40.3594L18.6328-40.3594Q18.6328-40.5703 18.6328-40.7461Q18.6328-40.9219 18.6328-41.1328L18.6328-41.1328Q18.5625-41.4844 18.5625-41.8008Q18.5625-42.1172 18.6328-42.4688L18.6328-42.4688Q18.6328-42.7500 18.7383-43.0313Q18.8438-43.3125 18.9141-43.5938L18.9141-43.5938Q19.1250-44.0859 19.2305-44.5781Q19.3359-45.0703 18.9844-45.7031L18.9844-45.7031Q18.6328-45.5625 18.2813-45.3516Q17.9297-45.1406 17.6484-44.8594L17.6484-44.8594ZM45.6328-45.6328L45.6328-45.6328Q45.3516-45.0703 45.4219-44.6133Q45.4922-44.1563 45.7031-43.6641L45.7031-43.6641Q45.7734-43.4531 45.8789-43.2070Q45.9844-42.9609 45.9844-42.6797L45.9844-42.6797Q46.0547-42.1875 46.0547-41.6953Q46.0547-41.2031 46.0547-40.7109L46.0547-40.7109Q45.9844-40.5000 45.9844-40.2539Q45.9844-40.0078 45.9844-39.7969L45.9844-39.7969Q45.9844-39.5859 45.9844-39.3750Q45.9844-39.1641 45.9844-38.9531L45.9844-38.9531L45.9844-38.9531Q46.0547-38.5313 46.0547-38.0742Q46.0547-37.6172 45.9844-37.1953L45.9844-37.1953Q45.9141-36.9844 45.7734-36.7383Q45.6328-36.4922 45.4219-36.2109L45.4219-36.2109L45.4219-36.2109Q45.2813-35.9297 45.1055-35.6836Q44.9297-35.4375 44.9297-35.1563L44.9297-35.1563Q44.9297-34.9453 45-34.7344Q45.0703-34.5234 45.2109-34.3828L45.2109-34.3828L45.2109-34.3828Q45.2109-34.3125 45.2461-34.2773Q45.2813-34.2422 45.2813-34.1719L45.2813-34.1719L46.5469-34.5938L47.5313-34.1719Q47.7422-34.7344 47.6719-35.1563Q47.6016-35.5781 47.4609-36L47.4609-36L47.4609-36Q47.3203-36.2813 47.2500-36.5625Q47.1797-36.8438 47.1094-37.1250L47.1094-37.1250Q47.1094-37.7578 47.1445-38.3906Q47.1797-39.0234 47.2500-39.6563L47.2500-39.6563Q47.2500-39.7969 47.2500-39.9727Q47.2500-40.1484 47.2500-40.2891L47.2500-40.2891Q47.2500-40.5000 47.2500-40.6758Q47.2500-40.8516 47.2500-40.9922L47.2500-40.9922L47.2500-40.9922Q47.2500-41.2734 47.2500-41.5547Q47.2500-41.8359 47.3203-42.1172L47.3203-42.1172Q47.3906-42.3984 47.4961-42.6445Q47.6016-42.8906 47.6719-43.1719L47.6719-43.1719Q47.9531-43.7344 48.0938-44.3320Q48.2344-44.9297 47.8828-45.5625L47.8828-45.5625L47.0391-44.7891L45.6328-45.6328ZM40.7109-43.7344L40.7109-43.7344Q40.3594-43.0313 40.4648-42.5391Q40.5703-42.0469 40.8516-41.5547L40.8516-41.5547Q40.9219-41.3438 41.0273-41.0977Q41.1328-40.8516 41.2031-40.5703L41.2031-40.5703Q41.2734-40.2891 41.2734-39.9727Q41.2734-39.6563 41.2734-39.3047L41.2734-39.3047L41.2734-39.3047Q41.2734-39.1641 41.2383-39.0586Q41.2031-38.9531 41.2031-38.8125L41.2031-38.8125Q41.2031-38.5313 41.2383-38.2500Q41.2734-37.9688 41.2734-37.6875L41.2734-37.6875L41.2734-37.6875Q41.2734-37.0547 41.3086-36.3867Q41.3438-35.7188 41.2031-35.1563L41.2031-35.1563Q41.1328-34.8750 41.0273-34.5586Q40.9219-34.2422 40.7813-33.9609L40.7813-33.9609Q40.6406-33.5391 40.4648-33.1172Q40.2891-32.6953 40.2891-32.3438L40.2891-32.3438Q40.2891-32.2031 40.3242-32.0977Q40.3594-31.9922 40.4297-31.9219L40.4297-31.9219Q40.6406-31.3594 40.8867-31.3945Q41.1328-31.4297 41.3438-31.6406L41.3438-31.6406Q41.5547-31.7813 41.6953-31.8867Q41.8359-31.9922 42.0469-31.9922L42.0469-31.9922Q42.1875-31.9922 42.3984-31.8867Q42.6094-31.7813 42.7500-31.7109L42.7500-31.7109Q43.1016-31.5000 43.3828-31.3945Q43.6641-31.2891 43.8750-31.7813L43.8750-31.7813Q44.0859-32.2734 43.9453-32.7305Q43.8047-33.1875 43.5938-33.6797L43.5938-33.6797L43.5938-33.6797Q43.4531-33.8906 43.3477-34.1367Q43.2422-34.3828 43.1719-34.6641L43.1719-34.6641Q43.0313-35.2969 42.9961-36.1055Q42.9609-36.9141 43.0313-37.6172L43.0313-37.6172Q43.0313-37.8984 43.0313-38.1094Q43.0313-38.3203 43.0313-38.5313L43.0313-38.5313Q43.0313-38.6719 43.0313-38.8125Q43.0313-38.9531 42.9609-39.0938L42.9609-39.0938Q42.9609-39.4453 42.9609-39.8320Q42.9609-40.2188 43.0313-40.5000L43.0313-40.5000Q43.1016-40.8516 43.2422-41.0977Q43.3828-41.3438 43.5938-41.6250L43.5938-41.6250Q43.8047-42.0469 43.9805-42.4688Q44.1563-42.8906 43.7344-43.4531L43.7344-43.4531Q43.4531-43.8047 43.2070-43.7344Q42.9609-43.6641 42.6797-43.5234L42.6797-43.5234L42.6797-43.5234Q42.5391-43.4531 42.3633-43.3828Q42.1875-43.3125 42.0469-43.3125L42.0469-43.3125Q41.7656-43.3125 41.5547-43.3828Q41.3438-43.4531 41.1328-43.5938L41.1328-43.5938Q40.9922-43.6641 40.9219-43.6992Q40.8516-43.7344 40.7109-43.7344L40.7109-43.7344ZM21.7266-43.4531L21.7266-43.4531Q21.4453-43.3828 21.1992-42.9609Q20.9531-42.5391 21.0234-42.2578L21.0234-42.2578Q21.0234-42.0469 21.1992-41.8008Q21.3750-41.5547 21.5156-41.2734L21.5156-41.2734L21.5156-41.2734Q21.6563-41.1328 21.7266-40.9922Q21.7969-40.8516 21.8672-40.7109L21.8672-40.7109Q22.0781-40.3594 22.1133-40.0078Q22.1484-39.6563 22.1484-39.2344L22.1484-39.2344Q22.1484-39.1641 22.1484-39.1289Q22.1484-39.0938 22.1484-39.0234L22.1484-39.0234Q22.1484-38.7422 22.1484-38.4961Q22.1484-38.2500 22.1484-37.9688L22.1484-37.9688L22.1484-37.9688Q22.1484-36.9844 22.1484-36.0352Q22.1484-35.0859 21.9375-34.1719L21.9375-34.1719Q21.8672-33.8906 21.7266-33.6094Q21.5859-33.3281 21.4453-33.0469L21.4453-33.0469Q21.3750-32.9063 21.2695-32.7305Q21.1641-32.5547 21.0938-32.3438L21.0938-32.3438Q21.0234-32.0625 21.1641-31.6406Q21.3047-31.2188 21.5156-31.1484L21.5156-31.1484Q21.7266-31.0078 21.9727-31.1133Q22.2188-31.2188 22.4297-31.3594L22.4297-31.3594Q22.5703-31.5000 22.7461-31.6055Q22.9219-31.7109 23.1328-31.7109L23.1328-31.7109Q23.2734-31.7109 23.3789-31.6055Q23.4844-31.5000 23.6250-31.3594L23.6250-31.3594Q23.7656-31.2891 23.9063-31.1484Q24.0469-31.0078 24.2578-31.0781L24.2578-31.0781Q24.5391-31.1484 24.6797-31.5000Q24.8203-31.8516 24.8203-32.1328L24.8203-32.1328Q24.7500-32.4844 24.6445-32.8359Q24.5391-33.1875 24.3984-33.5391L24.3984-33.5391L24.3984-33.5391Q24.1875-33.8906 24.0469-34.2422Q23.9063-34.5938 23.9063-35.0156L23.9063-35.0156Q23.8359-35.5781 23.8359-36.2109Q23.8359-36.8438 23.9063-37.4063L23.9063-37.4063L23.9063-37.4063Q23.9063-37.6875 23.9063-38.0039Q23.9063-38.3203 23.9063-38.6016L23.9063-38.6016Q23.9063-38.6719 23.9063-38.8125Q23.9063-38.9531 23.9063-39.0938L23.9063-39.0938Q23.8359-39.4453 23.8359-39.7617Q23.8359-40.0781 23.9766-40.3594L23.9766-40.3594Q23.9766-40.5000 24.0820-40.6758Q24.1875-40.8516 24.2578-40.9922L24.2578-40.9922Q24.5391-41.5547 24.7500-42.1875Q24.9609-42.8203 24.3984-43.3125L24.3984-43.3125Q24.2578-43.4531 24.0469-43.3828Q23.8359-43.3125 23.6250-43.1719L23.6250-43.1719Q23.4844-43.1016 23.3438-43.0664Q23.2031-43.0313 23.0625-43.0313L23.0625-43.0313Q22.9219-43.0313 22.7813-43.1016Q22.6406-43.1719 22.5000-43.2422L22.5000-43.2422Q22.2891-43.3125 22.0781-43.4180Q21.8672-43.5234 21.7266-43.4531L21.7266-43.4531ZM37.5469-42.1875L37.5469-42.1875L37.5469-42.1875Q37.2656-42.0469 36.9492-41.9414Q36.6328-41.8359 36.3516-41.8359L36.3516-41.8359Q36.0703-41.8359 35.8242-41.9414Q35.5781-42.0469 35.3672-42.1172L35.3672-42.1172L35.3672-42.1172Q34.9453-42.3281 34.5938-42.3281Q34.2422-42.3281 33.8203-41.6953L33.8203-41.6953Q33.6094-41.2734 33.8203-40.8516Q34.0313-40.4297 34.3828-40.0078L34.3828-40.0078Q34.5938-39.7266 34.7695-39.4805Q34.9453-39.2344 35.0156-38.9531L35.0156-38.9531Q35.1563-38.3203 35.1211-37.6172Q35.0859-36.9141 35.0859-36.2109L35.0859-36.2109Q35.0156-36 35.0156-35.7539Q35.0156-35.5078 35.0156-35.2969L35.0156-35.2969Q34.9453-35.0859 34.9805-34.8750Q35.0156-34.6641 35.0156-34.4531L35.0156-34.4531Q35.0156-34.0313 34.9805-33.5742Q34.9453-33.1172 34.8750-32.6953L34.8750-32.6953Q34.8047-32.4141 34.6641-32.1680Q34.5234-31.9219 34.3125-31.6406L34.3125-31.6406Q34.0313-31.1484 33.8203-30.6563Q33.6094-30.1641 33.8906-29.6719L33.8906-29.6719Q34.2422-29.1094 34.6289-29.2148Q35.0156-29.3203 35.4375-29.5313L35.4375-29.5313Q35.6484-29.6719 35.8945-29.7773Q36.1406-29.8828 36.3516-29.8828L36.3516-29.8828Q36.5625-29.8828 36.7734-29.7773Q36.9844-29.6719 37.1953-29.5313L37.1953-29.5313Q37.4766-29.3203 37.7578-29.2500Q38.0391-29.1797 38.3906-29.6719L38.3906-29.6719Q38.5313-29.8125 38.6016-29.9180Q38.6719-30.0234 38.6719-30.1641L38.6719-30.1641Q38.6719-30.3750 38.5664-30.5859Q38.4609-30.7969 38.3203-30.9375L38.3203-30.9375Q38.3203-31.0781 38.2852-31.1484Q38.2500-31.2188 38.1797-31.2891L38.1797-31.2891Q37.9688-31.7109 37.7930-32.2383Q37.6172-32.7656 37.4766-33.2578L37.4766-33.2578Q37.3359-33.8203 37.3359-34.4883Q37.3359-35.1563 37.3359-35.8594L37.3359-35.8594L37.3359-35.8594Q37.4063-36.1406 37.4063-36.4219Q37.4063-36.7031 37.4063-36.9141L37.4063-36.9141Q37.4063-37.0547 37.4063-37.1953Q37.4063-37.3359 37.4063-37.5469L37.4063-37.5469L37.4063-37.5469Q37.3359-37.8984 37.3359-38.2852Q37.3359-38.6719 37.4766-39.0234L37.4766-39.0234Q37.5469-39.2344 37.6523-39.4453Q37.7578-39.6563 37.9688-39.8672L37.9688-39.8672Q38.1797-40.2188 38.3906-40.6055Q38.6016-40.9922 38.5313-41.4141L38.5313-41.4141Q38.4609-41.6250 38.3555-41.8359Q38.2500-42.0469 38.1094-42.2578L38.1094-42.2578Q38.1094-42.2578 38.0742-42.2930Q38.0391-42.3281 38.0391-42.3984L38.0391-42.3984Q37.8984-42.3281 37.7930-42.2930Q37.6875-42.2578 37.5469-42.1875L37.5469-42.1875ZM30.6563-41.5547L30.6563-41.5547Q30.4453-41.5547 30.2344-41.4844Q30.0234-41.4141 29.8125-41.2734L29.8125-41.2734Q29.6016-41.2031 29.4258-41.1328Q29.2500-41.0625 29.0391-40.9922L29.0391-40.9922Q28.8281-40.9922 28.6523-41.0625Q28.4766-41.1328 28.2656-41.2031L28.2656-41.2031Q27.9141-41.3438 27.5977-41.4141Q27.2813-41.4844 27.1406-41.2734L27.1406-41.2734Q26.6484-40.6406 26.8594-40.1836Q27.0703-39.7266 27.3516-39.2344L27.3516-39.2344Q27.4922-38.9531 27.6328-38.7070Q27.7734-38.4609 27.8438-38.1797L27.8438-38.1797Q27.9141-37.8281 27.9141-37.4063Q27.9141-36.9844 27.9141-36.6328L27.9141-36.6328L27.9141-36.6328Q27.9141-36.4219 27.9141-36.2461Q27.9141-36.0703 27.9141-35.9297L27.9141-35.9297Q27.9141-35.6484 27.9141-35.4023Q27.9141-35.1563 27.9141-34.8750L27.9141-34.8750L27.9141-34.8750Q27.9844-34.1016 27.9492-33.2930Q27.9141-32.4844 27.7031-31.8516L27.7031-31.8516Q27.6328-31.7109 27.5625-31.5352Q27.4922-31.3594 27.3516-31.1484L27.3516-31.1484L27.3516-31.1484Q27.0703-30.5859 26.8242-29.9531Q26.5781-29.3203 26.8594-28.8984L26.8594-28.8984Q26.9297-28.7578 27-28.6875Q27.0703-28.6172 27.2109-28.5469L27.2109-28.5469Q27.4922-28.2656 27.7734-28.3711Q28.0547-28.4766 28.2656-28.6875L28.2656-28.6875Q28.4766-28.8281 28.6523-28.9688Q28.8281-29.1094 29.0391-29.0391L29.0391-29.0391Q29.2500-29.0391 29.4258-28.9336Q29.6016-28.8281 29.8125-28.6875L29.8125-28.6875Q30.0938-28.5469 30.3750-28.4414Q30.6563-28.3359 30.9375-28.3359L30.9375-28.3359Q31.2891-28.4063 31.5000-28.8984Q31.7109-29.3906 31.5703-29.6719L31.5703-29.6719Q31.5000-29.8828 31.3945-30.0586Q31.2891-30.2344 31.1484-30.4453L31.1484-30.4453L31.1484-30.4453Q30.9375-30.7266 30.7969-31.0430Q30.6563-31.3594 30.5156-31.7109L30.5156-31.7109Q30.3047-32.4141 30.2695-33.3281Q30.2344-34.2422 30.3047-35.0859L30.3047-35.0859L30.3047-35.0859Q30.3047-35.2969 30.3047-35.5430Q30.3047-35.7891 30.3047-36L30.3047-36Q30.3047-36.1406 30.2695-36.3164Q30.2344-36.4922 30.2344-36.7031L30.2344-36.7031Q30.2344-37.0547 30.1992-37.4414Q30.1641-37.8281 30.3047-38.1094L30.3047-38.1094Q30.3750-38.3906 30.5859-38.6719Q30.7969-38.9531 31.0078-39.1641L31.0078-39.1641Q31.2188-39.4453 31.4297-39.6914Q31.6406-39.9375 31.7109-40.2188L31.7109-40.2188Q31.7813-40.5703 31.3945-41.0625Q31.0078-41.5547 30.6563-41.5547L30.6563-41.5547ZM52.8047-28.4063L52.8047-28.4063Q52.6641-27.3516 52.0313-26.4023Q51.3984-25.4531 50.6953-24.6797L50.6953-24.6797Q49.2188-23.2031 47.4258-22.1484Q45.6328-21.0938 43.6641-20.3906L43.6641-20.3906Q40.7813-19.4766 37.7578-18.9844L37.7578-18.9844Q34.6641-18.4922 31.5703-18.5625Q28.4766-18.6328 25.4531-19.2656L25.4531-19.2656Q22.4297-19.8984 19.6172-21.1641L19.6172-21.1641Q17.4375-22.2188 15.1875-23.9766Q12.9375-25.7344 12.3047-28.3359L12.3047-28.3359L12.2344-28.3359Q12.2344-25.2422 14.6953-23.0977Q17.1563-20.9531 19.6172-19.8281L19.6172-19.8281Q22.5000-18.5625 25.6641-17.9297L25.6641-17.9297Q28.8281-17.2266 32.0977-17.1914Q35.3672-17.1563 38.6016-17.7188L38.6016-17.7188Q41.7656-18.2813 44.6484-19.4766L44.6484-19.4766Q46.7578-20.3906 48.7266-21.6914Q50.6953-22.9922 51.9609-25.1016L51.9609-25.1016Q52.3125-25.6641 52.6992-26.6836Q53.0859-27.7031 52.8047-28.4063L52.8047-28.4063ZM45.9141-16.8047L45.9141-16.8047L45.9141-16.8047Q46.3359-16.1719 46.7227-15.5039Q47.1094-14.8359 47.1797-13.9219L47.1797-13.9219Q47.3906-10.9688 44.7891-10.0547Q42.1875-9.1406 39.9375-9.8438L39.9375-9.8438Q38.7422-10.1953 37.6523-10.9688Q36.5625-11.7422 35.7891-12.7969L35.7891-12.7969Q35.5781-13.0781 35.4375-13.3945Q35.2969-13.7109 35.1563-14.0625L35.1563-14.0625Q35.1563-14.1328 35.1211-14.1680Q35.0859-14.2031 35.0859-14.2734L35.0859-14.2734Q35.0859-14.4141 35.0156-14.5547Q34.9453-14.6953 34.8750-14.7656L34.8750-14.7656Q34.7344-14.9063 34.5234-14.8711Q34.3125-14.8359 34.1016-14.8359L34.1016-14.8359Q34.0313-14.8359 33.9609-14.8008Q33.8906-14.7656 33.8203-14.7656L33.8203-14.7656Q33.3984-14.7656 32.9063-14.7656Q32.4141-14.7656 31.9922-14.7656L31.9922-14.7656Q31.7813-14.7656 31.5352-14.7656Q31.2891-14.7656 31.0781-14.7656L31.0781-14.7656Q30.7266-12.3047 28.0898-10.8984Q25.4531-9.4922 23.2031-9.8438L23.2031-9.8438Q21.4453-10.1250 20.2148-11.3906Q18.9844-12.6563 19.3359-14.5547L19.3359-14.5547Q19.4063-15.1875 19.6875-15.6797Q19.9688-16.1719 20.2500-16.6641L20.2500-16.6641Q20.3203-16.7344 20.3906-16.8398Q20.4609-16.9453 20.4609-17.0156L20.4609-17.0156L18.0703-18.0703Q17.7891-16.5938 17.4727-15.1172Q17.1563-13.6406 16.8750-12.1641L16.8750-12.1641Q16.8047-12.0234 16.7695-11.8828Q16.7344-11.7422 16.6641-11.6016L16.6641-11.6016L16.6641-11.6016Q16.5938-11.1797 16.4531-10.6875Q16.3125-10.1953 16.5234-9.9141L16.5234-9.9141Q16.8047-9.4219 17.2617-9.1055Q17.7188-8.7891 18.2109-8.5078L18.2109-8.5078Q18.2813-8.5078 18.3516-8.4727Q18.4219-8.4375 18.4922-8.3672L18.4922-8.3672Q18.7031-8.2266 18.9492-8.1211Q19.1953-8.0156 19.4063-7.8750L19.4063-7.8750L19.4063-7.8750Q20.3906-7.3828 21.3047-6.7500Q22.2188-6.1172 22.7813-5.1328L22.7813-5.1328Q23.4141-4.1484 23.6953-2.9180Q23.9766-1.6875 24.1875-0.4922L24.1875-0.4922Q24.1875-0.3516 24.1875-0.2109Q24.1875-0.0703 24.2578 0.0703L24.2578 0.0703Q24.2578 0.5625 24.3281 1.0195Q24.3984 1.4766 24.6094 1.6875L24.6094 1.6875Q24.9609 1.9688 25.5586 2.1094Q26.1563 2.2500 26.7188 2.3203L26.7188 2.3203L26.7188 2.3203Q27 2.3203 27.2461 2.3555Q27.4922 2.3906 27.6328 2.4609L27.6328 2.4609L27.4219-1.0547L28.8984-1.0547L29.1094 1.6172L29.2500 2.5313L30.3047 2.6719L32.4141 2.7422L32.4141-1.2656L33.7500-1.1953L33.8203-0.0703L33.8906 2.7422L36.9844 2.6016L37.1250-0.0703L37.2656-0.9844L38.6016-1.0547L38.5313 2.3906Q39.0938 2.3906 39.6563 2.2500Q40.2188 2.1094 40.7109 1.9688L40.7109 1.9688Q40.7813 1.9688 40.8164 1.9688Q40.8516 1.9688 40.9219 1.8984L40.9219 1.8984L40.9219 1.8984Q41.0625 1.8984 41.2383 1.8281Q41.4141 1.7578 41.5547 1.6875L41.5547 1.6875Q41.7656 1.4766 41.8008 1.0195Q41.8359 0.5625 41.8359 0.1406L41.8359 0.1406Q41.8359-0.0703 41.8711-0.2109Q41.9063-0.3516 41.9063-0.4219L41.9063-0.4219Q42.1172-1.6172 42.3984-2.8125Q42.6797-4.0078 43.2422-5.0625L43.2422-5.0625Q43.8047-6.1172 44.7539-6.7148Q45.7031-7.3125 46.6875-7.8750L46.6875-7.8750L46.6875-7.8750Q46.9688-8.0156 47.2500-8.1563Q47.5313-8.2969 47.7422-8.4375L47.7422-8.4375Q47.8125-8.5078 47.8828-8.5430Q47.9531-8.5781 48.0234-8.5781L48.0234-8.5781Q48.3750-8.8594 48.7969-9.1406Q49.2188-9.4219 49.5000-9.7734L49.5000-9.7734Q49.7109-10.1250 49.6406-10.6172Q49.5703-11.1094 49.4297-11.6016L49.4297-11.6016Q49.3594-11.6719 49.3242-11.8125Q49.2891-11.9531 49.2188-12.0938L49.2188-12.0938Q49.0781-12.6563 48.9727-13.3242Q48.8672-13.9922 48.7969-14.6250L48.7969-14.6250Q48.5859-15.6094 48.4102-16.5938Q48.2344-17.5781 47.8828-18.5625L47.8828-18.5625L45.4922-17.3672Q45.5625-17.2266 45.6680-17.0859Q45.7734-16.9453 45.9141-16.8047L45.9141-16.8047ZM21.2344-55.5469L21.2344-55.5469Q26.0859-53.8594 31.6055-53.8594Q37.1250-53.8594 42.1172-55.3359L42.1172-55.3359Q44.0156-55.8281 46.5469-57.1641Q49.0781-58.5000 49.1484-60.9609L49.1484-60.9609L49.0781-60.9609Q48.7266-60.0469 48.0938-59.3789Q47.4609-58.7109 46.6875-58.2188L46.6875-58.2188Q45.2109-57.2344 43.4883-56.6016Q41.7656-55.9688 40.0078-55.6172L40.0078-55.6172Q35.9297-54.7734 31.6758-54.7734Q27.4219-54.7734 23.3438-55.7578L23.3438-55.7578Q21.5859-56.1797 19.8281-56.8828Q18.0703-57.5859 16.6641-58.7813L16.6641-58.7813Q16.3125-59.1328 16.0313-59.4844Q15.7500-59.8359 15.5391-60.2578L15.5391-60.2578Q15.3984-60.3984 15.2930-60.5742Q15.1875-60.7500 15.0469-60.9609L15.0469-60.9609Q15.1172-58.7109 17.2617-57.4453Q19.4063-56.1797 21.2344-55.5469L21.2344-55.5469ZM32.2734-11.6016L32.2734-11.6016Q31.5703-11.4609 31.2891-10.9688Q31.0078-10.4766 30.7969-9.8438L30.7969-9.8438Q30.4453-8.8594 30.0586-7.9102Q29.6719-6.9609 29.2500-6.0469L29.2500-6.0469Q29.1094-5.7656 28.7578-5.0625Q28.4063-4.3594 28.6172-4.0781L28.6172-4.0781Q28.6875-3.8672 28.9688-3.9375Q29.2500-4.0078 29.4609-4.0078L29.4609-4.0078Q30.0234-4.0781 30.7969-3.9727Q31.5703-3.8672 32.1328-4.0781L32.1328-4.0781Q32.4141-4.1484 32.6250-4.4648Q32.8359-4.7813 33.0469-4.7813L33.0469-4.7813Q33.3281-4.7813 33.5742-4.4648Q33.8203-4.1484 34.0313-4.0781L34.0313-4.0781Q34.5938-3.8672 35.6484-3.9023Q36.7031-3.9375 37.2656-4.1484L37.2656-4.1484Q37.8984-4.2891 37.4063-5.1328Q36.9141-5.9766 36.7031-6.3281L36.7031-6.3281Q36.2109-7.1719 35.7188-8.0508Q35.2266-8.9297 34.8047-9.7734L34.8047-9.7734Q34.5938-10.1250 34.3828-10.5469Q34.1719-10.9688 33.8906-11.2500L33.8906-11.2500Q33.6094-11.5313 33.1523-11.6016Q32.6953-11.6719 32.2734-11.6016L32.2734-11.6016Z"/></svg>