<svg width="76" height="74" viewBox="-1 -69 76 74" xmlns="http://www.w3.org/2000/svg"><path fill="#652d8f" d="M59.9063-2.2500L55.9688-2.2500L57.1641-0.4922L57.8672-0.4922Q59.0625-1.3359 60.1172-2.2500L60.1172-2.2500Q60.1172-2.2500 60.0469-2.2500Q59.9766-2.2500 59.9063-2.2500L59.9063-2.2500ZM57.7266-4.6406L59.3438-4.6406L59.3438-5.0625L58.2891-5.0625Q58.0078-4.8516 57.7266-4.6406L57.7266-4.6406ZM15.7500-0.4922L17.5078-0.4922L18.6328-2.2500L13.7109-2.2500Q13.7109-2.2500 13.7109-2.2500Q13.7109-2.2500 13.7109-2.2500L13.7109-2.2500Q13.6406-2.2500 13.5703-2.2500Q13.5000-2.2500 13.4297-2.2500L13.4297-2.2500Q14.5547-1.3359 15.7500-0.4922L15.7500-0.4922ZM70.5938-45.2813L70.7344-45Q68.5547-49.9922 65.1094-54.1406L65.1094-54.1406Q61.6641-58.2891 57.2695-61.2773Q52.8750-64.2656 47.6719-65.8828L47.6719-65.8828Q42.4688-67.5000 36.7734-67.5000L36.7734-67.5000Q29.1797-67.5000 22.5000-64.6172L22.5000-64.6172Q15.7500-61.7344 10.7578-56.7422Q5.7656-51.7500 2.8828-45.0703L2.8828-45.0703Q0-38.3203 0-30.7266L0-30.7266Q0-26.6484 0.8438-22.8516L0.8438-22.8516Q1.6875-18.9844 3.2695-15.5039Q4.8516-12.0234 7.1016-9L7.1016-9Q9.3516-5.9063 12.1641-3.3750L12.1641-3.3750Q12.3047-3.4453 12.4453-3.5508Q12.5859-3.6563 12.7969-3.7266L12.7969-3.7266Q12.7266-3.8672 12.6914-4.0078Q12.6563-4.1484 12.6563-4.2891L12.6563-4.2891Q12.6563-4.2891 12.6563-4.2891Q12.6563-4.2891 12.6563-4.2891L12.6563-4.2891L12.6563-5.4141Q12.6563-5.8359 12.9375-6.1523Q13.2188-6.4688 13.5703-6.6094L13.5703-6.6094Q11.2500-8.9297 9.3516-11.6016L9.3516-11.6016Q7.4531-14.3438 6.1172-17.4023Q4.7813-20.4609 4.0781-23.8359L4.0781-23.8359Q3.3750-27.1406 3.3750-30.7266L3.3750-30.7266Q3.3750-37.6172 5.9766-43.7344L5.9766-43.7344Q8.6484-49.7813 13.1836-54.3164Q17.7188-58.8516 23.7656-61.5234L23.7656-61.5234Q29.8828-64.1250 36.7734-64.1250L36.7734-64.1250Q43.7344-64.1250 49.7813-61.5234L49.7813-61.5234Q55.8984-58.8516 60.4336-54.3164Q64.9688-49.7813 67.5703-43.7344L67.5703-43.7344Q70.2422-37.6172 70.2422-30.7266L70.2422-30.7266Q70.2422-27.1406 69.5391-23.8359L69.5391-23.8359Q68.7656-20.4609 67.4648-17.4023Q66.1641-14.3438 64.2656-11.6016L64.2656-11.6016Q62.3672-8.9297 59.9766-6.6094L59.9766-6.6094Q60.3984-6.5391 60.6445-6.1875Q60.8906-5.8359 60.8906-5.3438L60.8906-5.3438L60.8906-4.2891Q60.8906-4.2891 60.8906-4.2891Q60.8906-4.2891 60.8906-4.2891L60.8906-4.2891Q60.8906-4.1484 60.8555-4.0078Q60.8203-3.8672 60.8203-3.7266L60.8203-3.7266Q60.9609-3.6563 61.1367-3.5508Q61.3125-3.4453 61.4531-3.3750L61.4531-3.3750Q64.2656-5.9063 66.5156-8.9297L66.5156-8.9297Q68.7656-12.0234 70.3477-15.5039Q71.9297-18.9844 72.7734-22.7813L72.7734-22.7813Q73.6172-26.6484 73.6172-30.7266L73.6172-30.7266Q73.6172-34.5938 72.8438-38.2500Q72.0703-41.9063 70.5938-45.2813L70.5938-45.2813ZM14.2734-5.0625L14.2734-4.6406L15.8906-4.6406Q15.6094-4.8516 15.3281-5.0625L15.3281-5.0625L14.2734-5.0625ZM11.5313-45.9844L11.5313-45.9844L62.0859-45.9844Q62.9297-45.9844 63.4922-45.4219Q64.0547-44.8594 64.0547-44.0156L64.0547-44.0156L64.0547-42.8906Q64.0547-42.1172 63.4922-41.5547Q62.9297-40.9922 62.0859-40.9922L62.0859-40.9922L11.5313-40.9922Q10.6875-40.9922 10.1250-41.5547Q9.5625-42.1172 9.5625-42.8906L9.5625-42.8906L9.5625-44.0156Q9.5625-44.8594 10.1250-45.4219Q10.6875-45.9844 11.5313-45.9844L11.5313-45.9844ZM8.8594 1.1250L8.8594 1.1250L64.7578 1.1250Q65.3203 1.1250 65.6719 1.5117Q66.0234 1.8984 66.0234 2.4609L66.0234 2.4609L66.0234 3.1641Q66.0234 3.7266 65.6719 4.1133Q65.3203 4.5000 64.7578 4.5000L64.7578 4.5000L8.8594 4.5000Q8.2969 4.5000 7.9102 4.1133Q7.5234 3.7266 7.5234 3.1641L7.5234 3.1641L7.5234 2.4609Q7.5234 1.8984 7.9102 1.5117Q8.2969 1.1250 8.8594 1.1250L8.8594 1.1250ZM59.9063 0.2813L59.9063 0.2813L13.7109 0.2813Q13.0078 0.2813 12.5156-0.2109Q12.0234-0.7031 12.0234-1.4063L12.0234-1.4063L12.0234-1.4063Q12.0234-2.1094 12.5156-2.6016Q13.0078-3.0938 13.7109-3.0938L13.7109-3.0938L59.9063-3.0938Q60.6094-3.0938 61.1016-2.6016Q61.5938-2.1094 61.5938-1.4063L61.5938-1.4063L61.5938-1.4063Q61.5938-0.7031 61.1016-0.2109Q60.6094 0.2813 59.9063 0.2813L59.9063 0.2813ZM59.9766-39.2344L59.9766-39.2344L13.6406-39.2344Q13.4297-39.2344 13.2891-39.4102Q13.1484-39.5859 13.1484-39.7969L13.1484-39.7969L13.1484-39.7969Q13.1484-40.0078 13.2891-40.1484Q13.4297-40.2891 13.6406-40.2891L13.6406-40.2891L59.9766-40.2891Q60.1875-40.2891 60.3281-40.1484Q60.4688-40.0078 60.4688-39.7969L60.4688-39.7969L60.4688-39.7969Q60.4688-39.5859 60.3281-39.4102Q60.1875-39.2344 59.9766-39.2344ZM59.9766-46.5469L59.9766-46.5469L13.6406-46.5469Q13.4297-46.5469 13.2891-46.6875Q13.1484-46.8281 13.1484-47.0391L13.1484-47.0391L13.1484-47.0391Q13.1484-47.3203 13.2891-47.4609Q13.4297-47.6016 13.6406-47.6016L13.6406-47.6016L59.9766-47.6016Q60.1875-47.6016 60.3281-47.4609Q60.4688-47.3203 60.4688-47.0391L60.4688-47.0391L60.4688-47.0391Q60.4688-46.8281 60.3281-46.6875Q60.1875-46.5469 59.9766-46.5469ZM14.2734-5.8359L14.2734-5.8359L59.3438-5.8359Q59.6953-5.8359 59.9063-5.6250Q60.1172-5.4141 60.1172-5.0625L60.1172-5.0625L60.1172-4.5703Q60.1172-4.2891 59.9063-4.0430Q59.6953-3.7969 59.3438-3.7969L59.3438-3.7969L14.2734-3.7969Q13.9219-3.7969 13.7109-4.0430Q13.5000-4.2891 13.5000-4.5703L13.5000-4.5703L13.5000-5.0625Q13.5000-5.4141 13.7109-5.6250Q13.9219-5.8359 14.2734-5.8359L14.2734-5.8359ZM38.3203-36.2813L35.2969-36.2813L34.7344-9L38.8828-9L38.3203-36.2813ZM47.1094-36.2813L44.0859-36.2813L43.5234-9L47.6719-9L47.1094-36.2813ZM55.9688-36.2813L52.9453-36.2813L52.3828-9L56.5313-9L55.9688-36.2813ZM29.5313-36.2813L26.4375-36.2813L25.8750-9L30.0938-9L29.5313-36.2813ZM20.6719-36.2813L17.5781-36.2813L17.0156-9L21.2344-9L20.6719-36.2813ZM34.7344-36.7734L34.7344-36.7734L38.8125-36.7734Q39.1641-36.7734 39.5156-37.3711Q39.8672-37.9688 39.9375-38.6016L39.9375-38.6016L33.6797-38.6016Q33.7500-37.9688 34.0664-37.3711Q34.3828-36.7734 34.7344-36.7734ZM38.8125-8.5078L38.8125-8.5078L34.7344-8.5078Q34.3828-8.5078 34.0664-7.9102Q33.7500-7.3125 33.6797-6.6094L33.6797-6.6094L39.9375-6.6094Q39.8672-7.3125 39.5156-7.9102Q39.1641-8.5078 38.8125-8.5078L38.8125-8.5078ZM25.9453-36.7734L25.9453-36.7734L30.0234-36.7734Q30.3750-36.7734 30.7266-37.3711Q31.0781-37.9688 31.0781-38.6016L31.0781-38.6016L24.8906-38.6016Q24.9609-37.9688 25.2773-37.3711Q25.5938-36.7734 25.9453-36.7734ZM30.0234-8.5078L30.0234-8.5078L25.9453-8.5078Q25.5938-8.5078 25.2422-7.9102Q24.8906-7.3125 24.8906-6.6094L24.8906-6.6094L31.0781-6.6094Q31.0781-7.3125 30.7266-7.9102Q30.3750-8.5078 30.0234-8.5078ZM52.3828-36.7734L52.3828-36.7734L56.4609-36.7734Q56.8125-36.7734 57.1641-37.3711Q57.5156-37.9688 57.5859-38.6016L57.5859-38.6016L51.3281-38.6016Q51.3984-37.9688 51.7148-37.3711Q52.0313-36.7734 52.3828-36.7734L52.3828-36.7734ZM56.4609-8.5078L56.4609-8.5078L52.3828-8.5078Q52.0313-8.5078 51.7148-7.9102Q51.3984-7.3125 51.3281-6.6094L51.3281-6.6094L57.5859-6.6094Q57.5156-7.3125 57.1641-7.9102Q56.8125-8.5078 56.4609-8.5078ZM43.5938-36.7734L43.5938-36.7734L47.6719-36.7734Q48.0234-36.7734 48.3398-37.3711Q48.6563-37.9688 48.7266-38.6016L48.7266-38.6016L42.4688-38.6016Q42.5391-37.9688 42.8906-37.3711Q43.2422-36.7734 43.5938-36.7734L43.5938-36.7734ZM47.6719-8.5078L47.6719-8.5078L43.5938-8.5078Q43.2422-8.5078 42.8906-7.9102Q42.5391-7.3125 42.4688-6.6094L42.4688-6.6094L48.7266-6.6094Q48.6563-7.3125 48.3398-7.9102Q48.0234-8.5078 47.6719-8.5078ZM17.5078-37.6875L17.5078-37.6875L20.7422-37.6875Q20.9531-37.6875 21.0938-37.5469Q21.2344-37.4063 21.2344-37.1953L21.2344-37.1953L21.2344-36.7734Q21.5859-36.7734 21.9023-37.3711Q22.2188-37.9688 22.2891-38.6016L22.2891-38.6016L16.0313-38.6016Q16.1016-37.9688 16.4180-37.4063Q16.7344-36.8438 17.0156-36.7734L17.0156-36.7734L17.0156-37.1953Q17.0156-37.4063 17.1563-37.5469Q17.2969-37.6875 17.5078-37.6875L17.5078-37.6875ZM20.7422-7.1016L20.7422-7.1016L17.5078-7.1016Q17.3672-7.1016 17.1914-7.2422Q17.0156-7.3828 17.0156-7.5938L17.0156-7.5938L17.0156-8.5078Q16.7344-8.4375 16.4180-7.8398Q16.1016-7.2422 16.0313-6.6094L16.0313-6.6094L22.2891-6.6094Q22.2188-7.3125 21.9023-7.9102Q21.5859-8.5078 21.2344-8.5078L21.2344-8.5078L21.2344-7.5938Q21.2344-7.3828 21.0938-7.2422Q20.9531-7.1016 20.7422-7.1016L20.7422-7.1016ZM17.0156-8.5078L17.0156-8.5078L17.0156-7.5938Q17.0156-7.3828 17.1563-7.2422Q17.2969-7.1016 17.5078-7.1016L17.5078-7.1016L20.7422-7.1016Q20.9531-7.1016 21.0938-7.2422Q21.2344-7.3828 21.2344-7.5938L21.2344-7.5938L21.2344-8.5078L17.1563-8.5078Q17.0859-8.5078 17.0859-8.5078Q17.0859-8.5078 17.0156-8.5078L17.0156-8.5078ZM17.1563-36.7734L21.2344-36.7734L21.2344-37.1953Q21.2344-37.4063 21.0938-37.5469Q20.9531-37.6875 20.7422-37.6875L20.7422-37.6875L17.5078-37.6875Q17.3672-37.6875 17.1914-37.5469Q17.0156-37.4063 17.0156-37.1953L17.0156-37.1953L17.0156-36.7734Q17.0859-36.7734 17.0859-36.7734Q17.0859-36.7734 17.0859-36.7734L17.0859-36.7734Q17.0859-36.7734 17.1211-36.7734Q17.1563-36.7734 17.1563-36.7734L17.1563-36.7734ZM21.2344-8.5078L21.2344-8.5078L17.1563-8.5078Q17.0859-8.5078 17.0859-8.5078Q17.0859-8.5078 17.0859-8.5078L17.0859-8.5078Q17.0859-8.5078 17.0508-8.5078Q17.0156-8.5078 17.0156-8.5078L17.0156-8.5078Q16.7344-8.4375 16.4180-7.8750Q16.1016-7.3125 16.0313-6.6094L16.0313-6.6094L22.2891-6.6094Q22.2188-7.3125 21.9023-7.9102Q21.5859-8.5078 21.2344-8.5078L21.2344-8.5078ZM17.0156-36.7734L17.0156-36.7734Q17.0156-36.7734 17.0508-36.7734Q17.0859-36.7734 17.0859-36.7734L17.0859-36.7734Q17.0859-36.7734 17.0859-36.7734Q17.0859-36.7734 17.1563-36.7734L17.1563-36.7734L21.2344-36.7734Q21.5859-36.7734 21.9023-37.3711Q22.2188-37.9688 22.2891-38.6719L22.2891-38.6719L16.0313-38.6719Q16.1016-37.9688 16.4180-37.4063Q16.7344-36.8438 17.0156-36.7734L17.0156-36.7734ZM36.9141-58.7813L36.9141-58.7813L21.3047-48.3047L52.3125-48.3047L36.9141-58.7813ZM18.9141-48.2344L18.9141-48.2344L36.9141-60.3281L54.7031-48.2344L57.8672-48.2344L36.9141-62.4375L15.7500-48.2344L18.9141-48.2344ZM55.6172-47.6016L55.6172-47.6016L57.1641-46.5469L57.9375-47.6016L55.6172-47.6016ZM15.6797-47.6016L15.6797-47.6016L16.3828-46.5469L18-47.6016L15.6797-47.6016Z"/></svg>