<svg width="62" height="74" viewBox="-1 -69 62 74" fill="#8b008f" xmlns="http://www.w3.org/2000/svg"><path d="M14.9063-37.0547L14.9063-37.0547Q14.4844-36.0703 13.9219-35.1914Q13.3594-34.3125 12.7969-33.3984L12.7969-33.3984Q11.9531-31.9219 11.0039-30.4453Q10.0547-28.9688 9.4219-27.3516L9.4219-27.3516Q8.5078-24.8203 8.5781-22.0078L8.5781-22.0078Q8.6484-19.2656 9.5625-16.5938Q10.4766-13.9219 12.1641-11.6016L12.1641-11.6016Q13.8516-9.2813 16.1719-7.6641L16.1719-7.6641Q17.7188-6.5391 19.4766-5.7656Q21.2344-4.9922 23.3438-4.7109L23.3438-4.7109Q22.9922-4.9922 22.7813-5.2031Q22.5703-5.4141 22.3594-5.6250L22.3594-5.6250Q20.3906-7.5234 19.2656-9.8789Q18.1406-12.2344 18-15.0469L18-15.0469Q17.9297-17.7891 19.0547-19.9688Q20.1797-22.1484 21.9375-24.0469L21.9375-24.0469Q23.0625-25.3125 24.2578-26.5781Q25.4531-27.8438 26.5781-29.1797L26.5781-29.1797Q27.9844-30.9375 28.4766-32.9766Q28.9688-35.0156 28.6172-37.1953L28.6172-37.1953Q28.5469-37.6875 28.4414-38.1445Q28.3359-38.6016 28.2656-39.3750L28.2656-39.3750Q30.2344-37.8281 31.7109-36.1406Q33.1875-34.4531 33.9609-32.2734L33.9609-32.2734Q35.0859-28.8281 34.6641-25.6641Q34.2422-22.5000 31.2188-19.8281L31.2188-19.8281Q32.4141-19.3359 33.5039-19.3711Q34.5938-19.4063 35.6484-19.7578L35.6484-19.7578Q37.1250-20.3203 38.1797-21.2695Q39.2344-22.2188 39.7266-23.9766L39.7266-23.9766Q41.1328-22.7109 41.6953-21.2344Q42.2578-19.7578 42.3281-18.1406L42.3281-18.1406Q42.5391-13.9922 40.7109-10.7930Q38.8828-7.5938 35.5781-5.0625L35.5781-5.0625Q35.7188-5.0625 35.8242-5.0273Q35.9297-4.9922 36.0703-4.9922L36.0703-4.9922L36.0703-4.9922Q39.5156-5.9063 42.3984-8.0859L42.3984-8.0859Q45.3516-10.3359 47.3555-13.3242Q49.3594-16.3125 50.3438-19.8984L50.3438-19.8984Q51.2578-23.4141 50.8359-26.9297L50.8359-26.9297Q50.4141-30.9375 48.9023-34.4531Q47.3906-37.9688 45.0703-41.1328L45.0703-41.1328Q42.8906-44.0859 40.5000-46.8984Q38.1094-49.7109 35.7891-52.6641L35.7891-52.6641Q34.9453-53.7891 34.1719-55.0547Q33.3984-56.3203 32.9766-57.7266L32.9766-57.7266Q32.1328-60.3281 33.1875-62.5781Q34.2422-64.8281 37.1250-65.3203L37.1250-65.3203Q37.3359-65.3906 37.5117-65.4609Q37.6875-65.5313 37.8984-65.5313L37.8984-65.5313L37.8281-65.5313Q34.9453-67.2188 32.1328-67.4648Q29.3203-67.7109 26.5078-66.3750L26.5078-66.3750Q22.4297-64.4063 20.5664-60.3984Q18.7031-56.3906 19.4766-51.4688L19.4766-51.4688Q19.6875-50.3438 20.0742-49.1836Q20.4609-48.0234 20.8125-46.7578L20.8125-46.7578Q18.0703-47.3906 15.5039-47.1445Q12.9375-46.8984 10.6172-45L10.6172-45Q10.8984-44.8594 11.0742-44.7891Q11.2500-44.7188 11.3906-44.6484L11.3906-44.6484Q13.9219-43.8047 14.9414-41.6602Q15.9609-39.5156 14.9063-37.0547L14.9063-37.0547ZM37.0547-54.1406L37.0547-54.1406Q37.1250-54.0703 37.1953-54Q37.2656-53.9297 37.3359-53.8594L37.3359-53.8594Q38.1094-52.8047 38.9531-51.7852Q39.7969-50.7656 40.5703-49.7813L40.5703-49.7813Q44.1563-48.1641 47.1094-45.6328L47.1094-45.6328Q49.9922-43.1719 52.1016-40.0078Q54.2109-36.8438 55.3359-33.0469L55.3359-33.0469Q56.5313-29.3203 56.5313-25.3125L56.5313-25.3125L56.5313-25.2422Q56.5313-19.7578 54.4219-14.8359L54.4219-14.8359Q52.3125-9.9844 48.6914-6.3633Q45.0703-2.7422 40.1484-0.6328L40.1484-0.6328Q35.2969 1.4766 29.7422 1.4766L29.7422 1.4766Q24.2578 1.4766 19.3359-0.6328L19.3359-0.6328Q14.4844-2.7422 10.8633-6.3633Q7.2422-9.9844 5.1328-14.8359L5.1328-14.8359Q3.0234-19.7578 3.0234-25.2422L3.0234-25.2422Q3.0234-25.3125 3.0234-25.3125Q3.0234-25.3125 3.0234-25.3125L3.0234-25.3125Q3.0234-30.4453 4.8867-35.0508Q6.7500-39.6563 9.9141-43.2422L9.9141-43.2422L9.9141-43.1719L9.8438-43.2422L7.0313-44.4375Q3.7266-40.6406 1.8633-35.7188Q0-30.7969 0-25.3125L0-25.3125Q0-25.3125 0-25.3125Q0-25.3125 0-25.2422L0-25.2422L0-25.2422Q0-19.1250 2.3203-13.7109L2.3203-13.7109Q4.7109-8.2969 8.7539-4.2539Q12.7969-0.2109 18.2109 2.1797L18.2109 2.1797Q23.6250 4.5000 29.7422 4.5000L29.7422 4.5000Q35.9297 4.5000 41.3438 2.1797L41.3438 2.1797Q46.7578-0.2109 50.8008-4.2539Q54.8438-8.2969 57.2344-13.7109L57.2344-13.7109Q59.5547-19.1250 59.5547-25.2422L59.5547-25.2422Q59.5547-30.5156 57.8672-35.1563L57.8672-35.1563Q56.1797-39.8672 53.1563-43.6992Q50.1328-47.5313 46.0547-50.2031L46.0547-50.2031Q41.9063-52.9453 37.0547-54.1406L37.0547-54.1406Z"/></svg>