<svg width="66" height="74" viewBox="-1 -69 66 74" fill="#008f07" xmlns="http://www.w3.org/2000/svg"><path d="M9.8438-19.6875L9.8438-19.6875Q11.1797-17.0859 13.0781-14.9766Q14.9766-12.8672 17.1563-10.9688L17.1563-10.9688Q20.3203-8.3672 23.7656-6.2227Q27.2109-4.0781 30.8672-2.2500L30.8672-2.2500Q31.5000-1.9688 32.1680-1.6875Q32.8359-1.4063 33.6797-1.8281L33.6797-1.8281Q36.9141-3.4453 40.0078-5.2383Q43.1016-7.0313 45.9844-9.2109L45.9844-9.2109Q48.7266-11.2500 51.1172-13.6055Q53.5078-15.9609 55.2656-18.9844L55.2656-18.9844Q55.6172-19.6172 55.8984-20.2852Q56.1797-20.9531 56.1797-21.7969L56.1797-21.7969Q56.1797-26.2969 56.1797-30.8672Q56.1797-35.4375 56.1797-40.0078L56.1797-40.0078Q56.1797-44.6484 56.1797-49.2891Q56.1797-53.9297 56.1797-58.5703L56.1797-58.5703Q56.1797-59.1328 55.9688-59.3086Q55.7578-59.4844 55.2656-59.5547L55.2656-59.5547Q50.9766-59.8359 46.6875-60.3281L46.6875-60.3281Q44.7188-60.5391 42.9258-61.0313Q41.1328-61.5234 39.5156-62.2969L39.5156-62.2969L39.6563-62.2266Q37.8984-63 36.3164-64.0547Q34.7344-65.1094 33.6797-66.7969L33.6797-66.7969Q33.2578-67.5000 32.7305-67.5000Q32.2031-67.5000 31.7109-66.7969L31.7109-66.7969Q31.2188-66.1641 30.6914-65.5664Q30.1641-64.9688 29.6016-64.4766L29.6016-64.4766Q26.9297-62.4375 23.8359-61.4883Q20.7422-60.5391 17.5078-60.0469L17.5078-60.0469Q15.6094-59.8359 13.7109-59.7305Q11.8125-59.6250 9.9141-59.5547L9.9141-59.5547Q8.9297-59.4844 8.5781-59.1680Q8.2266-58.8516 8.2266-57.9375L8.2266-57.9375Q8.2266-41.9063 8.2969-25.9453L8.2969-25.9453Q8.2969-24.1875 8.7188-22.6055Q9.1406-21.0234 9.8438-19.6172L9.8438-19.6172L9.8438-19.6875ZM13.6406-52.6641L13.6406-52.6641Q13.6406-53.6484 13.8867-53.8945Q14.1328-54.1406 15.0469-54.1406L15.0469-54.1406Q15.1875-54.1406 15.3633-54.1406Q15.5391-54.1406 15.6797-54.1406L15.6797-54.1406Q17.7188-54.1406 19.6875-54.3516Q21.6563-54.5625 23.5547-55.0547L23.5547-55.0547L23.2734-54.9844Q25.4531-55.4766 27.4570-56.2852Q29.4609-57.0938 31.0781-58.6406L31.0781-58.6406Q31.3594-58.9219 31.6055-59.2734Q31.8516-59.6250 32.0625-59.9766L32.0625-59.9766Q32.3438-60.3281 32.7305-60.3633Q33.1172-60.3984 33.3281-59.9766L33.3281-59.9766Q34.5234-58.1484 36.2461-57.1641Q37.9688-56.1797 39.9375-55.5469L39.9375-55.5469Q42.5391-54.7734 45.1406-54.4570Q47.7422-54.1406 50.4844-54.1406L50.4844-54.1406Q51.3984-54.1406 51.6094-53.9297Q51.8203-53.7188 51.8203-52.8047L51.8203-52.8047Q51.8203-46.2656 51.8203-39.7969L51.8203-39.7969Q51.8203-36.9141 51.7852-33.9961Q51.7500-31.0781 51.8203-28.1250L51.8203-28.1250Q51.8906-25.4531 50.8008-23.2383Q49.7109-21.0234 47.9531-19.0547L47.9531-19.0547Q45.5625-16.3828 42.7148-14.3789Q39.8672-12.3750 36.7734-10.6172L36.7734-10.6172Q35.9297-10.1953 35.0508-9.7734Q34.1719-9.3516 33.3281-8.9297L33.3281-8.9297Q33.1875-8.8594 33.0117-8.8242Q32.8359-8.7891 32.6953-8.7891L32.6953-8.7891Q32.5547-8.7891 32.4141-8.8242Q32.2734-8.8594 32.2031-8.9297L32.2031-8.9297L32.2031-8.8594Q28.2656-10.7578 24.6094-13.0781Q20.9531-15.3984 17.9297-18.6328L17.9297-18.6328Q16.7344-19.8281 15.7500-21.2344Q14.7656-22.6406 14.2031-24.2578L14.2031-24.2578Q13.9219-25.0313 13.7813-25.9102Q13.6406-26.7891 13.6406-27.7734L13.6406-27.7734L13.6406-27.7734Q13.5703-30.8672 13.5703-33.9609L13.5703-33.9609Q13.5703-37.0547 13.5703-40.1836Q13.5703-43.3125 13.6406-46.4063L13.6406-46.4063Q13.6406-49.5703 13.6406-52.6641L13.6406-52.6641ZM38.8125-16.1719L38.8125-16.1719Q40.8516-17.5078 42.6797-19.0898Q44.5078-20.6719 45.9141-22.7109L45.9141-22.7109Q46.6172-23.7656 47.1094-24.9609Q47.6016-26.1563 47.6016-27.4922L47.6016-27.4922Q47.6016-37.9688 47.6016-48.5156L47.6016-48.5156Q47.6016-49.0078 47.3906-49.2188Q47.1797-49.4297 46.6875-49.4297L46.6875-49.4297Q44.2266-49.3594 41.8711-49.6758Q39.5156-49.9922 37.1953-50.8359L37.1953-50.8359Q35.9297-51.3281 34.7695-52.0313Q33.6094-52.7344 32.8359-53.9297L32.8359-53.9297Q32.6953-54.0703 32.5898-54.2109Q32.4844-54.3516 32.3438-54.4219L32.3438-54.4219L32.3438-54.4219L32.1328-54.3516L32.1328-12.7266L32.4844-12.4453Q34.0313-13.4297 35.6484-14.3086Q37.2656-15.1875 38.8125-16.1719L38.8125-16.1719ZM58.2188-46.7578L58.2188-46.7578Q58.2188-45.5625 58.2188-44.2969L58.2188-44.2969L58.2188-40.5000Q59.6250-37.7578 60.3984-34.4883Q61.1719-31.2188 61.1719-27.7734L61.1719-27.7734Q61.1719-27.7734 61.1719-27.7734Q61.1719-27.7734 61.1719-27.7031L61.1719-27.7031L61.1719-27.7031Q61.1719-21.7266 58.9219-16.4531L58.9219-16.4531Q56.6719-11.1797 52.7344-7.2422Q48.7969-3.3047 43.5234-1.0547L43.5234-1.0547Q38.2500 1.2656 32.2031 1.2656L32.2031 1.2656Q26.2266 1.2656 20.9531-1.0547L20.9531-1.0547Q15.6797-3.3047 11.7422-7.2422Q7.8047-11.1797 5.5547-16.4531L5.5547-16.4531Q3.2344-21.7266 3.2344-27.7031L3.2344-27.7031Q3.2344-27.7734 3.2344-27.7734Q3.2344-27.7734 3.2344-27.7734L3.2344-27.7734Q3.2344-31.2188 4.0430-34.4883Q4.8516-37.7578 6.3281-40.6406L6.3281-40.6406L6.2578-40.5000Q6.2578-43.6641 6.2578-46.7578L6.2578-46.7578Q3.3047-42.8203 1.6523-37.9688Q0-33.1172 0-27.7734L0-27.7734Q0-27.7734 0-27.7734Q0-27.7734 0-27.7031L0-27.7031L0-27.7031Q0-21.0938 2.5313-15.1875L2.5313-15.1875Q5.0625-9.3516 9.4570-4.9570Q13.8516-0.5625 19.6875 1.9688L19.6875 1.9688Q25.5938 4.5000 32.2031 4.5000L32.2031 4.5000Q38.8828 4.5000 44.7891 1.9688L44.7891 1.9688Q50.6250-0.5625 55.0195-4.9570Q59.4141-9.3516 61.9453-15.1875L61.9453-15.1875Q64.4766-21.0938 64.4766-27.7031L64.4766-27.7031Q64.4766-27.7734 64.4766-27.7734Q64.4766-27.7734 64.4766-27.7734L64.4766-27.7734Q64.4766-33.1172 62.7891-38.0039Q61.1016-42.8906 58.1484-46.8281L58.1484-46.8281L58.2188-46.7578Z"/></svg>