<svg width="101" height="74" viewBox="-1 -69 101 74" fill="#e0b359" xmlns="http://www.w3.org/2000/svg"><path d="M20.8125-40.2188L21.3750-40.5000L21.3750-40.5000L20.8125-40.2188ZM6.9609-40.4297L6.9609-40.4297L6.9609-40.5703Q6.7500-40.5000 6.5039-40.3945Q6.2578-40.2891 5.9766-40.2188L5.9766-40.2188Q6.2578-40.2188 6.5039-40.2891Q6.7500-40.3594 6.9609-40.4297L6.9609-40.4297ZM45.4922-40.2188L45.4922-40.2891Q45.4219-40.3594 45.3164-40.5000Q45.2109-40.6406 45.1406-40.7109L45.1406-40.7109L45.0703-40.7109Q45.0703-40.6406 45-40.5703Q44.9297-40.5000 44.9297-40.4297L44.9297-40.4297Q45-40.2188 45.0703-39.9727Q45.1406-39.7266 45.2813-39.5156L45.2813-39.5156Q45.2813-39.6563 45.3516-39.8672Q45.4219-40.0781 45.4922-40.2188L45.4922-40.2188ZM42.4688-43.2422L42.4688-43.2422L42.7500-43.0313L42.8203-42.8203Q42.8203-42.7500 42.8555-42.6797Q42.8906-42.6094 42.9609-42.5391L42.9609-42.5391Q43.1016-42.8906 43.2070-43.2422Q43.3125-43.5938 43.3828-43.9453L43.3828-43.9453Q42.9609-44.5781 42.6797-45.3516Q42.3984-46.1250 42.2578-46.8984L42.2578-46.8984L41.4844-46.9688L41.9766-47.5313Q41.9766-47.5313 41.9063-47.5313Q41.8359-47.5313 41.8359-47.5313L41.8359-47.5313Q41.7656-47.5313 41.6953-47.5313Q41.6250-47.5313 41.5547-47.5313L41.5547-47.5313L41.3438-47.5313L41.0625-47.5313L41.4844-45.5625Q41.6250-44.7891 41.9063-44.1563Q42.1875-43.5234 42.4688-43.2422L42.4688-43.2422ZM47.1797-35.8594L47.1797-35.9297Q47.2500-36.1406 47.3555-36.4219Q47.4609-36.7031 47.5313-36.9844L47.5313-36.9844Q47.4609-37.1250 47.3906-37.2305Q47.3203-37.3359 47.2500-37.4063L47.2500-37.4063Q47.1094-37.2656 47.0391-37.1250Q46.9688-36.9844 46.8281-36.9141L46.8281-36.9141Q46.8984-36.6328 46.9688-36.3867Q47.0391-36.1406 47.1797-35.8594L47.1797-35.8594ZM35.0859-49.5000L35.0859-49.5000Q34.9453-49.6406 34.8047-49.7813Q34.6641-49.9219 34.5234-50.0625L34.5234-50.0625L33.9609-48.9375L35.2969-49.2188Q35.1563-49.3594 35.0859-49.5000L35.0859-49.5000ZM32.1328-53.4375L32.1328-53.4375Q32.0625-53.4375 32.0273-53.4727Q31.9922-53.5078 31.9219-53.5078L31.9219-53.5078L30.9375-51.5391Q30.9375-51.4688 30.9375-51.4336Q30.9375-51.3984 30.8672-51.3281L30.8672-51.3281L31.0078-51.3984L33.1875-52.1719Q32.9766-52.5234 32.6953-52.8398Q32.4141-53.1563 32.1328-53.4375L32.1328-53.4375ZM28.9688-53.6484L28.9688-53.6484Q27.0703-53.3672 25.3477-52.9102Q23.6250-52.4531 22.0078-51.8906L22.0078-51.8906Q22.1484-51.7500 22.0430-51.5391Q21.9375-51.3281 21.8672-51.1172L21.8672-51.1172Q23.5547-51.8203 25.4883-52.3477Q27.4219-52.8750 29.4609-53.2266L29.4609-53.2266L31.9219-53.5781Q31.2891-53.8594 30.4453-53.8242Q29.6016-53.7891 28.9688-53.6484ZM13.6406-48.2344L13.6406-48.3750L13.6406-48.3047L13.6406-48.2344ZM9.4219-46.1953L8.5078-45.6328Q6.9609-44.7891 5.1680-43.9102Q3.3750-43.0313 1.4766-42.8906L1.4766-42.8906Q1.6172-42.7500 1.7578-42.6445Q1.8984-42.5391 2.0391-42.5391L2.0391-42.5391Q2.8125-42.3984 3.6563-42.6445Q4.5000-42.8906 5.2734-43.2422L5.2734-43.2422Q6.3984-43.7344 7.4883-44.2617Q8.5781-44.7891 9.6328-45.3516L9.6328-45.3516Q9.4922-45.7031 9.4219-46.1953L9.4219-46.1953ZM45.0703-46.7578L45.1406-46.9688L45-46.9688Q45-46.8281 45.0703-46.7578L45.0703-46.7578ZM13.0078-29.3203L13.0078-29.3203L13.0078-29.3203ZM85.3594-29.1797L85.4297-29.3203L85.4297-29.2500L85.3594-29.2500L85.3594-29.1797ZM81.2813-23.4141L81.2813-23.4141Q81.7031-24.8906 82.1250-26.2969L82.1250-26.2969Q81.7734-26.5078 81.5273-26.7188Q81.2813-26.9297 81-27.1406L81-27.1406Q80.7188-27.0703 80.3672-27.0352Q80.0156-27 79.6641-27L79.6641-27Q79.6641-27 79.6289-27Q79.5938-27 79.5938-27L79.5938-27L79.3125-27Q79.8750-26.0156 80.2969-24.9258Q80.7188-23.8359 80.9297-22.6406L80.9297-22.6406Q81.0703-22.7813 81.1406-22.9570Q81.2109-23.1328 81.2813-23.4141L81.2813-23.4141ZM19.9688-17.1563L19.9688-17.1563Q20.6016-16.3125 21.1992-15.5039Q21.7969-14.6953 22.4297-13.9922L22.4297-13.9922Q21.9375-16.3828 22.6406-18.8789Q23.3438-21.3750 24.3984-23.7656L24.3984-23.7656Q25.8750-20.6016 26.6484-17.3672Q27.4219-14.1328 25.3125-11.1797L25.3125-11.1797Q26.1563-10.4766 27.0352-9.8438Q27.9141-9.2109 28.8281-8.6484L28.8281-8.6484Q28.1953-10.1250 28.0195-11.9531Q27.8438-13.7813 27.9844-15.7500L27.9844-15.7500Q27.9141-15.8906 27.8438-16.1016Q27.7734-16.3125 27.7031-16.5938L27.7031-16.5938Q27.5625-17.8594 28.2305-19.0547Q28.8984-20.2500 30.0938-20.8828L30.0938-20.8828Q30.1641-20.8828 30.2695-21.0234Q30.3750-21.1641 30.5156-21.3047L30.5156-21.3047Q31.2188-21.9375 31.9922-22.4297Q32.7656-22.9219 33.6094-23.3438L33.6094-23.3438Q33.8906-23.4844 34.1016-23.8359Q34.3125-24.1875 34.5938-24.6094L34.5938-24.6094Q34.8047-25.1719 35.1211-25.6289Q35.4375-26.0859 35.7891-26.4375L35.7891-26.4375Q36.2109-26.9297 36.6328-27.3164Q37.0547-27.7031 37.5469-28.0547L37.5469-28.0547Q37.7578-28.2656 37.9688-28.4414Q38.1797-28.6172 38.3906-28.8281L38.3906-28.8281Q38.5313-28.9688 38.6367-29.1445Q38.7422-29.3203 38.7422-29.5313L38.7422-29.5313Q37.6172-28.6875 36.2109-28.0547Q34.8047-27.4219 33.1172-27.0703L33.1172-27.0703L29.1797-26.1563L29.3906-26.2969Q29.1094-26.2969 28.7930-26.2617Q28.4766-26.2266 28.1953-26.2266L28.1953-26.2266Q28.1953-26.2266 28.1953-26.2266Q28.1953-26.2266 28.1250-26.2266L28.1250-26.2266Q27.9141-26.2266 27.7031-26.2266Q27.4922-26.2266 27.2109-26.2969L27.2109-26.2969L23.6250-26.5781L23.9063-26.7891Q23.7656-26.7891 23.6250-26.8242Q23.4844-26.8594 23.2734-26.9297L23.2734-26.9297L21.5156-27.3516Q22.1484-24.5391 22.0430-21.9023Q21.9375-19.2656 19.9688-17.1563L19.9688-17.1563ZM47.5313-43.9453L47.5313-43.9453Q47.4609-44.0859 47.3555-44.2266Q47.2500-44.3672 47.1094-44.5078L47.1094-44.5078Q47.0391-44.3672 46.9688-44.2266Q46.8984-44.0859 46.7578-43.9453L46.7578-43.9453Q46.8984-43.6641 46.9688-43.3828Q47.0391-43.1016 47.1797-42.8203L47.1797-42.8203Q47.3203-43.1016 47.3906-43.3828Q47.4609-43.6641 47.5313-43.9453L47.5313-43.9453ZM69.6094-8.6484L69.6094-8.6484Q70.5938-9.3516 71.4727-9.9844Q72.3516-10.6172 73.1953-11.3203L73.1953-11.3203Q71.1563-14.2734 71.8945-17.5078Q72.6328-20.7422 74.1094-23.8359L74.1094-23.8359Q75.1641-21.5156 75.8672-19.0195Q76.5703-16.5234 76.1484-14.2031L76.1484-14.2031Q76.7813-14.9063 77.3438-15.6797Q77.9063-16.4531 78.3984-17.2266L78.3984-17.2266Q76.5703-19.3359 76.4648-21.9727Q76.3594-24.6094 76.9922-27.3516L76.9922-27.3516L75.1641-26.9297Q75.0234-26.8594 74.8828-26.8594Q74.7422-26.8594 74.6016-26.7891L74.6016-26.7891L74.8828-26.5781L71.2969-26.2969Q71.0156-26.2266 70.8047-26.2266Q70.5938-26.2266 70.3125-26.2266L70.3125-26.2266Q70.3125-26.2266 70.3125-26.2266Q70.3125-26.2266 70.3125-26.2266L70.3125-26.2266Q70.0313-26.2266 69.7148-26.2617Q69.3984-26.2969 69.1172-26.2969L69.1172-26.2969L69.3281-26.1563L65.3906-27.0703Q63.8438-27.3516 62.4375-27.9844Q61.0313-28.6172 59.8359-29.4609L59.8359-29.4609Q59.9063-29.2500 60.0117-29.0742Q60.1172-28.8984 60.2578-28.8281L60.2578-28.8281Q60.3984-28.6172 60.6094-28.4414Q60.8203-28.2656 61.1016-28.0547L61.1016-28.0547Q61.5938-27.7031 62.0156-27.2813Q62.4375-26.8594 62.7891-26.4375L62.7891-26.4375Q63.1406-26.0156 63.4570-25.5938Q63.7734-25.1719 63.9844-24.7500L63.9844-24.7500Q64.2656-24.2578 64.5117-23.8711Q64.7578-23.4844 65.0391-23.3438L65.0391-23.3438Q65.8828-22.9219 66.6563-22.3945Q67.4297-21.8672 68.0625-21.2344L68.0625-21.2344Q68.2734-21.0938 68.3789-20.9883Q68.4844-20.8828 68.5547-20.8125L68.5547-20.8125Q69.7500-20.2500 70.4180-19.0195Q71.0859-17.7891 70.9453-16.5938L70.9453-16.5938Q70.8750-16.2422 70.7695-15.9961Q70.6641-15.7500 70.5234-15.5391L70.5234-15.5391Q70.6641-13.6406 70.4883-11.8828Q70.3125-10.1250 69.6094-8.6484L69.6094-8.6484ZM17.0859-23.4141L17.0859-23.4141Q17.2266-23.0625 17.3320-22.7813Q17.4375-22.5000 17.5078-22.2188L17.5078-22.2188Q17.7891-23.5547 18.2461-24.7852Q18.7031-26.0156 19.3359-27.0703L19.3359-27.0703Q19.1953-27.0703 19.0898-27.0352Q18.9844-27 18.9141-27L18.9141-27Q18.9141-27 18.9141-27Q18.9141-27 18.9141-27L18.9141-27Q18.5625-27 18.2109-27.0352Q17.8594-27.0703 17.5781-27.1406L17.5781-27.1406Q17.2969-26.8594 16.9805-26.6133Q16.6641-26.3672 16.3828-26.1563L16.3828-26.1563Q16.6641-24.7500 17.0859-23.4141L17.0859-23.4141ZM54.9141-44.1563L55.8984-43.1719L56.0391-43.2422Q56.3203-43.5234 56.6016-44.1563Q56.8828-44.7891 57.0234-45.5625L57.0234-45.5625L57.4453-47.6016L57.0234-47.5313L56.8828-47.5313Q56.8828-47.5313 56.8477-47.5313Q56.8125-47.5313 56.7422-47.5313L56.7422-47.5313Q56.6719-47.5313 56.5664-47.5313Q56.4609-47.5313 56.3203-47.5313L56.3203-47.5313L56.8828-46.9688L56.0391-46.9688Q55.9688-46.8281 55.9336-46.7227Q55.8984-46.6172 55.8984-46.4766L55.8984-46.4766Q55.6875-45.8438 55.4414-45.2813Q55.1953-44.7188 54.9141-44.2266L54.9141-44.2266Q54.9141-44.2266 54.9141-44.2266Q54.9141-44.2266 54.9141-44.1563L54.9141-44.1563ZM53.4375-40.4297L53.4375-40.5000Q53.3672-40.5000 53.3320-40.5703Q53.2969-40.6406 53.2266-40.7109L53.2266-40.7109L53.2266-40.7813L53.1563-40.8516Q53.0859-40.7109 52.9805-40.6055Q52.8750-40.5000 52.8047-40.3594L52.8047-40.3594Q52.8750-40.1484 52.9453-39.9375Q53.0156-39.7266 53.0859-39.5156L53.0859-39.5156Q53.2266-39.7266 53.2969-39.9727Q53.3672-40.2188 53.4375-40.4297L53.4375-40.4297ZM51.6094-36.7734L51.6094-36.7734Q51.4688-36.9141 51.3633-37.0547Q51.2578-37.1953 51.1172-37.4063L51.1172-37.4063Q51.0469-37.2656 50.9063-37.1250L50.9063-37.1250Q50.9766-36.7734 51.0820-36.4570Q51.1875-36.1406 51.3281-35.8594L51.3281-35.8594Q51.3984-36.0703 51.4688-36.3164Q51.5391-36.5625 51.6094-36.7734L51.6094-36.7734ZM51.6094-44.3672L51.6094-44.3672Q51.5391-44.4375 51.5391-44.4727Q51.5391-44.5078 51.4688-44.5078L51.4688-44.5078L51.5391-44.2266Q51.5391-44.2266 51.5391-44.2617Q51.5391-44.2969 51.6094-44.3672L51.6094-44.3672ZM55.6875-42.8203L55.6875-42.8203L55.6875-42.8203L55.3359-42.8906Q55.4063-42.8203 55.4414-42.7148Q55.4766-42.6094 55.5469-42.5391L55.5469-42.5391Q55.5469-42.5391 55.6172-42.6094Q55.6875-42.6797 55.6875-42.8203L55.6875-42.8203ZM53.2266-46.8984L53.2969-46.9688L53.2266-46.9688L53.2266-46.8984ZM33.7500-51.1875L33.7500-51.1875L33.1875-50.4844L33.9609-50.8359Q33.8906-50.9766 33.7500-51.1875ZM67.5000-51.5391L66.5859-53.5078Q66.5156-53.5078 66.4453-53.4727Q66.3750-53.4375 66.3047-53.3672L66.3047-53.3672Q66.0234-53.1563 65.7422-52.8398Q65.4609-52.5234 65.3203-52.1719L65.3203-52.1719L67.5703-51.3281Q67.5703-51.3984 67.5703-51.4336Q67.5703-51.4688 67.5000-51.5391L67.5000-51.5391ZM77.6953-40.2188L77.1328-40.5000L77.1328-40.5000L77.6953-40.2188ZM75.3047-38.0391L75.3047-38.0391L75.7266-37.8281L75.3047-38.0391ZM64.4766-50.8359L64.4766-50.8359L65.3203-50.4844L64.6875-51.1875Q64.6172-50.9766 64.4766-50.8359L64.4766-50.8359ZM63.4219-49.5000L63.4219-49.5000Q63.3516-49.3594 63.2109-49.2891L63.2109-49.2891L64.5469-49.0078L63.9844-50.0625Q63.8438-49.9219 63.7031-49.7813Q63.5625-49.6406 63.4219-49.5000L63.4219-49.5000ZM35.7188-48.9375L35.2266-47.4609L35.5781-47.6016L37.0547-48.2344Q36.7031-48.3750 36.3516-48.5508Q36-48.7266 35.7188-48.9375L35.7188-48.9375ZM84.8672-48.3047L84.8672-48.3047L84.6563-48.4453Q84.7266-48.3047 84.7617-48.1992Q84.7969-48.0938 84.7969-47.9531L84.7969-47.9531Q84.7969-48.0938 84.8320-48.1641Q84.8672-48.2344 84.8672-48.3047L84.8672-48.3047ZM91.5469-40.4297L91.5469-40.4297Q91.7578-40.3594 92.0039-40.2891Q92.2500-40.2188 92.5313-40.2188L92.5313-40.2188Q92.2500-40.2891 92.0039-40.3945Q91.7578-40.5000 91.5469-40.5703L91.5469-40.5703Q91.5469-40.5703 91.5469-40.5352Q91.5469-40.5000 91.5469-40.4297ZM89.9297-45.6328L89.0859-46.1250Q89.0156-45.7031 88.8750-45.2813L88.8750-45.2813Q89.9297-44.7891 91.0195-44.2617Q92.1094-43.7344 93.1641-43.2422L93.1641-43.2422Q94.0078-42.8906 94.8516-42.6445Q95.6953-42.3984 96.4688-42.5391L96.4688-42.5391Q96.6094-42.5391 96.7500-42.6445Q96.8906-42.7500 97.0313-42.8906L97.0313-42.8906Q95.1328-43.0313 93.3398-43.9102Q91.5469-44.7891 89.9297-45.6328L89.9297-45.6328ZM58.2891-47.6016L58.2188-47.6016L59.2031-46.1250L59.4844-47.5313L60.8906-46.8281Q61.0313-46.7578 61.2422-46.6875L61.2422-46.6875L60.9609-48.0938Q60.3281-47.8828 59.6602-47.7773Q58.9922-47.6719 58.2891-47.6016L58.2891-47.6016ZM69.8203-53.6484L69.5391-53.6484Q68.8359-53.7891 68.0273-53.8242Q67.2188-53.8594 66.5859-53.5781L66.5859-53.5781L68.8359-53.2266Q71.0859-52.8750 73.0898-52.3125Q75.0938-51.7500 76.9922-50.9766L76.9922-50.9766Q76.5000-51.4688 76.2891-51.9609L76.2891-51.9609Q74.8828-52.4531 73.2305-52.8750Q71.5781-53.2969 69.8203-53.6484L69.8203-53.6484ZM61.4531-48.2344L61.4531-48.2344L62.9297-47.6016L63.2813-47.4609L62.7891-48.9375Q62.5078-48.7266 62.1563-48.5508Q61.8047-48.3750 61.4531-48.2344L61.4531-48.2344ZM47.1797-32.2031L46.4766-32.5547Q46.1250-32.7656 45.8438-32.9766Q45.5625-33.1875 45.3516-33.4688L45.3516-33.4688L43.9453-33.4688Q43.0313-33.4688 42.4336-32.8008Q41.8359-32.1328 41.6250-31.3594L41.6250-31.3594Q41.6250-31.1484 41.5547-30.9023Q41.4844-30.6563 41.4844-30.3750L41.4844-30.3750Q41.3438-29.5313 41.0977-28.6523Q40.8516-27.7734 40.1484-27.1406L40.1484-27.1406Q39.9375-26.8594 39.6563-26.6133Q39.3750-26.3672 39.0938-26.1563L39.0938-26.1563Q38.6719-25.8750 38.3555-25.5938Q38.0391-25.3125 37.7578-24.9609L37.7578-24.9609L37.6875-24.8203L38.1094-24.8203Q38.1797-24.8203 38.2148-24.8203Q38.2500-24.8203 38.3203-24.8203L38.3203-24.8203L38.4609-24.8203Q38.4609-24.8203 38.4609-24.8203Q38.4609-24.8203 38.4609-24.8203L38.4609-24.8203Q38.7422-24.8203 39.0234-24.7148Q39.3047-24.6094 39.5156-24.3984L39.5156-24.3984Q39.6563-24.5391 39.8672-24.6797L39.8672-24.6797L40.7813-25.2422Q41.0625-25.5938 41.4492-25.9453Q41.8359-26.2969 42.1875-26.5781L42.1875-26.5781L43.8750-27.6328L47.1797-32.2031ZM49.2891-21.8672L48.7969-15.4688Q48.7969-15.4688 48.7969-15.4336Q48.7969-15.3984 48.7969-15.3984L48.7969-15.3984Q48.7969-15.0469 48.9375-14.7305Q49.0781-14.4141 49.2891-14.1328L49.2891-14.1328Q49.4297-14.4141 49.5703-14.7305Q49.7109-15.0469 49.7109-15.3984L49.7109-15.3984Q49.7109-15.3984 49.7109-15.4336Q49.7109-15.4688 49.7109-15.4688L49.7109-15.4688L49.2891-21.8672ZM45.9141-14.6250L45.9141-14.6250Q45.9141-14.6250 45.9492-14.6953Q45.9844-14.7656 45.9844-14.8359L45.9844-14.8359L46.4766-19.6875L45.7031-15.1875Q45.7031-14.9766 45.7734-14.8711Q45.8438-14.7656 45.9141-14.6250L45.9141-14.6250ZM58.5000-27.0703L58.5000-27.0703Q57.7969-27.8438 57.5508-28.7578Q57.3047-29.6719 57.1641-30.5156L57.1641-30.5156Q57.0938-30.7266 57.0586-30.9375Q57.0234-31.1484 56.9531-31.3594L56.9531-31.3594Q56.8125-32.2031 56.1445-32.8008Q55.4766-33.3984 54.5625-33.4688L54.5625-33.4688L53.2266-33.6094Q52.9453-33.3281 52.6641-33.0469Q52.3828-32.7656 52.0313-32.5547L52.0313-32.5547L51.8203-32.4844L51.3984-32.2734L54.6328-27.7031L56.3906-26.5781Q56.8125-26.2969 57.1992-25.9805Q57.5859-25.6641 57.8672-25.2422L57.8672-25.2422L58.7813-24.6797Q58.9922-24.5391 59.1328-24.3984L59.1328-24.3984Q59.3438-24.6094 59.6250-24.7148Q59.9063-24.8203 60.1875-24.8203L60.1875-24.8203Q60.2578-24.8203 60.2930-24.8203Q60.3281-24.8203 60.3281-24.8203L60.3281-24.8203Q60.3984-24.8203 60.4336-24.8203Q60.4688-24.8203 60.5391-24.8203L60.5391-24.8203L60.9609-24.8203L60.9609-24.8203L60.8906-24.9609Q60.6094-25.3125 60.2930-25.5938Q59.9766-25.8750 59.6250-26.1563L59.6250-26.1563Q59.2734-26.3672 58.9922-26.6133Q58.7109-26.8594 58.5000-27.0703L58.5000-27.0703ZM42.8203-16.1719L42.8203-16.1719L42.8906-16.2422Q43.5938-19.1250 44.2266-22.0078L44.2266-22.0078Q43.8047-20.8125 43.4180-19.5469Q43.0313-18.2813 42.6094-17.0859L42.6094-17.0859Q42.6094-16.8047 42.6797-16.5938Q42.7500-16.3828 42.8203-16.1719L42.8203-16.1719ZM39.0234-47.5313L39.3047-46.1250L40.2891-47.6016Q39.5156-47.6719 38.8125-47.7773Q38.1094-47.8828 37.4766-48.0938L37.4766-48.0938L37.2656-46.6875Q37.4063-46.7578 37.6172-46.8281L37.6172-46.8281L39.0234-47.5313ZM52.0313-19.6875L52.5234-14.9063Q52.5234-14.8359 52.5586-14.7656Q52.5938-14.6953 52.6641-14.6953L52.6641-14.6953Q52.7344-14.7656 52.7695-14.8711Q52.8047-14.9766 52.8047-15.1172L52.8047-15.1172L52.0313-19.6875ZM52.9453-25.9453L50.7656-32.4844L50.5547-32.5547Q50.2031-32.8359 49.8516-33.1523Q49.5000-33.4688 49.2188-33.8203L49.2188-33.8203Q49.0078-33.4688 48.6563-33.1523Q48.3047-32.8359 47.9531-32.5547L47.9531-32.5547L47.7422-32.4844L46.7578-29.5313L46.8281-29.5313L46.7578-29.3906L45.5625-25.8750L45.4922-25.6641L47.5313-25.2422L47.4609-24.9609L49.5000-24.8203L49.3594-23.5547L51.3281-23.7656L51.0469-25.2422L53.0156-25.6641L52.9453-25.9453ZM55.6172-16.2422L55.6172-16.2422L55.6875-16.1719Q55.7578-16.3828 55.8281-16.5938Q55.8984-16.8047 55.8984-17.0859L55.8984-17.0859Q55.4766-18.2813 55.0898-19.5469Q54.7031-20.8125 54.2813-22.0078L54.2813-22.0078Q54.9141-19.1250 55.6172-16.2422L55.6172-16.2422ZM10.2656-54.7031L10.3359-54.6328Q9.9141-53.3672 9.6680-51.8906Q9.4219-50.4141 9.2813-48.9375L9.2813-48.9375Q10.1250-49.2891 11.0039-49.7461Q11.8828-50.2031 12.7266-50.6250L12.7266-50.6250Q12.1641-51.7500 11.5313-52.7695Q10.8984-53.7891 10.2656-54.7031L10.2656-54.7031ZM13.2891-48.1641L13.6406-48.3750L13.6406-48.2344L13.6406-48.3047Q12.6563-47.8125 11.6719-47.3203Q10.6875-46.8281 9.7734-46.3359L9.7734-46.3359L9.4219-46.1250Q9.4922-45.7031 9.6328-45.2813L9.6328-45.2813L12.5156-46.7578L13.2891-47.1094Q15.3281-48.1641 17.4727-49.1836Q19.6172-50.2031 21.8672-51.1172L21.8672-51.1172Q21.9375-51.3281 22.0781-51.5391Q22.2188-51.7500 22.3594-51.9609L22.3594-51.9609Q19.7578-51.1172 17.5430-50.1680Q15.3281-49.2188 13.2891-48.1641L13.2891-48.1641ZM18-45.3516L19.2656-45.8438L19.1953-45.9141L17.0156-45L18-45.3516ZM27.9844-15.6797L27.9844-15.7500Q27.8438-13.7813 28.0195-11.9180Q28.1953-10.0547 28.9688-8.5781L28.9688-8.5781Q27.9141-9.2109 27.0352-9.8789Q26.1563-10.5469 25.3125-11.1797L25.3125-11.1797Q27.3516-14.1328 26.6133-17.3672Q25.8750-20.6016 24.3984-23.7656L24.3984-23.7656Q23.3438-21.3750 22.6406-18.8789Q21.9375-16.3828 22.4297-13.9922L22.4297-13.9922Q21.7969-14.6953 21.1992-15.4688Q20.6016-16.2422 20.0391-17.0859L20.0391-17.0859Q21.9375-19.1953 22.0430-21.8672Q22.1484-24.5391 21.5156-27.3516L21.5156-27.3516L21.4453-27.4219Q20.9531-27.2813 20.4258-27.1758Q19.8984-27.0703 19.3359-27L19.3359-27Q18.7031-25.9453 18.2461-24.7500Q17.7891-23.5547 17.5078-22.2891L17.5078-22.2891Q17.4375-22.5000 17.3320-22.7813Q17.2266-23.0625 17.0859-23.4141L17.0859-23.4141Q16.6641-24.8203 16.3125-26.1563L16.3125-26.1563Q16.6641-26.3672 16.9805-26.6133Q17.2969-26.8594 17.5781-27.1406L17.5781-27.1406Q17.3672-27.2109 17.1914-27.2461Q17.0156-27.2813 16.8750-27.3516L16.8750-27.3516L14.4141-28.2656L15.1875-28.6875Q14.6250-28.7578 14.0977-28.8984Q13.5703-29.0391 13.1484-29.2500L13.1484-29.2500L12.9375-29.3203L10.9688-30.3047L11.3906-30.5156Q10.1953-31.2891 8.7188-31.6406Q7.2422-31.9922 5.6953-32.2734L5.6953-32.2734Q7.0313-28.8984 8.9648-26.2969Q10.8984-23.6953 14.2031-23.9766L14.2031-23.9766Q14.4141-23.2031 14.6953-22.3594L14.6953-22.3594Q14.7656-22.0781 14.8359-21.8672Q14.9063-21.6563 14.9766-21.4453L14.9766-21.4453Q13.5000-22.8516 11.3906-23.2383Q9.2813-23.6250 7.1016-23.6953L7.1016-23.6953Q8.8594-20.3906 11.2148-18.0352Q13.5703-15.6797 17.0859-16.8750L17.0859-16.8750Q17.5781-16.0313 18.0703-15.1875L18.0703-15.1875Q16.5938-15.6797 14.8359-15.5039Q13.0781-15.3281 11.3203-14.9766L11.3203-14.9766Q13.5703-12.1641 16.2070-10.3711Q18.8438-8.5781 22.0781-10.4063L22.0781-10.4063Q22.7813-9.7031 23.4844-9L23.4844-9Q22.0078-9.1406 20.3906-8.5781Q18.7734-8.0156 17.1563-7.3125L17.1563-7.3125Q19.8281-5.0625 22.7813-3.8672Q25.7344-2.6719 28.6172-5.3438L28.6172-5.3438Q29.6016-4.7813 30.5859-4.2188L30.5859-4.2188Q28.9688-3.9375 27.3867-2.8477Q25.8047-1.7578 24.3281-0.4219L24.3281-0.4219Q27.4219 0.9141 30.4805 1.1250Q33.5391 1.3359 35.6484-1.9688L35.6484-1.9688Q36.4219-1.6875 37.1602-1.4414Q37.8984-1.1953 38.6016-0.9844L38.6016-0.9844Q36.9141-0.5625 35.3672 0.7031Q33.8203 1.9688 32.3438 3.5156L32.3438 3.5156Q35.5781 4.5703 38.7070 4.4297Q41.8359 4.2891 43.7344 0.4219L43.7344 0.4219Q43.6641 0.3516 43.5938 0.3164Q43.5234 0.2813 43.4531 0.2109L43.4531 0.2109Q44.7188 0.4922 45.4570 0.5977Q46.1953 0.7031 46.2656 0.7031L46.2656 0.7031L46.4766-2.3203Q45.3516-2.4609 44.3320-2.6719Q43.3125-2.8828 42.3984-3.0938L42.3984-3.0938Q42.3281-7.4531 39.6563-9.1055Q36.9844-10.7578 33.7500-11.4609L33.7500-11.4609Q34.4531-9.4922 35.2969-7.6641Q36.1406-5.8359 37.3359-4.5703L37.3359-4.5703Q36.4219-4.8516 35.5781-5.2031Q34.7344-5.5547 33.8203-5.9766L33.8203-5.9766Q33.4688-6.1172 33.1523-6.2578Q32.8359-6.3984 32.5547-6.5391L32.5547-6.5391Q33.3281-8.9297 32.8711-10.8984Q32.4141-12.8672 31.2891-14.6250L31.2891-14.6250L29.9531-14.5547Q29.9531-14.5547 29.9180-14.5547Q29.8828-14.5547 29.8828-14.5547L29.8828-14.5547Q29.2500-14.5547 28.7578-14.8711Q28.2656-15.1875 27.9844-15.6797L27.9844-15.6797ZM8.9297-41.0625L8.9297-41.0625Q8.7891-41.1328 8.6484-41.2734L8.6484-41.2734Q8.2266-41.0625 7.8047-40.9219Q7.3828-40.7813 6.9609-40.5703L6.9609-40.5703L7.0313-40.4297Q7.4531-40.5703 7.9453-40.7109Q8.4375-40.8516 8.9297-41.0625L8.9297-41.0625ZM24.1875-57.5156L24.1875-57.5156Q22.7813-57.0234 21.4805-56.3906Q20.1797-55.7578 19.0547-54.9141L19.0547-54.9141Q19.3359-55.5469 19.6875-56.1094Q20.0391-56.6719 20.3203-57.2344L20.3203-57.2344Q22.9922-58.2891 24.0469-61.2070Q25.1016-64.1250 25.5938-67.4297L25.5938-67.4297Q22.9219-66.0938 20.7070-64.1602Q18.4922-62.2266 18.2109-58.9219L18.2109-58.9219Q17.7188-58.0781 17.2266-57.2344L17.2266-57.2344Q17.2266-59.1328 16.5586-61.1367Q15.8906-63.1406 15.0469-65.1094L15.0469-65.1094Q13.4297-61.6641 12.7969-58.1133Q12.1641-54.5625 14.6953-51.5391L14.6953-51.5391Q16.5234-52.4531 18.6328-53.2617Q20.7422-54.0703 22.9922-54.7734L22.9922-54.7734Q23.5547-55.4766 23.8008-56.1445Q24.0469-56.8125 24.1875-57.5156L24.1875-57.5156ZM50.6250-0.8438L50.6250-0.8438Q50.6250-0.0703 50.2031 0.4570Q49.7813 0.9844 49.1484 0.9844L49.1484 0.9844Q48.4453 0.9844 48.0234 0.4570Q47.6016-0.0703 47.6016-0.8438L47.6016-0.8438Q47.6016-1.5469 48.0234-2.0742Q48.4453-2.6016 49.1484-2.6016L49.1484-2.6016Q49.7813-2.6016 50.2031-2.0742Q50.6250-1.5469 50.6250-0.8438ZM89.0859-46.1250L88.7344-46.3359Q87.8203-46.8281 86.8359-47.3203Q85.8516-47.8125 84.8672-48.3047L84.8672-48.3047Q84.8672-48.2344 84.8320-48.1641Q84.7969-48.0938 84.7969-47.9531L84.7969-47.9531Q84.7969-48.0938 84.7617-48.1992Q84.7266-48.3047 84.6563-48.4453L84.6563-48.4453Q82.9688-49.2891 80.9297-50.1680Q78.8906-51.0469 76.7813-51.8203L76.7813-51.8203Q76.5000-51.4688 76.7813-51.0469L76.7813-51.0469Q78.9609-50.2031 81.0703-49.1836Q83.1797-48.1641 85.2188-47.1094L85.2188-47.1094L85.9922-46.7578L88.8750-45.2813Q89.0156-45.7031 89.0859-46.1250L89.0859-46.1250ZM79.3125-45.9141L79.2422-45.8438L81.4922-45L79.3125-45.9141ZM89.8594-41.2734L89.8594-41.2734Q89.7188-41.1328 89.5781-41.0625L89.5781-41.0625Q90.0703-40.8516 90.5625-40.7109Q91.0547-40.5703 91.5469-40.4297L91.5469-40.4297Q91.5469-40.5000 91.5469-40.5352Q91.5469-40.5703 91.5469-40.5703L91.5469-40.5703Q91.1250-40.7813 90.7031-40.9219Q90.2813-41.0625 89.8594-41.2734L89.8594-41.2734ZM83.5313-65.1797L83.5313-65.1797Q82.5469-63.1406 81.8789-61.0313Q81.2109-58.9219 81.2813-56.8828L81.2813-56.8828Q80.8594-57.7266 80.3672-58.5703L80.3672-58.5703Q80.2266-62.0859 77.9766-64.1250Q75.7266-66.1641 72.9141-67.5000L72.9141-67.5000Q73.4063-64.2656 74.3906-61.4180Q75.3750-58.5703 77.9063-57.4453L77.9063-57.4453Q78.5391-56.3906 79.1016-55.2656L79.1016-55.2656Q78.0469-56.0391 76.8164-56.6016Q75.5859-57.1641 74.3203-57.5859L74.3203-57.5859Q74.5313-56.8828 74.7070-56.2148Q74.8828-55.5469 75.0938-54.8438L75.0938-54.8438Q77.6250-54.0703 79.8398-53.2266Q82.0547-52.3828 84.1641-51.3984L84.1641-51.3984Q86.4844-54.5625 85.8164-58.1484Q85.1484-61.7344 83.5313-65.1797L83.5313-65.1797ZM87.3984-30.3750L85.4297-29.3203L85.3594-29.1797L85.3594-29.2500Q84.9375-29.0391 84.4102-28.8633Q83.8828-28.6875 83.3906-28.6875L83.3906-28.6875L83.8828-28.3359L81.6328-27.3516Q81.4922-27.3516 81.3516-27.2813Q81.2109-27.2109 81-27.1406L81-27.1406Q81.2109-26.9297 81.4922-26.7188Q81.7734-26.5078 82.0547-26.2969L82.0547-26.2969Q81.7031-24.8906 81.2109-23.4141L81.2109-23.4141Q81.1406-23.2031 81.0703-22.9922Q81-22.7813 80.9297-22.5703L80.9297-22.5703Q80.7188-23.7656 80.2617-24.8906Q79.8047-26.0156 79.2422-27.0703L79.2422-27.0703Q78.6797-27.0703 78.1172-27.1758Q77.5547-27.2813 76.9922-27.4219L76.9922-27.4219L76.9922-27.4219Q76.3594-24.6094 76.4648-22.0078Q76.5703-19.4063 78.4688-17.3672L78.4688-17.3672Q77.9063-16.4531 77.3086-15.6797Q76.7109-14.9063 76.0781-14.2031L76.0781-14.2031Q76.5703-16.5938 75.8672-19.0547Q75.1641-21.5156 74.1094-23.9063L74.1094-23.9063Q72.6328-20.7422 71.8945-17.5078Q71.1563-14.2734 73.1250-11.3203L73.1250-11.3203Q72.3516-10.6172 71.4727-9.9844Q70.5938-9.3516 69.6797-8.7891L69.6797-8.7891Q70.3125-10.1953 70.4883-11.9531Q70.6641-13.7109 70.5234-15.5391L70.5234-15.5391Q70.2422-15.1172 69.7852-14.8359Q69.3281-14.5547 68.7656-14.5547L68.7656-14.5547Q68.6953-14.5547 68.6953-14.5547Q68.6953-14.5547 68.6953-14.5547L68.6953-14.5547L67.1484-14.6250Q66.0234-12.8672 65.6016-10.8984Q65.1797-8.9297 65.9531-6.6797L65.9531-6.6797Q65.2500-6.3281 64.5469-5.9766L64.5469-5.9766Q63.6328-5.6250 62.7891-5.2734Q61.9453-4.9219 61.1719-4.6406L61.1719-4.6406Q62.3672-5.9063 63.2109-7.7695Q64.0547-9.6328 64.7578-11.6016L64.7578-11.6016Q61.5234-10.8281 58.8164-9.1758Q56.1094-7.5234 55.8281-3.0938L55.8281-3.0938Q55.0547-2.8828 54.0703-2.7070Q53.0859-2.5313 52.1016-2.3906L52.1016-2.3906L51.9609-0.8438L52.1016 0.7031Q52.1719 0.7031 52.9453 0.5977Q53.7188 0.4922 54.9844 0.2109L54.9844 0.2109L54.8438 0.3516Q56.6719 4.1484 59.8008 4.3242Q62.9297 4.5000 66.1641 3.4453L66.1641 3.4453Q64.7578 1.8984 63.2109 0.6328Q61.6641-0.6328 59.9766-1.0547L59.9766-1.0547Q60.6797-1.2656 61.4180-1.5117Q62.1563-1.7578 62.9297-2.1094L62.9297-2.1094Q65.0391 1.1953 68.0977 0.9844Q71.1563 0.7734 74.1797-0.4922L74.1797-0.4922Q72.7031-1.8281 71.1563-2.9531Q69.6094-4.0781 67.9219-4.3594L67.9219-4.3594Q68.9766-4.8516 69.9609-5.4844L69.9609-5.4844Q72.7734-2.8125 75.7266-3.9727Q78.6797-5.1328 81.3516-7.4531L81.3516-7.4531Q79.7344-8.1563 78.1172-8.6836Q76.5000-9.2109 74.9531-9.1406L74.9531-9.1406Q75.7266-9.7734 76.4297-10.4766L76.4297-10.4766Q79.6641-8.6484 82.3359-10.4414Q85.0078-12.2344 87.2578-15.0469L87.2578-15.0469Q85.4297-15.4688 83.6367-15.6094Q81.8438-15.7500 80.2969-15.1875L80.2969-15.1875Q80.8594-16.1016 81.4219-16.9453L81.4219-16.9453Q84.9375-15.6797 87.3281-18.0703Q89.7188-20.4609 91.4766-23.7656L91.4766-23.7656Q89.1563-23.7656 87.0117-23.3438Q84.8672-22.9219 83.3203-21.3047L83.3203-21.3047Q83.4609-21.5859 83.5313-21.8320Q83.6016-22.0781 83.6719-22.3594L83.6719-22.3594Q83.9531-23.2031 84.2344-24.1172L84.2344-24.1172Q87.5391-23.7656 89.5078-26.3672Q91.4766-28.9688 92.8828-32.3438L92.8828-32.3438Q91.2656-32.1328 89.7891-31.7461Q88.3125-31.3594 87.0469-30.5859L87.0469-30.5859L87.3984-30.3750ZM88.1719-54.9141L88.2422-54.7031Q87.6094-53.7891 86.9766-52.8047Q86.3438-51.8203 85.8516-50.7656L85.8516-50.7656Q86.6953-50.2031 87.5391-49.7461Q88.3828-49.2891 89.2266-48.7969L89.2266-48.7969Q89.1563-50.4141 88.8750-51.9258Q88.5938-53.4375 88.1719-54.9141L88.1719-54.9141ZM46.6875-61.1719L46.6875-61.1719Q47.1797-61.1719 47.4961-60.9961Q47.8125-60.8203 48.0938-60.9609L48.0938-60.9609Q48.3750-61.1016 48.5859-61.2773Q48.7969-61.4531 49.0078-61.7344L49.0078-61.7344L47.1797-61.7344Q46.8984-61.7344 46.7930-61.4531Q46.6875-61.1719 46.6875-61.1719L46.6875-61.1719ZM49.1484-43.8750L49.1484-43.8750Q49.0078-43.1016 48.6211-42.1875Q48.2344-41.2734 47.6016-40.7109L47.6016-40.7109Q47.7422-39.8672 48.0938-39.0586Q48.4453-38.2500 49.2188-37.7578L49.2188-37.7578Q49.9219-38.2500 50.2734-39.0938Q50.6250-39.9375 50.8359-40.7813L50.8359-40.7813Q50.1328-41.2734 49.7109-42.1875Q49.2891-43.1016 49.1484-43.8750L49.1484-43.8750ZM47.1797-40.5000L47.2500-40.5000Q47.0391-39.6563 46.6172-38.7422Q46.1953-37.8281 45.4922-37.3359L45.4922-37.3359Q45.6328-36.4219 46.0195-35.4727Q46.4063-34.5234 47.1797-34.0313L47.1797-34.0313Q47.9531-34.5938 48.3398-35.5430Q48.7266-36.4922 48.8672-37.4766L48.8672-37.4766Q48.2344-37.9688 47.8125-38.8477Q47.3906-39.7266 47.1797-40.5000L47.1797-40.5000ZM45.1406-44.1563L45.1406-44.1563L45.0703-44.2266Q45.0703-44.1563 45.0352-44.1211Q45-44.0859 45-44.0156L45-44.0156Q45-43.8750 45-43.7344Q45-43.5938 44.9297-43.4531L44.9297-43.4531Q44.9297-43.3125 44.8945-43.1719Q44.8594-43.0313 44.8594-42.8906L44.8594-42.8906Q44.7891-42.8203 44.7891-42.7500Q44.7891-42.6797 44.7188-42.6094L44.7188-42.6094Q44.7188-42.5391 44.6836-42.5039Q44.6484-42.4688 44.6484-42.3984L44.6484-42.3984Q44.6484-42.3281 44.6133-42.2578Q44.5781-42.1875 44.5078-42.1172L44.5078-42.1172Q44.5078-42.0469 44.4727-41.9766Q44.4375-41.9063 44.3672-41.8359L44.3672-41.8359Q44.3672-41.7656 44.3320-41.7305Q44.2969-41.6953 44.2266-41.6250L44.2266-41.6250Q44.2266-41.5547 44.1914-41.4844Q44.1563-41.4141 44.0859-41.3438L44.0859-41.3438Q44.0859-41.3438 44.0156-41.2734Q43.9453-41.2031 43.9453-41.1328L43.9453-41.1328Q43.8750-41.0625 43.8047-41.0273Q43.7344-40.9922 43.7344-40.9219L43.7344-40.9219Q43.6641-40.9219 43.6641-40.8867Q43.6641-40.8516 43.5938-40.8516L43.5938-40.8516Q43.8047-39.9375 44.1563-39.0234Q44.5078-38.1094 45.2813-37.6172L45.2813-37.6172Q45.9844-38.1094 46.3359-38.9531Q46.6875-39.7969 46.8984-40.6406L46.8984-40.6406Q46.0547-41.2734 45.6680-42.2227Q45.2813-43.1719 45.1406-44.1563L45.1406-44.1563ZM49.2188-48.3047L49.2188-48.3047L49.1484-48.2344L49.0078-48.3047Q48.7266-48.5859 48.4805-48.9375Q48.2344-49.2891 48.1641-49.7109L48.1641-49.7109Q47.9531-49.5000 47.6719-49.2891Q47.3906-49.0781 47.0391-48.9375L47.0391-48.9375Q46.5469-48.6563 45.8438-48.4102Q45.1406-48.1641 44.5781-48.1641L44.5781-48.1641L44.1563-48.1641L44.4375-48.5156Q44.6484-48.7266 44.8242-49.0430Q45-49.3594 45.1406-49.6406L45.1406-49.6406Q44.7891-49.4297 44.2969-49.2891Q43.8047-49.1484 43.3125-49.0078L43.3125-49.0078Q43.4531-47.8828 43.8750-46.5820Q44.2969-45.2813 45.1406-44.5781L45.1406-44.5781Q45.9141-45.2813 46.4414-46.9336Q46.9688-48.5859 46.9688-48.5859L46.9688-48.5859Q46.9688-48.5859 46.6172-46.8281Q46.2656-45.0703 45.4922-44.2969L45.4922-44.2969Q45.6328-43.3125 46.0195-42.3984Q46.4063-41.4844 47.1797-40.9219L47.1797-40.9219Q47.9531-41.4844 48.3398-42.4688Q48.7266-43.4531 48.8672-44.3672L48.8672-44.3672Q48.0938-45 47.7422-46.0547Q47.3906-47.1094 47.1797-48.0938L47.1797-48.0938Q47.3906-47.1797 47.8477-46.2305Q48.3047-45.2813 49.0781-44.7188L49.0781-44.7188L49.3594-44.7188Q50.1328-45.4219 50.6953-47.0039Q51.2578-48.5859 51.2578-48.5859L51.2578-48.5859Q51.2578-48.5859 50.8008-46.8281Q50.3438-45.0703 49.4297-44.3672L49.4297-44.3672Q49.5703-43.5234 49.9570-42.6094Q50.3438-41.6953 50.9766-41.2031L50.9766-41.2031L51.2578-41.1328Q52.0313-41.6953 52.3828-42.7148Q52.7344-43.7344 52.8750-44.6484L52.8750-44.6484L52.8750-44.6484Q52.1719-45.5625 51.8203-46.6875Q51.4688-47.8125 51.2578-48.8672L51.2578-48.8672Q50.9766-49.0781 50.6953-49.2891Q50.4141-49.5000 50.1328-49.7109L50.1328-49.7109Q50.0625-49.2891 49.8164-48.9375Q49.5703-48.5859 49.2188-48.3047L49.2188-48.3047ZM53.0859-37.6875L53.0859-37.6875Q53.8594-38.1797 54.2109-39.0586Q54.5625-39.9375 54.7734-40.8516L54.7734-40.8516Q54.7031-40.8516 54.7031-40.8867Q54.7031-40.9219 54.6328-40.9219L54.6328-40.9219Q54.5625-40.9922 54.5273-41.0625Q54.4922-41.1328 54.4219-41.1328L54.4219-41.1328Q54.4219-41.2031 54.3516-41.2734Q54.2813-41.3438 54.2813-41.4141L54.2813-41.4141Q54.2109-41.4844 54.1758-41.5195Q54.1406-41.5547 54.0703-41.6250L54.0703-41.6250Q54.0703-41.6953 54.0352-41.7656Q54-41.8359 53.9297-41.9063L53.9297-41.9063Q53.9297-41.9766 53.8945-42.0117Q53.8594-42.0469 53.8594-42.1172L53.8594-42.1172Q53.7891-42.1875 53.7539-42.2578Q53.7188-42.3281 53.7188-42.3984L53.7188-42.3984L53.5781-42.6797Q53.5781-42.7500 53.5430-42.8203Q53.5078-42.8906 53.5078-42.9609L53.5078-42.9609Q53.5078-43.1016 53.4727-43.2422Q53.4375-43.3828 53.4375-43.5234L53.4375-43.5234Q53.3672-43.6641 53.3672-43.8047Q53.3672-43.9453 53.3672-44.0859L53.3672-44.0859Q53.3672-44.1563 53.3320-44.2617Q53.2969-44.3672 53.2969-44.4375L53.2969-44.4375L53.2969-44.4375L53.2266-44.4375Q53.0156-43.4531 52.6289-42.4336Q52.2422-41.4141 51.4688-40.8516L51.4688-40.8516Q51.6094-39.9375 51.9961-39.0586Q52.3828-38.1797 53.0859-37.6875L53.0859-37.6875ZM49.5703-37.5469L49.5703-37.5469Q49.7813-36.5625 50.1328-35.5781Q50.4844-34.5938 51.3281-34.0313L51.3281-34.0313Q52.1016-34.5234 52.4531-35.4375Q52.8047-36.3516 52.9453-37.2656L52.9453-37.2656Q52.1719-37.7578 51.7500-38.6719Q51.3281-39.5859 51.1172-40.5000L51.1172-40.5000Q50.9766-39.7266 50.5898-38.8828Q50.2031-38.0391 49.5703-37.5469ZM25.5234-37.4766L25.5938-37.4063Q23.7656-36.1406 21.8672-34.8750Q19.9688-33.6094 17.9297-32.6250L17.9297-32.6250Q20.5313-32.6953 22.9219-33.6094Q25.3125-34.5234 27.4219-36.0703L27.4219-36.0703Q26.9297-36.4219 26.4727-36.7734Q26.0156-37.1250 25.5234-37.4766L25.5234-37.4766ZM28.2656-35.6484L28.2656-35.6484Q26.7188-34.3828 25.0664-33.1523Q23.4141-31.9219 21.6563-30.9375L21.6563-30.9375Q24.1875-31.2188 26.4375-32.1680Q28.6875-33.1172 30.5156-34.6641L30.5156-34.6641Q30.1641-34.7344 29.8125-34.8750Q29.4609-35.0156 29.1797-35.1563L29.1797-35.1563Q28.6875-35.3672 28.2656-35.6484L28.2656-35.6484ZM26.7188-30.2344L26.6484-30.1641Q28.6172-30.5859 30.3398-31.5000Q32.0625-32.4141 33.4688-33.6797L33.4688-33.6797Q32.4141-33.9609 31.4297-34.2422L31.4297-34.2422Q30.3047-33.1875 29.1445-32.1680Q27.9844-31.1484 26.7188-30.2344L26.7188-30.2344ZM30.5156-29.4609L30.4453-29.3906Q32.3438-29.8828 33.9258-30.7969Q35.5078-31.7109 36.8438-32.9063L36.8438-32.9063Q35.7188-33.1172 34.5938-33.3281L34.5938-33.3281Q33.6797-32.2734 32.6602-31.3242Q31.6406-30.3750 30.5156-29.4609L30.5156-29.4609ZM32.8359-28.2656L32.8359-28.2656Q34.9453-28.7578 36.8086-29.7422Q38.6719-30.7266 40.1484-32.4844L40.1484-32.4844Q39.0938-32.6250 38.0391-32.7656L38.0391-32.7656Q36.8438-31.5000 35.4375-30.5156Q34.0313-29.5313 32.8359-28.2656ZM9.7031-43.2422L9.7031-43.2422Q10.1953-42.8203 10.8281-42.5742Q11.4609-42.3281 12.1641-42.3281L12.1641-42.3281Q12.3750-42.3281 12.5508-42.3281Q12.7266-42.3281 12.8672-42.3281L12.8672-42.3281Q13.9219-42.6094 14.8711-42.8906Q15.8203-43.1719 16.7344-43.5234L16.7344-43.5234Q17.5781-43.8750 18.5977-44.2969Q19.6172-44.7188 20.6719-45.0703L20.6719-45.0703Q20.5313-45.6328 20.3906-46.3008Q20.2500-46.9688 20.1797-47.6016L20.1797-47.6016Q14.9766-45.4219 9.7031-43.2422ZM13.2891-41.6953L13.2891-41.6953Q12.2344-41.3438 11.1797-41.4492Q10.1250-41.5547 9.2813-42.3281L9.2813-42.3281Q9.2109-42.3984 9.1055-42.4688Q9-42.5391 8.8594-42.5391L8.8594-42.5391Q8.8594-42.5391 8.8594-42.5391Q8.8594-42.5391 8.8594-42.5391L8.8594-42.5391Q8.7188-42.5391 8.6133-42.5391Q8.5078-42.5391 8.4375-42.4688L8.4375-42.4688Q6.8906-41.9063 5.3789-41.2734Q3.8672-40.6406 2.3906-39.9375L2.3906-39.9375Q3.0234-38.9531 4.1484-38.8828Q5.2734-38.8125 6.1875-39.0234L6.1875-39.0234Q8.0156-39.3750 9.7734-40.0781Q11.5313-40.7813 13.2891-41.6953ZM13.3594-41.7656L13.3594-41.7656L13.2891-41.6953L13.3594-41.7656ZM15.7500-42.1875L15.7500-42.1875Q14.4141-41.4844 13.0430-40.8516Q11.6719-40.2188 10.2656-39.6563L10.2656-39.6563Q10.6172-39.1641 11.3203-39.1289Q12.0234-39.0938 12.7266-39.2344L12.7266-39.2344Q14.9766-39.7969 17.2266-40.6758Q19.4766-41.5547 21.6563-42.4688L21.6563-42.4688Q21.4453-42.8906 21.2344-43.3828Q21.0234-43.8750 20.8828-44.3672L20.8828-44.3672Q19.5469-43.9453 18.2813-43.3828Q17.0156-42.8203 15.7500-42.1875L15.7500-42.1875ZM21.8672-42.0469L21.7969-42.1172Q20.8125-41.6250 19.7930-41.0625Q18.7734-40.5000 17.7891-39.9375L17.7891-39.9375Q16.7344-39.3047 15.5391-38.6719Q14.3438-38.0391 13.0781-37.4766L13.0781-37.4766Q13.2891-36.7734 13.8867-36.6680Q14.4844-36.5625 15.1172-36.7031L15.1172-36.7031Q17.2266-37.1953 19.1953-38.1094Q21.1641-39.0234 23.1328-40.0078L23.1328-40.0078L23.0625-40.1484Q22.7109-40.5703 22.4297-41.0625Q22.1484-41.5547 21.8672-42.0469L21.8672-42.0469ZM16.1016-39.7969L16.1016-39.7969L15.6797-39.6563Q14.6250-39.1641 13.6406-38.8828Q12.6563-38.6016 11.6016-38.4609L11.6016-38.4609Q11.1094-38.4609 10.6172-38.5313Q10.1250-38.6016 9.8438-38.9531L9.8438-38.9531Q9.7734-39.0234 9.7383-39.0938Q9.7031-39.1641 9.5625-39.2344L9.5625-39.2344Q9.5625-39.2344 9.5625-39.2344Q9.5625-39.2344 9.5625-39.2344L9.5625-39.2344Q9.4219-39.2344 9.3516-39.1992Q9.2813-39.1641 9.2109-39.1641L9.2109-39.1641Q8.2969-38.8125 7.3477-38.4258Q6.3984-38.0391 5.4844-37.6172L5.4844-37.6172Q6.4688-36.7734 7.8047-36.6680Q9.1406-36.5625 10.3359-36.9141L10.3359-36.9141Q11.8828-37.4063 13.3242-38.1797Q14.7656-38.9531 16.1016-39.7969L16.1016-39.7969ZM18.7734-37.4063L18.7734-37.4063L18.2813-37.1953Q17.2266-36.7734 16.2422-36.4922Q15.2578-36.2109 14.2031-36.1406L14.2031-36.1406Q13.7109-36.1406 13.2188-36.2461Q12.7266-36.3516 12.4453-36.7031L12.4453-36.7031Q12.3750-36.8438 12.3047-36.9141Q12.2344-36.9844 12.1641-36.9844L12.1641-36.9844Q12.0938-36.9844 12.0938-36.9844Q12.0938-36.9844 12.0938-36.9844L12.0938-36.9844Q12.0234-36.9844 11.9531-36.9492Q11.8828-36.9141 11.8125-36.9141L11.8125-36.9141Q10.8281-36.5625 9.8789-36.2461Q8.9297-35.9297 8.0156-35.5078L8.0156-35.5078Q9-34.6641 10.3359-34.5234Q11.6719-34.3828 12.8672-34.6641L12.8672-34.6641Q14.4844-35.0859 15.9258-35.8242Q17.3672-36.5625 18.7734-37.4063L18.7734-37.4063ZM17.5781-34.4531L17.5781-34.4531Q19.6875-35.0156 21.5859-35.8945Q23.4844-36.7734 25.1719-37.8984L25.1719-37.8984Q24.6797-38.2500 24.2578-38.7070Q23.8359-39.1641 23.4141-39.5859L23.4141-39.5859Q22.5000-39.0938 21.6211-38.5664Q20.7422-38.0391 19.8281-37.4766L19.8281-37.4766Q18.8438-36.7734 17.7539-36.1406Q16.6641-35.5078 15.5391-34.9453L15.5391-34.9453Q15.7500-34.3125 16.3477-34.2773Q16.9453-34.2422 17.5781-34.4531L17.5781-34.4531ZM21.0234-35.2266L21.0234-35.2266L20.6016-35.0156Q19.7578-34.5938 18.7734-34.3125Q17.7891-34.0313 16.7344-33.8906L16.7344-33.8906Q16.2422-33.8203 15.7500-33.8906Q15.2578-33.9609 14.9766-34.2422L14.9766-34.2422Q14.9063-34.3125 14.8359-34.3828Q14.7656-34.4531 14.6953-34.4531L14.6953-34.4531Q14.6250-34.4531 14.6250-34.4531Q14.6250-34.4531 14.6250-34.4531L14.6250-34.4531Q14.5547-34.4531 14.4844-34.4180Q14.4141-34.3828 14.3438-34.3828L14.3438-34.3828Q13.4297-34.0313 12.5508-33.6445Q11.6719-33.2578 10.7578-32.9063L10.7578-32.9063Q11.8125-32.1328 13.1133-32.0977Q14.4141-32.0625 15.5391-32.4141L15.5391-32.4141Q17.0156-32.9063 18.3516-33.6445Q19.6875-34.3828 21.0234-35.2266L21.0234-35.2266ZM24.5391-33.8203L24.5391-33.8203L23.6953-33.5391Q22.8516-33.0469 21.9023-32.6953Q20.9531-32.3438 19.8984-32.0625L19.8984-32.0625Q19.3359-31.9922 18.5273-32.0977Q17.7188-32.2031 17.6484-32.2031L17.6484-32.2031Q17.5781-32.2031 17.4727-32.1680Q17.3672-32.1328 17.2969-32.1328L17.2969-32.1328Q16.3828-31.7109 15.5039-31.2539Q14.6250-30.7969 13.7109-30.3047L13.7109-30.3047Q14.9063-29.7422 16.2422-29.9531Q17.5781-30.1641 18.7734-30.5859L18.7734-30.5859Q20.3906-31.2188 21.8320-32.0273Q23.2734-32.8359 24.5391-33.8203L24.5391-33.8203ZM23.6953-30.7266L23.6250-30.7266Q23.0625-30.5859 22.0430-30.5508Q21.0234-30.5156 20.8828-30.4453L20.8828-30.4453Q20.0391-30.0234 19.1250-29.4961Q18.2109-28.9688 17.2969-28.4766L17.2969-28.4766Q18.5625-28.0547 19.9688-28.3359Q21.3750-28.6172 22.5703-29.1094L22.5703-29.1094Q24.1875-29.8125 25.5938-30.6914Q27-31.5703 28.2656-32.6250L28.2656-32.6250Q27.2109-31.9922 26.0859-31.5000Q24.9609-31.0078 23.6953-30.7266L23.6953-30.7266ZM31.2891-31.5703L31.2891-31.5703Q30.5859-31.0781 29.8125-30.6914Q29.0391-30.3047 28.1953-30.0234L28.1953-30.0234Q27.7031-29.8828 26.9297-29.7773Q26.1563-29.6719 26.1563-29.6719L26.1563-29.6719Q24.8906-28.8984 23.6250-28.0547L23.6250-28.0547Q24.6094-27.8438 25.5938-28.1250Q26.5781-28.4063 27.4219-28.8281L27.4219-28.8281Q28.5469-29.3906 29.4961-30.0938Q30.4453-30.7969 31.2891-31.5703L31.2891-31.5703ZM31.2188-28.1953L31.2188-28.1953Q32.2734-28.6875 33.2227-29.3906Q34.1719-30.0938 35.0156-30.8672L35.0156-30.8672Q34.3125-30.3750 33.5391-29.9883Q32.7656-29.6016 31.8516-29.3203L31.8516-29.3203Q31.4297-29.2500 30.6563-29.1445Q29.8828-29.0391 29.8125-29.0391L29.8125-29.0391Q28.5469-28.2656 27.3516-27.4922L27.3516-27.4922Q28.4766-27.4219 29.3203-27.5625Q30.1641-27.7031 31.2188-28.1953L31.2188-28.1953ZM39.7969-33.4688L39.7969-33.4688Q39.8672-34.3828 39.9023-35.4023Q39.9375-36.4219 40.2891-37.1953L40.2891-37.1953Q40.5000-36.3516 40.3594-35.3320Q40.2188-34.3125 40.0781-33.4688L40.0781-33.4688Q40.0781-33.4688 40.7461-33.5391Q41.4141-33.6094 41.4844-35.3672L41.4844-35.3672Q41.4844-36.9141 41.4844-38.4609Q41.4844-40.0078 41.4141-41.5547L41.4141-41.5547Q41.4141-41.5547 41.4141-41.9063Q41.4141-42.2578 40.8516-42.2578L40.8516-42.2578Q40.8516-42.2578 40.8164-42.2578Q40.7813-42.2578 40.7813-42.2578L40.7813-42.2578Q40.5000-42.2578 40.3242-42.0820Q40.1484-41.9063 40.1484-41.6250L40.1484-41.6250Q40.1484-41.6250 40.1484-41.6250Q40.1484-41.6250 40.1484-41.6250L40.1484-41.6250Q39.7969-40.0781 39.4453-38.4961Q39.0938-36.9141 38.8125-35.3672L38.8125-35.3672Q38.4609-33.6094 39.1289-33.5391Q39.7969-33.4688 39.7969-33.4688L39.7969-33.4688ZM38.7422-42.5391L38.7422-42.5391Q38.6719-42.5391 38.6367-42.5742Q38.6016-42.6094 38.5313-42.6094L38.5313-42.6094Q38.3203-42.6094 38.1094-42.3984Q37.8984-42.1875 37.8984-41.9766L37.8984-41.9766Q37.3359-40.4297 36.8086-38.9180Q36.2813-37.4063 35.7188-35.8594L35.7188-35.8594Q35.2266-34.1016 35.8242-33.9609Q36.4219-33.8203 36.4219-33.8203L36.4219-33.8203Q36.6328-34.7344 36.8438-35.7188Q37.0547-36.7031 37.4766-37.5469L37.4766-37.5469Q37.4766-36.6328 37.2305-35.6484Q36.9844-34.6641 36.7031-33.7500L36.7031-33.7500Q36.7031-33.7500 37.3711-33.7500Q38.0391-33.7500 38.3203-35.5078L38.3203-35.5078Q38.6016-37.0547 38.8125-38.6367Q39.0234-40.2188 39.1641-41.7656L39.1641-41.7656Q39.2344-41.8359 39.2344-41.9063Q39.2344-41.9766 39.2344-42.0469L39.2344-42.0469Q39.2344-42.2578 39.0938-42.3984Q38.9531-42.5391 38.7422-42.5391L38.7422-42.5391ZM36.4922-43.1016L36.4922-43.1016Q36.4922-43.1016 36.4219-43.1016Q36.3516-43.1016 36.2813-43.1016L36.2813-43.1016Q36.0703-43.1016 35.8945-42.9609Q35.7188-42.8203 35.6484-42.6094L35.6484-42.6094Q34.9453-41.1328 34.2070-39.6211Q33.4688-38.1094 32.7656-36.6328L32.7656-36.6328Q31.9922-34.9453 32.5898-34.6992Q33.1875-34.4531 33.1875-34.4531L33.1875-34.4531Q33.4688-35.4375 33.8203-36.3867Q34.1719-37.3359 34.6641-38.1094L34.6641-38.1094Q34.5234-37.1953 34.1719-36.2461Q33.8203-35.2969 33.4688-34.4531L33.4688-34.4531Q33.4688-34.4531 34.1016-34.3477Q34.7344-34.2422 35.2266-36L35.2266-36Q35.6484-37.5469 36.0703-39.0938Q36.4922-40.6406 36.8438-42.2578L36.8438-42.2578Q36.9141-42.2578 36.9492-42.3633Q36.9844-42.4688 36.9844-42.5391L36.9844-42.5391Q36.9844-42.7500 36.8438-42.8906Q36.7031-43.0313 36.4922-43.1016L36.4922-43.1016ZM34.8047-43.9453L34.8047-43.9453Q34.7344-43.9453 34.6289-43.9805Q34.5234-44.0156 34.4531-44.0156L34.4531-44.0156Q34.2422-44.0156 34.0664-43.8750Q33.8906-43.7344 33.8906-43.5234L33.8906-43.5234Q32.9063-42.1875 31.9570-40.7813Q31.0078-39.3750 30.0938-37.9688L30.0938-37.9688Q29.1094-36.3516 29.6367-36.0352Q30.1641-35.7188 30.1641-35.7188L30.1641-35.7188Q30.5859-36.5625 31.0430-37.5469Q31.5000-38.5313 32.2031-39.1641L32.2031-39.1641Q31.9219-38.2500 31.3945-37.3359Q30.8672-36.4219 30.3750-35.5781L30.3750-35.5781Q30.3750-35.5781 30.9727-35.4023Q31.5703-35.2266 32.3438-36.9141L32.3438-36.9141Q33.0469-38.4609 33.6797-39.9727Q34.3125-41.4844 34.9453-43.0313L34.9453-43.0313Q35.0156-43.1016 35.0859-43.2070Q35.1563-43.3125 35.1563-43.3828L35.1563-43.3828Q35.1563-43.5938 35.0508-43.7344Q34.9453-43.8750 34.8047-43.9453L34.8047-43.9453ZM32.4141-44.7188L32.4141-44.7188Q31.2188-43.5234 30.0234-42.3281Q28.8281-41.1328 27.7031-39.9375L27.7031-39.9375Q26.4375-38.5313 26.8242-38.0742Q27.2109-37.6172 27.2109-37.6172L27.2109-37.6172Q27.7734-38.3906 28.4063-39.2695Q29.0391-40.1484 29.8828-40.7109L29.8828-40.7109Q29.4609-39.7969 28.7227-38.9883Q27.9844-38.1797 27.4219-37.4063L27.4219-37.4063Q27.4219-37.4063 27.9141-37.0898Q28.4063-36.7734 29.5313-38.3203L29.5313-38.3203Q30.4453-39.6563 31.4297-41.0625Q32.4141-42.4688 33.3281-43.8750L33.3281-43.8750Q33.4688-43.9453 33.5391-44.0859Q33.6094-44.2266 33.6094-44.3672L33.6094-44.3672Q33.6094-44.5078 33.5391-44.6133Q33.4688-44.7188 33.3984-44.8594L33.3984-44.8594Q32.9766-45.2109 32.6953-44.9648Q32.4141-44.7188 32.4141-44.7188L32.4141-44.7188ZM31.2188-46.0547L31.2188-46.0547Q29.8125-45.2109 28.4414-44.2969Q27.0703-43.3828 25.7344-42.3984L25.7344-42.3984Q24.2578-41.2734 24.5039-40.7109Q24.7500-40.1484 24.7500-40.1484L24.7500-40.1484Q25.4531-40.7813 26.2617-41.5195Q27.0703-42.2578 27.9141-42.6094L27.9141-42.6094Q27.3516-41.7656 26.5078-41.1328Q25.6641-40.5000 24.8906-39.8672L24.8906-39.8672Q24.8906-39.8672 25.2773-39.4102Q25.6641-38.9531 27-40.2891L27-40.2891Q28.2656-41.4141 29.4609-42.6094Q30.6563-43.8047 31.8516-44.9297L31.8516-44.9297Q32.0625-45 32.1680-45.1758Q32.2734-45.3516 32.2734-45.5625L32.2734-45.5625Q32.2734-45.6328 32.2383-45.7383Q32.2031-45.8438 32.1328-45.9141L32.1328-45.9141Q31.8516-46.4063 31.5352-46.2305Q31.2188-46.0547 31.2188-46.0547L31.2188-46.0547ZM29.8828-47.3203L29.8828-47.3203Q28.1250-46.6172 26.6484-45.9844Q25.1719-45.3516 23.7656-44.6484L23.7656-44.6484Q22.4297-43.9453 22.5352-43.3125Q22.6406-42.6797 22.6406-42.6797L22.6406-42.6797Q23.4844-43.1719 24.3281-43.7344Q25.1719-44.2969 26.0859-44.5078L26.0859-44.5078Q25.4531-43.8047 24.5039-43.3477Q23.5547-42.8906 22.7813-42.3984L22.7813-42.3984Q22.7813-42.3984 22.9922-41.8359Q23.2031-41.2734 24.7500-42.3281L24.7500-42.3281Q26.1563-43.2422 27.4922-44.1914Q28.8281-45.1406 30.2344-46.0547L30.2344-46.0547Q30.4453-46.1250 30.5859-46.3008Q30.7266-46.4766 30.7266-46.7578L30.7266-46.7578Q30.7266-46.8281 30.7266-46.8633Q30.7266-46.8984 30.7266-46.9688L30.7266-46.9688Q30.6563-47.1797 30.5156-47.2852Q30.3750-47.3906 30.2344-47.3906L30.2344-47.3906Q30.1641-47.3906 30.0586-47.3555Q29.9531-47.3203 29.8828-47.3203L29.8828-47.3203ZM29.1797-49.0078L29.1797-49.0078Q27.4922-48.7266 25.9453-48.3750Q24.3984-48.0234 22.9922-47.5313L22.9922-47.5313Q21.5859-47.1094 21.6211-46.4414Q21.6563-45.7734 21.6563-45.7734L21.6563-45.7734Q22.5000-46.1250 23.3789-46.5117Q24.2578-46.8984 25.1719-46.9688L25.1719-46.9688Q24.4688-46.3359 23.4844-46.0547Q22.5000-45.7734 21.6563-45.4219L21.6563-45.4219Q21.6563-45.4219 21.7969-44.7891Q21.9375-44.1563 23.5547-44.9297L23.5547-44.9297Q24.9609-45.6328 26.4023-46.3008Q27.8438-46.9688 29.3203-47.6719L29.3203-47.6719Q29.3203-47.6719 29.6367-47.8125Q29.9531-47.9531 29.8828-48.5156L29.8828-48.5156Q29.8828-49.1484 29.5313-49.0781Q29.1797-49.0078 29.1797-49.0078L29.1797-49.0078ZM28.7578-50.6250L28.7578-50.6250Q28.7578-51.1172 28.4766-51.0469Q28.1953-50.9766 28.1953-50.9766L28.1953-50.9766Q26.6484-50.7656 25.3477-50.4844Q24.0469-50.2031 22.7813-49.9219L22.7813-49.9219Q21.6563-49.5703 21.6563-49.0781Q21.6563-48.5859 21.6563-48.5859L21.6563-48.5859Q22.2891-48.7969 23.0977-49.1133Q23.9063-49.4297 24.6094-49.4297L24.6094-49.4297Q23.9766-49.0078 23.1680-48.7969Q22.3594-48.5859 21.6563-48.3047L21.6563-48.3047Q21.6563-48.3047 21.7266-47.8477Q21.7969-47.3906 23.2031-47.9531L23.2031-47.9531Q24.3984-48.4453 25.6641-48.9727Q26.9297-49.5000 28.1953-49.9922L28.1953-49.9922Q28.4063-50.0625 28.5820-50.2031Q28.7578-50.3438 28.7578-50.6250L28.7578-50.6250Q28.7578-50.6250 28.7578-50.6250Q28.7578-50.6250 28.7578-50.6250L28.7578-50.6250ZM41.6250-48.7969L41.6250-48.7969Q40.2188-48.8672 38.6016-49.0781Q36.9844-49.2891 35.9297-50.3438L35.9297-50.3438Q34.9453-51.2578 34.3828-52.4883Q33.8203-53.7188 32.8359-54.4219L32.8359-54.4219Q31.9922-54.9844 30.8672-55.0195Q29.7422-55.0547 28.7578-54.8438L28.7578-54.8438Q23.5547-54 18.7383-51.9609Q13.9219-49.9219 9.2109-47.3906L9.2109-47.3906Q7.1719-46.3359 4.7813-45.1055Q2.3906-43.8750 0-44.0859L0-44.0859Q-0.0703-43.1016 0.4219-42.2578Q0.9141-41.4141 1.8984-41.2734L1.8984-41.2734Q2.8828-41.1328 3.8672-41.4492Q4.8516-41.7656 5.7656-42.1172L5.7656-42.1172Q7.5938-42.9609 9.4219-43.8750Q11.2500-44.7891 13.0078-45.7031L13.0078-45.7031Q17.0859-47.6719 21.2344-49.5352Q25.3828-51.3984 29.8828-52.0313L29.8828-52.0313Q29.6016-51.5391 29.2852-50.6953Q28.9688-49.8516 28.4766-49.7109L28.4766-49.7109Q29.2500-49.5000 29.7773-49.6758Q30.3047-49.8516 31.3594-50.2031L31.3594-50.2031Q31.0078-49.7109 30.7266-49.1484Q30.4453-48.5859 30.3047-47.8828L30.3047-47.8828Q31.4297-48.3750 32.5547-48.8672L32.5547-48.8672Q32.2734-48.3750 32.0977-47.8125Q31.9219-47.2500 31.7813-46.6875L31.7813-46.6875Q32.2734-47.0391 32.8359-47.2852Q33.3984-47.5313 33.9609-47.7422L33.9609-47.7422Q33.8203-47.2500 33.7500-46.6875Q33.6797-46.1250 33.6797-45.5625L33.6797-45.5625Q33.6797-45.4219 33.6797-45.2461Q33.6797-45.0703 33.6797-44.9297L33.6797-44.9297Q34.1719-45.4219 34.7344-45.8086Q35.2969-46.1953 35.9297-46.4766L35.9297-46.4766Q35.9297-46.2656 35.9297-46.0195Q35.9297-45.7734 35.9297-45.5625L35.9297-45.5625Q35.9297-45 36.0352-44.5430Q36.1406-44.0859 36.3516-43.5938L36.3516-43.5938Q36.5625-44.2969 37.0195-44.8594Q37.4766-45.4219 38.1094-45.7031L38.1094-45.7031Q38.3203-44.8594 38.6367-44.1563Q38.9531-43.4531 39.3750-42.8203L39.3750-42.8203Q39.4453-43.5234 39.6914-44.1563Q39.9375-44.7891 40.2891-45.3516L40.2891-45.3516Q40.4297-44.5781 40.7461-43.7344Q41.0625-42.8906 41.6250-42.3281L41.6250-42.3281Q41.7656-42.0469 41.9414-41.8008Q42.1172-41.5547 42.3281-41.3438L42.3281-41.3438Q42.1875-41.4141 42.0820-41.5195Q41.9766-41.6250 41.9063-41.6953L41.9063-41.6953L41.9063-41.6953Q41.9063-41.6250 41.9414-41.6250Q41.9766-41.6250 41.9766-41.5547L41.9766-41.5547Q42.0469-41.5547 42.1172-41.5195Q42.1875-41.4844 42.2578-41.4141L42.2578-41.4141L42.3281-41.3438Q42.5391-41.2031 42.7852-41.0625Q43.0313-40.9219 43.3125-40.9219L43.3125-40.9219Q43.8750-41.6250 44.2266-42.5039Q44.5781-43.3828 44.6484-44.3672L44.6484-44.3672Q43.8750-45.2109 43.6289-46.5469Q43.3828-47.8828 43.2422-49.0078L43.2422-49.0078Q42.8906-48.8672 42.5039-48.8320Q42.1172-48.7969 41.6250-48.7969L41.6250-48.7969ZM71.0859-36.1406L71.0859-36.0703Q72.9844-34.5234 75.4102-33.6094Q77.8359-32.6953 80.5078-32.6250L80.5078-32.6250Q78.5391-33.6094 76.6406-34.8750Q74.7422-36.1406 72.9141-37.4063L72.9141-37.4063Q72.4922-37.1250 72.0352-36.7734Q71.5781-36.4219 71.0859-36.1406L71.0859-36.1406ZM69.3281-35.1563L69.3281-35.1563Q69.0469-35.0156 68.6953-34.8750Q68.3438-34.7344 68.0625-34.5938L68.0625-34.5938Q69.8203-33.1172 72.0352-32.1680Q74.2500-31.2188 76.7813-31.0078L76.7813-31.0078Q75.0938-31.9922 73.4414-33.1875Q71.7891-34.3828 70.2422-35.6484L70.2422-35.6484Q69.8203-35.3672 69.3281-35.1563L69.3281-35.1563ZM65.0391-33.6797L65.0391-33.6797Q66.4453-32.4141 68.1680-31.5000Q69.8906-30.5859 71.7891-30.1641L71.7891-30.1641Q70.5234-31.1484 69.3633-32.1680Q68.2031-33.1875 67.0781-34.2422L67.0781-34.2422Q66.0938-33.8906 65.0391-33.6797ZM61.6641-32.9063L61.6641-32.9063Q63-31.7109 64.5820-30.7969Q66.1641-29.8828 67.9922-29.4609L67.9922-29.4609Q66.8672-30.3047 65.8477-31.2891Q64.8281-32.2734 63.9141-33.3281L63.9141-33.3281Q62.7891-33.1172 61.6641-32.9063L61.6641-32.9063ZM58.3594-32.5547L58.3594-32.5547Q59.8359-30.7266 61.6641-29.7422Q63.4922-28.7578 65.6719-28.2656L65.6719-28.2656Q64.4766-29.5313 63.0703-30.5156Q61.6641-31.5000 60.4688-32.7656L60.4688-32.7656Q59.4141-32.6250 58.3594-32.5547L58.3594-32.5547ZM85.5000-42.3984L85.6406-42.3281Q85.7813-42.3281 85.9570-42.2930Q86.1328-42.2578 86.2734-42.2578L86.2734-42.2578Q87.0469-42.2578 87.6445-42.5391Q88.2422-42.8203 88.7344-43.2422L88.7344-43.2422Q83.5313-45.4219 78.3281-47.6719L78.3281-47.6719Q78.2578-46.9688 78.1172-46.3008Q77.9766-45.6328 77.7656-45L77.7656-45Q78.8906-44.6484 79.9102-44.2617Q80.9297-43.8750 81.9844-43.4531L81.9844-43.4531Q82.6875-43.1719 83.6016-42.8906Q84.5156-42.6094 85.5000-42.3984L85.5000-42.3984ZM89.6484-42.5391L89.6484-42.5391Q89.5078-42.5391 89.4023-42.4688Q89.2969-42.3984 89.2266-42.3281L89.2266-42.3281Q88.3828-41.5547 87.3281-41.4492Q86.2734-41.3438 85.2188-41.6953L85.2188-41.6953Q86.9063-40.7813 88.6992-40.0781Q90.4922-39.3750 92.3203-39.0234L92.3203-39.0234Q93.2344-38.8125 94.3594-38.8828Q95.4844-38.9531 96.1172-39.9375L96.1172-39.9375Q94.6406-40.6406 93.1289-41.2734Q91.6172-41.9063 90.0703-42.4688L90.0703-42.4688Q90-42.5391 89.8945-42.5391Q89.7891-42.5391 89.6484-42.5391L89.6484-42.5391Q89.6484-42.5391 89.6484-42.5391Q89.6484-42.5391 89.6484-42.5391L89.6484-42.5391ZM85.1484-41.7656L85.1484-41.7656L85.2188-41.6953L85.1484-41.7656ZM76.7813-42.3984L76.8516-42.4688Q79.0313-41.5547 81.2813-40.6758Q83.5313-39.7969 85.7813-39.2344L85.7813-39.2344Q86.4844-39.0938 87.1875-39.1289Q87.8906-39.1641 88.2422-39.6563L88.2422-39.6563Q86.8359-40.2188 85.4648-40.8516Q84.0938-41.4844 82.6875-42.1875L82.6875-42.1875Q81.4922-42.8203 80.2266-43.3828Q78.9609-43.9453 77.6250-44.5078L77.6250-44.5078Q77.4844-43.8750 77.2734-43.3828Q77.0625-42.8906 76.7813-42.3984L76.7813-42.3984ZM83.3906-36.7031L83.3906-36.7031Q84.0234-36.5625 84.6563-36.6328Q85.2891-36.7031 85.6406-37.4063L85.6406-37.4063Q84.2344-38.0391 82.9688-38.6719Q81.7031-39.3047 80.5781-40.0078L80.5781-40.0078Q79.6641-40.5000 78.6797-41.0625Q77.6953-41.6250 76.6406-42.1172L76.6406-42.1172Q76.3594-41.5547 76.0781-41.0625Q75.7969-40.5703 75.4453-40.1484L75.4453-40.1484L75.3750-40.0078Q77.3438-39.0234 79.3125-38.1094Q81.2813-37.1953 83.3906-36.7031L83.3906-36.7031ZM88.9453-39.2344L88.9453-39.2344Q88.8047-39.1641 88.7695-39.0938Q88.7344-39.0234 88.6641-38.9531L88.6641-38.9531Q88.3828-38.6016 87.8906-38.5313Q87.3984-38.4609 86.9063-38.4609L86.9063-38.4609Q85.8516-38.6016 84.8672-38.8828Q83.8828-39.1641 82.8281-39.6563L82.8281-39.6563L82.3359-39.7969Q83.7422-38.9531 85.1836-38.1445Q86.6250-37.3359 88.1719-36.9141L88.1719-36.9141Q89.2969-36.6328 90.6680-36.6680Q92.0391-36.7031 93.0234-37.6172L93.0234-37.6172Q92.1094-38.0391 91.1602-38.4258Q90.2109-38.8125 89.2969-39.1641L89.2969-39.1641Q89.2266-39.1641 89.1563-39.1992Q89.0859-39.2344 88.9453-39.2344L88.9453-39.2344Q88.9453-39.2344 88.9453-39.2344Q88.9453-39.2344 88.9453-39.2344L88.9453-39.2344ZM86.3438-36.9844L86.3438-36.9844Q86.2734-36.9844 86.2031-36.9141Q86.1328-36.8438 86.0625-36.7734L86.0625-36.7734Q85.7813-36.3516 85.2891-36.2461Q84.7969-36.1406 84.3047-36.2109L84.3047-36.2109Q83.1797-36.2813 82.2305-36.5273Q81.2813-36.7734 80.1563-37.1953L80.1563-37.1953L79.7344-37.4063Q81.0703-36.5625 82.5469-35.7891Q84.0234-35.0156 85.5703-34.6641L85.5703-34.6641Q86.7656-34.4531 88.1367-34.5234Q89.5078-34.5938 90.4922-35.5078L90.4922-35.5078Q89.5078-35.9297 88.5586-36.2461Q87.6094-36.5625 86.6953-36.9141L86.6953-36.9141Q86.6250-36.9844 86.5547-36.9844Q86.4844-36.9844 86.4141-36.9844L86.4141-36.9844Q86.4141-36.9844 86.3789-36.9844Q86.3438-36.9844 86.3438-36.9844L86.3438-36.9844ZM73.4063-37.8281L73.4063-37.8281Q75.0234-36.7031 76.8867-35.8594Q78.7500-35.0156 80.7891-34.4531L80.7891-34.4531Q81.4922-34.2422 82.1602-34.2773Q82.8281-34.3125 83.1797-34.8750L83.1797-34.8750Q81.8438-35.5078 80.7188-36.1758Q79.5938-36.8438 78.4688-37.5469L78.4688-37.5469Q77.6953-38.0391 76.8516-38.5664Q76.0078-39.0938 75.0938-39.6563L75.0938-39.6563Q74.6719-39.1641 74.2500-38.7070Q73.8281-38.2500 73.4063-37.8281L73.4063-37.8281ZM83.8125-34.4531L83.8125-34.4531Q83.7422-34.4531 83.6719-34.3828Q83.6016-34.3125 83.5313-34.2422L83.5313-34.2422Q83.2500-33.9609 82.7578-33.8906Q82.2656-33.8203 81.8438-33.8906L81.8438-33.8906Q80.7188-34.0313 79.7344-34.3477Q78.7500-34.6641 77.8359-35.0859L77.8359-35.0859L77.4844-35.2266Q78.8203-34.3828 80.1563-33.6094Q81.4922-32.8359 82.9688-32.4141L82.9688-32.4141Q84.0938-32.1328 85.4297-32.0977Q86.7656-32.0625 87.7500-32.9063L87.7500-32.9063Q86.8359-33.2578 85.9570-33.6445Q85.0781-34.0313 84.1641-34.3828L84.1641-34.3828Q84.0938-34.3828 84.0234-34.4180Q83.9531-34.4531 83.8828-34.4531L83.8828-34.4531Q83.8828-34.4531 83.8477-34.4531Q83.8125-34.4531 83.8125-34.4531L83.8125-34.4531ZM80.8594-32.2031L80.8594-32.2031Q80.7891-32.2031 79.9805-32.0977Q79.1719-31.9922 78.6797-32.0625L78.6797-32.0625Q77.6250-32.3438 76.6055-32.7305Q75.5859-33.1172 74.7422-33.6094L74.7422-33.6094L73.9688-33.8203Q75.2344-32.8359 76.6406-32.0273Q78.0469-31.2188 79.5938-30.6563L79.5938-30.6563Q80.8594-30.1641 82.2656-29.9180Q83.6719-29.6719 84.7969-30.3047L84.7969-30.3047Q83.8828-30.7969 83.0039-31.2188Q82.1250-31.6406 81.2109-32.0625L81.2109-32.0625Q81.1406-32.1328 81.0352-32.1680Q80.9297-32.2031 80.8594-32.2031L80.8594-32.2031ZM74.8828-30.7266L74.8828-30.7266Q73.6172-31.0078 72.4219-31.5000Q71.2266-31.9922 70.2422-32.6250L70.2422-32.6250Q71.5078-31.5703 72.9141-30.6914Q74.3203-29.8125 75.7969-29.1797L75.7969-29.1797Q77.0625-28.6172 78.5039-28.3008Q79.9453-27.9844 81.2109-28.4766L81.2109-28.4766Q80.2969-29.0391 79.3828-29.5313Q78.4688-30.0234 77.6250-30.4453L77.6250-30.4453Q77.4844-30.5156 76.4648-30.5508Q75.4453-30.5859 74.8828-30.7266L74.8828-30.7266ZM70.4531-29.9531L70.4531-29.9531Q69.4688-30.3047 68.6953-30.6914Q67.9219-31.0781 67.1484-31.5703L67.1484-31.5703Q68.0625-30.7969 68.9766-30.0938Q69.8906-29.3906 70.9453-28.8281L70.9453-28.8281Q71.9297-28.4063 72.9141-28.1250Q73.8984-27.8438 74.8828-28.0547L74.8828-28.0547Q73.6172-28.8984 72.3516-29.6719L72.3516-29.6719Q72.2813-29.6719 71.5430-29.7773Q70.8047-29.8828 70.4531-29.9531L70.4531-29.9531ZM66.7266-29.3203L66.7266-29.3203Q65.8125-29.6016 65.0039-29.9883Q64.1953-30.3750 63.4922-30.9375L63.4922-30.9375Q64.3359-30.0938 65.2500-29.3906Q66.1641-28.6875 67.2188-28.1953L67.2188-28.1953Q68.3438-27.7031 69.1875-27.5625Q70.0313-27.4219 71.1563-27.4922L71.1563-27.4922Q69.8906-28.2656 68.6953-29.0391L68.6953-29.0391Q68.6250-29.0391 67.8516-29.1445Q67.0781-29.2500 66.7266-29.3203L66.7266-29.3203ZM57.0234-35.3672L57.0234-35.3672Q57.0938-33.6094 57.7617-33.5391Q58.4297-33.4688 58.4297-33.4688L58.4297-33.4688Q58.2891-34.3125 58.1484-35.3320Q58.0078-36.3516 58.1484-37.1953L58.1484-37.1953Q58.5000-36.4219 58.5703-35.4023Q58.6406-34.3828 58.7109-33.4688L58.7109-33.4688Q58.7109-33.4688 59.3789-33.5391Q60.0469-33.6094 59.6953-35.3672L59.6953-35.3672Q59.4141-36.9141 59.0625-38.4609Q58.7109-40.0078 58.3594-41.5547L58.3594-41.5547Q58.3594-41.6250 58.3594-41.6250Q58.3594-41.6250 58.3594-41.6250L58.3594-41.6250Q58.3594-41.9063 58.1836-42.0820Q58.0078-42.2578 57.7266-42.2578L57.7266-42.2578Q57.7266-42.2578 57.6914-42.2578Q57.6563-42.2578 57.6563-42.2578L57.6563-42.2578Q57.0234-42.2578 57.0586-41.9063Q57.0938-41.5547 57.0938-41.5547L57.0938-41.5547Q57.0234-40.0078 57.0234-38.4609Q57.0234-36.9141 57.0234-35.3672L57.0234-35.3672ZM59.7656-42.5391L59.7656-42.5391Q59.5547-42.5391 59.4141-42.3984Q59.2734-42.2578 59.2734-42.0469L59.2734-42.0469Q59.2734-41.9766 59.2734-41.9063Q59.2734-41.8359 59.3438-41.7656L59.3438-41.7656Q59.4844-40.2188 59.6953-38.6367Q59.9063-37.0547 60.1875-35.5078L60.1875-35.5078Q60.4688-33.7500 61.1367-33.7500Q61.8047-33.7500 61.8047-33.7500L61.8047-33.7500Q61.5234-34.6641 61.2773-35.6484Q61.0313-36.6328 61.0313-37.5469L61.0313-37.5469Q61.4531-36.7031 61.6641-35.7188Q61.8750-34.7344 62.0859-33.8203L62.0859-33.8203Q62.0859-33.8203 62.6836-33.9609Q63.2813-34.1016 62.7188-35.8594L62.7188-35.8594Q62.2266-37.4063 61.6992-38.9180Q61.1719-40.4297 60.6094-41.9766L60.6094-41.9766Q60.5391-42.1875 60.3633-42.3984Q60.1875-42.6094 59.9766-42.6094L59.9766-42.6094Q59.9063-42.6094 59.8711-42.5742Q59.8359-42.5391 59.7656-42.5391L59.7656-42.5391ZM62.0156-43.1016L62.0156-43.1016Q61.8047-43.0313 61.6641-42.8906Q61.5234-42.7500 61.5234-42.5391L61.5234-42.5391Q61.5234-42.4688 61.5586-42.3633Q61.5938-42.2578 61.6641-42.1875L61.6641-42.1875Q62.0156-40.6406 62.4375-39.0938Q62.8594-37.5469 63.2813-36L63.2813-36Q63.7734-34.2422 64.4414-34.3125Q65.1094-34.3828 65.1094-34.3828L65.1094-34.3828Q64.7578-35.2969 64.3711-36.2461Q63.9844-37.1953 63.8438-38.1094L63.8438-38.1094Q64.4063-37.3359 64.7227-36.3867Q65.0391-35.4375 65.3203-34.4531L65.3203-34.4531Q65.3203-34.4531 65.9180-34.6992Q66.5156-34.9453 65.7422-36.6328L65.7422-36.6328Q65.0391-38.1094 64.3359-39.6211Q63.6328-41.1328 62.8594-42.5391L62.8594-42.5391Q62.7891-42.8203 62.6133-42.9609Q62.4375-43.1016 62.2266-43.1016L62.2266-43.1016Q62.1563-43.1016 62.0859-43.1016Q62.0156-43.1016 62.0156-43.1016L62.0156-43.1016ZM63.7031-43.9453L63.7031-43.9453Q63.5625-43.8750 63.4570-43.7344Q63.3516-43.5938 63.3516-43.3828L63.3516-43.3828Q63.3516-43.3125 63.4219-43.2070Q63.4922-43.1016 63.5625-43.0313L63.5625-43.0313Q64.1953-41.4844 64.8281-39.9727Q65.4609-38.4609 66.1641-36.9141L66.1641-36.9141Q66.9375-35.2266 67.5352-35.4023Q68.1328-35.5781 68.1328-35.5781L68.1328-35.5781Q67.6406-36.4219 67.1133-37.3359Q66.5859-38.2500 66.3047-39.2344L66.3047-39.2344Q67.0078-38.5313 67.4648-37.5469Q67.9219-36.5625 68.3438-35.7188L68.3438-35.7188Q68.3438-35.7188 68.8711-36.0352Q69.3984-36.3516 68.3438-37.9688L68.3438-37.9688Q67.5000-39.3750 66.5508-40.7813Q65.6016-42.1875 64.6172-43.5938L64.6172-43.5938Q64.5469-43.7344 64.4063-43.8750Q64.2656-44.0156 64.0547-44.0156L64.0547-44.0156Q63.9844-44.0156 63.8789-43.9805Q63.7734-43.9453 63.7031-43.9453L63.7031-43.9453ZM65.1094-44.8594L65.1094-44.8594Q65.0391-44.7188 64.9688-44.6133Q64.8984-44.5078 64.8984-44.3672L64.8984-44.3672Q64.8984-44.2266 64.9688-44.0859Q65.0391-43.9453 65.1797-43.8750L65.1797-43.8750Q66.0938-42.4688 67.0781-41.0977Q68.0625-39.7266 68.9766-38.3203L68.9766-38.3203Q70.1016-36.7734 70.5938-37.0898Q71.0859-37.4063 71.0859-37.4063L71.0859-37.4063Q70.5234-38.1797 69.7852-38.9883Q69.0469-39.7969 68.6250-40.7109L68.6250-40.7109Q69.4688-40.1484 70.1016-39.2695Q70.7344-38.3906 71.2969-37.6172L71.2969-37.6172Q71.2969-37.6172 71.6836-38.0742Q72.0703-38.5313 70.8047-39.9375L70.8047-39.9375Q69.6797-41.1328 68.4844-42.3281Q67.2891-43.5234 66.0938-44.7188L66.0938-44.7188Q66.0938-44.7188 65.8125-44.9648Q65.5313-45.2109 65.1094-44.8594L65.1094-44.8594ZM66.3750-45.9141L66.3750-45.9141Q66.3047-45.8438 66.2695-45.7383Q66.2344-45.6328 66.2344-45.5625L66.2344-45.5625Q66.2344-45.3516 66.3398-45.1758Q66.4453-45 66.6563-44.9297L66.6563-44.9297Q67.8516-43.8047 69.0469-42.6094Q70.2422-41.4141 71.5078-40.2891L71.5078-40.2891Q72.8438-38.9531 73.2305-39.4102Q73.6172-39.8672 73.6172-39.8672L73.6172-39.8672Q72.8438-40.5000 72-41.1328Q71.1563-41.7656 70.5938-42.6094L70.5938-42.6094Q71.4375-42.2578 72.2461-41.5195Q73.0547-40.7813 73.7578-40.1484L73.7578-40.1484Q73.7578-40.1484 74.0039-40.7109Q74.2500-41.2734 72.7031-42.3984L72.7031-42.3984Q71.4375-43.3828 70.0313-44.2617Q68.6250-45.1406 67.2891-45.9844L67.2891-45.9844Q67.2891-46.0547 66.9727-46.2305Q66.6563-46.4063 66.3750-45.9141L66.3750-45.9141ZM67.7813-46.9688L67.7813-46.9688Q67.7813-46.9688 67.7813-46.8984Q67.7813-46.8281 67.7813-46.7578L67.7813-46.7578Q67.7813-46.4766 67.9219-46.3008Q68.0625-46.1250 68.2734-46.0547L68.2734-46.0547Q69.6094-45.1406 70.9805-44.1914Q72.3516-43.2422 73.7578-42.3281L73.7578-42.3281Q75.2344-41.3438 75.4805-41.8711Q75.7266-42.3984 75.7266-42.3984L75.7266-42.3984Q74.9531-42.8906 74.0039-43.3828Q73.0547-43.8750 72.4219-44.5781L72.4219-44.5781Q73.3359-44.2969 74.1797-43.7695Q75.0234-43.2422 75.7969-42.6797L75.7969-42.6797Q75.7969-42.6797 75.9023-43.3477Q76.0078-44.0156 74.3906-44.7891L74.3906-44.7891Q73.2656-45.4219 71.8945-46.0195Q70.5234-46.6172 69.0469-47.1797L69.0469-47.1797Q68.6250-47.3203 68.4844-47.3555Q68.3438-47.3906 68.2734-47.3906L68.2734-47.3906Q68.0625-47.3906 67.9570-47.2852Q67.8516-47.1797 67.7813-46.9688L67.7813-46.9688ZM68.6250-48.5156L68.6250-48.5156Q68.5547-47.9531 68.8711-47.8125Q69.1875-47.6719 69.1875-47.6719L69.1875-47.6719Q70.6641-46.9688 72.1055-46.3008Q73.5469-45.6328 74.9531-44.9297L74.9531-44.9297Q76.5703-44.1563 76.6758-44.7891Q76.7813-45.4219 76.7813-45.4219L76.7813-45.4219Q75.9375-45.7734 74.9883-46.0547Q74.0391-46.3359 73.3359-46.9688L73.3359-46.9688Q74.2500-46.8984 75.1289-46.5117Q76.0078-46.1250 76.8516-45.7734L76.8516-45.7734Q76.8516-45.7734 76.8164-46.4766Q76.7813-47.1797 75.1641-47.6719L75.1641-47.6719Q73.9688-48.0234 72.5273-48.3398Q71.0859-48.6563 69.6094-48.9375L69.6094-48.9375Q68.0625-49.2188 68.3438-49.1836Q68.6250-49.1484 68.6250-48.5156L68.6250-48.5156ZM76.9219-48.5156L76.9219-48.5156Q76.9219-48.5156 76.8516-49.0781Q76.7813-49.6406 75.3750-49.9922L75.3750-49.9922Q74.3906-50.2031 73.1602-50.4844Q71.9297-50.7656 70.5938-50.9063L70.5938-50.9063Q69.3281-51.1172 69.5391-51.0820Q69.7500-51.0469 69.7500-50.6250L69.7500-50.6250Q69.7500-50.6250 69.7500-50.6250Q69.7500-50.6250 69.7500-50.5547L69.7500-50.5547Q69.7500-50.3438 69.9258-50.1680Q70.1016-49.9922 70.3125-49.9922L70.3125-49.9922Q71.5781-49.5000 72.8438-48.9727Q74.1094-48.4453 75.3750-47.9531L75.3750-47.9531Q76.7109-47.3906 76.7813-47.8477Q76.8516-48.3047 76.8516-48.3047L76.8516-48.3047Q76.1484-48.5859 75.3398-48.7969Q74.5313-49.0078 73.8984-49.4297L73.8984-49.4297Q74.6016-49.4297 75.4102-49.1133Q76.2188-48.7969 76.9219-48.5156L76.9219-48.5156ZM98.5078-44.0859L98.5078-44.0859Q96.1172-43.8047 93.7266-45.0703Q91.3359-46.3359 89.2969-47.3906L89.2969-47.3906Q84.5859-49.9219 79.7695-51.9609Q74.9531-54 69.7500-54.8438L69.7500-54.8438Q68.7656-55.0547 67.6758-55.0195Q66.5859-54.9844 65.6719-54.4219L65.6719-54.4219Q64.6875-53.7891 64.0898-52.4883Q63.4922-51.1875 62.5781-50.3438L62.5781-50.3438Q61.5234-49.2891 59.9063-49.0781Q58.2891-48.8672 56.8828-48.7969L56.8828-48.7969Q56.3906-48.7969 56.0039-48.8320Q55.6172-48.8672 55.1953-49.0078L55.1953-49.0078Q54.6328-49.1484 54.1055-49.3242Q53.5781-49.5000 53.0859-49.7813L53.0859-49.7813Q53.2969-49.3594 53.5078-49.0430Q53.7188-48.7266 53.9297-48.5156L53.9297-48.5156L54.2109-48.1641L53.7891-48.1641Q53.2969-48.1641 52.5234-48.4453Q51.7500-48.7266 51.2578-48.8672L51.2578-48.8672Q51.4688-47.8125 51.9609-46.7227Q52.4531-45.6328 53.2969-44.8594L53.2969-44.8594Q54.0703-45.4219 54.5977-46.8633Q55.1250-48.3047 55.1250-48.3047L55.1250-48.3047Q55.1250-48.3047 54.7383-46.8281Q54.3516-45.3516 53.6484-44.5781L53.6484-44.5781Q53.7188-43.5234 54.1406-42.6094Q54.5625-41.6953 55.1953-40.9219L55.1953-40.9219Q56.0391-40.9922 56.4609-41.6953Q56.8828-42.3984 56.8828-42.3984L56.8828-42.3984Q57.3750-42.8906 57.7266-43.7344Q58.0781-44.5781 58.2188-45.3516L58.2188-45.3516Q58.5703-44.7891 58.8164-44.1563Q59.0625-43.5234 59.1328-42.8906L59.1328-42.8906Q59.5547-43.4531 59.8711-44.1563Q60.1875-44.8594 60.3281-45.7031L60.3281-45.7031Q61.0313-45.4219 61.4883-44.8945Q61.9453-44.3672 62.1563-43.7344L62.1563-43.7344Q62.3672-44.0859 62.4727-44.5781Q62.5781-45.0703 62.5781-45.5625L62.5781-45.5625Q62.5781-45.8438 62.5781-46.0547Q62.5781-46.2656 62.5078-46.5469L62.5078-46.5469Q63.1406-46.1953 63.7383-45.8438Q64.3359-45.4922 64.8281-45L64.8281-45Q64.8281-45.1406 64.8281-45.2813Q64.8281-45.4219 64.8281-45.5625L64.8281-45.5625Q64.8281-46.1250 64.7227-46.6875Q64.6172-47.2500 64.4766-47.8125L64.4766-47.8125Q65.1094-47.6016 65.6719-47.3203Q66.2344-47.0391 66.7266-46.6172L66.7266-46.6172Q66.5859-47.2500 66.3750-47.8477Q66.1641-48.4453 65.9531-48.9375L65.9531-48.9375Q67.0781-48.3750 68.2031-47.8828L68.2031-47.8828Q68.0625-48.5859 67.7813-49.1836Q67.5000-49.7813 67.1484-50.2734L67.1484-50.2734Q68.2031-49.8516 68.7305-49.7109Q69.2578-49.5703 69.9609-49.7813L69.9609-49.7813Q69.5391-49.8516 69.2227-50.6953Q68.9063-51.5391 68.6250-52.0313L68.6250-52.0313Q73.1250-51.3984 77.2734-49.5703Q81.4219-47.7422 85.5000-45.7031L85.5000-45.7031Q87.2578-44.7891 89.0508-43.8750Q90.8438-42.9609 92.7422-42.1875L92.7422-42.1875Q93.6563-41.7656 94.6406-41.4844Q95.6250-41.2031 96.6094-41.3438L96.6094-41.3438Q97.5938-41.4141 98.0859-42.2578Q98.5781-43.1016 98.5078-44.0859L98.5078-44.0859ZM67.9219-19.7578L67.9219-19.7578Q67.7109-19.8984 67.5352-20.0742Q67.3594-20.2500 67.2188-20.3906L67.2188-20.3906Q66.6563-20.9531 65.9180-21.4102Q65.1797-21.8672 64.4766-22.2188L64.4766-22.2188Q63.5625-22.7109 63.1055-23.8008Q62.6484-24.8906 61.8750-25.5938L61.8750-25.5938Q61.3828-26.3672 60.6445-26.8594Q59.9063-27.3516 59.3438-27.9141L59.3438-27.9141Q58.7109-28.6172 58.5352-29.6367Q58.3594-30.6563 58.1484-31.6406L58.1484-31.6406Q57.9375-32.8359 56.9531-33.7148Q55.9688-34.5938 54.7031-34.7344L54.7031-34.7344Q55.3359-36 55.6875-37.5117Q56.0391-39.0234 56.0391-40.7109L56.0391-40.7109Q56.0391-40.7109 56.0391-40.7109Q56.0391-40.7109 56.0391-40.7109L56.0391-40.7109Q56.0391-40.7813 56.0391-40.8164Q56.0391-40.8516 56.0391-40.9219L56.0391-40.9219Q55.9688-40.9219 55.9336-40.8867Q55.8984-40.8516 55.8281-40.8516L55.8281-40.8516Q55.7578-40.7813 55.6172-40.7109Q55.4766-40.6406 55.3359-40.5703L55.3359-40.5703L55.1953-40.5703L55.1250-40.6406Q54.9141-39.7266 54.5273-38.8125Q54.1406-37.8984 53.3672-37.4063L53.3672-37.4063Q53.2266-36.3516 52.7695-35.2617Q52.3125-34.1719 51.3984-33.6094L51.3984-33.6094L51.3281-33.5391L51.1875-33.6094Q50.2734-34.1719 49.8516-35.2266Q49.4297-36.2813 49.2188-37.3359L49.2188-37.3359Q49.0781-36.2813 48.6211-35.2266Q48.1641-34.1719 47.2500-33.6094L47.2500-33.6094L47.1797-33.5391L47.1094-33.6094Q46.1953-34.1719 45.7383-35.1914Q45.2813-36.2109 45.1406-37.2656L45.1406-37.2656Q44.2969-37.7578 43.8750-38.7070Q43.4531-39.6563 43.2422-40.5703L43.2422-40.5703L43.2422-40.5703L43.1719-40.5000L43.1016-40.5703Q42.9609-40.6406 42.8203-40.7109Q42.6797-40.7813 42.5391-40.8516L42.5391-40.8516Q42.5391-40.7813 42.5391-40.7461Q42.5391-40.7109 42.5391-40.7109L42.5391-40.7109Q42.6094-39.1641 42.8906-37.6172Q43.1719-36.0703 43.9453-34.7344L43.9453-34.7344Q42.6797-34.6641 41.7305-33.7500Q40.7813-32.8359 40.5000-31.6406L40.5000-31.6406Q40.2891-30.7266 40.1133-29.6719Q39.9375-28.6172 39.3047-27.9844L39.3047-27.9844Q38.7422-27.4219 38.0039-26.8945Q37.2656-26.3672 36.7734-25.6641L36.7734-25.6641Q35.9297-24.9609 35.5430-23.8711Q35.1563-22.7813 34.1719-22.2891L34.1719-22.2891Q33.4688-21.9375 32.7305-21.4805Q31.9922-21.0234 31.4297-20.4609L31.4297-20.4609Q31.2891-20.2500 31.1133-20.1094Q30.9375-19.9688 30.7969-19.8281L30.7969-19.8281Q29.9531-19.4766 29.3906-18.5977Q28.8281-17.7188 28.9688-16.7344L28.9688-16.7344Q29.0391-16.3828 29.2852-16.0664Q29.5313-15.7500 29.8828-15.7500L29.8828-15.7500Q29.8125-15.9609 29.7422-16.1367Q29.6719-16.3125 29.6719-16.5938L29.6719-16.5938Q29.6719-16.5938 29.6719-16.6641Q29.6719-16.7344 29.6719-16.8047L29.6719-16.8047Q29.6719-16.8047 29.6719-16.8750Q29.6719-16.9453 29.7422-17.0156L29.7422-17.0156Q29.8125-17.0156 29.8828-17.0508Q29.9531-17.0859 30.0234-17.0859L30.0234-17.0859Q30.2344-17.1563 30.3750-17.2617Q30.5156-17.3672 30.5859-17.5781L30.5859-17.5781Q30.6563-17.7188 30.6563-17.8945Q30.6563-18.0703 30.7266-18.2109L30.7266-18.2109Q30.8672-18.6328 31.3242-18.8789Q31.7813-19.1250 32.2031-19.1953L32.2031-19.1953Q31.9219-18.8438 31.7461-18.3867Q31.5703-17.9297 31.5000-17.4375L31.5000-17.4375Q31.5000-16.9453 31.6758-16.5586Q31.8516-16.1719 32.2031-15.9609L32.2031-15.9609Q32.2734-15.9609 32.4141-15.9258Q32.5547-15.8906 32.6953-15.8906L32.6953-15.8906Q32.9766-15.8906 33.2578-16.0313Q33.5391-16.1719 33.7500-16.4531L33.7500-16.4531Q33.7500-16.4531 33.7500-16.4531Q33.7500-16.4531 33.7500-16.4531L33.7500-16.4531Q33.3984-16.4531 33.1523-16.6289Q32.9063-16.8047 32.8359-17.0859L32.8359-17.0859Q32.8359-17.1563 32.8008-17.2617Q32.7656-17.3672 32.7656-17.5078L32.7656-17.5078Q32.7656-17.7188 32.8359-17.9297Q32.9063-18.1406 33.0469-18.3516L33.0469-18.3516Q33.2578-18.5625 33.4336-18.8086Q33.6094-19.0547 33.5391-19.3359L33.5391-19.3359Q33.8906-19.2656 34.2422-19.5117Q34.5938-19.7578 34.6641-20.1797L34.6641-20.1797Q34.7344-20.0391 34.8750-20.0039Q35.0156-19.9688 35.1563-19.9688L35.1563-19.9688Q35.2266-19.9688 35.2969-19.9688Q35.3672-19.9688 35.4375-20.0391L35.4375-20.0391Q35.6484-20.1094 35.8594-20.2148Q36.0703-20.3203 36.2813-20.3906L36.2813-20.3906Q36.3516-20.3906 36.4219-20.4258Q36.4922-20.4609 36.5625-20.4609L36.5625-20.4609Q36.7031-20.4609 36.8438-20.3906Q36.9844-20.3203 37.0547-20.1797L37.0547-20.1797Q37.1953-20.0391 37.0898-19.7930Q36.9844-19.5469 36.7734-19.5469L36.7734-19.5469Q36.7734-19.5469 36.7734-19.5469Q36.7734-19.5469 36.7734-19.5469L36.7734-19.5469Q37.1953-19.5469 37.5117-19.7578Q37.8281-19.9688 37.9688-20.3203L37.9688-20.3203Q38.0391-20.4609 38.0391-20.5313Q38.0391-20.6016 38.0391-20.7422L38.0391-20.7422Q38.0391-21.0234 37.8984-21.2695Q37.7578-21.5156 37.4766-21.5859L37.4766-21.5859Q37.0547-21.7969 36.5625-21.6563Q36.0703-21.5156 35.6484-21.6563L35.6484-21.6563Q36.1406-22.2891 36.8438-22.7109Q37.5469-23.1328 38.1094-23.5547L38.1094-23.5547Q38.1797-23.5547 38.2500-23.5547Q38.3203-23.5547 38.3906-23.5547L38.3906-23.5547Q38.9531-23.6250 38.8477-22.8516Q38.7422-22.0781 38.6016-21.5156L38.6016-21.5156Q38.9531-22.1484 39.4102-22.6758Q39.8672-23.2031 40.5000-23.6250L40.5000-23.6250Q40.5000-23.5547 40.5000-23.4844Q40.5000-23.4141 40.5000-23.3438L40.5000-23.3438Q40.5000-23.1328 40.5352-22.9219Q40.5703-22.7109 40.6406-22.5703L40.6406-22.5703Q40.9922-23.4844 41.5547-24.2578Q42.1172-25.0313 42.8906-25.5234L42.8906-25.5234Q42.8203-25.3125 42.7500-25.1016Q42.6797-24.8906 42.6797-24.6797L42.6797-24.6797Q42.6797-24.6094 42.6797-24.5742Q42.6797-24.5391 42.6797-24.4688L42.6797-24.4688Q43.5234-25.1719 43.6289-25.2773Q43.7344-25.3828 44.3672-26.2266L44.3672-26.2266Q42.8906-21.7266 41.3438-17.2266L41.3438-17.2266Q41.4141-15.8906 42.1523-15.1172Q42.8906-14.3438 44.0156-15.6094L44.0156-15.6094Q45.1406-20.5313 46.2656-25.4531L46.2656-25.4531L46.2656-25.4531Q45.3516-20.3203 44.4375-15.1172L44.4375-15.1172Q44.7188-13.7813 45.5625-13.2891Q46.4063-12.7969 47.1797-14.4141L47.1797-14.4141L48.2344-24.8906L47.6016-15.4688Q47.6016-14.6953 48.0234-13.7813Q48.4453-12.8672 49.2891-12.8672L49.2891-12.8672Q50.0625-12.8672 50.4844-13.7813Q50.9063-14.6953 50.9063-15.4688L50.9063-15.4688L50.4141-23.6250L51.3281-14.4844Q52.1719-13.0078 52.9805-13.3242Q53.7891-13.6406 54.0703-15.1172L54.0703-15.1172Q53.1563-20.3203 52.2422-25.5234L52.2422-25.5234L52.2422-25.5234Q53.3672-20.6016 54.4922-15.6797L54.4922-15.6797Q55.6875-14.4141 56.3906-15.1172Q57.0938-15.8203 57.1641-17.2266L57.1641-17.2266Q55.6172-21.7969 54.0703-26.3672L54.0703-26.3672Q54.7031-25.4531 54.9141-25.3477Q55.1250-25.2422 55.9688-24.4688L55.9688-24.4688Q55.9688-24.5391 55.9688-24.5742Q55.9688-24.6094 55.9688-24.6797L55.9688-24.6797Q55.9688-24.8906 55.8984-25.1367Q55.8281-25.3828 55.7578-25.5234L55.7578-25.5234Q56.5313-25.0313 57.0938-24.2578Q57.6563-23.4844 58.0078-22.6406L58.0078-22.6406Q58.0781-22.7813 58.1133-22.9570Q58.1484-23.1328 58.1484-23.3438L58.1484-23.3438Q58.1484-23.4141 58.1484-23.4844Q58.1484-23.5547 58.1484-23.6250L58.1484-23.6250Q58.7813-23.2031 59.2383-22.6758Q59.6953-22.1484 59.9766-21.5156L59.9766-21.5156Q59.9063-22.0781 59.8008-22.8516Q59.6953-23.6250 60.2578-23.6250L60.2578-23.6250Q60.3281-23.6250 60.3984-23.6250Q60.4688-23.6250 60.5391-23.6250L60.5391-23.6250Q61.1016-23.1328 61.8047-22.7109Q62.5078-22.2891 63-21.6563L63-21.6563Q62.5781-21.5156 62.0859-21.6563Q61.5938-21.7969 61.1719-21.6563L61.1719-21.6563Q60.8906-21.5156 60.7500-21.2695Q60.6094-21.0234 60.6094-20.7422L60.6094-20.7422Q60.6094-20.6016 60.6094-20.5313Q60.6094-20.4609 60.6797-20.3203L60.6797-20.3203Q60.8203-19.9688 61.1367-19.7578Q61.4531-19.5469 61.8750-19.5469L61.8750-19.5469Q61.8750-19.5469 61.8750-19.5469Q61.8750-19.5469 61.8750-19.5469L61.8750-19.5469Q61.6641-19.5469 61.5586-19.7930Q61.4531-20.0391 61.5938-20.1797L61.5938-20.1797Q61.6641-20.3203 61.8047-20.3906Q61.9453-20.4609 62.0859-20.4609L62.0859-20.4609Q62.1563-20.4609 62.2266-20.4258Q62.2969-20.3906 62.3672-20.3906L62.3672-20.3906Q62.5781-20.3203 62.7891-20.2148Q63-20.1094 63.2109-20.0391L63.2109-20.0391Q63.2813-19.9688 63.3516-19.9688Q63.4219-19.9688 63.4922-19.9688L63.4922-19.9688Q63.6328-19.9688 63.7734-20.0039Q63.9141-20.0391 63.9844-20.1797L63.9844-20.1797Q64.0547-19.7578 64.4063-19.4766Q64.7578-19.1953 65.1094-19.3359L65.1094-19.3359Q65.0391-19.0547 65.2148-18.8086Q65.3906-18.5625 65.6016-18.3516L65.6016-18.3516Q65.7422-18.1406 65.8125-17.9297Q65.8828-17.7188 65.8828-17.5078L65.8828-17.5078Q65.8828-17.3672 65.8477-17.2617Q65.8125-17.1563 65.8125-17.0859L65.8125-17.0859Q65.7422-16.8047 65.4961-16.6289Q65.2500-16.4531 64.8984-16.4531L64.8984-16.4531Q64.8984-16.4531 64.8984-16.4531Q64.8984-16.4531 64.8984-16.4531L64.8984-16.4531Q65.1094-16.1719 65.3906-16.0313Q65.6719-15.8906 65.9531-15.8906L65.9531-15.8906Q66.0938-15.8906 66.2344-15.9258Q66.3750-15.9609 66.4453-15.9609L66.4453-15.9609Q66.7969-16.1719 66.9727-16.5586Q67.1484-16.9453 67.1484-17.4375L67.1484-17.4375Q67.0781-17.9297 66.9023-18.3867Q66.7266-18.8438 66.4453-19.1953L66.4453-19.1953Q66.8672-19.1250 67.3242-18.8789Q67.7813-18.6328 67.9219-18.2109L67.9219-18.2109Q67.9922-18.0703 67.9922-17.8945Q67.9922-17.7188 68.0625-17.5781L68.0625-17.5781Q68.1328-17.3672 68.2734-17.2617Q68.4141-17.1563 68.6250-17.0859L68.6250-17.0859Q68.6953-17.0859 68.7656-17.0508Q68.8359-17.0156 68.9063-17.0156L68.9063-17.0156Q68.9063-16.9453 68.9414-16.8750Q68.9766-16.8047 68.9766-16.7344L68.9766-16.7344Q68.9766-16.7344 68.9766-16.6641Q68.9766-16.5938 68.9766-16.5938L68.9766-16.5938Q68.9766-16.3125 68.9063-16.1367Q68.8359-15.9609 68.7656-15.7500L68.7656-15.7500Q69.1172-15.7500 69.3633-16.0664Q69.6094-16.3828 69.6797-16.7344L69.6797-16.7344Q69.8203-17.6484 69.2930-18.5273Q68.7656-19.4063 67.9219-19.7578L67.9219-19.7578ZM42.0469-57.0234L42.0469-57.0234Q42.0469-57.0234 41.9063-58.3242Q41.7656-59.6250 42.8203-59.9063L42.8203-59.9063Q43.9453-60.1875 44.0156-60.3281Q44.0859-60.4688 44.2266-60.6797L44.2266-60.6797Q44.3672-60.8906 44.6836-60.7148Q45-60.5391 45.4922-60.1172L45.4922-60.1172Q46.0547-59.6953 46.4766-59.0977Q46.8984-58.5000 47.1797-57.7969L47.1797-57.7969Q47.3906-57.0938 45.4922-58.2188Q43.5938-59.3438 42.0469-57.0234L42.0469-57.0234ZM55.4063-49.8516L55.4063-49.8516Q55.1250-50.0625 53.6836-52.4180Q52.2422-54.7734 52.4531-57.4453L52.4531-57.4453Q52.4531-57.7969 52.4883-58.1836Q52.5234-58.5703 52.5938-58.9219L52.5938-58.9219Q52.4531-59.9766 51.8555-60.7148Q51.2578-61.4531 50.4141-61.8047L50.4141-61.8047Q49.5000-62.1563 48.5859-62.0508Q47.6719-61.9453 46.8281-61.6641L46.8281-61.6641Q46.3359-61.4531 45.9492-61.3125Q45.5625-61.1719 45.2813-60.7500L45.2813-60.7500Q45.9844-60.2578 46.4766-59.4141Q46.9688-58.5703 47.1797-57.7266L47.1797-57.7266Q45.7031-58.7813 44.4023-58.2188Q43.1016-57.6563 42.8906-57.0234L42.8906-57.0234L42.9609-57.0234Q43.3828-57.3047 43.8750-57.5156Q44.3672-57.7266 44.8594-57.6563L44.8594-57.6563Q45.4219-57.5859 45.8086-57.0938Q46.1953-56.6016 46.4063-56.0391L46.4063-56.0391Q46.6172-55.4766 46.3711-54.5625Q46.1250-53.6484 45.7031-52.6641L45.7031-52.6641Q45.7031-52.6641 45-51.5039Q44.2969-50.3438 43.7344-49.9219L43.7344-49.9219Q43.8047-49.8516 43.9453-49.8516Q44.0859-49.8516 44.2266-49.8516L44.2266-49.8516Q44.8594-49.8516 45.3867-50.0625Q45.9141-50.2734 46.3359-50.6250L46.3359-50.6250Q46.1953-50.2031 45.9844-49.8164Q45.7734-49.4297 45.4922-49.0781L45.4922-49.0781Q45.4922-49.0781 45.5625-49.0781Q45.6328-49.0781 45.6328-49.0781L45.6328-49.0781Q46.5469-49.0781 47.2852-49.4648Q48.0234-49.8516 48.5156-50.4844L48.5156-50.4844Q48.5859-50.0625 48.7617-49.7109Q48.9375-49.3594 49.2188-49.0781L49.2188-49.0781Q49.5000-49.3594 49.7109-49.7109Q49.9219-50.0625 49.9219-50.4844L49.9219-50.4844Q50.4844-49.8516 51.2227-49.4648Q51.9609-49.0781 52.8750-49.0781L52.8750-49.0781Q52.8750-49.0781 52.9453-49.0781Q53.0156-49.0781 53.0156-49.0781L53.0156-49.0781Q52.7344-49.4297 52.5234-49.7813Q52.3125-50.1328 52.1719-50.6250L52.1719-50.6250Q52.7344-50.1328 53.7188-49.9570Q54.7031-49.7813 55.4063-49.8516L55.4063-49.8516ZM48.1641-59.9063L48.1641-59.9063Q47.8828-59.7656 47.6016-59.9414Q47.3203-60.1172 46.8984-60.1172L46.8984-60.1172Q46.8984-60.1172 47.0039-60.3633Q47.1094-60.6094 47.3203-60.6094L47.3203-60.6094L48.9375-60.6094Q48.7969-60.3984 48.5859-60.2227Q48.3750-60.0469 48.1641-59.9063L48.1641-59.9063Z"/></svg>