<svg width="74" height="74" viewBox="-1 -69 74 74" fill="#29dccd" xmlns="http://www.w3.org/2000/svg"><path d="M7.9453-10.6875L7.9453-10.6875Q8.3672-9.8438 8.7891-9Q9.2109-8.1563 9.4922-7.2422L9.4922-7.2422Q8.5781-7.8750 7.8047-8.9297Q7.0313-9.9844 6.3984-10.9688L6.3984-10.9688L6.3984-10.9688Q6.2578-11.1094 6.1523-11.3203Q6.0469-11.5313 5.9766-11.6719L5.9766-11.6719Q3.5859-15.1875 2.1797-19.1953Q0.7734-23.2031 0.2813-27.4219L0.2813-27.4219Q-0.1406-30.4453 0.0352-33.6094Q0.2109-36.7734 0.9844-39.7969L0.9844-39.7969Q1.7578-43.1016 3.1289-46.1250Q4.5000-49.1484 6.3984-51.9609L6.3984-51.9609Q8.7891-55.4063 11.9531-58.2188L11.9531-58.2188Q15.1172-60.9609 18.8086-62.9648Q22.5000-64.9688 26.5078-66.1641L26.5078-66.1641Q30.5859-67.2891 34.8047-67.5000L34.8047-67.5000Q40.0078-67.7109 45.1758-66.3750Q50.3438-65.0391 54.9141-62.5781L54.9141-62.5781Q58.4297-60.6797 61.3828-58.0078L61.3828-58.0078Q64.3359-55.3359 66.3398-52.0664Q68.3438-48.7969 69.2578-45L69.2578-45Q70.1719-41.2734 69.5391-37.1250L69.5391-37.1250Q69.3984-35.8594 69.0820-34.5938Q68.7656-33.3281 68.4141-32.1328L68.4141-32.1328Q68.3438-31.9922 68.3086-31.9219Q68.2734-31.8516 68.2734-31.7109L68.2734-31.7109L68.2734-31.6406Q68.1328-31.2891 67.9922-30.9023Q67.8516-30.5156 67.6406-30.1641L67.6406-30.1641Q67.9922-33.1172 67.9922-35.8945Q67.9922-38.6719 67.3594-41.5547L67.3594-41.5547Q67.1484-42.4688 66.9023-43.3828Q66.6563-44.2969 66.3750-45.1406L66.3750-45.1406L66.3750-45.2109Q66.3047-45.4922 66.1992-45.8086Q66.0938-46.1250 66.0234-46.4063L66.0234-46.4063Q65.9531-46.6172 65.9180-46.7578Q65.8828-46.8984 65.8125-47.0391L65.8125-47.0391L65.8125-47.1094L65.8125-47.1094Q65.6719-47.5313 65.5664-47.9180Q65.4609-48.3047 65.3906-48.7266L65.3906-48.7266L63.4219-46.4766L63.3516-46.4766Q61.3828-49.7109 59.1328-52.6289Q56.8828-55.5469 53.7891-57.8672L53.7891-57.8672Q52.1719-59.1328 50.3789-60.1523Q48.5859-61.1719 46.7578-62.0859L46.7578-62.0859L46.6875-62.0859Q45.7031-62.5781 44.7188-63.1055Q43.7344-63.6328 42.7500-64.1953L42.7500-64.1953L43.5234-61.8047Q41.2031-62.2266 38.9531-62.5078Q36.7031-62.7891 34.3125-62.6484L34.3125-62.6484Q28.9688-62.4375 23.8359-60.2227Q18.7031-58.0078 14.7656-54.3516L14.7656-54.3516Q13.6406-53.2266 12.6211-52.1016Q11.6016-50.9766 10.6875-49.7109L10.6875-49.7109Q10.4063-49.2891 10.1602-48.8672Q9.9141-48.4453 9.6328-48.0234L9.6328-48.0234L9.6328-48.0234L9.6328-48.0234Q9.3516-47.6016 9.1055-47.2148Q8.8594-46.8281 8.5781-46.4063L8.5781-46.4063Q7.4531-44.7891 6.2227-43.2422Q4.9922-41.6953 3.7969-40.1484L3.7969-40.1484L3.7266-40.0781L3.5156-39.7969L6.3984-41.3438Q6.2578-40.6406 6.0820-39.9375Q5.9063-39.2344 5.6953-38.6016L5.6953-38.6016L5.6953-38.5313L5.6953-38.5313Q5.4141-37.3359 5.1328-36.1406Q4.8516-34.9453 4.7109-33.7500L4.7109-33.7500Q4.1484-29.0391 4.5703-24.2578Q4.9922-19.4766 6.2578-14.9063L6.2578-14.9063Q6.5391-13.8516 6.9961-12.7969Q7.4531-11.7422 7.9453-10.6875L7.9453-10.6875ZM47.6016-53.9297L47.6016-53.9297Q47.7422-55.2656 47.3906-56.7773Q47.0391-58.2891 46.6875-59.5547L46.6875-59.5547Q47.6016-59.2734 48.5508-58.6758Q49.5000-58.0781 50.3438-57.5156L50.3438-57.5156Q50.5547-57.3750 50.7656-57.2344Q50.9766-57.0938 51.1875-56.9531L51.1875-56.9531Q54.5625-54.7031 57.3398-51.2930Q60.1172-47.8828 60.8203-43.7344L60.8203-43.7344Q61.0313-42.6094 61.1016-41.3086Q61.1719-40.0078 60.8203-38.8828L60.8203-38.8828Q61.8750-39.0234 62.6484-39.8320Q63.4219-40.6406 63.8438-41.4844L63.8438-41.4844Q63.9141-41.5547 63.9844-41.6953Q64.0547-41.8359 64.0547-41.9063L64.0547-41.9063L64.0547-41.9063L64.0547-41.9766Q64.1953-42.1875 64.3359-42.4688Q64.4766-42.7500 64.6875-42.8906L64.6875-42.8906Q64.7578-42.2578 64.8633-41.6250Q64.9688-40.9922 65.1094-40.3594L65.1094-40.3594L65.1094-40.3594Q65.3906-38.8125 65.6016-37.3008Q65.8125-35.7891 65.7422-34.1719L65.7422-34.1719Q65.5313-29.4609 63.4219-25.4180Q61.3125-21.3750 58.1484-18L58.1484-18Q57.3047-17.0859 56.4258-16.2773Q55.5469-15.4688 54.7031-14.6250L54.7031-14.6250L54.6328-14.5547L54.6328-14.5547Q54.0703-14.0625 53.5430-13.5703Q53.0156-13.0781 52.5234-12.5859L52.5234-12.5859Q53.9297-12.8672 55.3008-13.6406Q56.6719-14.4141 57.7969-15.3281L57.7969-15.3281Q60.2578-17.1563 62.3672-19.3711Q64.4766-21.5859 66.2344-24.0469L66.2344-24.0469L66.3047-24.0469Q65.4609-21.5156 64.1250-19.0547L64.1250-19.0547Q62.7891-16.6641 61.1016-14.4844Q59.4141-12.3047 57.3750-10.4063L57.3750-10.4063Q55.3359-8.5781 53.0156-7.2422L53.0156-7.2422Q49.4297-5.0625 45.5625-4.2188Q41.6953-3.3750 37.6172-3.3750L37.6172-3.3750Q33.6094-3.3750 29.6016-4.2539Q25.5938-5.1328 22.0781-7.1719L22.0781-7.1719L22.0781-7.2422Q25.5234-6.9609 28.9688-7.2422L28.9688-7.2422Q32.4141-7.4531 35.6484-8.4023Q38.8828-9.3516 41.8359-11.0391L41.8359-11.0391Q44.7891-12.7266 47.2500-15.2578L47.2500-15.2578Q49.0781-17.1563 50.4844-19.3711Q51.8906-21.5859 52.6641-24.1172L52.6641-24.1172Q54-28.7578 52.8398-33.5742Q51.6797-38.3906 48.2344-41.6953L48.2344-41.6953Q47.1094-42.8203 45.7734-43.6641Q44.4375-44.5078 42.9609-45.1406L42.9609-45.1406Q39.1641-46.7578 34.7695-46.9336Q30.3750-47.1094 26.5781-45.1406L26.5781-45.1406Q24.1875-43.8750 22.4297-41.6953L22.4297-41.6953Q20.7422-39.5156 20.0039-36.9141Q19.2656-34.3125 19.6172-31.5703L19.6172-31.5703Q19.9688-28.8984 21.5859-26.5781L21.5859-26.5781Q23.2734-24.3281 25.9453-22.7813Q28.6172-21.2344 31.5000-21.3047L31.5000-21.3047Q35.0859-21.3750 38.1445-24.1875Q41.2031-27 40.4297-30.9375L40.4297-30.9375Q40.0781-32.6953 38.9531-34.2422Q37.8281-35.7891 36.2109-36.4922L36.2109-36.4922Q34.5234-37.2656 32.6602-36.5977Q30.7969-35.9297 30.2344-34.1016L30.2344-34.1016Q30.8672-34.3828 31.8516-34.5234Q32.8359-34.6641 33.1875-33.8203L33.1875-33.8203Q33.3281-33.6094 33.3281-33.3633Q33.3281-33.1172 33.3281-32.8359L33.3281-32.8359Q33.3281-32.8359 33.3281-32.7656Q33.3281-32.6953 33.3281-32.6250L33.3281-32.6250Q34.8750-32.3438 35.6836-30.8672Q36.4922-29.3906 35.5781-28.0547L35.5781-28.0547Q34.8047-26.7891 33.3633-26.2266Q31.9219-25.6641 30.4453-25.8750L30.4453-25.8750Q27.9141-26.2969 26.1211-28.1602Q24.3281-30.0234 24.0469-32.5547L24.0469-32.5547Q23.9766-33.1875 24.0117-33.9609Q24.0469-34.7344 24.2578-35.3672L24.2578-35.3672Q24.3984-35.6484 24.6797-35.8945Q24.9609-36.1406 25.2422-36.4219L25.2422-36.4219Q25.3125-36.4219 25.3828-36.4570Q25.4531-36.4922 25.5234-36.5625L25.5234-36.5625Q26.3672-37.3359 27.5273-37.9688Q28.6875-38.6016 29.8125-38.7422L29.8125-38.7422L29.8125-38.8125Q28.6875-38.9531 27.6680-38.8125Q26.6484-38.6719 25.5938-38.3906L25.5938-38.3906Q26.5781-40.2188 28.7930-41.1328Q31.0078-42.0469 32.9766-42.3281L32.9766-42.3281Q36.3516-42.7500 40.1133-41.3438Q43.8750-39.9375 45.4219-36.6328L45.4219-36.6328Q45.9141-35.4375 46.0547-34.1719Q46.1953-32.9063 46.0547-31.5703L46.0547-31.5703L46.1250-31.5703L46.9688-33.1875L47.3906-35.3672L47.4609-35.3672Q49.2891-31.0078 48.5156-25.5586Q47.7422-20.1094 42.8906-17.7188L42.8906-17.7188Q41.6250-17.0859 40.1484-16.8750Q38.6719-16.6641 37.1953-16.5938L37.1953-16.5938Q35.2266-16.5234 33.2930-16.5938Q31.3594-16.6641 29.3906-17.0859L29.3906-17.0859Q31.0781-15.3984 33.3984-14.3789Q35.7188-13.3594 38.1094-13.3594L38.1094-13.3594L38.1094-13.2891Q35.3672-11.6016 31.8516-10.6172L31.8516-10.6172Q28.3359-9.7031 24.8906-9.8438Q21.4453-9.9844 18.4219-11.5313L18.4219-11.5313Q15.4688-13.0781 13.7813-16.4531L13.7813-16.4531Q13.2188-17.6484 12.8672-18.9141Q12.5156-20.1797 12.3750-21.5156L12.3750-21.5156Q10.4766-21.4453 9.5625-19.3008Q8.6484-17.1563 8.5078-15.6094L8.5078-15.6094L8.4375-15.6094Q6.8203-19.1250 6.1875-23.0625L6.1875-23.0625Q5.6250-27 6.2227-30.8320Q6.8203-34.6641 8.6484-38.1094L8.6484-38.1094Q10.4766-41.6250 13.6406-44.1563L13.6406-44.1563Q14.7656-45.0703 16.1016-45.9844Q17.4375-46.8984 18.8438-47.3203L18.8438-47.3203L18.8438-47.4609Q18.7031-47.5313 18.5273-47.6016Q18.3516-47.6719 18.1406-47.8125L18.1406-47.8125Q17.8594-47.8828 17.5781-48.0234Q17.2969-48.1641 17.0156-48.2344L17.0156-48.2344Q16.0313-48.4453 15.1172-48.2344Q14.2031-48.0234 13.3594-47.7422L13.3594-47.7422L13.2891-47.7422Q13.0781-47.6016 12.7969-47.5313Q12.5156-47.4609 12.3047-47.3906L12.3047-47.3906Q12.9375-48.5859 13.9570-49.6055Q14.9766-50.6250 15.9609-51.6094L15.9609-51.6094L16.1719-51.8203Q18.3516-53.9297 20.8828-55.4063L20.8828-55.4063Q23.4141-56.8828 26.1563-57.6563Q28.8984-58.4297 31.7813-58.4297L31.7813-58.4297Q34.6641-58.3594 37.6172-57.3750L37.6172-57.3750Q39.4453-56.8125 41.1680-55.8984Q42.8906-54.9844 44.4375-53.9297L44.4375-53.9297Q44.8594-53.5781 45.3164-53.2617Q45.7734-52.9453 46.1250-52.5938L46.1250-52.5938Q46.1953-52.5938 46.1953-52.5586Q46.1953-52.5234 46.2656-52.5234L46.2656-52.5234Q46.3359-52.3828 46.5117-52.2773Q46.6875-52.1719 46.8281-52.2422L46.8281-52.2422Q47.2500-52.3125 47.3906-52.9102Q47.5313-53.5078 47.6016-53.8594L47.6016-53.8594L47.6016-53.9297ZM71.9297-32.2734L71.9297-32.2734Q71.6484-31.2188 71.2266-30.1992Q70.8047-29.1797 70.3828-28.1250L70.3828-28.1250Q70.1719-27.6328 69.9609-27.1406Q69.7500-26.6484 69.5391-26.1563L69.5391-26.1563Q67.9922-21.9375 65.9883-18Q63.9844-14.0625 60.8906-10.6875L60.8906-10.6875Q57.8672-7.4531 54-5.2031L54-5.2031Q50.1328-2.9531 45.8438-1.7227Q41.5547-0.4922 37.0547-0.3516L37.0547-0.3516Q32.5547-0.2109 28.2656-1.2656L28.2656-1.2656Q24.8203-2.0391 21.5859-3.6211Q18.3516-5.2031 15.3984-7.1719L15.3984-7.1719Q14.7656-7.6641 14.1328-8.1211Q13.5000-8.5781 12.8672-9.0703L12.8672-9.0703Q12.3047-9.5625 11.7070-10.0195Q11.1094-10.4766 10.4766-10.8984L10.4766-10.8984Q10.6172-10.3359 10.9336-9.7383Q11.2500-9.1406 11.6016-8.5781L11.6016-8.5781L11.6016-8.5781Q11.6719-8.4375 11.7070-8.3672Q11.7422-8.2969 11.8125-8.2266L11.8125-8.2266Q12.7969-6.4688 14.0977-4.8867Q15.3984-3.3047 16.8750-1.8984L16.8750-1.8984Q20.7422 1.6172 25.4531 3.0586Q30.1641 4.5000 35.2969 4.5000L35.2969 4.5000Q40.1484 4.5000 44.8594 3.3047L44.8594 3.3047Q49.5000 2.1094 53.6133-0.1406Q57.7266-2.3906 61.2422-5.7656L61.2422-5.7656Q64.6875-9.0703 67.1484-13.3594L67.1484-13.3594Q68.9766-16.5938 70.1719-20.1445Q71.3672-23.6953 71.7891-27.4219L71.7891-27.4219Q71.8594-28.2656 71.9297-29.1094Q72-29.9531 72-30.8672L72-30.8672Q72-30.9375 72-31.0430Q72-31.1484 72-31.2188L72-31.2188Q72-31.5000 72-31.7813Q72-32.0625 71.9297-32.2734L71.9297-32.2734Z"/></svg>