<svg width="74" height="74" viewBox="-1 -69 74 74" fill="#056839" xmlns="http://www.w3.org/2000/svg"><path d="M3.5859-47.1797L7.8047-45.1406Q8.8594-47.2500 10.1250-49.1133Q11.3906-50.9766 12.8672-52.5938L12.8672-52.5938L9.4922-55.8984Q7.7344-54 6.2227-51.7852Q4.7109-49.5703 3.5859-47.1797L3.5859-47.1797ZM11.6016-57.9375L14.9063-54.6328Q16.5938-56.1797 18.4922-57.4453Q20.3906-58.7109 22.4297-59.6953L22.4297-59.6953L20.8125-64.1953Q18.1406-62.9297 15.8555-61.3828Q13.5703-59.8359 11.6016-57.9375L11.6016-57.9375ZM37.5469-67.5000L37.4766-62.7891Q39.7969-62.6484 42.0469-62.2266Q44.2969-61.8047 46.3359-61.0313L46.3359-61.0313L47.8828-65.5313Q45.5625-66.3750 42.9258-66.8672Q40.2891-67.3594 37.5469-67.5000L37.5469-67.5000ZM62.4375-55.8984L62.5078-55.8984L59.1328-52.5938Q60.7500-50.8359 62.0508-48.8672Q63.3516-46.8984 64.4063-44.7188L64.4063-44.7188L68.8359-46.2656Q67.5703-49.0078 65.9883-51.4336Q64.4063-53.8594 62.4375-55.8984L62.4375-55.8984ZM23.2734-65.2500L25.3125-60.9609Q27.3516-61.7344 29.6719-62.1914Q31.9922-62.6484 34.4531-62.7891L34.4531-62.7891L34.5234-67.5000Q31.5703-67.3594 28.7227-66.7969Q25.8750-66.2344 23.2734-65.2500L23.2734-65.2500ZM50.8359-64.3359L48.8672-60.0469Q51.2578-58.9219 53.2969-57.5859Q55.3359-56.2500 57.0938-54.6328L57.0938-54.6328L60.3984-58.0078Q58.2891-59.9063 55.8984-61.5234Q53.5078-63.1406 50.8359-64.3359L50.8359-64.3359ZM60.4688-5.0625L57.0938-8.3672Q55.4063-6.8203 53.5078-5.5547Q51.6094-4.2891 49.5703-3.3047L49.5703-3.3047L51.1875 1.1953Q53.8594-0.0703 56.1445-1.6172Q58.4297-3.1641 60.4688-5.0625L60.4688-5.0625ZM68.4141-15.8203L64.1953-17.8594Q63.1406-15.7500 61.8750-13.8867Q60.6094-12.0234 59.1328-10.4063L59.1328-10.4063L62.5078-7.1016Q64.2656-9 65.7773-11.2148Q67.2891-13.4297 68.4141-15.8203L68.4141-15.8203ZM9.5625-7.1016L12.8672-10.4063Q11.2500-12.1641 9.9492-14.1328Q8.6484-16.1016 7.5938-18.2813L7.5938-18.2813L3.1641-16.7344Q4.4297-13.9922 6.0117-11.5664Q7.5938-9.1406 9.5625-7.1016L9.5625-7.1016ZM21.1641 1.3359L23.1328-2.9531Q20.7422-4.0781 18.7031-5.4141Q16.6641-6.7500 14.9063-8.3672L14.9063-8.3672L11.6016-4.9922Q13.7109-3.0938 16.1016-1.4766Q18.4922 0.1406 21.1641 1.3359L21.1641 1.3359ZM48.7266 2.2500L46.6875-2.0391Q44.6484-1.3359 42.3281-0.8438Q40.0078-0.3516 37.5469-0.2109L37.5469-0.2109L37.4766 4.5000Q40.4297 4.3594 43.2773 3.7969Q46.1250 3.2344 48.7266 2.2500L48.7266 2.2500ZM34.4531 4.5000L34.5234-0.2109Q32.2031-0.3516 29.9531-0.7734Q27.7031-1.1953 25.6641-1.9688L25.6641-1.9688L24.1172 2.5313Q26.4375 3.3750 29.0742 3.8672Q31.7109 4.3594 34.4531 4.5000L34.4531 4.5000ZM71.2969-32.9766L72-32.9766Q71.8594-35.8594 71.3320-38.5664Q70.8047-41.2734 69.8906-43.8047L69.8906-43.8047L65.6016-41.7656Q66.0938-40.2891 66.4805-38.6016Q66.8672-36.9141 67.0781-35.1563L67.0781-35.1563Q68.1328-34.5234 69.2930-33.9609Q70.4531-33.3984 71.2969-32.9766L71.2969-32.9766ZM65.2500-20.3203L65.3203-20.5313L69.6797-18.7031Q70.6641-21.2344 71.2617-24.0820Q71.8594-26.9297 72-29.9531L72-29.9531L71.2266-30.0234Q70.3828-29.6016 69.2578-29.0742Q68.1328-28.5469 67.0781-27.9844L67.0781-27.9844Q66.8672-25.9453 66.4102-24.0469Q65.9531-22.1484 65.2500-20.3203L65.2500-20.3203ZM6.7500-42.6797L6.6797-42.4688L2.3203-44.2969Q1.3359-41.7656 0.7383-38.9180Q0.1406-36.0703 0-33.0469L0-33.0469L0.5625-32.9766Q1.4766-33.3984 2.6367-33.9609Q3.7969-34.5234 4.9219-35.0859L4.9219-35.0859Q5.1328-37.1250 5.5898-39.0234Q6.0469-40.9219 6.7500-42.6797L6.7500-42.6797ZM0.6328-30.0234L0-30.0234Q0.1406-27.1406 0.6680-24.4336Q1.1953-21.7266 2.1094-19.1953L2.1094-19.1953L6.3984-21.2344Q5.9063-22.7109 5.5195-24.3633Q5.1328-26.0156 4.9219-27.8438L4.9219-27.8438Q3.8672-28.4063 2.7070-29.0039Q1.5469-29.6016 0.6328-30.0234L0.6328-30.0234ZM31.7813-34.7344L31.7813-34.7344Q31.7813-34.1016 31.3945-33.7148Q31.0078-33.3281 30.3750-33.3281L30.3750-33.3281Q29.8125-33.3281 29.3906-33.7148Q28.9688-34.1016 28.9688-34.7344L28.9688-34.7344Q28.9688-35.2969 29.3906-35.7188Q29.8125-36.1406 30.3750-36.1406L30.3750-36.1406Q31.0078-36.1406 31.3945-35.7188Q31.7813-35.2969 31.7813-34.7344ZM26.8594-34.1016L26.8594-34.1016Q26.8594-34.1016 27.7734-33.4688Q28.6875-32.8359 29.4609-32.8359L29.4609-32.8359Q31.9219-32.8359 32.5898-33.1523Q33.2578-33.4688 33.2578-33.4688L33.2578-33.4688L33.2578-29.6016L29.3906-29.6016Q29.3906-29.6016 28.4414-30.6563Q27.4922-31.7109 26.0859-31.7109L26.0859-31.7109Q26.0859-31.7109 26.1563-32.5898Q26.2266-33.4688 26.8594-34.1016L26.8594-34.1016ZM23.1328-30.9375L23.1328-30.9375Q23.1328-30.9375 23.6953-34.4883Q24.2578-38.0391 26.2266-39.6563L26.2266-39.6563L28.8281-39.6563Q28.8281-39.6563 27.2461-37.7930Q25.6641-35.9297 25.2422-34.1016L25.2422-34.1016Q24.8906-32.3438 24.2930-31.6758Q23.6953-31.0078 23.1328-30.9375ZM25.1719-39.5859L23.9766-39.5859Q23.9766-39.5859 22.5352-36.5977Q21.0938-33.6094 22.0078-29.3906L22.0078-29.3906Q22.0078-29.3906 22.5352-33.4336Q23.0625-37.4766 25.1719-39.5859L25.1719-39.5859ZM28.5469-27.7031L28.5469-27.7031Q28.5469-26.5078 27.7031-25.6641Q26.8594-24.8203 25.7344-24.8203L25.7344-24.8203Q24.5391-24.8203 23.6953-25.6641Q22.8516-26.5078 22.8516-27.7031L22.8516-27.7031Q22.8516-28.8984 23.6953-29.7070Q24.5391-30.5156 25.7344-30.5156L25.7344-30.5156Q26.8594-30.5156 27.7031-29.7070Q28.5469-28.8984 28.5469-27.7031ZM26.6484-21.0938L29.0391-22.4297Q29.0391-22.4297 30.2344-21.6914Q31.4297-20.9531 32.9063-20.6719L32.9063-20.6719L32.9063-17.9297Q32.9063-17.9297 30.6211-18.5977Q28.3359-19.2656 26.6484-21.0938L26.6484-21.0938ZM14.1328-42.6797L14.1328-42.6797Q14.1328-41.6953 13.4297-40.9922Q12.7266-40.2891 11.6719-40.2891L11.6719-40.2891Q10.6875-40.2891 9.9844-40.9922Q9.2813-41.6953 9.2813-42.6797L9.2813-42.6797Q9.2813-43.6641 9.9844-44.3672Q10.6875-45.0703 11.6719-45.0703L11.6719-45.0703Q12.7266-45.0703 13.4297-44.3672Q14.1328-43.6641 14.1328-42.6797ZM18.9844-31.5000L18.9844-31.5703L17.8594-29.1797L12.1641-31.5703L12.1641-31.5000L17.8594-33.8906L18.9844-31.5000ZM6.6797-31.5000L6.6797-31.5703L16.8047-26.7188L17.2969-27.9141L9.6328-31.5703L9.6328-31.5000L17.2969-35.0859L16.8047-36.2813L6.6797-31.5000ZM0.7031-31.4297L0.7031-31.5703Q0.7031-31.5703 4.4648-29.7070Q8.2266-27.8438 9.4219-27.3516L9.4219-27.3516Q10.5469-26.7891 11.2852-26.5078Q12.0234-26.2266 12.7266-26.2266L12.7266-26.2266Q12.7266-26.2266 12.7266-26.2266Q12.7266-26.2266 12.7969-26.2266L12.7969-26.2266Q13.1484-26.2266 13.3945-25.9805Q13.6406-25.7344 13.7109-25.4531L13.7109-25.4531Q13.1484-25.6641 12.6563-25.3477Q12.1641-25.0313 12.1641-24.6094L12.1641-24.6094Q12.1641-23.2031 13.5352-23.2734Q14.9063-23.3438 15.2578-24.1172L15.2578-24.1172Q15.4688-24.5391 15.6445-25.4531Q15.8203-26.3672 14.5547-26.8594L14.5547-26.8594Q13.3594-27.4219 9.0703-29.4961Q4.7813-31.5703 4.7813-31.5703L4.7813-31.5703L4.7813-31.5000Q4.7813-31.5000 9.0703-33.5391Q13.3594-35.5781 14.5547-36.1406L14.5547-36.1406Q15.8203-36.7031 15.6445-37.5820Q15.4688-38.4609 15.2578-38.8828L15.2578-38.8828Q14.9063-39.6563 13.5352-39.7617Q12.1641-39.8672 12.1641-38.3906L12.1641-38.3906Q12.1641-37.9688 12.6563-37.6523Q13.1484-37.3359 13.7109-37.6172L13.7109-37.6172Q13.6406-37.2656 13.3945-37.0195Q13.1484-36.7734 12.7969-36.7734L12.7969-36.7734Q12.7266-36.7734 12.7266-36.7734Q12.7266-36.7734 12.7266-36.7734L12.7266-36.7734Q12.0234-36.8438 11.2852-36.5273Q10.5469-36.2109 9.4219-35.7188L9.4219-35.7188Q8.2266-35.1563 4.4648-33.2930Q0.7031-31.4297 0.7031-31.4297L0.7031-31.4297ZM14.1328-20.3203L14.1328-20.3203Q14.1328-19.3359 13.4297-18.6328Q12.7266-17.9297 11.6719-17.9297L11.6719-17.9297Q10.6875-17.9297 9.9844-18.6328Q9.2813-19.3359 9.2813-20.3203L9.2813-20.3203Q9.2813-21.3047 9.9844-22.0078Q10.6875-22.7109 11.6719-22.7109L11.6719-22.7109Q12.7266-22.7109 13.4297-22.0078Q14.1328-21.3047 14.1328-20.3203ZM36-46.1250L36-46.1250Q30.7969-46.1250 28.4063-43.9805Q26.0156-41.8359 26.0156-41.8359L26.0156-41.8359L45.9844-41.8359Q45.9844-41.8359 43.5938-43.9805Q41.2031-46.1250 36-46.1250ZM46.6172-40.9922L46.6172-40.9922L25.3828-40.9922Q25.2422-40.9922 25.1367-40.8867Q25.0313-40.7813 25.0313-40.6406L25.0313-40.6406Q25.0313-40.5000 25.1367-40.3594Q25.2422-40.2188 25.3828-40.2188L25.3828-40.2188L46.6172-40.2188Q46.7578-40.2188 46.8633-40.3594Q46.9688-40.5000 46.9688-40.6406L46.9688-40.6406Q46.9688-40.7813 46.8633-40.8867Q46.7578-40.9922 46.6172-40.9922ZM41.4844-39.5859L41.4844-39.5859L30.5156-39.5859Q29.3203-38.8828 28.7227-37.7227Q28.1250-36.5625 28.1250-36.5625L28.1250-36.5625Q30.9375-37.5469 32.5547-36.1406Q34.1719-34.7344 34.1719-32.9063L34.1719-32.9063L34.1719-29.6016L37.8281-29.6016L37.8281-32.9063Q37.8281-34.7344 39.4805-36.1406Q41.1328-37.5469 43.8750-36.5625L43.8750-36.5625Q43.8750-36.5625 43.2773-37.7227Q42.6797-38.8828 41.4844-39.5859L41.4844-39.5859ZM43.0313-34.7344L43.0313-34.7344Q43.0313-34.1016 42.6094-33.7148Q42.1875-33.3281 41.6250-33.3281L41.6250-33.3281Q40.9922-33.3281 40.6055-33.7148Q40.2188-34.1016 40.2188-34.7344L40.2188-34.7344Q40.2188-35.2969 40.6055-35.7188Q40.9922-36.1406 41.6250-36.1406L41.6250-36.1406Q42.1875-36.1406 42.6094-35.7188Q43.0313-35.2969 43.0313-34.7344ZM44.7188-34.2422L44.7188-34.2422Q44.7188-34.2422 43.8750-33.6094Q43.0313-32.9766 42.2578-32.9766L42.2578-32.9766Q39.8672-32.9766 39.2344-33.2930Q38.6016-33.6094 38.6016-33.6094L38.6016-33.6094L38.6016-29.9531L42.3281-29.9531Q42.3281-29.9531 43.2070-30.9375Q44.0859-31.9219 45.4219-31.9219L45.4219-31.9219Q45.4219-31.9219 45.3516-32.8008Q45.2813-33.6797 44.7188-34.2422L44.7188-34.2422ZM48.8672-30.9375L48.8672-30.9375Q48.8672-30.9375 48.3047-34.4883Q47.7422-38.0391 45.7734-39.6563L45.7734-39.6563L43.1719-39.6563Q43.1719-39.6563 44.7539-37.7930Q46.3359-35.9297 46.7578-34.1016L46.7578-34.1016Q47.1094-32.3438 47.7070-31.6758Q48.3047-31.0078 48.8672-30.9375ZM46.8281-39.5859L48.0234-39.5859Q48.0234-39.5859 49.4648-36.5977Q50.9063-33.6094 49.9922-29.3906L49.9922-29.3906Q49.9922-29.3906 49.4648-33.4336Q48.9375-37.4766 46.8281-39.5859L46.8281-39.5859ZM49.1484-27.7031L49.1484-27.7031Q49.1484-26.5078 48.3047-25.6992Q47.4609-24.8906 46.2656-24.8906L46.2656-24.8906Q45.1406-24.8906 44.2969-25.6992Q43.4531-26.5078 43.4531-27.7031L43.4531-27.7031Q43.4531-28.8984 44.2969-29.7070Q45.1406-30.5156 46.2656-30.5156L46.2656-30.5156Q47.4609-30.5156 48.3047-29.7070Q49.1484-28.8984 49.1484-27.7031ZM42.3281-28.6875L42.3281-28.6875L29.6719-28.6875Q29.6719-28.6875 29.1445-25.9805Q28.6172-23.2734 23.9766-24.3281L23.9766-24.3281Q23.9766-24.3281 24.4688-23.4844Q24.9609-22.6406 25.5938-22.0781L25.5938-22.0781L27.2109-22.1484L28.9688-23.2734Q28.9688-23.2734 30.2344-22.4297Q31.5000-21.5859 32.8359-21.5859L32.8359-21.5859L32.8359-23.6953Q32.8359-23.6953 31.8164-24.1172Q30.7969-24.5391 30.7969-25.8047L30.7969-25.8047Q30.7969-26.5781 31.6055-26.9297Q32.4141-27.2813 33.5391-27.2813L33.5391-27.2813L38.3906-27.2813Q39.5859-27.2813 40.3945-26.9297Q41.2031-26.5781 41.2031-25.8047L41.2031-25.8047Q41.2031-24.5391 40.1836-24.1172Q39.1641-23.6953 39.1641-23.6953L39.1641-23.6953L39.1641-21.5859Q40.5000-21.5859 41.7656-22.4648Q43.0313-23.3438 43.0313-23.3438L43.0313-23.3438L44.7891-22.1484L46.4063-22.0781Q47.0391-22.6406 47.5313-23.5195Q48.0234-24.3984 48.0234-24.3984L48.0234-24.3984Q43.3828-23.2734 42.8555-25.9805Q42.3281-28.6875 42.3281-28.6875L42.3281-28.6875ZM38.8828-26.3672L38.8828-26.3672L33.1172-26.3672Q32.3438-26.3672 32.2031-25.9805Q32.0625-25.5938 32.0625-25.5938L32.0625-25.5938L39.9375-25.5938Q39.9375-25.5938 39.7969-25.9805Q39.6563-26.3672 38.8828-26.3672L38.8828-26.3672ZM45.3516-21.0938L42.9609-22.4297Q42.9609-22.4297 41.7656-21.6914Q40.5703-20.9531 39.0938-20.6719L39.0938-20.6719L39.0938-17.9297Q39.0938-17.9297 41.3789-18.5977Q43.6641-19.2656 45.3516-21.0938L45.3516-21.0938ZM38.2500-24.6797L36.2813-24.6797L36.2813-22.7109Q36.2813-21.8672 36.2109-20.9531Q36.1406-20.0391 36-20.0391L36-20.0391Q35.8594-20.0391 35.7891-20.9531Q35.7188-21.8672 35.7188-22.7109L35.7188-22.7109L35.7188-24.6797L33.7500-24.6797L33.7500-19.7578Q33.7500-19.7578 34.0313-18.2813Q34.3125-16.8047 36-16.8047L36-16.8047Q37.6875-16.8047 37.9688-18.2813Q38.2500-19.7578 38.2500-19.7578L38.2500-19.7578L38.2500-24.6797ZM62.7188-42.6797L62.7188-42.6797Q62.7188-41.6953 62.0156-40.9922Q61.3125-40.2891 60.3281-40.2891L60.3281-40.2891Q59.2734-40.2891 58.5703-40.9922Q57.8672-41.6953 57.8672-42.6797L57.8672-42.6797Q57.8672-43.6641 58.5703-44.3672Q59.2734-45.0703 60.3281-45.0703L60.3281-45.0703Q61.3125-45.0703 62.0156-44.3672Q62.7188-43.6641 62.7188-42.6797ZM12.1641-49.5000L20.8828-32.1328Q20.8828-32.1328 20.8828-32.1328Q20.8828-32.1328 20.8828-32.1328L20.8828-32.1328Q20.8828-33.8906 21.3047-35.5781Q21.7266-37.2656 22.4297-38.8125L22.4297-38.8125L17.0156-48.5156L24.2578-52.3125L26.5781-47.3203L23.0625-45.0703L22.2891-46.1953Q22.2891-46.1953 22.1484-46.4766Q22.0078-46.7578 22.2188-46.8984L22.2188-46.8984Q22.5703-47.1094 22.8867-46.5117Q23.2031-45.9141 23.2031-45.9141L23.2031-45.9141L25.5234-47.5313L23.6250-51.0469L18.0703-48.0938L22.7813-39.5156Q24.0469-41.6953 25.9102-43.3477Q27.7734-45 30.0234-45.9844L30.0234-45.9844L25.9453-56.3906L12.1641-49.5000ZM32.4844-55.9688L32.4844-55.9688Q32.4844-54.9844 31.7813-54.2813Q31.0781-53.5781 30.0938-53.5781L30.0938-53.5781Q29.1094-53.5781 28.3711-54.2813Q27.6328-54.9844 27.6328-55.9688L27.6328-55.9688Q27.6328-56.9531 28.3711-57.6914Q29.1094-58.4297 30.0938-58.4297L30.0938-58.4297Q31.0781-58.4297 31.7813-57.6914Q32.4844-56.9531 32.4844-55.9688ZM59.7656-49.5000L51.1172-32.1328Q51.1172-32.1328 51.1172-32.1328Q51.1172-32.1328 51.1172-32.1328L51.1172-32.1328Q51.1172-33.8906 50.6953-35.5781Q50.2734-37.2656 49.5703-38.8125L49.5703-38.8125L54.9844-48.5156L47.7422-52.3125L45.4219-47.3203L48.9375-45.0703L49.7109-46.1953Q49.7109-46.1953 49.8516-46.4766Q49.9922-46.7578 49.7813-46.8984L49.7813-46.8984Q49.4297-47.1797 49.1133-46.5820Q48.7969-45.9844 48.7969-45.9844L48.7969-45.9844L46.4766-47.5313L48.3750-51.0469L53.8594-48.0938L49.1484-39.5156Q47.9531-41.6953 46.0898-43.3828Q44.2266-45.0703 41.9766-46.0547L41.9766-46.0547L45.9844-56.4609L59.7656-49.5000ZM36-60.5391L36-60.5391L30.7969-46.6172L32.6250-47.0391L36-55.6875L39.3750-47.0391L41.2031-46.6172L36-60.5391ZM36-53.9297L36-53.9297L33.5391-47.3203L35.0156-47.4609L36-48.4453L36.9844-47.4609L38.4609-47.3203L36-53.9297ZM44.3672-55.9688L44.3672-55.9688Q44.3672-54.9844 43.6289-54.2813Q42.8906-53.5781 41.9063-53.5781L41.9063-53.5781Q40.9219-53.5781 40.2188-54.2813Q39.5156-54.9844 39.5156-55.9688L39.5156-55.9688Q39.5156-56.9531 40.2188-57.6914Q40.9219-58.4297 41.9063-58.4297L41.9063-58.4297Q42.8906-58.4297 43.6289-57.6914Q44.3672-56.9531 44.3672-55.9688ZM59.7656-14.1328L51.1172-31.5000Q51.1172-31.5000 51.1172-31.5000Q51.1172-31.5000 51.1172-31.5000L51.1172-31.5000Q51.1172-29.6719 50.6953-27.9844Q50.2734-26.2969 49.5703-24.8203L49.5703-24.8203L54.9844-15.1172L47.7422-11.3203L45.4219-16.3125L48.9375-18.5625L49.7109-17.4375Q49.7109-17.4375 49.8516-17.1563Q49.9922-16.8750 49.7813-16.6641L49.7813-16.6641Q49.4297-16.4531 49.1133-17.0508Q48.7969-17.6484 48.7969-17.6484L48.7969-17.6484L46.4766-16.1016L48.3750-12.5156L53.9297-15.5391L49.1484-24.1172Q47.9531-21.9375 46.0898-20.2500Q44.2266-18.5625 41.9766-17.5781L41.9766-17.5781L45.9844-7.1719L59.7656-14.1328ZM44.3672-7.5938L44.3672-7.5938Q44.3672-6.6094 43.6289-5.9063Q42.8906-5.2031 41.9063-5.2031L41.9063-5.2031Q40.9219-5.2031 40.2188-5.9063Q39.5156-6.6094 39.5156-7.5938L39.5156-7.5938Q39.5156-8.5781 40.2188-9.3164Q40.9219-10.0547 41.9063-10.0547L41.9063-10.0547Q42.8906-10.0547 43.6289-9.3164Q44.3672-8.5781 44.3672-7.5938ZM12.1641-14.1328L20.8828-31.5000Q20.8828-31.5000 20.8828-31.5000Q20.8828-31.5000 20.8828-31.5000L20.8828-31.5000Q20.8828-29.6719 21.3047-27.9844Q21.7266-26.2969 22.4297-24.8203L22.4297-24.8203L17.0156-15.1172L24.2578-11.3203L26.5781-16.3125L23.0625-18.5625L22.2891-17.4375Q22.2891-17.4375 22.1484-17.1563Q22.0078-16.8750 22.2188-16.6641L22.2188-16.6641Q22.5703-16.4531 22.8867-17.0508Q23.2031-17.6484 23.2031-17.6484L23.2031-17.6484L25.5234-16.1016L23.6250-12.5156L18.0703-15.5391L22.7813-24.1172Q24.0469-21.9375 25.9102-20.2500Q27.7734-18.5625 30.0234-17.5781L30.0234-17.5781L25.9453-7.1719L12.1641-14.1328ZM36-3.0234L36-3.0234L41.2031-16.9453L39.3750-16.5938L36-7.8750L32.6250-16.5938L30.7969-16.9453L36-3.0234ZM33.5391-16.2422L36-9.6328L38.4609-16.2422L36.9844-16.1016L36-15.1875L35.0156-16.1016L33.5391-16.2422ZM32.4844-7.5938L32.4844-7.5938Q32.4844-6.6094 31.7813-5.9063Q31.0781-5.2031 30.0938-5.2031L30.0938-5.2031Q29.1094-5.2031 28.3711-5.9063Q27.6328-6.6094 27.6328-7.5938L27.6328-7.5938Q27.6328-8.5781 28.3711-9.3164Q29.1094-10.0547 30.0938-10.0547L30.0938-10.0547Q31.0781-10.0547 31.7813-9.3164Q32.4844-8.5781 32.4844-7.5938ZM53.0156-31.5000L53.0156-31.5703L54.1406-29.1797L59.8359-31.5703L59.8359-31.5000L54.1406-33.8906L53.0156-31.5000ZM65.3203-31.5000L65.3203-31.5703L55.1953-26.7188L54.7031-27.9141L62.3672-31.5703L62.3672-31.5000L54.7031-35.0859L55.1953-36.2813L65.3203-31.5000ZM71.2969-31.4297L71.2969-31.5703Q71.2969-31.5703 67.5352-29.7070Q63.7734-27.8438 62.5781-27.3516L62.5781-27.3516Q61.4531-26.7891 60.7148-26.5078Q59.9766-26.2266 59.2734-26.2266L59.2734-26.2266Q59.2734-26.2266 59.2734-26.2266Q59.2734-26.2266 59.2031-26.2266L59.2031-26.2266Q58.8516-26.2266 58.6055-25.9805Q58.3594-25.7344 58.2891-25.4531L58.2891-25.4531Q58.8516-25.6641 59.3438-25.3477Q59.8359-25.0313 59.8359-24.6094L59.8359-24.6094Q59.8359-23.2031 58.5000-23.2734Q57.1641-23.3438 56.7422-24.1172L56.7422-24.1172Q56.5313-24.5391 56.3555-25.4531Q56.1797-26.3672 57.4453-26.8594L57.4453-26.8594Q58.6406-27.4219 62.9297-29.4961Q67.2188-31.5703 67.2188-31.5703L67.2188-31.5703L67.2188-31.5000Q67.2188-31.5000 62.9297-33.5391Q58.6406-35.5781 57.4453-36.1406L57.4453-36.1406Q56.1797-36.7031 56.3555-37.5820Q56.5313-38.4609 56.7422-38.8828L56.7422-38.8828Q57.0938-39.6563 58.4648-39.7617Q59.8359-39.8672 59.8359-38.3906L59.8359-38.3906Q59.8359-37.9688 59.3438-37.6523Q58.8516-37.3359 58.2891-37.6172L58.2891-37.6172Q58.3594-37.2656 58.6055-37.0195Q58.8516-36.7734 59.2031-36.7734L59.2031-36.7734Q59.2734-36.7734 59.2734-36.7734Q59.2734-36.7734 59.2734-36.7734L59.2734-36.7734Q59.9766-36.8438 60.7148-36.5273Q61.4531-36.2109 62.5781-35.7188L62.5781-35.7188Q63.7734-35.1563 67.5352-33.2930Q71.2969-31.4297 71.2969-31.4297L71.2969-31.4297ZM62.7188-20.3203L62.7188-20.3203Q62.7188-19.3359 62.0156-18.6328Q61.3125-17.9297 60.3281-17.9297L60.3281-17.9297Q59.2734-17.9297 58.5703-18.6328Q57.8672-19.3359 57.8672-20.3203L57.8672-20.3203Q57.8672-21.3047 58.5703-22.0078Q59.2734-22.7109 60.3281-22.7109L60.3281-22.7109Q61.3125-22.7109 62.0156-22.0078Q62.7188-21.3047 62.7188-20.3203Z"/></svg>