<svg width="74" height="74" viewBox="-1 -69 74 74" fill="#FFFFFF" xmlns="http://www.w3.org/2000/svg"><path d="M36-67.5000L36-67.5000Q28.5469-67.5000 22.0078-64.6875L22.0078-64.6875Q15.3984-61.8750 10.5117-56.9883Q5.6250-52.1016 2.8125-45.4922L2.8125-45.4922Q0-38.9531 0-31.5000L0-31.5000Q0-24.0469 2.8125-17.5078L2.8125-17.5078Q5.6250-10.8984 10.5117-6.0117Q15.3984-1.1250 22.0078 1.6875L22.0078 1.6875Q28.5469 4.5000 36 4.5000L36 4.5000Q43.4531 4.5000 49.9922 1.6875L49.9922 1.6875Q56.6016-1.1250 61.4883-6.0117Q66.3750-10.8984 69.1875-17.5078L69.1875-17.5078Q72-24.0469 72-31.5000L72-31.5000L72-31.5000Q72-38.9531 69.1875-45.4922L69.1875-45.4922Q66.3047-52.0313 61.4180-56.9180Q56.5313-61.8047 49.9922-64.6875L49.9922-64.6875Q43.4531-67.5000 36-67.5000L36-67.5000L36-67.5000ZM36 0.8438L36 0.8438Q29.3203 0.8438 23.4141-1.6875L23.4141-1.6875Q17.5078-4.2188 13.1133-8.6133Q8.7188-13.0078 6.1875-18.9141L6.1875-18.9141Q3.6563-24.8203 3.6563-31.5000L3.6563-31.5000Q3.6563-38.1797 6.1875-44.0859L6.1875-44.0859Q8.7188-49.9922 13.1133-54.3867Q17.5078-58.7813 23.4141-61.3125L23.4141-61.3125Q29.3203-63.8438 36-63.8438L36-63.8438Q42.6797-63.8438 48.5859-61.3125L48.5859-61.3125Q54.4922-58.7813 58.8867-54.3867Q63.2813-49.9922 65.8125-44.0859L65.8125-44.0859Q68.3438-38.1797 68.3438-31.5000L68.3438-31.5000L68.3438-31.5000Q68.3438-24.8203 65.8125-18.9141L65.8125-18.9141Q63.2813-13.0078 58.8867-8.6133Q54.4922-4.2188 48.5859-1.6875L48.5859-1.6875Q42.6797 0.8438 36 0.8438L36 0.8438L36 0.8438ZM43.3828-31.1484L43.3828-31.1484L51.4688-39.2344Q51.8906-39.6563 52.4883-39.6563Q53.0859-39.6563 53.5078-39.2344L53.5078-39.2344L56.0391-36.7031Q56.4609-36.2813 56.4609-35.6836Q56.4609-35.0859 56.0391-34.6641L56.0391-34.6641L47.9531-26.5078Q47.5313-26.0859 46.9336-26.0859Q46.3359-26.0859 45.9141-26.5078L45.9141-26.5078L43.3828-29.1094Q42.9609-29.5313 42.9609-30.1289Q42.9609-30.7266 43.3828-31.1484L43.3828-31.1484ZM37.9688-36.6328L37.9688-36.6328L45.7031-46.2656Q46.1250-46.8281 46.7578-46.8984Q47.3906-46.9688 47.9531-46.5469L47.9531-46.5469L50.9766-44.0859Q51.5391-43.6641 51.6094-43.0313Q51.6797-42.3984 51.2578-41.8359L51.2578-41.8359L43.4531-32.2031Q43.0313-31.6406 42.3984-31.5703Q41.7656-31.5000 41.2734-31.9219L41.2734-31.9219L38.1797-34.3828Q37.6875-34.8047 37.6172-35.4375Q37.5469-36.0703 37.9688-36.6328ZM27.9844-47.8828L33.2578-45.4219L36.4219-51.6797Q36.5625-51.8203 36.5977-51.9961Q36.6328-52.1719 36.6328-52.3828L36.6328-52.3828Q36.6328-52.8750 36.3867-53.2266Q36.1406-53.5781 35.7891-53.7891L35.7891-53.7891L35.7891-53.7891L32.2734-55.5469Q32.1328-55.6172 31.9570-55.6523Q31.7813-55.6875 31.5703-55.6875L31.5703-55.6875Q31.1484-55.6875 30.7969-55.4766Q30.4453-55.2656 30.2344-54.8438L30.2344-54.8438L30.2344-54.8438L26.9297-48.3750Q27.2813-48.2344 27.5625-48.1289Q27.8438-48.0234 28.0547-47.8828L28.0547-47.8828L27.9844-47.8828ZM34.0313-45L37.0547-43.5938Q37.6875-43.3828 38.1445-42.9961Q38.6016-42.6094 38.8828-42.0469L38.8828-42.0469L38.8828-42.0469Q39.1641-41.4141 39.0938-40.6406Q39.0234-39.8672 38.6016-39.0234L38.6016-39.0234Q38.5313-38.9531 38.4961-38.8477Q38.4609-38.7422 38.4609-38.6016L38.4609-38.6016L44.3672-47.3203Q44.5078-47.4609 44.5781-47.7070Q44.6484-47.9531 44.6484-48.2344L44.6484-48.2344Q44.6484-48.5859 44.4727-48.9375Q44.2969-49.2891 44.0156-49.5000L44.0156-49.5000L43.9453-49.5000L40.6406-51.8203Q40.5000-51.9609 40.2539-52.0313Q40.0078-52.1016 39.7266-52.1016L39.7266-52.1016Q39.3047-52.1016 38.9883-51.9258Q38.6719-51.7500 38.4609-51.3984L38.4609-51.3984L38.3906-51.3984L34.0313-45ZM53.4375-30.3750L49.0078-25.7344Q47.8828-24.3984 46.6172-24.7852Q45.3516-25.1719 45.3516-25.1719L45.3516-25.1719L37.6875-33.3984Q40.7813-29.3203 38.6016-25.9453Q36.4219-22.5703 36.4219-22.5703L36.4219-22.5703Q37.8281-33.8906 32.3438-34.5938Q26.8594-35.2969 26.8594-35.2969L26.8594-35.2969L28.1250-38.1797L30.8672-37.1250Q34.8750-35.6484 35.9297-37.6172Q36.9844-39.5859 36.9844-39.5859L36.9844-39.5859Q38.0391-41.2734 37.1953-41.8008Q36.3516-42.3281 36.3516-42.3281L36.3516-42.3281L27.1406-46.6875Q24.0469-48.0938 23.0625-47.1094Q22.0781-46.1250 22.0781-46.1250L22.0781-46.1250L16.5938-36.4219Q14.9766-34.3828 15.5742-33.0820Q16.1719-31.7813 16.1719-31.7813L16.1719-31.7813L26.0859-15.0469L23.5547-10.4766Q26.2266-9 29.3203-8.1563Q32.4141-7.3125 35.8594-7.3125L35.8594-7.3125Q38.4609-7.3125 40.9219-7.8047Q43.3828-8.2969 45.6328-9.2813L45.6328-9.2813L45.4922-9.2109Q45.9844-10.4766 46.3359-11.4258Q46.6875-12.3750 46.8281-13.0078L46.8281-13.0078Q47.4609-15.2578 48.5859-17.1563Q49.7109-19.0547 49.7109-19.0547L49.7109-19.0547Q53.0156-22.7109 53.2266-26.4023Q53.4375-30.0938 53.4375-30.3750L53.4375-30.3750Z"/></svg>