<svg width="74" height="74" viewBox="-1 -69 74 74" fill="#10592e" xmlns="http://www.w3.org/2000/svg"><path d="M42.8906-62.2266L42.6797-62.2266L41.7656-62.4375Q40.5000-62.6484 39.0234-62.7891Q37.5469-62.9297 36.0703-62.9297L36.0703-62.9297Q29.5313-62.9297 23.8359-60.4688L23.8359-60.4688Q18.0703-58.0078 13.8164-53.7539Q9.5625-49.5000 7.1016-43.7344L7.1016-43.7344Q4.6406-38.0391 4.6406-31.5000L4.6406-31.5000Q4.6406-25.0313 7.1016-19.2656L7.1016-19.2656Q9.5625-13.5703 13.8164-9.2813Q18.0703-4.9922 23.8359-2.5313L23.8359-2.5313Q29.5313-0.0703 36.0703-0.0703L36.0703-0.0703Q42.5391-0.0703 48.3047-2.5313L48.3047-2.5313Q54-4.9922 58.2891-9.2813Q62.5781-13.5703 65.0391-19.2656L65.0391-19.2656Q67.5000-25.0313 67.5000-31.5000L67.5000-31.5000Q67.5000-37.1250 65.6016-42.1875L65.6016-42.1875Q63.7734-47.2500 60.4688-51.2930Q57.1641-55.3359 52.6641-58.2188L52.6641-58.2188Q48.1641-61.0313 42.8906-62.2266L42.8906-62.2266ZM15.3984-51.7500L15.3984-51.7500Q18.6328-55.1250 22.9219-57.3047Q27.2109-59.4844 32.0625-60.1875L32.0625-60.1875Q31.5703-59.7656 31.0078-59.3086Q30.4453-58.8516 29.9531-58.4297L29.9531-58.4297Q29.3906-57.8672 28.8984-57.3047Q28.4063-56.7422 27.9844-56.1797L27.9844-56.1797Q25.3828-55.2656 23.1680-54Q20.9531-52.7344 19.1250-51.1172L19.1250-51.1172L21.5156-48.7266L19.3359-46.8281L14.8359-51.1172Q14.9766-51.3281 15.1172-51.4688Q15.2578-51.6094 15.3984-51.7500L15.3984-51.7500ZM44.2969-50.2734L44.2969-50.2734Q43.3828-51.1172 42.9258-51.2930Q42.4688-51.4688 41.3438-51.4688L41.3438-51.4688L38.8828-54Q39.8672-54.1406 42.7500-53.9648Q45.6328-53.7891 48.4453-51.2578L48.4453-51.2578L48.4453-51.1172Q48.3047-50.9063 45.4219-47.0039Q42.5391-43.1016 37.7578-42.6797L37.7578-42.6797Q35.7891-42.4688 33.4336-43.3828Q31.0781-44.2969 29.3203-45.8438L29.3203-45.8438Q30.0938-46.1953 30.9727-46.4766Q31.8516-46.7578 32.8359-46.8984L32.8359-46.8984Q33.8203-46.4063 35.1914-45.9844Q36.5625-45.5625 37.4766-45.6328L37.4766-45.6328Q40.1484-45.9141 41.7305-47.3906Q43.3125-48.8672 44.2969-50.2734L44.2969-50.2734ZM38.2500-47.8828L38.1797-47.8828L33.6094-52.4531L35.7188-54.5625L40.9219-49.3594Q40.3594-48.8672 39.6563-48.4805Q38.9531-48.0938 38.2500-47.8828L38.2500-47.8828ZM58.5000-34.3828L58.5000-34.3828L55.8984-37.0547Q55.9688-38.3203 55.8281-38.8828Q55.6875-39.4453 55.1250-40.0078L55.1250-40.0078L54.4219-39.5156Q52.3828-37.7578 51.3984-35.9648Q50.4141-34.1719 50.4844-32.3438L50.4844-32.3438Q50.5547-31.5000 50.9766-30.3750Q51.3984-29.2500 51.7500-28.5469L51.7500-28.5469Q51.5391-27.5625 51.2578-26.6133Q50.9766-25.6641 50.5547-24.8203L50.5547-24.8203Q49.6406-26.0859 48.6211-28.1250Q47.6016-30.1641 47.4609-32.2031L47.4609-32.2031Q47.3906-34.7344 48.6211-37.1602Q49.8516-39.5859 52.4531-41.8359L52.4531-41.8359L52.5234-41.8359L55.6172-44.2969Q56.4609-43.3828 57.8320-40.7813Q59.2031-38.1797 58.5000-34.3828L58.5000-34.3828ZM54.0703-36.2109L54.1406-36.2109L57.5156-32.7656L58.6406-31.6406L56.5313-29.6016L52.8750-33.2578Q52.8750-33.9609 53.1914-34.6992Q53.5078-35.4375 54.0703-36.2109L54.0703-36.2109ZM28.0547-13.2891L28.0547-13.2891L27.4922-12.5859Q28.1250-12.3750 28.7930-12.2695Q29.4609-12.1641 30.0938-12.2344L30.0938-12.2344L32.4141-9.5625Q28.4063-9.2813 26.2266-10.1250Q24.0469-10.9688 23.2734-11.6016L23.2734-11.6016L23.1328-11.8125L25.7344-15.2578Q27.9844-17.8594 30.3750-19.1602Q32.7656-20.4609 35.2969-20.3906L35.2969-20.3906Q37.3359-20.3203 39.5156-19.0898Q41.6953-17.8594 42.8906-16.9453L42.8906-16.9453Q42.1172-16.5234 41.2383-16.2422Q40.3594-15.9609 39.4453-15.7500L39.4453-15.7500Q38.6719-16.0313 37.3711-16.6992Q36.0703-17.3672 35.2266-17.3672L35.2266-17.3672Q33.3984-17.4375 31.6055-16.4180Q29.8125-15.3984 28.0547-13.2891L28.0547-13.2891ZM33.3984-15.1172L33.4688-15.1172L37.7578-10.8281L35.7188-8.7891L33.7500-10.7578L31.0781-13.6406Q31.6406-14.0625 32.2031-14.4492Q32.7656-14.8359 33.3984-15.1172L33.3984-15.1172ZM12.8672-28.6875L12.8672-28.6875Q12.8672-28.7578 12.8672-28.7930Q12.8672-28.8281 12.9375-28.8984L12.9375-28.8984L16.2422-25.5938Q16.5938-24.4688 16.6289-24.2227Q16.6641-23.9766 17.2266-23.0625L17.2266-23.0625Q18.6328-23.9766 20.1445-25.7344Q21.6563-27.4922 21.8672-30.1641L21.8672-30.1641Q21.9375-30.9375 21.5156-32.0977Q21.0938-33.2578 20.6719-34.1016L20.6719-34.1016Q20.8125-35.1563 21.0586-36.1406Q21.3047-37.1250 21.6563-38.0391L21.6563-38.0391Q23.1328-36.2109 24.0469-34.0313Q24.9609-31.8516 24.8203-29.8828L24.8203-29.8828Q24.4688-25.1016 20.6367-22.1484Q16.8047-19.1953 16.5234-19.0547L16.5234-19.0547L16.1719-18.9141Q13.7813-22.3594 13.2891-24.9258Q12.7969-27.4922 12.8672-28.6875L12.8672-28.6875ZM17.4375-26.8594L14.6250-29.6719L12.7969-31.5000L14.6953-33.8203L19.4766-29.1094Q19.1250-28.3359 18.7031-27.7031Q18.2813-27.0703 17.7891-26.5078L17.7891-26.5078L17.4375-26.8594L17.4375-26.8594ZM27-24.6094L32.8359-30.2344L34.8750-28.1250L29.0391-22.4297L27-24.6094ZM24.5391-24.1172L24.6094-24.1875L28.4063-20.1797Q27.7031-19.7578 27.1406-19.2656Q26.5781-18.7734 26.0156-18.2813L26.0156-18.2813L22.6406-21.6563Q23.2031-22.2188 23.6602-22.8516Q24.1172-23.4844 24.5391-24.1172L24.5391-24.1172ZM39.9375-11.3203L37.4766-13.9922Q40.5703-14.2734 43.4531-15.6797L43.4531-15.6797Q46.2656-17.0156 48.4453-19.1602Q50.6250-21.3047 52.0313-24.1172L52.0313-24.1172Q53.3672-26.9297 53.5781-30.0234L53.5781-30.0234L56.1797-27.5625Q55.6172-24.4688 54.2813-21.7266L54.2813-21.7266Q52.9453-19.0547 50.9063-16.9453Q48.8672-14.8359 46.1250-13.4297L46.1250-13.4297Q43.3828-11.9531 39.9375-11.3203L39.9375-11.3203ZM47.8125-21.7969L45.6328-19.6875L24.5391-41.2734L26.7188-43.3828L47.8125-21.7969ZM45.2109-38.0391L39.7266-32.6953L37.6172-34.8750L43.1719-40.2188L45.2109-38.0391ZM47.3203-38.8125L47.3203-38.7422L43.4531-42.6094Q44.1563-43.0313 44.7539-43.4883Q45.3516-43.9453 45.9141-44.4375L45.9141-44.4375L49.0781-41.2031Q48.5859-40.6406 48.1641-40.0430Q47.7422-39.4453 47.3203-38.8125L47.3203-38.8125ZM18.6328-32.8359L18.6328-32.7656L15.9609-35.6484Q16.5938-38.6719 18-41.2734L18-41.2734Q19.4063-43.9453 21.4805-45.9844Q23.5547-48.0234 26.2266-49.4297L26.2266-49.4297Q28.8281-50.8359 31.7813-51.3281L31.7813-51.3281L34.6641-48.6563Q31.4297-48.5156 28.5469-47.2500L28.5469-47.2500Q25.7344-45.9844 23.5898-43.8398Q21.4453-41.6953 20.1094-38.8828L20.1094-38.8828Q18.8438-36.0703 18.6328-32.8359L18.6328-32.8359ZM12.9375-48.9375L12.9375-48.8672L15.0469-46.7578Q13.9922-45.2813 13.1133-43.5938Q12.2344-41.9063 11.6016-40.0781L11.6016-40.0781Q10.3359-39.0234 9.3164-37.9688Q8.2969-36.9141 7.5234-35.6484L7.5234-35.6484Q8.0156-39.4453 9.4219-42.7852Q10.8281-46.1250 12.9375-48.9375L12.9375-48.9375ZM30.6563-3.6563L30.6563-3.6563Q30.0938-3.6563 29.5664-3.7266Q29.0391-3.7969 28.4766-3.9375L28.4766-3.9375Q24.4688-4.9922 20.9531-7.1016L20.9531-7.1016Q17.5078-9.2109 14.7656-12.1992Q12.0234-15.1875 10.1250-18.8438L10.1250-18.8438Q8.2969-22.5703 7.5938-26.7891L7.5938-26.7891L7.5938-26.7891Q7.3125-31.9922 10.1602-34.9453Q13.0078-37.8984 14.5547-38.8125L14.5547-38.8125Q14.7656-38.9531 14.9414-39.0234Q15.1172-39.0938 15.2578-39.1641L15.2578-39.1641Q15.0469-38.4609 14.8008-37.6523Q14.5547-36.8438 14.4141-35.9297L14.4141-35.9297L14.2734-35.2969Q12.5156-34.1719 11.1797-32.0977Q9.8438-30.0234 10.3359-26.7188L10.3359-26.7188Q10.5469-25.0313 11.2852-22.8164Q12.0234-20.6016 13.7109-18L13.7109-18Q14.3438-16.9453 15.0117-16.0664Q15.6797-15.1875 16.3828-14.3438L16.3828-14.3438L21.7266-19.5469L23.8359-17.3672L18.4922-12.2344Q19.2656-11.4609 20.1797-10.7578Q21.0938-10.0547 22.0781-9.4219L22.0781-9.4219Q22.1484-9.3516 26.2617-7.3828Q30.3750-5.4141 34.6641-6.8906L34.6641-6.8906Q35.9297-7.3125 36.9844-8.0508Q38.0391-8.7891 38.8125-9.7734L38.8125-9.7734L39.3750-9.8438Q40.2891-9.9844 41.0625-10.1602Q41.8359-10.3359 42.6094-10.6172L42.6094-10.6172Q41.8359-9.2109 39.0234-6.2930Q36.2109-3.3750 30.6563-3.6563L30.6563-3.6563ZM55.4766-10.3359L55.4766-10.3359Q52.1719-7.2422 47.9180-5.3086Q43.6641-3.3750 38.8125-2.8828L38.8125-2.8828Q39.5156-3.3750 40.1836-3.8672Q40.8516-4.3594 41.4141-4.9922L41.4141-4.9922Q41.8359-5.3438 42.2227-5.7656Q42.6094-6.1875 42.9609-6.6797L42.9609-6.6797Q45.9141-7.5234 48.4102-8.8945Q50.9063-10.2656 53.0156-12.1641L53.0156-12.1641L50.9766-14.2031L53.0859-16.3125L57.3047-12.1641Q56.4609-11.1797 55.4766-10.3359L55.4766-10.3359ZM59.2031-14.4141L59.2734-14.4844L57.0938-16.6641Q58.2891-18.3516 59.2031-20.2148Q60.1172-22.0781 60.7500-24.1172L60.7500-24.1172Q61.9453-25.1719 62.9297-26.2969Q63.9141-27.4219 64.6875-28.6875L64.6875-28.6875Q64.2656-24.6797 62.8594-21.0586Q61.4531-17.4375 59.2031-14.4141L59.2031-14.4141ZM57.4453-25.1016L57.4453-25.1016Q57.5859-25.5938 57.7266-26.2266Q57.8672-26.8594 58.0078-27.4922L58.0078-27.4922L58.2188-28.6172L58.2891-28.9688Q59.2031-29.7422 59.9063-30.7617Q60.6094-31.7813 60.9609-32.9766L60.9609-32.9766Q62.2969-37.4063 60.2930-41.4492Q58.2891-45.4922 58.2891-45.4922L58.2891-45.4922Q57.7266-46.3359 57.1289-47.0742Q56.5313-47.8125 55.9688-48.5156L55.9688-48.5156L50.4141-43.1016L48.3047-45.2109L53.8594-50.5547Q49.2188-54.8438 45.1406-55.9336Q41.0625-57.0234 40.9922-57.0234L40.9922-57.0234L40.9219-57.0234Q38.1797-57.3750 36.0703-56.4961Q33.9609-55.6172 32.4844-53.3672L32.4844-53.3672L32.4141-53.2266Q31.2891-53.0156 30.2695-52.7344Q29.2500-52.4531 28.3359-52.1016L28.3359-52.1016L28.4766-52.1719L28.5469-52.1719Q28.6172-52.4531 31.4297-56.2852Q34.2422-60.1172 40.6406-59.9063L40.6406-59.9063Q45-59.2031 48.8672-57.2344L48.8672-57.2344Q52.6641-55.3359 55.7227-52.4531Q58.7813-49.5703 60.9609-45.9141L60.9609-45.9141Q63.0703-42.1875 64.0547-38.0391L64.0547-38.0391Q64.6172-32.4141 62.0156-29.3555Q59.4141-26.2969 57.4453-25.1016L57.4453-25.1016ZM36 4.5000L36 4.5000Q28.5469 4.5000 22.0078 1.6875L22.0078 1.6875Q15.4688-1.1953 10.5820-6.0820Q5.6953-10.9688 2.8125-17.5078L2.8125-17.5078Q0-24.0469 0-31.5000L0-31.5000Q0-38.9531 2.8125-45.4922L2.8125-45.4922Q5.6953-52.0313 10.5820-56.9180Q15.4688-61.8047 22.0078-64.6875L22.0078-64.6875Q28.5469-67.5000 36-67.5000L36-67.5000Q43.4531-67.5000 49.9922-64.6875L49.9922-64.6875Q56.5313-61.8047 61.4180-56.9180Q66.3047-52.0313 69.1875-45.4922L69.1875-45.4922Q72-38.9531 72-31.5000L72-31.5000Q72-24.0469 69.1875-17.5078L69.1875-17.5078Q66.3047-10.9688 61.4180-6.0820Q56.5313-1.1953 49.9922 1.6875L49.9922 1.6875Q43.4531 4.5000 36 4.5000ZM36-65.3906L36-65.3906Q28.9688-65.3906 22.8516-62.7188L22.8516-62.7188Q16.6641-60.0469 12.0586-55.4414Q7.4531-50.8359 4.7813-44.6484L4.7813-44.6484Q2.1094-38.5313 2.1094-31.5000L2.1094-31.5000Q2.1094-24.4688 4.7813-18.3516L4.7813-18.3516Q7.4531-12.1641 12.0586-7.5586Q16.6641-2.9531 22.8516-0.2813L22.8516-0.2813Q28.9688 2.3906 36 2.3906L36 2.3906Q43.0313 2.3906 49.1484-0.2813L49.1484-0.2813Q55.3359-2.9531 59.9414-7.5586Q64.5469-12.1641 67.2188-18.3516L67.2188-18.3516Q69.8906-24.4688 69.8906-31.5000L69.8906-31.5000Q69.8906-38.5313 67.2188-44.6484L67.2188-44.6484Q64.5469-50.8359 59.9414-55.4414Q55.3359-60.0469 49.1484-62.7188L49.1484-62.7188Q43.0313-65.3906 36-65.3906Z"/></svg>