<svg width="67" height="74" viewBox="-1 -69 67 74" fill="#efaf1b" xmlns="http://www.w3.org/2000/svg"><path d="M28.6172-59.3438L28.6172-59.3438Q28.4063-59.4844 28.2305-59.6250Q28.0547-59.7656 27.8438-59.8359L27.8438-59.8359Q28.3359-60.8906 29.4961-61.4883Q30.6563-62.0859 31.7813-62.2266L31.7813-62.2266L31.7813-57.7969Q30.9375-58.0078 30.1641-58.4648Q29.3906-58.9219 28.6172-59.3438L28.6172-59.3438ZM33.0469-57.7969L33.0469-57.7969L33.0469-62.2266Q34.1719-62.0859 35.3320-61.4883Q36.4922-60.8906 36.9844-59.8359L36.9844-59.8359Q36.7734-59.7656 36.5625-59.6250Q36.3516-59.4844 36.2109-59.3438L36.2109-59.3438L36.2109-59.3438Q35.4375-58.9219 34.6289-58.4648Q33.8203-58.0078 33.0469-57.7969L33.0469-57.7969ZM27.1406-54.5625L27.1406-54.5625Q26.7891-55.6172 26.7891-56.6367Q26.7891-57.6563 27.1406-58.7109L27.1406-58.7109L31.0078-56.6719L29.6016-55.8281L27.1406-54.5625ZM35.2266-55.8281L35.2266-55.8281L33.8203-56.6719L37.6875-58.7109Q38.0391-57.6563 38.0391-56.6367Q38.0391-55.6172 37.6875-54.5625L37.6875-54.5625L35.2266-55.8281ZM31.7813-55.4766L31.7813-50.9766Q30.6563-51.1875 29.5313-51.7500Q28.4063-52.3125 27.8438-53.3672L27.8438-53.3672Q28.6875-53.9297 29.7422-54.5625Q30.7969-55.1953 31.7813-55.4766L31.7813-55.4766ZM33.0469-50.9766L33.0469-50.9766L33.0469-55.4766Q34.0313-55.1953 35.0859-54.5625Q36.1406-53.9297 36.9844-53.3672L36.9844-53.3672Q36.4219-52.3125 35.2969-51.7500Q34.1719-51.1875 33.0469-50.9766ZM28.0547-40.4297L28.0547-40.4297Q28.0547-41.6250 27.5977-42.9961Q27.1406-44.3672 26.5781-45.4219L26.5781-45.4219Q26.4375-45.6328 26.2969-45.8438Q26.1563-46.0547 26.0156-46.1953L26.0156-46.1953L26.0156-46.1953Q25.8047-46.4766 25.6289-46.7227Q25.4531-46.9688 25.3828-47.1797L25.3828-47.1797Q24.9609-48.1641 24.6094-49.1133Q24.2578-50.0625 23.9766-51.0469L23.9766-51.0469Q23.2734-53.2969 22.3242-55.3711Q21.3750-57.4453 19.2656-58.9219L19.2656-58.9219Q18.1406-59.7656 16.5586-60.0469Q14.9766-60.3281 13.6406-59.7656L13.6406-59.7656Q13.2188-59.5547 12.8320-59.3438Q12.4453-59.1328 12.0234-58.9219L12.0234-58.9219L12.0234-58.9219Q11.8125-58.7813 11.5664-58.6758Q11.3203-58.5703 11.1094-58.4297L11.1094-58.4297Q10.9688-58.3594 10.8984-58.3242Q10.8281-58.2891 10.7578-58.2188L10.7578-58.2188Q10.5469-58.1484 10.3711-58.0430Q10.1953-57.9375 9.9844-57.8672L9.9844-57.8672Q9.4922-57.7969 9.1055-58.3945Q8.7188-58.9922 8.7188-59.4141L8.7188-59.4141Q8.7188-60.1172 9.4570-60.5391Q10.1953-60.9609 10.8984-61.3125L10.8984-61.3125L10.8984-61.3125Q11.0391-61.3828 11.1797-61.4180Q11.3203-61.4531 11.4609-61.5234L11.4609-61.5234Q11.7422-61.6641 12.0234-61.8047Q12.3047-61.9453 12.5859-62.0859L12.5859-62.0859L12.5859-62.0859Q13.2188-62.3672 13.8164-62.6836Q14.4141-63 14.9766-63.3516L14.9766-63.3516Q15.1875-63.4219 15.3633-63.5273Q15.5391-63.6328 15.6797-63.7031L15.6797-63.7031L15.6797-63.7031Q16.1016-63.9844 16.5234-64.2305Q16.9453-64.4766 17.4375-64.6172L17.4375-64.6172Q17.8594-64.7578 18.2813-64.7930Q18.7031-64.8281 19.1250-64.8281L19.1250-64.8281L19.1953-64.8281Q19.4766-64.8281 19.8281-64.8633Q20.1797-64.8984 20.5313-64.9688L20.5313-64.9688Q21.0234-65.0391 21.4805-65.2148Q21.9375-65.3906 22.4297-65.6016L22.4297-65.6016L22.4297-65.6016Q22.7813-65.7422 23.1680-65.9180Q23.5547-66.0938 23.9063-66.1641L23.9063-66.1641Q26.2969-66.8672 28.8281-67.2539Q31.3594-67.6406 33.8906-67.4297L33.8906-67.4297Q35.7188-67.2891 37.4766-66.9727Q39.2344-66.6563 40.9922-66.1641L40.9922-66.1641Q41.3438-66.0938 41.6602-65.9531Q41.9766-65.8125 42.3281-65.6016L42.3281-65.6016Q42.8203-65.3906 43.3477-65.2148Q43.8750-65.0391 44.3672-64.8984L44.3672-64.8984Q44.6484-64.8984 44.9297-64.8633Q45.2109-64.8281 45.5625-64.8281L45.5625-64.8281L45.5625-64.8281Q45.9844-64.8281 46.4063-64.7930Q46.8281-64.7578 47.2500-64.6172L47.2500-64.6172Q47.8125-64.4766 48.2344-64.2305Q48.6563-63.9844 49.1484-63.7031L49.1484-63.7031Q49.2891-63.6328 49.4648-63.5273Q49.6406-63.4219 49.7813-63.3516L49.7813-63.3516Q50.3438-63.0703 50.8711-62.7891Q51.3984-62.5078 51.8906-62.2969L51.8906-62.2969L51.8906-62.2969L51.8906-62.2266Q52.1719-62.1563 52.4180-62.0156Q52.6641-61.8750 52.8750-61.8047L52.8750-61.8047Q53.0156-61.6641 53.2266-61.5938Q53.4375-61.5234 53.6484-61.4531L53.6484-61.4531Q54.3516-61.1719 55.0547-60.8203Q55.7578-60.4688 56.0391-59.9063L56.0391-59.9063Q56.2500-59.4141 55.8281-58.5703Q55.4063-57.7266 54.7031-57.9375L54.7031-57.9375Q54.2109-58.0781 53.6836-58.3594Q53.1563-58.6406 52.6641-58.9219L52.6641-58.9219Q52.2422-59.2031 51.8555-59.4141Q51.4688-59.6250 51.0469-59.7656L51.0469-59.7656Q50.2734-60.1172 49.3242-60.1172Q48.3750-60.1172 47.6016-59.9063L47.6016-59.9063Q44.3672-59.1328 43.0313-56.4961Q41.6953-53.8594 40.7813-50.9766L40.7813-50.9766Q40.5000-49.9922 40.1836-49.0430Q39.8672-48.0938 39.4453-47.1797L39.4453-47.1797Q39.3047-46.9688 39.1289-46.7227Q38.9531-46.4766 38.8125-46.1953L38.8125-46.1953L38.8125-46.1953Q38.6719-46.0547 38.5313-45.8438Q38.3906-45.6328 38.2500-45.4219L38.2500-45.4219Q37.6172-44.3672 37.1953-42.9961Q36.7734-41.6250 36.7734-40.4297L36.7734-40.4297L28.0547-40.4297ZM32.0625-63.6328L32.0625-63.6328Q30.6563-63.4922 29.4258-62.9648Q28.1953-62.4375 27.2109-61.3828L27.2109-61.3828Q24.0469-57.8672 26.3320-53.5430Q28.6172-49.2188 33.2578-49.7813L33.2578-49.7813Q35.7188-50.0625 37.4414-51.8906Q39.1641-53.7188 39.3750-56.2500L39.3750-56.2500Q39.5859-59.1328 37.3711-61.5938Q35.1563-64.0547 32.0625-63.6328L32.0625-63.6328ZM18.9141-62.8594L18.9141-62.8594L16.2422-61.6641L16.2422-61.5938L19.1953-60.9609L18.9141-62.8594ZM48.5859-61.6641L45.8438-62.8594L45.5625-60.9609L48.5859-61.5938L48.5859-61.6641ZM11.9531-54.5625L11.9531-54.5625L10.6172-56.6719Q11.0391-56.8828 11.4609-57.0938Q11.8828-57.3047 12.2344-57.5156L12.2344-57.5156Q13.2188-58.0078 14.1680-58.3945Q15.1172-58.7813 16.3828-58.7109L16.3828-58.7109Q19.1953-58.5000 20.6016-55.7930Q22.0078-53.0859 22.7813-50.8359L22.7813-50.8359Q22.8516-50.6953 22.9219-50.4844Q22.9922-50.2734 23.0625-50.0625L23.0625-50.0625Q23.2031-49.6406 23.3789-49.1484Q23.5547-48.6563 23.6250-48.1641L23.6250-48.1641Q22.8516-48.3750 22.1484-48.3750Q21.4453-48.3750 20.6719-48.1641L20.6719-48.1641Q20.3906-48.0938 20.1094-47.9531Q19.8281-47.8125 19.4766-47.6719L19.4766-47.6719L19.4766-47.6719Q18.6328-47.1797 17.6836-46.8984Q16.7344-46.6172 15.8906-47.3203L15.8906-47.3203Q15.6797-47.5313 15.5391-47.7773Q15.3984-48.0234 15.1875-48.3047L15.1875-48.3047Q15.1875-48.3047 15.1523-48.3750Q15.1172-48.4453 15.1172-48.4453L15.1172-48.4453Q15.0469-48.5156 15.0117-48.5859Q14.9766-48.6563 14.9063-48.7266L14.9063-48.7266L14.9063-48.7266L14.9063-48.7969Q14.7656-49.0078 14.6250-49.2539Q14.4844-49.5000 14.4141-49.7813L14.4141-49.7813L14.4844-49.7813Q15.2578-50.1328 15.9258-50.4492Q16.5938-50.7656 17.2266-51.3984L17.2266-51.3984Q18.8438-53.0156 18.0352-55.4063Q17.2266-57.7969 14.6250-57.1641L14.6250-57.1641Q14.2031-57.0234 13.8516-56.8477Q13.5000-56.6719 13.1484-56.3906L13.1484-56.3906Q12.7266-56.1094 12.5508-55.7578Q12.3750-55.4063 12.1641-54.9844L12.1641-54.9844L12.1641-54.9844Q12.1641-54.8438 12.0938-54.7383Q12.0234-54.6328 12.0234-54.5625L12.0234-54.5625L11.9531-54.5625ZM44.1563-48.1641L44.1563-48.1641Q43.3828-48.3750 42.6445-48.3750Q41.9063-48.3750 41.2031-48.1641L41.2031-48.1641Q41.2734-48.6563 41.4492-49.1484Q41.6250-49.6406 41.7656-50.0625L41.7656-50.0625Q41.8359-50.2734 41.9063-50.4844Q41.9766-50.6953 42.0469-50.8359L42.0469-50.8359Q42.8203-53.0859 44.2266-55.7930Q45.6328-58.5000 48.4453-58.7109L48.4453-58.7109Q49.6406-58.7813 50.6250-58.3945Q51.6094-58.0078 52.5938-57.5156L52.5938-57.5156Q52.9453-57.3047 53.3672-57.0938Q53.7891-56.8828 54.2109-56.6719L54.2109-56.6719L52.8750-54.5625L52.8047-54.5625Q52.7344-54.6328 52.6992-54.7383Q52.6641-54.8438 52.6641-54.9844L52.6641-54.9844L52.6641-54.9844Q52.4531-55.4063 52.2773-55.7578Q52.1016-56.1094 51.6797-56.3906L51.6797-56.3906Q51.3281-56.6719 50.9766-56.8477Q50.6250-57.0234 50.2031-57.1641L50.2031-57.1641Q47.6016-57.7969 46.7930-55.4063Q45.9844-53.0156 47.6016-51.3984L47.6016-51.3984Q48.2344-50.7656 48.9023-50.4492Q49.5703-50.1328 50.3438-49.7813L50.3438-49.7813L50.4141-49.7813Q50.3438-49.5000 50.2031-49.2539Q50.0625-49.0078 49.9219-48.7969L49.9219-48.7969Q49.8516-48.6563 49.8164-48.5859Q49.7813-48.5156 49.7109-48.4453L49.7109-48.4453Q49.7109-48.4453 49.6758-48.3750Q49.6406-48.3047 49.5703-48.3047L49.5703-48.3047Q49.4297-48.0234 49.2891-47.7773Q49.1484-47.5313 48.8672-47.3203L48.8672-47.3203Q48.0938-46.6172 47.1445-46.8984Q46.1953-47.1797 45.2813-47.6719L45.2813-47.6719L45.2813-47.6719L45.2813-47.6719Q45-47.8125 44.6836-47.9531Q44.3672-48.0938 44.1563-48.1641L44.1563-48.1641ZM2.6719-17.9297L2.6719-17.9297Q2.6016-17.5078 2.5313-17.0508Q2.4609-16.5938 2.2500-16.3125L2.2500-16.3125Q1.5469-18.3516 0.9844-20.4258Q0.4219-22.5000 0.1406-24.6797L0.1406-24.6797Q-0.1406-27.7734 0.1406-30.9375L0.1406-30.9375Q0.3516-34.0313 1.1602-37.0195Q1.9688-40.0078 3.3750-42.8203L3.3750-42.8203Q4.7109-45.5625 6.6797-48.0938L6.6797-48.0938Q8.0859-49.9219 9.7734-51.5742Q11.4609-53.2266 13.3594-54.6328L13.3594-54.6328Q13.4297-54.7031 13.5352-54.7734Q13.6406-54.8438 13.7109-54.9141L13.7109-54.9141L13.7109-54.9141L13.7109-54.9141Q14.3438-55.3359 15.0469-55.7578Q15.7500-56.1797 16.3828-55.6875L16.3828-55.6875Q16.7344-55.4063 16.9102-54.7383Q17.0859-54.0703 16.8047-53.6484L16.8047-53.6484Q16.5234-53.3672 16.1367-53.0859Q15.7500-52.8047 15.3984-52.5938L15.3984-52.5938L15.3984-52.5938L15.3984-52.5938Q15.1875-52.4531 14.9766-52.3477Q14.7656-52.2422 14.6250-52.1016L14.6250-52.1016Q13.5703-51.3281 12.6211-50.4844Q11.6719-49.6406 10.8281-48.7266L10.8281-48.7266Q7.1719-44.6484 5.1328-39.8320Q3.0938-35.0156 2.6719-29.5313L2.6719-29.5313Q2.6016-28.1250 2.7070-26.7188Q2.8125-25.3125 3.0234-23.9063L3.0234-23.9063Q3.0938-23.6953 3.1289-23.4492Q3.1641-23.2031 3.2344-22.9219L3.2344-22.9219Q3.3750-22.5000 3.4453-22.0430Q3.5156-21.5859 3.5156-21.2344L3.5156-21.2344Q3.5156-20.8125 3.3750-20.4258Q3.2344-20.0391 3.0938-19.6875L3.0938-19.6875Q3.0234-19.4063 2.9531-19.1602Q2.8828-18.9141 2.8125-18.7031L2.8125-18.7031Q2.7422-18.4922 2.7422-18.3164Q2.7422-18.1406 2.6719-17.9297L2.6719-17.9297L2.6719-17.9297L2.6719-17.9297ZM63.1406-17.7891L63.1406-17.7891Q63-17.3672 62.8594-16.9805Q62.7188-16.5938 62.5078-16.3125L62.5078-16.3125L62.5078-16.3125L62.5078-16.3125Q62.3672-17.1563 62.1914-17.9297Q62.0156-18.7031 61.8047-19.4766L61.8047-19.4766Q61.7344-19.5469 61.6992-19.7227Q61.6641-19.8984 61.5938-20.0391L61.5938-20.0391Q61.5234-20.3203 61.4180-20.6367Q61.3125-20.9531 61.3125-21.2344L61.3125-21.2344Q61.3125-21.5859 61.3828-22.0430Q61.4531-22.5000 61.5938-22.9219L61.5938-22.9219L61.5938-22.9219Q61.6641-23.1328 61.6992-23.4141Q61.7344-23.6953 61.8047-23.9063L61.8047-23.9063Q62.0156-25.3125 62.1211-26.7188Q62.2266-28.1250 62.0859-29.5313L62.0859-29.5313Q61.7344-34.8047 59.7656-39.7266Q57.7969-44.6484 54.1406-48.5156L54.1406-48.5156Q53.2266-49.5000 52.3125-50.3438Q51.3984-51.1875 50.3438-51.9609L50.3438-51.9609Q50.2031-52.1016 49.9570-52.2422Q49.7109-52.3828 49.5000-52.5234L49.5000-52.5234L49.5000-52.5234Q49.0781-52.8047 48.6914-53.0859Q48.3047-53.3672 48.0234-53.6484L48.0234-53.6484Q47.6719-54.0703 47.8828-54.7383Q48.0938-55.4063 48.4453-55.6875L48.4453-55.6875Q49.0781-56.1797 49.8516-55.7578Q50.6250-55.3359 51.1875-54.8438L51.1875-54.8438L51.1875-54.8438L51.1875-54.8438Q51.3281-54.7734 51.3984-54.6680Q51.4688-54.5625 51.6094-54.5625L51.6094-54.5625Q53.5781-53.0859 55.3359-51.3281Q57.0938-49.5703 58.5000-47.6016L58.5000-47.6016Q60.3984-45.0703 61.7344-42.1875L61.7344-42.1875Q63-39.3047 63.7734-36.2813Q64.5469-33.2578 64.7578-30.1641L64.7578-30.1641Q64.8984-27 64.5469-23.8359L64.5469-23.8359Q64.3359-22.4297 64.0195-21.0234Q63.7031-19.6172 63.2813-18.2813L63.2813-18.2813Q63.2109-18.1406 63.1758-18.0352Q63.1406-17.9297 63.1406-17.7891L63.1406-17.7891ZM26.0859-36.8438L26.0859-36.8438L26.0859-39.0938L38.7422-39.0938L38.7422-36.8438L26.0859-36.8438ZM26.0859-32.2031L26.0859-32.2031L26.0859-35.5078L38.7422-35.5078L38.7422-32.2031Q36.8438-31.8516 35.2969-30.7969Q33.7500-29.7422 32.4141-28.4063L32.4141-28.4063L32.3438-28.4063Q31.0078-29.8125 29.4961-30.8320Q27.9844-31.8516 26.0859-32.2031L26.0859-32.2031ZM46.1250-19.8984L46.1250-19.8984Q45.8438-23.6250 46.3359-27.2461Q46.8281-30.8672 48.3047-34.3125L48.3047-34.3125Q49.5000-33.9609 50.5898-33.1172Q51.6797-32.2734 52.6641-31.5000L52.6641-31.5000L52.6641-31.5000Q55.4766-29.1797 57.4805-26.0508Q59.4844-22.9219 60.4688-19.4063L60.4688-19.4063Q60.7500-18.4219 60.9609-17.4727Q61.1719-16.5234 61.3125-15.5391L61.3125-15.5391Q61.3125-15.4688 61.3125-15.4336Q61.3125-15.3984 61.3125-15.3281L61.3125-15.3281Q61.3828-14.8359 61.4180-14.3438Q61.4531-13.8516 61.2422-13.3594L61.2422-13.3594Q59.4141-9.3516 56.3906-6.0469L56.3906-6.0469Q53.4375-2.8125 49.7109-0.4922Q45.9844 1.8281 41.7656 3.0938L41.7656 3.0938Q37.4766 4.3594 33.1172 4.5000L33.1172 4.5000Q28.8281 4.5703 24.5391 3.5156L24.5391 3.5156Q20.3203 2.4609 16.5234 0.3516Q12.7266-1.7578 9.6328-4.7813L9.6328-4.7813Q6.4688-7.8750 4.4297-11.6719L4.4297-11.6719Q4.3594-11.8125 4.2891-11.9180Q4.2188-12.0234 4.1484-12.0938L4.1484-12.0938L4.1484-12.0938Q3.9375-12.5156 3.6914-13.0078Q3.4453-13.5000 3.3750-13.9219L3.3750-13.9219Q3.2344-14.9766 3.5156-16.3125Q3.7969-17.6484 4.1484-18.7031L4.1484-18.7031L4.1484-18.7734Q4.1484-18.8438 4.1836-18.9492Q4.2188-19.0547 4.2891-19.1250L4.2891-19.1250Q5.2734-22.6406 7.1719-25.7695Q9.0703-28.8984 11.8125-31.2891L11.8125-31.2891L12.0234-31.3594Q13.0078-32.2031 14.1328-33.0820Q15.2578-33.9609 16.5234-34.3125L16.5234-34.3125Q17.9297-30.8672 18.4570-27.2461Q18.9844-23.6250 18.7031-19.8984L18.7031-19.8984Q18.3516-19.8984 18.0352-19.8633Q17.7188-19.8281 17.3672-19.7578L17.3672-19.7578Q16.3125-19.6172 15.1875-19.5820Q14.0625-19.5469 13.0781-20.1797L13.0781-20.1797Q12.2344-20.7422 11.7773-22.2188Q11.3203-23.6953 12.4453-24.3281L12.4453-24.3281Q13.2188-24.7500 13.9922-24.2930Q14.7656-23.8359 14.6953-22.9922L14.6953-22.9922Q14.6953-22.7813 14.5898-22.6406Q14.4844-22.5000 14.4141-22.2891L14.4141-22.2891Q14.3438-22.1484 14.2734-22.0078Q14.2031-21.8672 14.2031-21.6563L14.2031-21.6563Q14.1328-21.4453 14.3086-21.2344Q14.4844-21.0234 14.7656-21.0234L14.7656-21.0234Q15.2578-21.0234 15.5391-21.5859Q15.8203-22.1484 15.9609-22.5000L15.9609-22.5000Q16.1719-23.5547 15.6094-24.4688Q15.0469-25.3828 14.0625-25.7344L14.0625-25.7344Q12.9375-26.0859 11.8477-25.4531Q10.7578-24.8203 10.4766-23.6953L10.4766-23.6953Q10.2656-22.6406 10.6172-21.5508Q10.9688-20.4609 11.6719-19.6875L11.6719-19.6875Q12.6563-18.7031 14.0273-18.4219Q15.3984-18.1406 16.6641-18.2813L16.6641-18.2813Q19.1953-18.5625 21.5156-19.6875Q23.8359-20.8125 25.2422-22.9219L25.2422-22.9219Q26.2969-24.4688 26.7188-26.1211Q27.1406-27.7734 27.4219-29.5313L27.4219-29.5313Q27.4922-29.7422 27.5273-29.9531Q27.5625-30.1641 27.6328-30.3750L27.6328-30.3750L27.6328-30.3750Q28.1250-30.1641 28.7578-29.8477Q29.3906-29.5313 29.6719-29.0391L29.6719-29.0391Q29.8828-28.6875 29.8125-28.0898Q29.7422-27.4922 29.6719-27L29.6719-27L29.6719-27L29.6719-27Q29.6719-26.9297 29.6367-26.8242Q29.6016-26.7188 29.6016-26.5781L29.6016-26.5781Q29.3203-24.6094 28.4414-22.7813Q27.5625-20.9531 26.1563-19.5469L26.1563-19.5469Q22.5000-16.0313 17.2969-15.2227Q12.0938-14.4141 7.3828-14.9766L7.3828-14.9766Q9.0703-12.1641 11.0742-9.6680Q13.0781-7.1719 15.7500-5.2031L15.7500-5.2031Q19.4766-2.4609 23.6953-1.1250L23.6953-1.1250Q27.9844 0.2813 32.3789 0.2813Q36.7734 0.2813 41.0625-1.1250L41.0625-1.1250Q45.3516-2.4609 49.0781-5.2031L49.0781-5.2031Q51.7500-7.1719 53.7539-9.6680Q55.7578-12.1641 57.4453-14.9766L57.4453-14.9766Q52.6641-14.4141 47.4609-15.2227Q42.2578-16.0313 38.6719-19.5469L38.6719-19.5469Q37.1953-20.9531 36.3516-22.7813Q35.5078-24.6094 35.2266-26.5781L35.2266-26.5781Q35.2266-26.7188 35.1914-26.8242Q35.1563-26.9297 35.1563-27L35.1563-27L35.1563-27L35.1563-27Q35.0859-27.4922 35.0156-28.0898Q34.9453-28.6875 35.1563-29.0391L35.1563-29.0391Q35.3672-29.5313 36-29.8477Q36.6328-30.1641 37.1250-30.3750L37.1250-30.3750L37.1953-30.3750Q37.6172-27.2813 38.7422-24.2578Q39.8672-21.2344 42.8906-19.7578L42.8906-19.7578Q43.8750-19.2656 44.9297-18.9492Q45.9844-18.6328 47.0391-18.4219L47.0391-18.4219Q48.5859-18.1406 50.2734-18.3164Q51.9609-18.4922 53.0859-19.6875L53.0859-19.6875Q53.8594-20.4609 54.2109-21.5859Q54.5625-22.7109 54.2813-23.7656L54.2813-23.7656Q54-24.9609 52.8398-25.5586Q51.6797-26.1563 50.5547-25.6641L50.5547-25.6641Q49.6406-25.2422 49.1484-24.3633Q48.6563-23.4844 48.8672-22.4297L48.8672-22.4297Q49.0078-22.0781 49.2891-21.5508Q49.5703-21.0234 50.0625-21.0234L50.0625-21.0234Q50.2734-21.0234 50.4492-21.2344Q50.6250-21.4453 50.6250-21.6563L50.6250-21.6563Q50.6250-21.8672 50.5547-22.0078Q50.4844-22.1484 50.4141-22.2891L50.4141-22.2891Q50.2734-22.5000 50.2031-22.6406Q50.1328-22.7813 50.1328-22.9922L50.1328-22.9922Q50.0625-23.8359 50.8359-24.2930Q51.6094-24.7500 52.3828-24.3281L52.3828-24.3281Q53.5078-23.6953 53.0508-22.2188Q52.5938-20.7422 51.7500-20.1797L51.7500-20.1797Q50.6953-19.5469 49.6055-19.5820Q48.5156-19.6172 47.4609-19.7578L47.4609-19.7578Q47.1094-19.8281 46.7930-19.8633Q46.4766-19.8984 46.1250-19.8984L46.1250-19.8984ZM32.9063-11.6016L32.9063-11.6016Q29.8125-11.0391 29.2500-14.3086Q28.6875-17.5781 31.8516-18.1406L31.8516-18.1406Q34.3125-18.6328 35.4023-16.1719Q36.4922-13.7109 34.3828-12.2344L34.3828-12.2344Q34.0313-11.9531 33.6797-11.8125Q33.3281-11.6719 32.9063-11.6016ZM31.9922-16.1719L31.9922-16.1719Q30.7266-15.8203 31.1484-14.5547Q31.5703-13.2891 32.7656-13.6406L32.7656-13.6406Q34.0313-13.9219 33.6445-15.1875Q33.2578-16.4531 31.9922-16.1719ZM13.2891-13.4297L13.2891-13.4297L13.2891-10.0547L19.4766-11.6719L19.4766-5.6250L21.5859-7.5938L26.3672-12.1641L26.4375-2.7422L28.4766-4.5703L32.3438-8.5781L32.4141-8.5781L36.3516-4.5703L38.3906-2.7422L38.4609-12.1641L43.1719-7.5938L45.3516-5.6250L45.3516-11.6719L51.5391-10.0547L51.5391-13.4297Q48.3750-13.4297 45.2813-14.4141L45.2813-14.4141Q42.1875-15.3281 39.6914-17.1563Q37.1953-18.9844 35.5781-21.6563L35.5781-21.6563Q33.9609-24.2578 33.8203-27.7031L33.8203-27.7031Q33.3984-27.4219 33.0469-26.9297Q32.6953-26.4375 32.4141-26.0156L32.4141-26.0156L32.3438-26.0156Q32.1328-26.4375 31.7813-26.9297Q31.4297-27.4219 31.0078-27.7031L31.0078-27.7031Q30.8672-24.2578 29.2500-21.6563L29.2500-21.6563Q27.6328-18.9844 25.1367-17.1563Q22.6406-15.3281 19.4766-14.4141L19.4766-14.4141Q16.3828-13.4297 13.2891-13.4297L13.2891-13.4297ZM29.8125-18.7734L29.8125-18.7734Q30.2344-19.0547 30.7266-19.2305Q31.2188-19.4063 31.6406-19.4766L31.6406-19.4766Q35.2969-20.0391 36.6328-16.4883Q37.9688-12.9375 34.8750-10.9688L34.8750-10.9688Q34.4531-10.6875 33.9609-10.5117Q33.4688-10.3359 32.9766-10.2656L32.9766-10.2656Q29.3906-9.7734 28.1602-13.2891Q26.9297-16.8047 29.8125-18.7734ZM9.8438-13.5000L9.8438-13.5000Q10.0547-12.8672 10.7227-11.9180Q11.3906-10.9688 12.0234-10.6172L12.0234-10.6172L12.0234-13.4297L9.8438-13.5000ZM52.8047-13.4297L52.8047-13.4297L52.8047-10.6172Q53.4375-10.9688 54.0703-11.9180Q54.7031-12.8672 54.9844-13.5000L54.9844-13.5000L52.8047-13.4297ZM13.7109-8.7891L13.7109-8.7891L13.7109-8.6484Q14.0625-8.3672 14.4492-8.0156Q14.8359-7.6641 15.1875-7.3125L15.1875-7.3125Q15.8906-6.6797 16.5938-6.1172Q17.2969-5.5547 18.1406-5.2734L18.1406-5.2734L18.1406-10.0547L13.7109-8.7891ZM51.1172-8.7891L46.6875-10.0547L46.6875-5.2734Q47.5313-5.5547 48.2344-6.1172Q48.9375-6.6797 49.5703-7.3125L49.5703-7.3125Q49.9922-7.6641 50.3438-8.0156Q50.6953-8.3672 51.1172-8.6484L51.1172-8.6484L51.1172-8.7891ZM24.9609-9.0703L24.9609-9.0703Q24.5391-8.6484 24.0820-8.2266Q23.6250-7.8047 23.1328-7.3828L23.1328-7.3828L23.1328-7.3828Q22.2188-6.6094 21.3750-5.8359Q20.5313-5.0625 19.8984-4.1484L19.8984-4.1484Q21.0234-3.5156 22.4297-2.9180Q23.8359-2.3203 25.1719-2.1094L25.1719-2.1094L25.1016-7.5234L24.9609-9.0703ZM39.7266-9.0703L39.7266-9.0703L39.6563-2.1094Q40.9922-2.3203 42.3633-2.9180Q43.7344-3.5156 44.9297-4.1484L44.9297-4.1484L42.3281-6.6797L39.7266-9.0703ZM30.7266-5.2031L30.7266-5.2031L30.7266-5.2031Q29.7422-4.3594 28.8281-3.4453Q27.9141-2.5313 27.2109-1.5469L27.2109-1.5469Q29.8125-1.0547 32.4141-1.0547Q35.0156-1.0547 37.6172-1.5469L37.6172-1.5469L35.0859-4.1484L32.3438-6.8203Q31.9922-6.3984 31.5703-6.0117Q31.1484-5.6250 30.7266-5.2031Z"/></svg>