<svg width="74" height="74" viewBox="-1 -69 74 74" fill="#ff2935" xmlns="http://www.w3.org/2000/svg"><path d="M71.6484 4.4297L71.6484-6.8203L31.2891-47.1797L35.1563-51.0469Q35.2266-51.0469 35.2266-51.0469Q35.2266-51.0469 35.2969-51.0469L35.2969-51.0469Q37.1250-51.0469 38.4258-52.3477Q39.7266-53.6484 39.7266-55.4766L39.7266-55.4766Q39.7266-57.3047 38.4258-58.6055Q37.1250-59.9063 35.2969-59.9063L35.2969-59.9063Q33.3984-59.9063 32.0977-58.6055Q30.7969-57.3047 30.7969-55.4766L30.7969-55.4766Q30.7969-55.2656 30.8320-55.0547Q30.8672-54.8438 30.8672-54.6328L30.8672-54.6328L23.6953-47.4609L8.8594-62.2969Q8.8594-62.3672 8.8945-62.4727Q8.9297-62.5781 8.9297-62.7188L8.9297-62.7188Q8.9297-64.5469 7.5938-65.8477Q6.2578-67.1484 4.4297-67.1484L4.4297-67.1484Q2.6016-67.1484 1.3008-65.8477Q0-64.5469 0-62.7188L0-62.7188Q0-60.8906 1.3008-59.5898Q2.6016-58.2891 4.4297-58.2891L4.4297-58.2891Q4.5703-58.2891 4.7109-58.2891Q4.8516-58.2891 4.9219-58.2891L4.9219-58.2891L19.7578-43.5234L12.5156-36.2813Q12.3750-36.3516 12.1641-36.3516Q11.9531-36.3516 11.7422-36.3516L11.7422-36.3516Q9.8438-36.3516 8.5430-35.0508Q7.2422-33.7500 7.2422-31.9219L7.2422-31.9219Q7.2422-30.0938 8.5430-28.7930Q9.8438-27.4922 11.7422-27.4922L11.7422-27.4922Q13.5703-27.4922 14.8711-28.7930Q16.1719-30.0938 16.1719-31.9219L16.1719-31.9219Q16.1719-31.9219 16.1719-31.9570Q16.1719-31.9922 16.1719-31.9922L16.1719-31.9922L20.0391-35.8594L60.3984 4.5000L71.6484 4.4297ZM64.2656-6.8906L64.2656-2.9531L60.3281-2.8828L23.6953-39.5156L27.6328-43.5234L64.2656-6.8906ZM13.9922-59.9766L16.5234-57.5156Q20.3906-60.5391 25.2422-62.2617Q30.0938-63.9844 35.4375-63.9844L35.4375-63.9844Q35.4375-63.9844 35.4375-63.9844Q35.4375-63.9844 35.4375-63.9844L35.4375-63.9844Q41.9063-63.9844 47.5313-61.5938L47.5313-61.5938Q53.1563-59.1328 57.3750-54.9141Q61.5938-50.6953 63.9844-45.0703L63.9844-45.0703Q66.4453-39.4453 66.4453-33.0469L66.4453-33.0469Q66.4453-33.0469 66.4453-33.0117Q66.4453-32.9766 66.4453-32.9766L66.4453-32.9766Q66.4453-29.0391 65.4961-25.3477Q64.5469-21.6563 62.7891-18.4219L62.7891-18.4219L65.3906-15.9609Q67.5703-19.6172 68.7656-23.9414Q69.9609-28.2656 69.9609-32.9766L69.9609-32.9766Q69.9609-32.9766 69.9609-33.0117Q69.9609-33.0469 69.9609-33.0469L69.9609-33.0469Q69.9609-40.1484 67.2188-46.4063L67.2188-46.4063Q64.5469-52.7344 59.8359-57.4102Q55.1250-62.0859 48.8672-64.7578L48.8672-64.7578Q42.6094-67.5000 35.4375-67.5000L35.4375-67.5000Q35.4375-67.5000 35.4375-67.5000Q35.4375-67.5000 35.4375-67.5000L35.4375-67.5000Q32.4141-67.5000 29.4609-67.0078L29.4609-67.0078Q26.5781-66.4453 23.8711-65.4961Q21.1641-64.5469 18.7031-63.1406L18.7031-63.1406Q16.1719-61.7344 13.9922-59.9766L13.9922-59.9766ZM50.7656-2.1797L47.9531-4.7109Q45.2109-3.4453 42.0469-2.7422Q38.8828-2.0391 35.5078-2.0391L35.5078-2.0391Q35.5078-2.0391 35.5078-2.0391Q35.5078-2.0391 35.4375-2.0391L35.4375-2.0391Q29.0391-2.0391 23.4141-4.5000L23.4141-4.5000Q17.7891-6.8906 13.5703-11.1094Q9.3516-15.3281 6.8906-20.9531L6.8906-20.9531Q4.5000-26.6484 4.5000-33.0469L4.5000-33.0469Q4.5000-33.0469 4.5000-33.0469Q4.5000-33.0469 4.5000-33.0469L4.5000-33.0469Q4.5000-37.8984 5.9063-42.2930Q7.3125-46.6875 9.7734-50.3438L9.7734-50.3438L7.2422-52.8047Q4.2891-48.6563 2.6367-43.6289Q0.9844-38.6016 0.9844-33.0469L0.9844-33.0469Q0.9844-33.0469 0.9844-33.0469Q0.9844-33.0469 0.9844-33.0469L0.9844-33.0469Q0.9844-25.8750 3.7266-19.6172L3.7266-19.6172Q6.3984-13.3594 11.0742-8.6836Q15.7500-4.0078 22.0781-1.2656L22.0781-1.2656Q28.3359 1.4766 35.4375 1.4766L35.4375 1.4766Q35.4375 1.4766 35.4727 1.4766Q35.5078 1.4766 35.5078 1.4766L35.5078 1.4766Q39.6563 1.4766 43.4883 0.5273Q47.3203-0.4219 50.7656-2.1797L50.7656-2.1797Z"/></svg>