<svg width="74" height="74" viewBox="-1 -69 74 74" fill="#808080" xmlns="http://www.w3.org/2000/svg"><path d="M36-67.5000L36-67.5000Q28.5469-67.5000 22.0078-64.6875L22.0078-64.6875Q15.3984-61.8750 10.5117-56.9883Q5.6250-52.1016 2.8125-45.4922L2.8125-45.4922Q0-38.9531 0-31.5000L0-31.5000Q0-24.0469 2.8125-17.5078L2.8125-17.5078Q5.6250-10.8984 10.5117-6.0117Q15.3984-1.1250 22.0078 1.6875L22.0078 1.6875Q28.5469 4.5000 36 4.5000L36 4.5000Q43.4531 4.5000 49.9922 1.6875L49.9922 1.6875Q56.6016-1.1250 61.4883-6.0117Q66.3750-10.8984 69.1875-17.5078L69.1875-17.5078Q72-24.0469 72-31.5000L72-31.5000L72-31.5000Q72-38.9531 69.1875-45.4922L69.1875-45.4922Q66.3047-52.0313 61.4180-56.9180Q56.5313-61.8047 49.9922-64.6875L49.9922-64.6875Q43.4531-67.5000 36-67.5000L36-67.5000L36-67.5000ZM36 0.8438L36 0.8438Q29.3203 0.8438 23.4141-1.6875L23.4141-1.6875Q17.5078-4.2188 13.1133-8.6133Q8.7188-13.0078 6.1875-18.9141L6.1875-18.9141Q3.6563-24.8203 3.6563-31.5000L3.6563-31.5000Q3.6563-38.1797 6.1875-44.0859L6.1875-44.0859Q8.7188-49.9922 13.1133-54.3867Q17.5078-58.7813 23.4141-61.3125L23.4141-61.3125Q29.3203-63.8438 36-63.8438L36-63.8438Q42.6797-63.8438 48.5859-61.3125L48.5859-61.3125Q54.4922-58.7813 58.8867-54.3867Q63.2813-49.9922 65.8125-44.0859L65.8125-44.0859Q68.3438-38.1797 68.3438-31.5000L68.3438-31.5000L68.3438-31.5000Q68.3438-24.8203 65.8125-18.9141L65.8125-18.9141Q63.2813-13.0078 58.8867-8.6133Q54.4922-4.2188 48.5859-1.6875L48.5859-1.6875Q42.6797 0.8438 36 0.8438L36 0.8438L36 0.8438ZM57.4453-35.5781L57.4453-35.5781Q57.4453-35.5781 57.4453-35.5781Q57.4453-35.5781 57.4453-35.5781L57.4453-35.5781Q57.4453-39.3750 56.0039-42.6797Q54.5625-45.9844 52.1016-48.4453L52.1016-48.4453L51.6797-48.9375L51.8906-48.3047Q51.8906-48.2344 52.4883-44.2969Q53.0859-40.3594 50.1328-36.7031L50.1328-36.7031Q49.7109-40.1484 48.1641-43.1016L48.1641-43.1016Q46.6172-46.0547 44.1914-48.2695Q41.7656-50.4844 38.6016-51.6797L38.6016-51.6797Q35.5078-52.9453 31.9922-52.9453L31.9922-52.9453Q28.1953-52.9453 24.8555-51.5039Q21.5156-50.0625 19.0547-47.6016L19.0547-47.6016L18.5625-47.1094L19.1953-47.3203Q19.2656-47.3906 23.2031-47.9883Q27.1406-48.5859 30.7969-45.6328L30.7969-45.6328Q27.3516-45.2109 24.3984-43.6641L24.3984-43.6641Q21.4453-42.1172 19.2305-39.6914Q17.0156-37.2656 15.8203-34.1016L15.8203-34.1016Q14.5547-31.0078 14.5547-27.4922L14.5547-27.4922Q14.5547-23.6953 15.9961-20.3555Q17.4375-17.0156 19.8984-14.5547L19.8984-14.5547L20.3906-14.0625L20.1797-14.6953Q20.1094-14.7656 19.5117-18.7383Q18.9141-22.7109 21.8672-26.2969L21.8672-26.2969Q22.2891-22.8516 23.8359-19.8984L23.8359-19.8984Q25.3828-16.9453 27.8086-14.7656Q30.2344-12.5859 33.3984-11.3203L33.3984-11.3203Q36.4922-10.0547 40.0078-10.0547L40.0078-10.0547Q43.8047-10.0547 47.1445-11.4961Q50.4844-12.9375 52.9453-15.3984L52.9453-15.3984L53.4375-15.8906L52.8047-15.6797Q52.7344-15.6094 48.7617-15.0117Q44.7891-14.4141 41.2031-17.3672L41.2031-17.3672Q44.6484-17.7891 47.6016-19.3359L47.6016-19.3359Q50.5547-20.8828 52.7695-23.3086Q54.9844-25.7344 56.1797-28.8984L56.1797-28.8984Q57.4453-31.9922 57.4453-35.5781L57.4453-35.5781L57.4453-35.5781ZM44.2266-31.2188L43.6641-29.3203Q43.0313-27.3516 41.3789-26.1211Q39.7266-24.8906 37.6172-24.8906L37.6172-24.8906Q37.1250-24.8906 36.6328-24.9609Q36.1406-25.0313 35.7188-25.1719L35.7188-25.1719L35.7188-25.1719Q35.0156-25.3828 34.4180-25.7344Q33.8203-26.0859 33.3281-26.5781L33.3281-26.5781L33.3281-26.5781L33.1172-26.7891L33.1875-26.4375Q33.3281-25.9453 33.6094-25.4883Q33.8906-25.0313 34.2422-24.6094L34.2422-24.6094L34.2422-24.6094L35.7188-23.2734L33.8203-23.8359Q31.8516-24.4688 30.6211-26.1211Q29.3906-27.7734 29.3906-29.8828L29.3906-29.8828Q29.3906-31.1484 29.8125-32.2383Q30.2344-33.3281 31.0078-34.1719L31.0078-34.1719L31.2891-34.3828L30.9375-34.3125Q30.3750-34.1719 29.9180-33.8906Q29.4609-33.6094 29.1094-33.2578L29.1094-33.2578L29.1094-33.2578L27.7031-31.8516L28.3359-33.7500Q28.9688-35.6484 30.6211-36.8789Q32.2734-38.1094 34.3828-38.1094L34.3828-38.1094Q34.8750-38.1094 35.3672-38.0391Q35.8594-37.9688 36.2813-37.8281L36.2813-37.8281L36.2813-37.8281Q36.9141-37.6172 37.5117-37.2656Q38.1094-36.9141 38.6016-36.4922L38.6016-36.4922L38.6016-36.4922L38.8828-36.2109L38.8125-36.5625Q38.6016-37.1250 38.3555-37.5820Q38.1094-38.0391 37.7578-38.3906L37.7578-38.3906L37.7578-38.3906L36.3516-39.7266L38.1797-39.1641Q40.1484-38.5313 41.3789-36.8789Q42.6094-35.2266 42.6094-33.1172L42.6094-33.1172Q42.6094-32.6250 42.5391-32.1328Q42.4688-31.6406 42.3281-31.2188L42.3281-31.2188L42.3281-31.2188Q42.1172-30.5859 41.7656-29.9883Q41.4141-29.3906 40.9219-28.8984L40.9219-28.8984L40.9922-28.8984L40.7109-28.6172L41.0625-28.6875Q41.6250-28.8984 42.0820-29.1445Q42.5391-29.3906 42.8906-29.7422L42.8906-29.7422L42.8906-29.7422L44.2266-31.2188Z"/></svg>