<svg width="74" height="74" viewBox="-1 -69 74 74" fill="#808080" xmlns="http://www.w3.org/2000/svg"><path d="M36-67.5000L36-67.5000Q28.5469-67.5000 22.0078-64.6875L22.0078-64.6875Q15.3984-61.8750 10.5117-56.9883Q5.6250-52.1016 2.8125-45.4922L2.8125-45.4922Q0-38.9531 0-31.5000L0-31.5000Q0-24.0469 2.8125-17.5078L2.8125-17.5078Q5.6250-10.8984 10.5117-6.0117Q15.3984-1.1250 22.0078 1.6875L22.0078 1.6875Q28.5469 4.5000 36 4.5000L36 4.5000Q43.4531 4.5000 49.9922 1.6875L49.9922 1.6875Q56.6016-1.1250 61.4883-6.0117Q66.3750-10.8984 69.1875-17.5078L69.1875-17.5078Q72-24.0469 72-31.5000L72-31.5000L72-31.5000Q72-38.9531 69.1875-45.4922L69.1875-45.4922Q66.3047-52.0313 61.4180-56.9180Q56.5313-61.8047 49.9922-64.6875L49.9922-64.6875Q43.4531-67.5000 36-67.5000L36-67.5000L36-67.5000ZM36 0.8438L36 0.8438Q29.3203 0.8438 23.4141-1.6875L23.4141-1.6875Q17.5078-4.2188 13.1133-8.6133Q8.7188-13.0078 6.1875-18.9141L6.1875-18.9141Q3.6563-24.8203 3.6563-31.5000L3.6563-31.5000Q3.6563-38.1797 6.1875-44.0859L6.1875-44.0859Q8.7188-49.9922 13.1133-54.3867Q17.5078-58.7813 23.4141-61.3125L23.4141-61.3125Q29.3203-63.8438 36-63.8438L36-63.8438Q42.6797-63.8438 48.5859-61.3125L48.5859-61.3125Q54.4922-58.7813 58.8867-54.3867Q63.2813-49.9922 65.8125-44.0859L65.8125-44.0859Q68.3438-38.1797 68.3438-31.5000L68.3438-31.5000L68.3438-31.5000Q68.3438-24.8203 65.8125-18.9141L65.8125-18.9141Q63.2813-13.0078 58.8867-8.6133Q54.4922-4.2188 48.5859-1.6875L48.5859-1.6875Q42.6797 0.8438 36 0.8438L36 0.8438L36 0.8438ZM49.6406-49.4297L49.6406-49.4297L37.3359-37.1250L42.3281-32.2031L54.5625-44.4375L54.5625-49.4297L49.6406-49.4297ZM32.9766-19.4063L32.9766-19.4766L31.2891-21.1641L34.6641-24.5391L29.7422-29.4609L26.2969-26.0859L24.6094-27.7734Q24.6094-27.7734 24.6094-27.7734Q24.6094-27.7734 24.6094-27.8438L24.6094-27.8438Q24.6094-28.6172 24.0469-29.1797Q23.4844-29.7422 22.6406-29.7422L22.6406-29.7422Q21.8672-29.7422 21.3047-29.1797Q20.7422-28.6172 20.7422-27.8438L20.7422-27.8438Q20.7422-27 21.3047-26.4375Q21.8672-25.8750 22.6406-25.8750L22.6406-25.8750Q22.7813-25.8750 22.8516-25.8750Q22.9219-25.8750 23.0625-25.8750L23.0625-25.8750L23.0625-25.8750L26.1563-22.7109L19.6875-16.2422Q19.6875-16.2422 19.6172-16.2422Q19.5469-16.2422 19.4766-16.2422L19.4766-16.2422Q18.7031-16.2422 18.1406-15.6797Q17.5781-15.1172 17.5781-14.3438L17.5781-14.3438Q17.5781-13.5000 18.1406-12.9375Q18.7031-12.3750 19.4766-12.3750L19.4766-12.3750Q20.3203-12.3750 20.8828-12.9375Q21.4453-13.5000 21.4453-14.3438L21.4453-14.3438Q21.4453-14.3438 21.4453-14.4141Q21.4453-14.4844 21.4453-14.5547L21.4453-14.5547L21.4453-14.4844L27.9141-21.0234L31.0781-17.8594Q31.0781-17.7891 31.0781-17.6836Q31.0781-17.5781 31.0781-17.5078L31.0781-17.5078Q31.0781-16.6641 31.6406-16.1016Q32.2031-15.5391 32.9766-15.5391L32.9766-15.5391Q33.8203-15.5391 34.3828-16.1016Q34.9453-16.6641 34.9453-17.5078L34.9453-17.5078Q34.9453-18.2813 34.3828-18.8438Q33.8203-19.4063 32.9766-19.4063L32.9766-19.4063Q32.9766-19.4063 32.9766-19.4063Q32.9766-19.4063 32.9766-19.4063L32.9766-19.4063L32.9766-19.4063ZM52.3125-16.2422L52.3125-16.2422L45.8438-22.7109L49.0078-25.8750Q49.0781-25.8750 49.1484-25.8750Q49.2188-25.8750 49.3594-25.8750L49.3594-25.8750Q50.1328-25.8750 50.7305-26.4375Q51.3281-27 51.3281-27.8438L51.3281-27.8438Q51.3281-28.6172 50.7305-29.1797Q50.1328-29.7422 49.3594-29.7422L49.3594-29.7422Q48.5156-29.7422 47.9531-29.1797Q47.3906-28.6172 47.3906-27.8438L47.3906-27.8438Q47.3906-27.7734 47.3906-27.7734Q47.3906-27.7734 47.3906-27.7734L47.3906-27.7734L47.3906-27.7734L45.7031-26.0859L22.3594-49.4297L17.4375-49.3594L17.4375-44.4375L40.7813-21.1641L39.0234-19.4766Q39.0234-19.4766 39.0234-19.4766Q39.0234-19.4766 39.0234-19.4766L39.0234-19.4766Q38.1797-19.4766 37.6172-18.8789Q37.0547-18.2813 37.0547-17.5078L37.0547-17.5078Q37.0547-16.6641 37.6172-16.1016Q38.1797-15.5391 39.0234-15.5391L39.0234-15.5391Q39.7969-15.5391 40.3945-16.1016Q40.9922-16.6641 40.9922-17.5078L40.9922-17.5078Q40.9922-17.5781 40.9570-17.6836Q40.9219-17.7891 40.9219-17.8594L40.9219-17.8594L40.9219-17.8594L44.0859-21.0234L50.5547-14.5547Q50.5547-14.4844 50.5547-14.4492Q50.5547-14.4141 50.5547-14.3438L50.5547-14.3438Q50.5547-13.5000 51.1172-12.9375Q51.6797-12.3750 52.5234-12.3750L52.5234-12.3750Q53.2969-12.3750 53.8945-12.9375Q54.4922-13.5000 54.4922-14.3438L54.4922-14.3438Q54.4922-15.1172 53.8945-15.6797Q53.2969-16.2422 52.5234-16.2422L52.5234-16.2422Q52.4531-16.2422 52.4180-16.2422Q52.3828-16.2422 52.3125-16.2422L52.3125-16.2422L52.3125-16.2422Z"/></svg>