<svg width="74" height="74" viewBox="-1 -69 74 74" fill="#808080" xmlns="http://www.w3.org/2000/svg"><path d="M36.2109-7.5234L36.2109-7.5234Q35.4375-6.8203 34.4883-6.2930Q33.5391-5.7656 32.4844-5.5547L32.4844-5.5547Q30.7969-5.2031 29.5664-4.9219Q28.3359-4.6406 27.4922-4.3594L27.4922-4.3594Q27.7031-3.0938 28.4063-2.1094Q29.1094-1.1250 30.0938-0.4922L30.0938-0.4922Q32.4141 1.0547 33.8906 2.1797Q35.3672 3.3047 36.0703 4.5000L36.0703 4.5000Q36.7031 3.3047 38.1445 2.1445Q39.5859 0.9844 41.8359-0.5625L41.8359-0.5625L41.8359-0.5625Q42.8906-1.2656 43.5586-2.2500Q44.2266-3.2344 44.4375-4.4297L44.4375-4.4297Q43.5938-4.7813 42.5039-5.0273Q41.4141-5.2734 40.0078-5.5547L40.0078-5.5547Q38.8828-5.7656 37.9336-6.2930Q36.9844-6.8203 36.2109-7.5234L36.2109-7.5234ZM32.4141-58.3594L32.4141-58.3594Q33.4688-58.1484 34.4531-57.6211Q35.4375-57.0938 36.1406-56.3906L36.1406-56.3906Q36.9141-57.0938 37.8633-57.6211Q38.8125-58.1484 39.8672-58.3594L39.8672-58.3594Q41.3438-58.6406 42.4336-58.8867Q43.5234-59.1328 44.2969-59.4141L44.2969-59.4141Q43.9453-60.3984 43.3477-61.1719Q42.7500-61.9453 41.9063-62.5078L41.9063-62.5078Q39.5859-64.0547 38.1094-65.1797Q36.6328-66.3047 35.9297-67.5000L35.9297-67.5000Q35.2266-66.2344 33.8203-65.1094Q32.4141-63.9844 30.0938-62.4375L30.0938-62.4375Q29.3203-61.8750 28.7227-61.1367Q28.1250-60.3984 27.7734-59.4844L27.7734-59.4844Q28.6875-59.2031 29.8125-58.9219Q30.9375-58.6406 32.4141-58.3594L32.4141-58.3594ZM11.8125-31.9219L11.8125-31.9219Q11.0391-32.6953 10.5117-33.6445Q9.9844-34.5938 9.7734-35.6484L9.7734-35.6484Q9.4922-37.0547 9.2461-38.1094Q9-39.1641 8.7891-40.0078L8.7891-40.0078Q7.5938-39.7266 6.6094-39.0586Q5.6250-38.3906 4.9922-37.4063L4.9922-37.4063Q3.4453-35.0859 2.3555-33.6094Q1.2656-32.1328 0-31.4297L0-31.4297Q1.2656-30.7266 2.3906-29.2852Q3.5156-27.8438 5.0625-25.5938L5.0625-25.5938Q5.6953-24.7500 6.5742-24.0820Q7.4531-23.4141 8.5078-23.1328L8.5078-23.1328Q8.8594-24.0469 9.1406-25.2773Q9.4219-26.5078 9.7734-28.1250L9.7734-28.1250Q9.9844-29.2500 10.5117-30.1992Q11.0391-31.1484 11.8125-31.9219L11.8125-31.9219ZM66.9375-37.4063L66.9375-37.4063Q66.3047-38.2500 65.4609-38.8828Q64.6172-39.5156 63.5625-39.7969L63.5625-39.7969Q63.2813-39.0234 63.0703-38.0039Q62.8594-36.9844 62.5781-35.7891L62.5781-35.7891Q62.3672-34.6641 61.8398-33.7148Q61.3125-32.7656 60.6094-31.9922L60.6094-31.9922Q61.3125-31.2188 61.8398-30.2695Q62.3672-29.3203 62.5781-28.2656L62.5781-28.2656Q62.9297-26.5078 63.2109-25.2773Q63.4922-24.0469 63.8438-23.1328L63.8438-23.1328Q64.8281-23.4844 65.6367-24.1172Q66.4453-24.7500 67.0078-25.5938L67.0078-25.5938Q68.5547-27.9141 69.6797-29.3906Q70.8047-30.8672 72-31.5703L72-31.5703Q70.7344-32.2734 69.6094-33.7148Q68.4844-35.1563 66.9375-37.4063L66.9375-37.4063ZM14.8359-47.9531L14.8359-47.9531Q15.6797-48.5156 16.7344-48.8672Q17.7891-49.2188 18.9141-49.2188L18.9141-49.2188Q18.9141-50.3438 19.2656-51.3984Q19.6172-52.4531 20.1797-53.2969L20.1797-53.2969Q20.8828-54.4219 21.4453-55.3008Q22.0078-56.1797 22.4297-56.9531L22.4297-56.9531Q21.7969-57.3047 21.0586-57.5156Q20.3203-57.7266 19.4766-57.7266L19.4766-57.7266Q19.1250-57.7266 18.8086-57.6914Q18.4922-57.6563 18.1406-57.5859L18.1406-57.5859Q15.4688-57.0234 13.6758-56.7773Q11.8828-56.5313 10.4766-56.9531L10.4766-56.9531Q10.8984-55.5469 10.6875-53.7188Q10.4766-51.8906 9.9844-49.2188L9.9844-49.2188Q9.9141-48.9375 9.8789-48.6563Q9.8438-48.3750 9.8438-48.0234L9.8438-48.0234Q9.8438-47.3203 10.0195-46.6172Q10.1953-45.9141 10.5469-45.2813L10.5469-45.2813Q11.3203-45.7031 12.3750-46.3711Q13.4297-47.0391 14.8359-47.9531L14.8359-47.9531ZM57.5156-15.9609L57.5156-15.9609Q56.6719-15.3984 55.6523-15.0469Q54.6328-14.6953 53.4375-14.6953L53.4375-14.6953Q53.4375-13.5703 53.1211-12.5156Q52.8047-11.4609 52.1719-10.6172L52.1719-10.6172Q51.2578-9.1406 50.5547-8.0508Q49.8516-6.9609 49.5000-6.0469L49.5000-6.0469Q50.1328-5.6953 50.9063-5.4844Q51.6797-5.2734 52.5234-5.2734L52.5234-5.2734Q52.8750-5.2734 53.1914-5.3086Q53.5078-5.3438 53.8594-5.4141L53.8594-5.4141Q56.5313-5.9063 58.3242-6.1875Q60.1172-6.4688 61.5234-6.0469L61.5234-6.0469Q61.1016-7.4531 61.3125-9.2461Q61.5234-11.0391 62.0156-13.7813L62.0156-13.7813Q62.0859-14.0625 62.1211-14.3438Q62.1563-14.6250 62.1563-14.9063L62.1563-14.9063Q62.1563-15.8906 61.8750-16.6992Q61.5938-17.5078 61.1719-18.2813L61.1719-18.2813Q60.3984-17.8594 59.5195-17.2617Q58.6406-16.6641 57.5156-15.9609L57.5156-15.9609ZM53.4375-49.2188L53.4375-49.2188Q54.5625-49.2188 55.6172-48.9023Q56.6719-48.5859 57.5156-47.9531L57.5156-47.9531Q58.8516-47.1094 59.8359-46.4766Q60.8203-45.8438 61.6641-45.4219L61.6641-45.4219Q61.9453-45.9844 62.0859-46.6523Q62.2266-47.3203 62.2266-48.0234L62.2266-48.0234Q62.2266-48.3750 62.1914-48.6914Q62.1563-49.0078 62.0859-49.3594L62.0859-49.3594Q61.5234-52.0313 61.2773-53.8242Q61.0313-55.6172 61.4531-57.0234L61.4531-57.0234Q60.0469-56.6016 58.2539-56.8125Q56.4609-57.0234 53.7188-57.5156L53.7188-57.5156Q53.4375-57.5859 53.1563-57.6211Q52.8750-57.6563 52.5938-57.6563L52.5938-57.6563Q51.8203-57.6563 51.1523-57.4805Q50.4844-57.3047 49.8516-57.0234L49.8516-57.0234Q50.2734-56.2500 50.8711-55.3359Q51.4688-54.4219 52.1719-53.2969L52.1719-53.2969Q52.7344-52.4531 53.0859-51.3984Q53.4375-50.3438 53.4375-49.2188L53.4375-49.2188ZM18.9141-14.6953L18.9141-14.6953Q17.7891-14.6953 16.7344-15.0117Q15.6797-15.3281 14.8359-15.9609L14.8359-15.9609Q13.5703-16.7344 12.5859-17.3672Q11.6016-18 10.8281-18.4219L10.8281-18.4219Q10.3359-17.7188 10.0547-16.8398Q9.7734-15.9609 9.7734-14.9766L9.7734-14.9766Q9.7734-14.6250 9.8086-14.3086Q9.8438-13.9922 9.9141-13.6406L9.9141-13.6406Q10.4766-10.9688 10.7227-9.1758Q10.9688-7.3828 10.5469-5.9766L10.5469-5.9766Q10.9688-6.1172 11.4258-6.1875Q11.8828-6.2578 12.3750-6.2578L12.3750-6.2578Q12.3750-6.2578 12.4102-6.2578Q12.4453-6.2578 12.5156-6.2578L12.5156-6.2578Q13.6406-6.2578 15.0469-6.0469Q16.4531-5.8359 18.2813-5.4844L18.2813-5.4844Q18.5625-5.4141 18.8438-5.3789Q19.1250-5.3438 19.4766-5.3438L19.4766-5.3438Q19.4766-5.3438 19.4766-5.3438Q19.4766-5.3438 19.4766-5.3438L19.4766-5.3438Q20.3906-5.3438 21.2344-5.6250Q22.0781-5.9063 22.7813-6.3984L22.7813-6.3984Q22.3594-7.1719 21.7266-8.2266Q21.0938-9.2813 20.1797-10.6172L20.1797-10.6172Q19.6172-11.4609 19.2656-12.5156Q18.9141-13.5703 18.9141-14.6953L18.9141-14.6953ZM41.1328-51.1172L40.9922-51.1172Q42.1875-51.3984 43.0664-51.7148Q43.9453-52.0313 44.5078-52.5234L44.5078-52.5234Q44.6484-51.7500 45.0352-50.9063Q45.4219-50.0625 46.0547-49.0781L46.0547-49.0781Q46.6875-48.6563 47.2500-48.2695Q47.8125-47.8828 48.3047-47.5313L48.3047-47.5313Q49.0781-48.0938 49.9922-48.4805Q50.9063-48.8672 51.8906-49.0078L51.8906-49.0078Q51.8906-49.0078 51.9258-49.0078Q51.9609-49.0078 51.9609-49.0078L51.9609-49.0078Q51.9609-49.9922 51.6797-50.9063Q51.3984-51.8203 50.8359-52.5234L50.8359-52.5234Q49.3594-54.8438 48.4453-56.4258Q47.5313-58.0078 47.3906-59.4141L47.3906-59.4141Q46.2656-58.5000 44.5078-58.0430Q42.7500-57.5859 40.0078-57.0234L40.0078-57.0234Q39.0938-56.8125 38.2852-56.3555Q37.4766-55.8984 36.8438-55.2656L36.8438-55.2656Q37.4063-54.4922 37.7930-53.5781Q38.1797-52.6641 38.3203-51.6797L38.3203-51.6797Q39.0938-51.5391 39.7969-51.3984Q40.5000-51.2578 41.1328-51.1172L41.1328-51.1172ZM30.7266-12.5859L30.8672-12.5859Q29.7422-12.3047 28.8984-11.9883Q28.0547-11.6719 27.4922-11.2500L27.4922-11.2500Q27.3516-11.9531 27-12.7617Q26.6484-13.5703 26.0156-14.6250L26.0156-14.6250Q25.3125-14.9766 24.7500-15.3984Q24.1875-15.8203 23.6250-16.2422L23.6250-16.2422Q22.8516-15.6797 21.9727-15.2930Q21.0938-14.9063 20.1094-14.6953L20.1094-14.6953Q20.1094-13.7109 20.3555-12.8320Q20.6016-11.9531 21.1641-11.2500L21.1641-11.2500Q22.6406-8.9297 23.5547-7.3477Q24.4688-5.7656 24.6094-4.3594L24.6094-4.3594Q25.7344-5.2031 27.4922-5.6953Q29.2500-6.1875 31.9922-6.7500L31.9922-6.7500Q32.9063-6.9609 33.7148-7.3828Q34.5234-7.8047 35.1563-8.4375L35.1563-8.4375Q34.6641-9.2109 34.2773-10.0898Q33.8906-10.9688 33.6797-11.9531L33.6797-11.9531Q32.9063-12.0938 32.1680-12.2695Q31.4297-12.4453 30.7266-12.5859L30.7266-12.5859ZM61.1016-27.8438L61.1016-27.8438Q60.9609-28.8281 60.5039-29.6367Q60.0469-30.4453 59.4141-31.0781L59.4141-31.0781Q58.6406-30.5156 57.7266-30.1289Q56.8125-29.7422 55.8984-29.5313L55.8984-29.5313Q55.7578-28.7578 55.6172-28.0547Q55.4766-27.3516 55.2656-26.6484L55.2656-26.6484Q55.5469-25.5938 55.8633-24.7500Q56.1797-23.9063 56.6719-23.3438L56.6719-23.3438Q55.8984-23.2734 55.0898-22.8867Q54.2813-22.5000 53.2266-21.8672L53.2266-21.8672Q52.8750-21.1641 52.4883-20.6016Q52.1016-20.0391 51.6797-19.4766L51.6797-19.4766Q52.2422-18.7734 52.5938-17.8594Q52.9453-16.9453 53.1563-16.0313L53.1563-16.0313Q53.1563-15.9609 53.1563-15.9609Q53.1563-15.9609 53.1563-15.9609L53.1563-15.9609Q54.1406-15.9609 55.0195-16.2422Q55.8984-16.5234 56.6719-17.0156L56.6719-17.0156Q58.9219-18.4922 60.5391-19.4063Q62.1563-20.3203 63.4922-20.5313L63.4922-20.5313Q62.6484-21.5859 62.1563-23.3789Q61.6641-25.1719 61.1016-27.8438L61.1016-27.8438ZM12.5859-32.6953L12.5859-32.6953Q13.3594-33.2578 14.2734-33.6445Q15.1875-34.0313 16.1719-34.2422L16.1719-34.2422Q16.3125-35.0156 16.4531-35.7188Q16.5938-36.4219 16.7344-37.0547L16.7344-37.0547Q16.4531-38.1094 16.1367-38.9531Q15.8203-39.7969 15.3281-40.4297L15.3281-40.4297Q16.1016-40.5000 16.9453-40.8867Q17.7891-41.2734 18.7734-41.9063L18.7734-41.9063Q19.1953-42.5391 19.5820-43.1016Q19.9688-43.6641 20.3906-44.2266L20.3906-44.2266Q19.8281-44.9297 19.4414-45.8438Q19.0547-46.7578 18.8438-47.7422L18.8438-47.7422Q18.8438-47.8125 18.8438-47.8125Q18.8438-47.8125 18.8438-47.8125L18.8438-47.8125Q17.8594-47.8125 16.9805-47.5313Q16.1016-47.2500 15.3281-46.7578L15.3281-46.7578Q13.0781-45.2109 11.4609-44.3320Q9.8438-43.4531 8.5078-43.2422L8.5078-43.2422Q9.3516-42.1172 9.8438-40.3594Q10.3359-38.6016 10.8984-35.9297L10.8984-35.9297Q11.0391-34.9453 11.4961-34.1367Q11.9531-33.3281 12.5859-32.6953L12.5859-32.6953ZM46.1250-14.6953L46.0547-14.6250Q45.4219-13.6406 45.0352-12.8320Q44.6484-12.0234 44.5781-11.2500L44.5781-11.2500Q43.9453-11.7422 43.1367-12.0234Q42.3281-12.3047 41.1328-12.5859L41.1328-12.5859Q40.0078-12.2344 38.7070-12.0586Q37.4063-11.8828 36-11.8828L36-11.8828Q36-11.8828 36-11.8828Q36-11.8828 36-11.8828L36-11.8828Q35.5078-11.8828 35.0156-11.9531L35.0156-11.9531Q35.2969-10.8281 36.3516-9.0703Q37.4063-7.3125 40.0781-6.7500L40.0781-6.7500Q42.7500-6.1875 44.5430-5.7305Q46.3359-5.2734 47.3906-4.3594L47.3906-4.3594Q47.6016-5.7656 48.5156-7.3828Q49.4297-9 50.9063-11.2500L50.9063-11.2500Q52.3828-13.5703 51.8906-15.5742Q51.3984-17.5781 50.7656-18.4922L50.7656-18.4922Q49.7813-17.3672 48.6211-16.4180Q47.4609-15.4688 46.1250-14.6953L46.1250-14.6953ZM25.8047-49.0078L25.8750-49.0078Q26.5781-50.0625 26.9648-50.9063Q27.3516-51.7500 27.4219-52.5234L27.4219-52.5234Q28.0547-52.0313 28.8984-51.7148Q29.7422-51.3984 31.0078-51.1172L31.0078-51.1172Q32.1328-51.4688 33.3984-51.6445Q34.6641-51.8203 36-51.8203L36-51.8203Q36-51.8203 36-51.8203Q36-51.8203 36-51.8203L36-51.8203Q36.4922-51.8203 36.9844-51.7500L36.9844-51.7500Q36.7734-52.8047 35.7188-54.5977Q34.6641-56.3906 31.9219-57.0234L31.9219-57.0234Q29.2500-57.5859 27.4570-58.0430Q25.6641-58.5000 24.6094-59.4141L24.6094-59.4141Q24.3984-58.0078 23.4844-56.3906Q22.5703-54.7734 21.0938-52.4531L21.0938-52.4531Q19.5469-50.1328 20.1094-48.1289Q20.6719-46.1250 21.2344-45.2109L21.2344-45.2109Q22.2188-46.3359 23.3789-47.2852Q24.5391-48.2344 25.8047-49.0078L25.8047-49.0078ZM18.8438-21.7266L18.7734-21.7969Q17.7188-22.4297 16.9102-22.8164Q16.1016-23.2031 15.3984-23.3438L15.3984-23.3438Q15.8203-23.9063 16.1367-24.7500Q16.4531-25.5938 16.7344-26.7891L16.7344-26.7891Q16.3828-27.9141 16.2070-29.2148Q16.0313-30.5156 16.0313-31.8516L16.0313-31.8516Q16.0313-32.3438 16.0313-32.8359L16.0313-32.8359Q15.0469-32.6250 13.2539-31.5703Q11.4609-30.5156 10.8984-27.7734L10.8984-27.7734Q10.2656-25.1016 9.8086-23.3438Q9.3516-21.5859 8.5078-20.4609L8.5078-20.4609Q9.8438-20.3203 11.4609-19.4063Q13.0781-18.4922 15.3984-16.9453L15.3984-16.9453Q17.7188-15.4688 19.6875-15.9961Q21.6563-16.5234 22.5703-17.0859L22.5703-17.0859Q21.5156-18.0703 20.5313-19.2656Q19.5469-20.4609 18.8438-21.7266L18.8438-21.7266ZM53.0859-42.0469L53.1563-41.9766Q54.2109-41.3438 55.0547-40.9570Q55.8984-40.5703 56.6016-40.4297L56.6016-40.4297Q56.1797-39.8672 55.8633-38.9883Q55.5469-38.1094 55.2656-36.9844L55.2656-36.9844Q55.6172-35.7891 55.7930-34.4883Q55.9688-33.1875 55.9688-31.8516L55.9688-31.8516Q55.9688-31.8516 55.9688-31.8516Q55.9688-31.8516 55.9688-31.8516L55.9688-31.8516Q55.9688-31.5703 55.9336-31.3594Q55.8984-31.1484 55.8984-30.8672L55.8984-30.8672Q56.9531-31.1484 58.7461-32.2031Q60.5391-33.2578 61.1016-35.9297L61.1016-35.9297Q61.6641-38.6719 62.1563-40.4297Q62.6484-42.1875 63.4922-43.3125L63.4922-43.3125Q62.0859-43.4531 60.5039-44.3672Q58.9219-45.2813 56.6016-46.7578L56.6016-46.7578Q54.2109-48.3047 52.2070-47.7773Q50.2031-47.2500 49.2891-46.6172L49.2891-46.6172Q50.4141-45.6328 51.3633-44.4727Q52.3125-43.3125 53.0859-42.0469L53.0859-42.0469ZM44.2266-51.3984L44.1563-51.4688Q43.7344-51.1172 43.2070-50.8711Q42.6797-50.6250 42.1172-50.4844L42.1172-50.4844Q42.9609-50.2031 43.6992-49.8867Q44.4375-49.5703 45.1406-49.2188L45.1406-49.2188Q44.7188-49.7109 44.5078-50.2734Q44.2969-50.8359 44.2266-51.3984L44.2266-51.3984ZM27.9141-12.0938L27.9141-12.0938Q28.4063-12.4453 28.9688-12.6914Q29.5313-12.9375 30.3047-13.1484L30.3047-13.1484Q29.3203-13.4297 28.5117-13.7813Q27.7031-14.1328 26.8594-14.5547L26.8594-14.5547Q27.3516-13.8516 27.5977-13.2539Q27.8438-12.6563 27.9141-12.0938ZM55.7578-23.6250L55.7578-23.6250Q55.4063-24.1172 55.1602-24.7148Q54.9141-25.3125 54.7031-26.0156L54.7031-26.0156Q54.3516-25.1016 54-24.2227Q53.6484-23.3438 53.2266-22.5703L53.2266-22.5703Q53.9297-23.0625 54.5625-23.3086Q55.1953-23.5547 55.7578-23.6250ZM16.3828-39.9375L16.3828-39.9375Q16.7344-39.4453 16.9805-38.9180Q17.2266-38.3906 17.3672-37.8281L17.3672-37.8281Q17.6484-38.6719 17.9297-39.4102Q18.2109-40.1484 18.5625-40.8516L18.5625-40.8516Q18.0703-40.4297 17.5430-40.2188Q17.0156-40.0078 16.3828-39.9375L16.3828-39.9375ZM44.2266-12.0938L44.2266-12.0938Q44.2969-12.6563 44.5430-13.2891Q44.7891-13.9219 45.2109-14.6250L45.2109-14.6250Q44.5078-14.2031 43.6641-13.8516Q42.8203-13.5000 41.9063-13.2188L41.9063-13.2188Q42.6094-13.0078 43.2070-12.7266Q43.8047-12.4453 44.2266-12.0938L44.2266-12.0938ZM27.8438-51.4688L27.9141-51.4688Q27.7734-50.8359 27.5977-50.3086Q27.4219-49.7813 27.0703-49.2891L27.0703-49.2891Q27.7031-49.6406 28.4063-49.9219Q29.1094-50.2031 29.8125-50.4141L29.8125-50.4141Q29.3203-50.6250 28.8281-50.8711Q28.3359-51.1172 27.8438-51.4688L27.8438-51.4688ZM16.3828-23.6250L16.3828-23.6250Q16.9453-23.5547 17.5078-23.3438Q18.0703-23.1328 18.7031-22.7109L18.7031-22.7109Q18.3516-23.4141 18.0352-24.1523Q17.7188-24.8906 17.4375-25.6641L17.4375-25.6641Q17.2266-25.1016 16.9805-24.5742Q16.7344-24.0469 16.3828-23.6250ZM55.7578-39.9375L55.7578-39.9375Q55.1953-40.0078 54.6328-40.2539Q54.0703-40.5000 53.3672-40.8516L53.3672-40.8516Q53.7188-40.1484 54.0703-39.3750Q54.4219-38.6016 54.6328-37.8281L54.6328-37.8281Q54.9141-38.3906 55.1602-38.9531Q55.4063-39.5156 55.7578-39.9375L55.7578-39.9375ZM54.7734-31.8516L54.7734-31.8516Q54.7734-35.7891 53.2969-39.1641L53.2969-39.1641Q51.8203-42.6094 49.2891-45.1406Q46.7578-47.6719 43.3828-49.1484L43.3828-49.1484Q39.9375-50.6250 36.0703-50.6250L36.0703-50.6250Q32.2031-50.6250 28.7578-49.1484L28.7578-49.1484Q25.3828-47.6719 22.8164-45.1406Q20.2500-42.6094 18.7734-39.1641L18.7734-39.1641Q17.2969-35.7891 17.2969-31.8516L17.2969-31.8516Q17.2969-27.9844 18.7734-24.6094L18.7734-24.6094Q20.2500-21.1641 22.8164-18.6328Q25.3828-16.1016 28.7578-14.6250L28.7578-14.6250Q32.2031-13.1484 36.0703-13.1484L36.0703-13.1484Q39.9375-13.1484 43.3828-14.6250L43.3828-14.6250Q46.7578-16.1016 49.2891-18.6328Q51.8203-21.1641 53.2969-24.6094L53.2969-24.6094Q54.7734-27.9844 54.7734-31.8516L54.7734-31.8516ZM46.8984-22.1484L46.8984-22.1484Q42.9609-20.6016 41.8008-22.6758Q40.6406-24.7500 40.5000-26.2266L40.5000-26.2266Q40.3594-27.7031 40.6055-29.2500Q40.8516-30.7969 40.3594-31.0781L40.3594-31.0781Q39.7969-31.4297 38.2852-30.7617Q36.7734-30.0938 37.1250-29.0391L37.1250-29.0391Q37.4063-27.9844 38.4258-26.5781Q39.4453-25.1719 39.0234-22.5703L39.0234-22.5703Q38.6016-19.9688 36.4219-18.2109Q34.2422-16.4531 31.7109-17.0156L31.7109-17.0156Q29.1797-17.5781 26.9297-18.9141Q24.6797-20.2500 22.7109-23.4844L22.7109-23.4844Q20.8125-26.7188 20.8477-29.3555Q20.8828-31.9922 22.2188-31.9922L22.2188-31.9922Q23.0625-31.9922 23.1328-30.7969Q23.2031-29.6016 23.2734-28.8984L23.2734-28.8984Q23.3438-28.1250 24.3633-25.2773Q25.3828-22.4297 28.2656-20.8828L28.2656-20.8828Q31.1484-19.4063 33.6797-20.4258Q36.2109-21.4453 35.9297-23.8359L35.9297-23.8359Q35.6484-26.1563 34.8398-28.1953Q34.0313-30.2344 33.6094-30.2344L33.6094-30.2344Q33.1875-30.2344 31.8867-28.5820Q30.5859-26.9297 29.7422-27.0703L29.7422-27.0703Q28.8984-27.2813 29.0039-27.9844Q29.1094-28.6875 28.9688-29.3203L28.9688-29.3203Q28.8984-29.8828 28.7930-30.5156Q28.6875-31.1484 29.7422-31.8516L29.7422-31.8516Q30.7969-32.5547 31.5703-34.3828Q32.3438-36.2109 31.7813-36.9141L31.7813-36.9141Q31.2188-37.6875 30.1289-37.5117Q29.0391-37.3359 28.3359-36.8438L28.3359-36.8438Q27.6328-36.3516 27.2461-36.0703Q26.8594-35.7891 26.4375-36.2109L26.4375-36.2109Q26.2266-36.4922 26.0156-36.8086Q25.8047-37.1250 25.5938-37.4766L25.5938-37.4766Q25.1016-38.1797 24.7500-38.6016Q24.3984-39.0234 24.7500-39.5859L24.7500-39.5859Q25.1016-40.1484 26.7539-40.6406Q28.4063-41.1328 29.8125-40.7813L29.8125-40.7813Q31.2188-40.4297 32.5195-39.5156Q33.8203-38.6016 34.1719-36.9844L34.1719-36.9844Q34.5234-35.3672 34.2422-33.7852Q33.9609-32.2031 34.3828-31.9219L34.3828-31.9219Q34.8047-31.6406 37.0547-33.1172Q39.3047-34.5938 40.9219-33.6094L40.9219-33.6094Q42.4688-32.6250 42.6797-31.2539Q42.8906-29.8828 42.9609-28.8984L42.9609-28.8984Q42.9609-27.9141 43.2070-26.1211Q43.4531-24.3281 45-24.1875L45-24.1875Q46.4766-24.0469 47.4609-26.0508Q48.4453-28.0547 48.3750-29.8828L48.3750-29.8828Q48.4453-31.9219 48.0938-33.3633Q47.7422-34.8047 45.9141-35.1563L45.9141-35.1563Q44.3672-35.5078 43.0313-34.6992Q41.6953-33.8906 40.9219-34.2422L40.9219-34.2422Q40.1484-34.6641 40.8867-36.4219Q41.6250-38.1797 43.6641-38.6719L43.6641-38.6719Q45.7734-39.1641 47.9180-37.7930Q50.0625-36.4219 50.6250-34.0313L50.6250-34.0313Q51.2578-31.6406 51.0469-27.6680Q50.8359-23.6953 46.8984-22.1484L46.8984-22.1484ZM36.3516-47.4609L36.3516-47.4609Q37.0547-47.5313 37.6523-46.7578Q38.2500-45.9844 38.2500-45.6328L38.2500-45.6328Q38.2500-45.2813 37.5820-44.6133Q36.9141-43.9453 36.5625-43.9453L36.5625-43.9453Q36.2109-43.9453 35.4727-44.5781Q34.7344-45.2109 34.7344-45.6328L34.7344-45.6328Q34.8047-46.0547 35.3672-46.7227Q35.9297-47.3906 36.3516-47.4609ZM39.9375-39.0234L39.9375-39.0234Q38.2500-38.8125 36.0703-39.6914Q33.8906-40.5703 32.9766-41.4141L32.9766-41.4141Q32.0625-42.3281 31.5703-42.9609Q31.0781-43.5938 31.2891-43.9453L31.2891-43.9453Q31.7813-44.5781 33.0117-43.5234Q34.2422-42.4688 36.0703-42.4688L36.0703-42.4688Q38.3906-42.4688 39.2344-43.3125Q40.0781-44.1563 40.5000-44.0859L40.5000-44.0859Q40.9219-44.0859 41.4492-43.6289Q41.9766-43.1719 41.9766-43.1719L41.9766-43.1719Q41.9766-43.1719 42.4336-42.8555Q42.8906-42.5391 42.9609-42.3281L42.9609-42.3281Q42.9609-42.0469 42.3281-40.6758Q41.6953-39.3047 39.9375-39.0234L39.9375-39.0234Z"/></svg>