<svg width="74" height="74" viewBox="-1 -69 74 74" fill="#074b7c" xmlns="http://www.w3.org/2000/svg"><path d="M52.5234-4.9219L53.5078-4.9219L53.2266-5.4844Q52.8750-5.2031 52.5234-4.9219L52.5234-4.9219ZM5.5547-19.6875L5.5547-19.6875L5.3438-19.3359L5.6250-19.3359Q5.6250-19.4766 5.5898-19.5469Q5.5547-19.6172 5.5547-19.6875L5.5547-19.6875ZM9.4219-11.5313L9.3516-11.6719L7.6641-8.7891Q8.4375-7.7344 9.2461-6.8203Q10.0547-5.9063 10.8984-5.0625L10.8984-5.0625L11.0391-4.9219L15.5391-4.9219Q13.7109-6.3281 12.1992-8.0156Q10.6875-9.7031 9.4219-11.5313L9.4219-11.5313ZM31.2188-57.7969L31.3594-57.7969L29.7422-60.5391L29.1797-60.4688L27.2109-57.0938Q28.0547-57.3047 29.1094-57.4805Q30.1641-57.6563 31.2188-57.7969L31.2188-57.7969ZM64.0547-15.2578L64.1250-15.4688L64.1953-15.6094L62.2266-18.9141Q61.5938-16.8750 60.7148-15.1172Q59.8359-13.3594 58.7813-11.7422L58.7813-11.7422L62.2969-11.8828Q62.7188-12.5859 63.1758-13.4648Q63.6328-14.3438 64.0547-15.2578L64.0547-15.2578ZM61.6641-10.8281L58.2188-10.9688Q57.3047-9.6328 56.2852-8.5078Q55.2656-7.3828 54.1406-6.3281L54.1406-6.3281L55.5469-3.9375L51.1875-3.9375Q47.6016-1.3359 43.2070 0.1055Q38.8125 1.5469 34.0313 1.5469L34.0313 1.5469Q29.1797 1.5469 24.7852 0.0703Q20.3906-1.4063 16.7344-4.0078L16.7344-4.0078L12.0938-3.9375Q14.2734-1.9688 16.7344-0.4219L16.7344-0.4219Q19.2656 1.1250 22.0430 2.2148Q24.8203 3.3047 27.8438 3.9375L27.8438 3.9375Q30.8672 4.5000 34.0313 4.5000L34.0313 4.5000Q38.3906 4.5000 42.4688 3.3750L42.4688 3.3750Q46.4766 2.3203 50.0273 0.3164Q53.5781-1.6875 56.5313-4.5703L56.5313-4.5703Q59.4844-7.3828 61.6641-10.8281L61.6641-10.8281ZM7.1016-9.6328L7.0313-9.7031L8.6484-12.6563Q7.8750-13.9219 7.1719-15.3633Q6.4688-16.8047 5.9766-18.3516L5.9766-18.3516L3.3047-18.5625L5.0625-21.5156Q4.7109-22.9922 4.5000-24.6797Q4.2891-26.3672 4.2891-28.1250L4.2891-28.1250Q4.2891-33.1875 5.8359-37.6875L5.8359-37.6875Q7.3828-42.2578 10.1953-45.9844Q13.0078-49.7109 16.8047-52.3828L16.8047-52.3828Q20.6719-55.1250 25.1719-56.5313L25.1719-56.5313L27.4922-60.1875Q21.8672-58.9922 17.0156-56.1094L17.0156-56.1094Q12.2344-53.1563 8.7539-48.9023Q5.2734-44.6484 3.3047-39.3750L3.3047-39.3750Q1.3359-34.1016 1.3359-28.1953L1.3359-28.1953Q1.3359-22.9922 2.8477-18.2813Q4.3594-13.5703 7.1016-9.6328L7.1016-9.6328ZM31.1484-60.7500L32.7656-57.8672Q33.0469-57.8672 33.3633-57.8672Q33.6797-57.8672 34.0313-57.8672L34.0313-57.8672Q40.1484-57.8672 45.5625-55.5469L45.5625-55.5469Q50.9766-53.2266 55.0195-49.1836Q59.0625-45.1406 61.3828-39.7266L61.3828-39.7266Q63.7031-34.3125 63.7031-28.1953L63.7031-28.1953Q63.7031-26.1563 63.4570-24.2227Q63.2109-22.2891 62.7188-20.4609L62.7188-20.4609L64.7578-17.2266Q65.6719-19.6172 66.1641-22.4297Q66.6563-25.2422 66.6563-28.1953L66.6563-28.1953Q66.6563-34.9453 64.1250-40.9219L64.1250-40.9219Q61.5234-46.8281 57.0938-51.2578Q52.6641-55.6875 46.7578-58.2891L46.7578-58.2891Q40.7813-60.8203 34.0313-60.8203L34.0313-60.8203Q34.0313-60.8203 34.0313-60.8203Q34.0313-60.8203 33.9609-60.8203L33.9609-60.8203Q33.2578-60.8203 32.5547-60.7852Q31.8516-60.7500 31.1484-60.7500L31.1484-60.7500ZM40.8516-11.8828L40.8516-11.8828L37.2656-17.9297L28.2656-17.9297L32.7656-25.8047L29.3906-31.7109L25.5938-25.2422L17.8594-11.8828L40.8516-11.8828ZM34.1016-26.2969L34.1016-26.2969L40.8516-26.2969L29.4609-45.9844L17.8594-26.2969L24.5391-26.2969L29.3906-34.5938L34.1016-26.2969ZM42.1172-39.0938L42.1172-39.0938L38.6016-33.0469L43.3828-24.8906L33.8906-24.8906L30.7266-19.3359L53.5078-19.3359L42.1172-39.0938ZM23.6953-24.8906L23.6953-24.8906L15.3984-24.8906L29.4609-48.8672L33.6094-41.6953L37.1250-47.7422L29.4609-61.0313L5.3438-19.3359L20.5313-19.3359L23.6953-24.8906ZM37.7578-34.5234L37.7578-34.5234L42.1172-41.9766L56.0391-17.9297L47.6719-17.9297L51.1875-11.8828L66.3750-11.8828L42.2578-53.5078L34.4531-40.2891L37.7578-34.5234ZM38.9531-17.9297L38.9531-17.9297L43.3828-10.4063L15.3984-10.4063L19.6875-17.9297L12.9375-17.9297L5.4141-4.9219L53.5078-4.9219L45.9844-17.9297L38.9531-17.9297ZM54.8438-9L71.7891-9L42.3281-59.6953L37.8984-52.6641L29.4609-67.5000L0-16.5938L8.7188-16.5938L0.4922-2.0391L58.8516-2.0391L54.8438-9ZM55.5469-3.9375L3.7969-3.9375L12.0234-18.5625L3.3047-18.5625L29.4609-63.6328L37.7578-48.9375L42.1875-55.9688L68.4141-10.9688L51.4688-10.9688L55.5469-3.9375Z"/></svg>