<svg width="73" height="74" viewBox="-1 -69 73 74" fill="#808080" xmlns="http://www.w3.org/2000/svg"><path fill="#e6d200" d="M34.5938-33.5391L36.2109-39.1641L39.3047-36.0703L43.0313-39.8672L39.1641-43.7344L52.1016-56.6719L56.3906-52.3828L53.7188-67.5000L34.5938-48.3047L30.5859-52.3125L26.7891-48.5859L29.9531-45.3516L24.3281-43.7344L0-9.1406L34.5938-33.5391ZM33.7500-40.9219L32.9766-38.1797L19.6875-28.8281L29.0391-42.1172L31.7109-42.8906L33.7500-40.9219ZM66.4453-42.9609L70.7344-38.7422L68.1328-53.8594L48.9375-34.6641L44.9297-38.6719L41.1328-34.9453L44.3672-31.7109L38.7422-30.0938L14.3438 4.5000L48.9375-19.8281L50.6250-25.4531L53.6484-22.4297L57.4453-26.1563L53.5781-30.0938L66.4453-42.9609ZM48.0938-27.2109L47.3203-24.5391L34.0313-15.1875L43.3828-28.4766L46.1250-29.2500L48.0938-27.2109ZM57.6563-57.6563L58.6406-51.8203Q59.6953-50.6953 60.6094-49.4297L60.6094-49.4297L63.0703-51.8906Q61.8750-53.5078 60.5039-54.9492Q59.1328-56.3906 57.6563-57.6563L57.6563-57.6563ZM10.3359-13.6406L10.2656-13.7109L7.3828-11.7422Q9.3516-9.0703 11.6719-6.8203Q13.9922-4.5703 16.6641-2.8125L16.6641-2.8125L18.8438-5.6250Q16.2422-7.2422 14.1328-9.2461Q12.0234-11.2500 10.3359-13.6406L10.3359-13.6406ZM69.2578-37.3359L66.4453-39.9375L65.3906-38.8125Q65.8125-37.1953 66.0234-35.3672Q66.2344-33.5391 66.2344-31.5703L66.2344-31.5703Q66.2344-25.2422 63.8438-19.6172L63.8438-19.6172Q61.3828-13.9922 57.1992-9.8086Q53.0156-5.6250 47.3906-3.1641L47.3906-3.1641Q41.7656-0.7734 35.3672-0.7734L35.3672-0.7734Q35.3672-0.7734 35.3672-0.7734Q35.3672-0.7734 35.3672-0.7734L35.3672-0.7734Q33.1875-0.7734 31.0781-1.0547Q28.9688-1.3359 26.9297-1.8984L26.9297-1.8984L23.6250 0.6328Q26.2266 1.6172 29.2148 2.1797Q32.2031 2.7422 35.3672 2.7422L35.3672 2.7422Q35.3672 2.7422 35.3672 2.7422Q35.3672 2.7422 35.3672 2.7422L35.3672 2.7422Q42.4688 2.7422 48.7266 0L48.7266 0Q54.9844-2.6719 59.6602-7.3477Q64.3359-12.0234 67.0078-18.2813L67.0078-18.2813Q69.7500-24.5391 69.7500-31.6406L69.7500-31.6406Q69.7500-31.6406 69.7500-31.6406Q69.7500-31.6406 69.7500-31.6406L69.7500-31.6406Q69.7500-33.1172 69.6094-34.5234Q69.4688-35.9297 69.2578-37.3359L69.2578-37.3359ZM3.8672-18.0703L6.1875-21.7266Q5.4141-23.9063 4.9570-26.4023Q4.5000-28.8984 4.5000-31.5703L4.5000-31.5703Q4.5000-31.5703 4.5000-31.5703Q4.5000-31.5703 4.5000-31.6406L4.5000-31.6406Q4.5000-37.9688 6.9609-43.5938L6.9609-43.5938Q9.4219-49.2188 13.6055-53.4023Q17.7891-57.5859 23.4141-60.0469L23.4141-60.0469Q29.0391-62.4375 35.3672-62.4375L35.3672-62.4375Q35.4375-62.4375 35.4375-62.4375Q35.4375-62.4375 35.4375-62.4375L35.4375-62.4375Q37.8281-62.4375 40.1133-62.0859Q42.3984-61.7344 44.5078-61.1016L44.5078-61.1016L47.0391-63.9141Q44.4375-64.8984 41.5195-65.4258Q38.6016-65.9531 35.4375-65.9531L35.4375-65.9531Q35.4375-65.9531 35.4375-65.9531Q35.4375-65.9531 35.3672-65.9531L35.3672-65.9531Q28.2656-65.9531 22.0078-63.2109L22.0078-63.2109Q15.8203-60.5391 11.1445-55.8633Q6.4688-51.1875 3.7266-44.9297L3.7266-44.9297Q1.0547-38.6719 1.0547-31.6406L1.0547-31.6406Q1.0547-31.5703 1.0547-31.5703Q1.0547-31.5703 1.0547-31.5703L1.0547-31.5703Q1.0547-27.9844 1.7930-24.5742Q2.5313-21.1641 3.8672-18.0703L3.8672-18.0703Z"/></svg>